<svg xmlns="http://www.w3.org/2000/svg" viewBox="0 0 128.5 40"><path d="M124.48,40H4a4,4,0,0,1-4-4V4A4,4,0,0,1,4,0H124.48a4,4,0,0,1,4,4V36A4,4,0,0,1,124.48,40Z"/><path d="M27.11,19.8a5.8,5.8,0,0,1,2.71-4.7,6.28,6.28,0,0,0-4.52-2.5c-1.91-.2-3.82,1.1-4.72,1.1s-2.51-1.1-4.12-1.1a6,6,0,0,0-5.12,3.1c-2.2,3.8-.6,9.4,1.51,12.5,1.1,1.5,2.31,3.2,3.92,3.1s2.2-1,4.11-1,2.41,1,4.12,1,2.81-1.5,3.81-3a11.35,11.35,0,0,0,1.71-3.5A5.53,5.53,0,0,1,27.11,19.8Z" fill="#fff"/><path d="M24,10.6a6.15,6.15,0,0,0,1.31-4,5.4,5.4,0,0,0-3.62,1.9,5.06,5.06,0,0,0-1.3,3.8A4.77,4.77,0,0,0,24,10.6Z" fill="#fff"/><path d="M50,31.1h-2.2l-1.21-3.8H42.36l-1.1,3.8H39.15l4.22-12.9H46Zm-3.81-5.4-1.1-3.4c-.1-.3-.31-1.2-.71-2.4h0c-.1.5-.3,1.4-.6,2.4l-1.1,3.4Z" fill="#fff"/><path d="M60.74,26.4a5.33,5.33,0,0,1-1.31,3.8,3.87,3.87,0,0,1-2.91,1.2,2.74,2.74,0,0,1-2.61-1.3h0V35H51.8V25c0-1,0-2-.1-3.1h1.81l.1,1.5h0a3.46,3.46,0,0,1,3.11-1.7A3.24,3.24,0,0,1,59.43,23,4.24,4.24,0,0,1,60.74,26.4Zm-2.11,0a3.59,3.59,0,0,0-.6-2.2,2,2,0,0,0-1.81-.9,2.42,2.42,0,0,0-1.41.5,2.22,2.22,0,0,0-.8,1.3,1.76,1.76,0,0,0-.1.6v1.6a2.52,2.52,0,0,0,.6,1.7,2,2,0,0,0,1.61.7,2,2,0,0,0,1.81-.9A3.61,3.61,0,0,0,58.63,26.4Z" fill="#fff"/><path d="M71.48,26.4a5.29,5.29,0,0,1-1.31,3.8,3.85,3.85,0,0,1-2.91,1.2,2.74,2.74,0,0,1-2.61-1.3h0V35H62.54V25c0-1,0-2-.1-3.1h1.81l.1,1.5h0a3.46,3.46,0,0,1,3.11-1.7A3.23,3.23,0,0,1,70.17,23,4.21,4.21,0,0,1,71.48,26.4Zm-2.11,0a3.59,3.59,0,0,0-.6-2.2A2,2,0,0,0,67,23.3a2.39,2.39,0,0,0-1.4.5,2.19,2.19,0,0,0-.81,1.3,1.76,1.76,0,0,0-.1.6v1.6a2.52,2.52,0,0,0,.6,1.7,2.24,2.24,0,0,0,3.42-.2A3.61,3.61,0,0,0,69.37,26.4Z" fill="#fff"/><path d="M83.53,27.5a3.7,3.7,0,0,1-1.11,2.7,4.79,4.79,0,0,1-3.51,1.1,6.26,6.26,0,0,1-3.32-.8l.51-1.7a6.12,6.12,0,0,0,3,.8,3,3,0,0,0,1.8-.5,1.79,1.79,0,0,0,.61-1.4,1.9,1.9,0,0,0-.5-1.3,5.16,5.16,0,0,0-1.81-1c-2.31-.8-3.42-2.1-3.42-3.7A3.23,3.23,0,0,1,77,19.1a4.58,4.58,0,0,1,3.21-1,6.25,6.25,0,0,1,2.91.6l-.5,1.7a4.88,4.88,0,0,0-2.51-.6,2.86,2.86,0,0,0-1.7.5,1.63,1.63,0,0,0-.51,1.2,1.74,1.74,0,0,0,.61,1.3,7.76,7.76,0,0,0,1.9,1,6.71,6.71,0,0,1,2.51,1.6A4,4,0,0,1,83.53,27.5Z" fill="#fff"/><path d="M90.35,23.4H88v4.5c0,1.1.4,1.7,1.21,1.7a2.22,2.22,0,0,0,.9-.1l.1,1.6a3.69,3.69,0,0,1-1.61.2,2.35,2.35,0,0,1-1.9-.7A3.4,3.4,0,0,1,86,28.1V23.4h-1.4V21.8H86V20.1l2-.6v2.3h2.31Z" fill="#fff"/><path d="M100.69,26.4a5.13,5.13,0,0,1-1.2,3.5,4.64,4.64,0,0,1-3.42,1.4,4.24,4.24,0,0,1-3.31-1.4,4.87,4.87,0,0,1-1.2-3.4,4.75,4.75,0,0,1,1.3-3.5,4.46,4.46,0,0,1,3.41-1.4A4.27,4.27,0,0,1,99.59,23,5.33,5.33,0,0,1,100.69,26.4Zm-2.21.1a3.8,3.8,0,0,0-.6-2.2,2.2,2.2,0,0,0-3.81,0,4,4,0,0,0-.61,2.2,3.73,3.73,0,0,0,.61,2.2A2.14,2.14,0,0,0,96,29.8a2.27,2.27,0,0,0,1.91-1.1A4,4,0,0,0,98.48,26.5Z" fill="#fff"/><path d="M107.42,23.6c-.2,0-.4-.1-.7-.1a2.14,2.14,0,0,0-1.71.8,3.45,3.45,0,0,0-.5,1.8V31H102.4V24.6a26.22,26.22,0,0,0-.1-2.9h1.81l.1,1.8h.1a4,4,0,0,1,1-1.5,3,3,0,0,1,1.51-.5h.5v2.1Z" fill="#fff"/><path d="M116.65,26a2.22,2.22,0,0,1-.1.9h-6.22a2.58,2.58,0,0,0,.9,2.1,3.25,3.25,0,0,0,2,.7,6.62,6.62,0,0,0,2.51-.4l.3,1.4a7.5,7.5,0,0,1-3.11.6,4.38,4.38,0,0,1-3.41-1.3,4.67,4.67,0,0,1-1.21-3.4,5.57,5.57,0,0,1,1.11-3.5,4,4,0,0,1,3.31-1.5,3.34,3.34,0,0,1,3,1.5A4.2,4.2,0,0,1,116.65,26Zm-1.9-.5a2.86,2.86,0,0,0-.41-1.6,1.8,1.8,0,0,0-1.6-.9,2,2,0,0,0-1.61.8,3.82,3.82,0,0,0-.6,1.6h4.22Z" fill="#fff"/><path d="M45.58,10.3a3.23,3.23,0,0,1-1,2.6,4.15,4.15,0,0,1-2.71.8,6.62,6.62,0,0,1-1.5-.1V7.4a9.72,9.72,0,0,1,1.8-.1,3.74,3.74,0,0,1,2.51.7A3.2,3.2,0,0,1,45.58,10.3Zm-1.11,0a2.35,2.35,0,0,0-.6-1.7A2.36,2.36,0,0,0,42.16,8a2,2,0,0,0-.8.1v4.7h.7a2.45,2.45,0,0,0,1.81-.6A2.71,2.71,0,0,0,44.47,10.3Z" fill="#fff"/><path d="M51.2,11.3a2.35,2.35,0,0,1-.6,1.7,2.08,2.08,0,0,1-1.71.7,1.9,1.9,0,0,1-1.61-.7,2.35,2.35,0,0,1-.6-1.7,2.35,2.35,0,0,1,.6-1.7A2.09,2.09,0,0,1,49,8.9a1.88,1.88,0,0,1,1.61.7A2.35,2.35,0,0,1,51.2,11.3Zm-1,0a2,2,0,0,0-.31-1.1.87.87,0,0,0-.9-.5,1.05,1.05,0,0,0-.9.5,2.17,2.17,0,0,0,0,2.2.87.87,0,0,0,.9.5,1,1,0,0,0,.9-.6A1.49,1.49,0,0,0,50.2,11.3Z" fill="#fff"/><path d="M58.93,9l-1.41,4.6h-.9l-.6-2a8.33,8.33,0,0,1-.4-1.5h0a7.61,7.61,0,0,1-.41,1.5l-.6,2h-.9L52.2,9h1l.5,2.2.3,1.5h0c.1-.4.2-.9.4-1.5L55,9h.81l.6,2.1a8.33,8.33,0,0,1,.4,1.5h0l.3-1.5.6-2.1Z" fill="#fff"/><path d="M64.15,13.6h-1V11c0-.8-.31-1.2-.91-1.2a.91.91,0,0,0-.7.3,1.14,1.14,0,0,0-.3.8v2.7h-1V9h.91v.7h0a2.65,2.65,0,0,1,.5-.6,1.61,1.61,0,0,1,.9-.3,1.53,1.53,0,0,1,1.11.4,1.72,1.72,0,0,1,.5,1.5Z" fill="#fff"/><path d="M67,13.6H66V6.9h1Z" fill="#fff"/><path d="M73,11.3a2.35,2.35,0,0,1-.6,1.7,2.06,2.06,0,0,1-1.7.7,1.87,1.87,0,0,1-1.61-.7,2.35,2.35,0,0,1-.6-1.7,2.35,2.35,0,0,1,.6-1.7,2.42,2.42,0,0,1,1.71-.7,1.86,1.86,0,0,1,1.6.7A2.35,2.35,0,0,1,73,11.3Zm-1,0a2,2,0,0,0-.3-1.1.87.87,0,0,0-.9-.5,1.05,1.05,0,0,0-.91.5,2.17,2.17,0,0,0,0,2.2.88.88,0,0,0,.91.5,1,1,0,0,0,.9-.6A1.49,1.49,0,0,0,72,11.3Z" fill="#fff"/><path d="M77.9,13.6H77l-.1-.5h0a1.62,1.62,0,0,1-1.31.6,1.16,1.16,0,0,1-1-.4,1.8,1.8,0,0,1-.4-.9,1.36,1.36,0,0,1,.7-1.3,3.78,3.78,0,0,1,2-.4v-.1a.8.8,0,0,0-.9-.9,2.39,2.39,0,0,0-1.21.3l-.2-.7a2.55,2.55,0,0,1,1.61-.4c1.2,0,1.8.6,1.8,1.9v1.7A4.91,4.91,0,0,0,77.9,13.6Zm-1-1.6v-.7c-1.11,0-1.71.3-1.71.9a.68.68,0,0,0,.71.7,1.42,1.42,0,0,0,.6-.2,1,1,0,0,0,.4-.5Z" fill="#fff"/><path d="M83.73,13.6h-.91v-.7h0a1.48,1.48,0,0,1-1.5.8,1.82,1.82,0,0,1-1.41-.6,2.31,2.31,0,0,1-.5-1.7A2.79,2.79,0,0,1,80,9.6,2,2,0,0,1,81.42,9a1.49,1.49,0,0,1,1.3.6h0V7h1v6.6Zm-1-1.9V10.6a2.09,2.09,0,0,0-.4-.6.84.84,0,0,0-.7-.2,1.07,1.07,0,0,0-.91.5,2.13,2.13,0,0,0-.3,1.2,1.8,1.8,0,0,0,.3,1.1,1.07,1.07,0,0,0,.91.5.91.91,0,0,0,.8-.4A2.24,2.24,0,0,0,82.72,11.7Z" fill="#fff"/><path d="M92.46,11.3a2.35,2.35,0,0,1-.6,1.7,2.08,2.08,0,0,1-1.71.7,1.9,1.9,0,0,1-1.61-.7,2.35,2.35,0,0,1-.6-1.7,2.35,2.35,0,0,1,.6-1.7,2.09,2.09,0,0,1,1.71-.7,1.88,1.88,0,0,1,1.61.7A2.35,2.35,0,0,1,92.46,11.3Zm-1.1,0a1.94,1.94,0,0,0-.31-1.1.87.87,0,0,0-.9-.5,1.05,1.05,0,0,0-.9.5,2.17,2.17,0,0,0,0,2.2.87.87,0,0,0,.9.5,1,1,0,0,0,.9-.6A1.44,1.44,0,0,0,91.36,11.3Z" fill="#fff"/><path d="M98,13.6H97V11c0-.8-.3-1.2-.91-1.2a.91.91,0,0,0-.7.3,1.14,1.14,0,0,0-.3.8v2.7h-1V9H95v.7h0a2.65,2.65,0,0,1,.5-.6,1.62,1.62,0,0,1,.91-.3,1.5,1.5,0,0,1,1.1.4,1.72,1.72,0,0,1,.5,1.5Z" fill="#fff"/><path d="M104.81,9.8H103.7V12c0,.6.2.8.61.8h.5v.8a2,2,0,0,1-.81.1,1,1,0,0,1-.9-.4,1.92,1.92,0,0,1-.3-1.2V9.8h-.7V9h.7V8.2l1-.3V9h1.11v.8Z" fill="#fff"/><path d="M110.23,13.6h-1V11c0-.8-.31-1.2-.91-1.2a1,1,0,0,0-1,.7v3.1h-1V6.9h1V9.7h0a1.6,1.6,0,0,1,1.4-.8,1.18,1.18,0,0,1,1,.4,2.25,2.25,0,0,1,.5,1.5Z" fill="#fff"/><path d="M115.75,11.1v.5h-3a1.33,1.33,0,0,0,.4,1,1.69,1.69,0,0,0,1,.3,3.75,3.75,0,0,0,1.21-.2l.2.7a3.36,3.36,0,0,1-1.51.3,2.35,2.35,0,0,1-1.7-.6,2.36,2.36,0,0,1-.61-1.7,2.36,2.36,0,0,1,.61-1.7,1.86,1.86,0,0,1,1.6-.7,1.59,1.59,0,0,1,1.51.7A2.65,2.65,0,0,1,115.75,11.1Zm-.9-.3a1.88,1.88,0,0,0-.2-.8.83.83,0,0,0-.81-.4.91.91,0,0,0-.8.4,1.14,1.14,0,0,0-.3.8Z" fill="#fff"/></svg>