<?xml version="1.0" encoding="UTF-8"?><svg id="Layer_1" xmlns="http://www.w3.org/2000/svg" viewBox="0 0 100.1 78.65"><defs><style>.cls-1{fill:#efad2b;}</style></defs><path class="cls-1" d="M52.43,13.08c-1.85,0-3.69.35-5.38,1.02L37.63,0v27.52c0,7.74,5.63,14.21,13.09,15.06.56.06,1.12.09,1.67.09,3.63,0,7.16-1.33,9.88-3.76,3.14-2.81,4.95-6.83,4.95-11.03,0-8.16-6.64-14.8-14.8-14.8ZM41.59,13.05l4.03,6.05,1.16-.53.5-.23c1.57-.85,3.35-1.3,5.14-1.3,5.97,0,10.83,4.86,10.83,10.83,0,3.03-1.28,5.95-3.52,7.99-2.27,2.08-5.22,3.07-8.31,2.8-5.52-.49-9.84-5.39-9.84-11.17v-14.45Z"/><path class="cls-1" d="M46.75,17.65c-1.85,0-3.69.35-5.38,1.02l-9.41-14.1v27.52c0,7.74,5.63,14.22,13.09,15.06.56.06,1.12.09,1.67.09,3.63,0,7.16-1.33,9.88-3.76,3.14-2.81,4.95-6.83,4.95-11.03,0-8.16-6.64-14.8-14.8-14.8ZM35.92,17.62l4.03,6.05,1.16-.53.5-.23c1.57-.85,3.35-1.3,5.14-1.3,5.97,0,10.83,4.86,10.83,10.83,0,3.03-1.28,5.95-3.52,7.99-2.27,2.08-5.22,3.07-8.31,2.8-5.52-.49-9.84-5.39-9.84-11.17v-14.45Z"/><path class="cls-1" d="M2.86,42.61c.75,0,1.41.27,1.96.81.55.55.83,1.22.83,1.98v8.97c1.74-1.54,4.28-2.31,7.64-2.31,3.66,0,6.79,1.3,9.39,3.9,2.6,2.6,3.9,5.73,3.9,9.39s-1.3,6.79-3.9,9.39-5.73,3.9-9.39,3.9-6.78-1.29-9.37-3.88c-2.6-2.57-3.91-5.68-3.92-9.34v-20.02c0-.77.28-1.43.83-1.98.55-.54,1.21-.81,1.96-.81h.07ZM13.29,57.77c-2.12,0-3.93.75-5.42,2.24-1.48,1.49-2.21,3.3-2.21,5.42s.74,3.91,2.21,5.4c1.49,1.49,3.3,2.24,5.42,2.24s3.91-.75,5.4-2.24c1.49-1.49,2.24-3.29,2.24-5.4s-.75-3.93-2.24-5.42-3.29-2.24-5.4-2.24Z"/><path class="cls-1" d="M34.97,67.5c0,1.52.53,2.82,1.59,3.9,1.08,1.06,2.38,1.59,3.92,1.59s2.82-.53,3.9-1.59c1.06-1.08,1.59-2.38,1.59-3.9v-12.62c0-.77.28-1.43.83-1.98s1.21-.83,1.98-.83h.05c.78,0,1.44.28,1.96.83.55.55.83,1.21.83,1.98v12.62c0,3.06-1.09,5.68-3.28,7.87s-4.81,3.28-7.87,3.28-5.71-1.09-7.89-3.28c-2.18-2.18-3.28-4.81-3.28-7.87v-12.62c0-.77.28-1.43.83-1.98.55-.55,1.21-.83,1.96-.83h.07c.75,0,1.41.28,1.96.83.55.55.83,1.21.83,1.98v12.62Z"/><path class="cls-1" d="M61.86,72.92l11.67.02c.77,0,1.42.27,1.96.81.55.55.83,1.22.83,1.98v.05c0,.77-.28,1.43-.83,1.98s-1.19.81-1.96.81h-15.06c-1.81,0-3.08-.85-3.81-2.56-.28-.63-.42-1.24-.42-1.82,0-1.03.44-1.98,1.31-2.86,1.51-1.57,3.8-3.97,6.87-7.2,2.69-2.83,4.75-4.99,6.18-6.48h-10.66c-.78,0-1.45-.28-1.98-.83-.54-.55-.81-1.21-.81-1.96v-.07c0-.75.27-1.41.81-1.96.54-.55,1.2-.83,1.98-.83h13.93c1.86,0,3.16.85,3.9,2.56.28.63.42,1.24.42,1.82,0,1.05-.44,2-1.31,2.86-4.98,5.23-9.33,9.79-13.03,13.68Z"/><path class="cls-1" d="M85.64,72.92l11.67.02c.77,0,1.42.27,1.96.81.55.55.83,1.22.83,1.98v.05c0,.77-.28,1.43-.83,1.98-.54.54-1.19.81-1.96.81h-15.06c-1.81,0-3.08-.85-3.81-2.56-.28-.63-.42-1.24-.42-1.82,0-1.03.44-1.98,1.31-2.86,1.51-1.57,3.8-3.97,6.87-7.2,2.69-2.83,4.75-4.99,6.18-6.48h-10.66c-.78,0-1.45-.28-1.98-.83-.54-.55-.81-1.21-.81-1.96v-.07c0-.75.27-1.41.81-1.96.54-.55,1.2-.83,1.98-.83h13.93c1.86,0,3.16.85,3.9,2.56.28.63.42,1.24.42,1.82,0,1.05-.44,2-1.32,2.86-4.98,5.23-9.33,9.79-13.03,13.68Z"/></svg>