<?xml version="1.0" encoding="utf-8"?>
<!-- Generator: Adobe Illustrator 20.1.0, SVG Export Plug-In . SVG Version: 6.00 Build 0)  -->
<svg version="1.1" id="Layer_1" xmlns="http://www.w3.org/2000/svg" xmlns:xlink="http://www.w3.org/1999/xlink" x="0px" y="0px"
	 viewBox="0 0 20 20" style="enable-background:new 0 0 20 20;" xml:space="preserve">
<style type="text/css">
	.st0{fill:#A0A5AA;}
	.st1{fill:#FFFFFF;}
</style>
<g id="Layer_2">
	<g id="Layer_1-2">
		<path class="st0" d="M20,10c0,5.4-4.3,9.7-9.7,9.7S0.6,15.4,0.6,10s4.3-9.7,9.7-9.7S20,4.6,20,10z"/>
		<path class="st1" d="M9.7,9.7c0.2-0.6,0.8-0.9,1.4-0.9c0.8,0,1.3,0.7,1.1,1.3h-1.7c-0.1,0.8,0.3,1.1,0.7,1.1
			c0.3,0,0.7-0.1,0.9-0.3l0.1,0.2c-0.3,0.3-0.7,0.5-1.2,0.5c-0.9,0-1.5-0.6-1.5-1.4c0,0,0-0.1,0-0.1C9.6,9.9,9.7,9.7,9.7,9.7z
			 M11.1,9.1c-0.3,0-0.5,0.2-0.5,0.6h1C11.6,9.4,11.4,9.1,11.1,9.1L11.1,9.1z"/>
		<path class="st1" d="M13.7,8.1V9h0.8v0.3h-0.8v1.1c0,0.8,0.1,0.9,0.6,0.9v0.2h-2.1v-0.2c0.5,0,0.6-0.1,0.6-0.9V9.4l0,0V9l0,0V8.4
			c0-1,0.4-1.5,1.4-1.5h1.9v3.6c0,0.8,0.1,0.9,0.6,0.9v0.2h-2.1v-0.2c0.5,0,0.6-0.1,0.6-0.9V8.3c0-0.8-0.1-1.1-0.6-1.1h-0.5
			C13.8,7.2,13.7,7.5,13.7,8.1z"/>
		<path class="st1" d="M6.5,9h1.4C8,9.1,8,9.3,8,9.4c0.2-0.3,0.5-0.5,0.8-0.5c0.5,0,0.7,0.3,0.7,0.6c0,0.2-0.1,0.5-0.4,0.5
			c-0.4,0-0.2-0.5-0.6-0.5c-0.2,0-0.5,0.2-0.5,0.8v0.2c0,0.8,0.1,0.9,0.6,0.9v0.2H6.6v-0.2c0.5,0,0.6-0.1,0.6-0.9v-0.2
			c0-0.8-0.1-0.9-0.6-0.9H6.5V9z"/>
		<path class="st1" d="M16.4,9.1h1.7v0.2c-0.3,0-0.4,0.1-0.2,0.4l0.4,1l0.4-1c0.1-0.3,0.1-0.4-0.2-0.4V9.1h1.1v0.2
			c-0.3,0-0.4,0.1-0.5,0.4l-0.8,2c-0.3,0.9-1,2.9-2.1,2.9c-0.6,0-1-0.2-1-0.6c0-0.2,0.2-0.4,0.4-0.4c0.5,0,0.4,0.6,0.8,0.6
			c0.7,0,1.3-1.5,1.6-2.4L17,9.8c-0.1-0.3-0.3-0.4-0.5-0.4h-0.1V9.1z"/>
		<path class="st1" d="M5.7,10.4V9H3.4V7.6c0-0.7,0.1-0.9,0.7-1c1.3-0.1,0.5,1.2,1.1,1.5C5.6,8.4,6,7.8,5.7,7.3
			c-0.4-0.7-0.9-1.1-1.8-1C3,6.4,2.5,6.9,2.5,7.9v1H2v0.3h0.5c0,0,0,1,0,1.2c0,2.7-0.6,3.1-1,3.3c-0.4,0.2-0.5,0.1-0.9,0
			c-0.2-0.1-0.6,0.1-0.6,0.3c-0.1,0.4,0.2,0.6,0.6,0.5c0.3,0,1-0.2,1.6-0.7c1.2-1,1.2-2.4,1.2-4c0-0.3,0-0.5,0-0.6h0.9
			c0.5,0,0.6,0.1,0.6,0.9v0.2c0,0.8-0.1,0.9-0.6,0.9v0.2h2.1v-0.2C5.8,11.3,5.7,11.2,5.7,10.4z"/>
		<path class="st0" d="M1.4,13.9c-0.3,0.1-0.4,0.1-0.8,0c-0.2-0.1-0.6,0.1-0.6,0.3c-0.1,0.4,0.2,0.6,0.6,0.5c0.2,0,0.6-0.1,1-0.3
			C1.5,14.1,1.5,14,1.4,13.9z"/>
	</g>
</g>
</svg>
