<svg version="1.1" xmlns="http://www.w3.org/2000/svg" xmlns:xlink="http://www.w3.org/1999/xlink" x="0" y="0" viewBox="115 185 385 445" xml:space="preserve">
  <style type="text/css">

	.st0{display:none;}
	.st1{display:inline;fill:#F0AE00;}
	.st2{display:inline;}
	.st3{fill:#FFFFFF;}
	.st4{fill:#F0AE07;}

  </style>

  <g id="black_cut_out">
    <path class="st4" d="M255.8 320.4c0 0.2 0 0.5 0 0.8 1-0.5 2-1.1 2.8-1.9 0.8-0.8 1.6-1.6 2.2-2.6 0.6-1 1.1-2 1.4-3.2 0.3-1.2 0.5-2.4 0.5-3.6 0-0.9-0.2-1.6-0.5-2.2 -0.3-0.5-0.7-0.8-1.3-0.8 -0.7 0-1.3 0.2-1.8 0.7 -0.5 0.5-1 1.1-1.4 1.8 -0.4 0.7-0.7 1.6-1 2.5 -0.3 0.9-0.5 1.9-0.6 2.8 -0.2 1-0.3 1.9-0.3 2.7 -0.1 0.9-0.1 1.6 0 2.1C255.8 319.9 255.8 320.2 255.8 320.4z"/>
    <path class="st4" d="M205.6 366.9c-1.3 0-2.2 0.8-2.7 2.5 -0.5 1.7-0.8 3.9-0.8 6.7 0 4.7 0.8 9.1 2.5 13.3 1.7 4.2 3.9 7.8 6.8 10.8 0.4-2.3 0.6-4.5 0.8-6.8 0.1-2.2 0.2-4.3 0.2-6.1 0-6.5-0.7-11.6-2-15.1C208.9 368.7 207.4 366.9 205.6 366.9z"/>
    <path class="st4" d="M213.2 330.9c0.8 0 1.6-0.3 2.2-0.9 0.6-0.6 1.1-1.3 1.6-2.2 0.4-0.9 0.8-1.9 1.1-2.9 0.3-1 0.5-2 0.7-3 0.1-0.5 0.2-0.9 0.4-1.2v-20.2c-0.5 0-1.1 0-1.6 0 -2.6 0-5 0-7.2 0v26.5c0 1.4 0.3 2.3 0.8 2.9C211.7 330.6 212.4 330.9 213.2 330.9z"/>
    <path class="st4" d="M417.8 461.2c-1.6 1.9-3 4-4.1 6.2 -1.1 2.2-2 4.7-2.7 7.4 -0.7 2.7-1 5.7-1 9 0 3 0.5 5.6 1.4 7.6 0.9 2.1 2.2 3.1 3.8 3.1 1.2 0 2.2-0.5 3.1-1.4 0.9-1 1.6-2.2 2.2-3.8 0.6-1.6 1.1-3.4 1.5-5.4 0.4-2 0.7-4.1 0.9-6.3 0.2-2.2 0.3-4.3 0.4-6.4 0.1-2.1 0.1-4 0.1-5.8 0-1.4 0-2.9 0-4.5 0-1.6-0.1-3.3-0.2-5.1C421.2 457.4 419.4 459.3 417.8 461.2z"/>
    <path class="st4" d="M347.8 461.2c-1.6 1.9-3 4-4.1 6.2 -1.1 2.2-2 4.7-2.7 7.4 -0.7 2.7-1 5.7-1 9 0 3 0.5 5.6 1.4 7.6 0.9 2.1 2.2 3.1 3.8 3.1 1.2 0 2.2-0.5 3.1-1.4 0.9-1 1.6-2.2 2.2-3.8 0.6-1.6 1.1-3.4 1.5-5.4 0.4-2 0.7-4.1 0.9-6.3 0.2-2.2 0.3-4.3 0.4-6.4 0.1-2.1 0.1-4 0.1-5.8 0-1.4 0-2.9 0-4.5 0-1.6-0.1-3.3-0.2-5.1C351.2 457.4 349.4 459.3 347.8 461.2z"/>
    <path class="st4" d="M443.8 239c-36.2-36-80.9-54.1-134.1-54.1 -54.9 0-100.8 17.9-137.8 53.7 -37 35.8-55.5 80.1-55.5 132.8 0 50.1 17.3 92.1 51.8 125.8 34.6 33.7 79.3 52.1 134.1 55.2V628c59.8-16.7 108.9-57.8 144.2-100.6 35.4-42.8 51.6-99 51.6-154.4C498.2 319.7 480.1 275.1 443.8 239zM195.4 295.7c0.1-0.6 0.5-0.9 1.1-0.9 0.6 0.1 1.3 0.1 2.1 0.1 0.7 0.1 1.4 0.1 2.4 0.1 0.9 0 2 0 3.1 0.1v-14.2c0-0.6 0-1.1-0.1-1.4 -0.1-0.4-0.2-0.6-0.3-0.8 -0.1-0.2-0.2-0.4-0.3-0.5 -0.1-0.1-0.1-0.3-0.1-0.4 0-0.2 0.1-0.3 0.2-0.4 0.2-0.1 0.4-0.2 0.7-0.3 0.3-0.1 0.6-0.1 0.9-0.2 0.3 0 0.6-0.1 0.9-0.1 1.4 0 2.5 0.4 3.3 1.1 0.8 0.7 1.2 1.6 1.2 2.6v14.7c2.6 0 5.3 0 8.1-0.1 0.2 0 0.5 0 0.7 0v-12.5c0-0.6 0-1.1-0.1-1.4 -0.1-0.4-0.2-0.6-0.3-0.8 -0.1-0.2-0.2-0.4-0.3-0.5 -0.1-0.1-0.1-0.3-0.1-0.4 0-0.2 0.1-0.3 0.2-0.4 0.2-0.1 0.4-0.2 0.7-0.3 0.3-0.1 0.6-0.1 0.9-0.2 0.3 0 0.6-0.1 0.9-0.1 1.4 0 2.5 0.4 3.3 1.1 0.8 0.7 1.2 1.6 1.2 2.6v12.7c0.5 0 1 0 1.5-0.1 0.4-0.4 0.7-0.6 0.9-0.4 0.2 0.1 0.4 0.4 0.4 0.8 0.1 0.4 0.1 0.9 0 1.5 -0.1 0.6-0.2 1.2-0.3 1.7 -0.2 0.6-0.4 1-0.7 1.5 -0.3 0.4-0.6 0.6-1 0.6 -0.3 0-0.6 0-0.9 0v9.2c0.6-1.2 1.2-2.3 1.9-3.3 0.7-1 1.4-1.9 2.2-2.6 0.8-0.7 1.6-1.3 2.5-1.8 0.9-0.4 1.8-0.6 2.9-0.6 1.4 0 2.5 0.3 3.4 0.8 0.9 0.5 1.6 1.2 2.1 2 0.5 0.8 0.9 1.7 1.1 2.7 0.2 1 0.3 2 0.3 2.9v17.3c0 0.2 0 0.5 0 0.9 0 0.4 0.1 0.9 0.2 1.3 0.1 0.4 0.3 0.8 0.6 1.1 0.3 0.3 0.7 0.5 1.2 0.5 0.8 0 1.6-0.3 2.2-0.9 0.6-0.6 1.1-1.3 1.6-2.2 0.4-0.9 0.8-1.9 1.1-2.9 0.1-0.4 0.2-0.8 0.3-1.2 -0.2-1.2-0.3-2.4-0.3-3.8 0-2.6 0.4-5.1 1.1-7.4 0.7-2.3 1.7-4.2 2.9-5.9 1.2-1.7 2.6-3 4.1-3.9 1.5-0.9 3.1-1.4 4.7-1.4 1.2 0 2.2 0.2 3.2 0.6 0.9 0.4 1.7 1 2.4 1.7 0.7 0.7 1.2 1.6 1.5 2.7 0.3 1 0.5 2.2 0.5 3.4 0 1.6-0.3 3.1-0.8 4.8 -0.5 1.6-1.3 3.2-2.4 4.6 -1 1.5-2.3 2.8-3.9 3.9 -1.5 1.2-3.3 2-5.3 2.6 0.3 0.7 0.6 1.4 1.1 2 0.4 0.6 1 1.2 1.6 1.7 0.6 0.5 1.4 0.8 2.2 1.1 0.8 0.3 1.8 0.4 2.9 0.4 1.6 0 3-0.3 4.2-0.9 1.2-0.6 2.2-1.4 3-2.4 0.8-1 1.5-2.1 1.9-3.4 0.5-1.3 0.9-2.5 1.1-3.8 0.2-0.9 0.6-1.5 1.2-1.9 0.6-0.3 1.2-0.4 1.8-0.2 0.6 0.2 1.1 0.5 1.6 1 0.4 0.5 0.6 1.2 0.6 1.9 -0.1 0.8-0.3 1.8-0.6 2.9 -0.3 1.1-0.6 2.2-1.2 3.3 -0.5 1.1-1.2 2.2-2 3.3 -0.8 1.1-1.8 2-3 2.9 -1.2 0.8-2.5 1.5-4.1 2 -1.6 0.5-3.4 0.8-5.4 0.8 -1.9 0-3.8-0.4-5.5-1.1 -1.8-0.7-3.4-1.8-4.7-3.2 -0.6-0.6-1.1-1.3-1.6-2 -0.4 0.6-0.8 1.3-1.2 1.9 -1 1.3-2.1 2.3-3.4 3.2 -1.3 0.8-2.9 1.3-4.7 1.3 -1.1 0-2.1-0.2-3-0.6 -0.9-0.4-1.6-1-2.2-1.7 -0.6-0.7-1.1-1.5-1.4-2.5 -0.3-1-0.5-2-0.5-3v-17c0-0.7 0-1.3 0-1.8 0-0.6-0.1-1.1-0.2-1.5 -0.1-0.4-0.3-0.8-0.5-1 -0.2-0.3-0.6-0.4-1-0.4 -0.6 0-1.3 0.4-2.2 1.2 -0.9 0.8-1.7 1.9-2.6 3.2 -0.8 1.3-1.6 2.8-2.2 4.4 -0.6 1.6-1 3.3-1.2 5v12.2c0 0.4 0 0.8 0 1.2 0 0.4-0.1 0.8-0.2 1.1 -0.1 0.3-0.4 0.6-0.7 0.9 -0.3 0.2-0.8 0.3-1.4 0.3 -0.4 0-0.9 0-1.3-0.1 -0.5-0.1-0.9-0.3-1.3-0.5 -0.4-0.3-0.7-0.6-1-1.1 -0.3-0.5-0.4-1.1-0.4-1.9 -0.8 0.9-1.7 1.7-2.8 2.4 -1.3 0.8-2.9 1.3-4.7 1.3 -1.1 0-2.1-0.2-3.1-0.5 -0.9-0.3-1.8-0.9-2.4-1.6 -0.7-0.7-1.2-1.7-1.6-2.9 -0.4-1.2-0.6-2.6-0.6-4.2v-26.6c-0.9 0-1.8 0-2.5 0 -0.7 0-1.3 0-1.8-0.1 -0.6 0-1.1-0.1-1.5-0.1 -0.7 0-1.2-0.3-1.7-0.9 -0.5-0.6-0.9-1.2-1.1-1.9C195.3 296.9 195.2 296.2 195.4 295.7zM463.8 402.2c-1.6 5.3-3.5 10.1-5.6 14.3 -2.1 4.2-4.2 7.9-6.6 11.3 -2.3 3.3-4.7 6.3-7.2 8.9 -2.5 2.6-5 5-7.6 7.2 0.8 5.3 1.1 11.6 1.1 18.7 0 5.1-0.4 10.3-1.1 15.5 -0.7 5.2-2 10-3.8 14.2 -1.8 4.2-4.1 7.7-7 10.4 -2.9 2.7-6.6 4-11 4 -2.7 0-5.2-0.6-7.5-1.8 -2.3-1.2-4.3-2.8-5.9-4.8 -1.7-2-3-4.4-3.9-7.1 -0.9-2.7-1.4-5.6-1.4-8.7 0-5.1 0.7-9.5 2.1-13.4 1.4-3.9 3.3-7.5 5.6-10.7 2.3-3.2 5-6.3 8.1-9.1 3-2.9 6.2-5.8 9.5-8.7 -0.5-2.7-1.3-5.3-2.2-7.8 -1-2.5-2.2-4.7-3.8-6.6 -1.5-1.9-3.4-3.4-5.6-4.5 -2.2-1.1-4.8-1.7-7.7-1.7l-2.7-10.7c3.4-1 6.8-2.4 10.2-4.4 3.4-2 6.4-4.5 9-7.5 2.7-3 4.8-6.4 6.5-10.4 1.7-3.9 2.5-8.3 2.5-13.2 0-1.6-0.2-3.2-0.7-4.7 -0.4-1.5-1.1-2.8-2-3.9 -0.9-1.1-2.1-2.1-3.5-2.8 -1.4-0.7-3-1-4.9-1 -2.4 0-4.6 0.5-6.7 1.6 -2 1.1-3.9 3-5.7 5.8 -1.8 2.8-3.6 6.7-5.3 11.5 -1.7 4.8-3.4 10.9-5.2 18.2 0 0 0 0 0 0 0 0.1 0 0.4 0 0.8 0 0.4-0.1 0.8-0.2 1.1 -1.6 5.3-3.5 10.1-5.6 14.3 -2.1 4.2-4.2 7.9-6.6 11.3 -2.3 3.3-4.7 6.3-7.2 8.9 -2.5 2.6-5 5-7.6 7.2 0.8 5.3 1.1 11.6 1.1 18.7 0 5.1-0.4 10.3-1.1 15.5 -0.7 5.2-2 10-3.8 14.2 -1.8 4.2-4.1 7.7-7 10.4 -2.9 2.7-6.6 4-11 4 -2.7 0-5.2-0.6-7.5-1.8 -2.3-1.2-4.3-2.8-5.9-4.8 -1.7-2-3-4.4-3.9-7.1 -0.9-2.7-1.4-5.6-1.4-8.7 0-5.1 0.7-9.5 2.1-13.4 1.4-3.9 3.3-7.5 5.6-10.7 2.3-3.2 5-6.3 8.1-9.1 3-2.9 6.2-5.8 9.5-8.7 -0.5-2.7-1.3-5.3-2.2-7.8 -1-2.5-2.2-4.7-3.8-6.6 -1.5-1.9-3.4-3.4-5.6-4.5 -2.2-1.1-4.8-1.7-7.7-1.7l-2.7-10.7c3.4-1 6.8-2.4 10.2-4.4 3.4-2 6.4-4.5 9-7.5 2.7-3 4.8-6.4 6.5-10.4 1.7-3.9 2.5-8.3 2.5-13.2 0-1.6-0.2-3.2-0.7-4.7 -0.4-1.5-1.1-2.8-2-3.9 -0.9-1.1-2.1-2.1-3.5-2.8 -1.4-0.7-3-1-4.9-1 -2.4 0-4.6 0.5-6.7 1.6 -2 1.1-3.9 3-5.7 5.8 -1.8 2.8-3.6 6.7-5.3 11.5 -1.7 4.8-3.4 10.9-5.2 18.2 0 0 0 0 0 0 0 0.1 0 0.3 0 0.5 0 0.2-0.1 0.5-0.2 0.9 -0.9 3.2-2 6.6-3.5 10.2 -1.4 3.5-3.2 6.8-5.5 9.8 -2.2 3-4.9 5.4-8 7.4 -3.1 2-6.7 2.9-10.9 2.9 -2.2 0-4.2-0.3-6-1 -1.8-0.7-3.4-1.7-4.8-2.9 -1.4-1.2-2.5-2.7-3.4-4.4 -0.9-1.7-1.5-3.5-1.8-5.5 -2.3 4.1-5.1 7.5-8.3 10.1 -3.2 2.6-6.9 3.9-11.2 3.9 -3.2 0-6.1-0.7-8.7-2 -2.6-1.3-4.7-3.2-6.5-5.7 -1.6-2.2-2.8-4.9-3.7-7.9 -0.8 0.4-1.7 0.9-2.6 1.2 -2.7 1-5.6 1.5-8.9 1.5 -1.8 0-3.5-0.1-5.1-0.3 -1.6-0.2-3.3-0.5-4.8-1 -2.4 4.2-5.5 7.6-9.4 10.1 -3.9 2.6-8.6 3.8-14.3 3.8 -4.5 0-8.4-0.8-11.8-2.4 -3.4-1.6-6.2-3.8-8.6-6.7 -2.3-2.9-4.1-6.3-5.2-10.3 -1.2-4-1.8-8.4-1.8-13.1v-92.8c0-1.4-0.1-2.5-0.3-3.3 -0.2-0.8-0.4-1.5-0.7-1.9s-0.4-0.9-0.7-1.1c-0.2-0.3-0.3-0.6-0.3-0.9 0-0.4 0.2-0.7 0.6-0.9 0.4-0.3 0.9-0.5 1.5-0.7 0.6-0.2 1.3-0.3 2-0.4 0.7-0.1 1.4-0.1 2.1-0.1 3.2 0 5.8 0.8 7.6 2.5 1.9 1.7 2.8 3.7 2.8 6v91.1c0 3.2 0.3 6.2 0.9 8.9 0.6 2.7 1.4 5.1 2.6 7.1 1.1 2 2.6 3.5 4.3 4.7 1.7 1.1 3.8 1.7 6.1 1.7 2.4 0 4.5-0.6 6.2-1.9 1.7-1.2 3.1-2.9 4.3-5 -2.8-2-5.3-4.3-7.5-6.9 -2.2-2.6-4.1-5.5-5.6-8.6 -1.6-3.1-2.7-6.3-3.6-9.7 -0.8-3.4-1.2-6.8-1.2-10.2 0-3.9 0.4-7.3 1.3-10.2 0.9-2.9 2-5.3 3.6-7.1 1.5-1.9 3.3-3.2 5.3-4.1 2-0.9 4.1-1.3 6.4-1.3 2.6 0 5.1 0.6 7.6 1.9 2.5 1.3 4.7 3.2 6.6 5.8 1.9 2.6 3.5 5.9 4.7 9.9 1.2 4 1.8 8.7 1.8 14.2 0 3.8-0.2 7.6-0.7 11.4 -0.5 3.8-1.2 7.4-2.2 10.8 0.7 0.3 1.4 0.4 2 0.4 0.7 0 1.3 0 2 0 2.1 0 3.9-0.4 5.6-1.1 1.6-0.8 3-1.8 4.2-3 0.7-0.7 1.3-1.6 1.8-2.5 0.1-4.4 0.4-8.8 1.1-13.2 0.7-5.2 1.5-9.9 2.4-14.1 1-4.9 2.2-9.6 3.5-14.2 0.3-0.8 0.6-1.7 0.7-2.5 0.2-0.9 0.5-1.6 1.1-2.3 0.6-0.7 1.5-1.3 2.7-1.7 1.2-0.4 3.2-0.7 5.7-0.7 2.4 0 4 0.4 4.7 1.3 0.7 0.9 1 1.9 0.8 3 -0.2 1.1-0.5 2.3-1.1 3.5 -0.6 1.2-1 2.2-1.2 2.9 -0.9 3.6-1.7 6.9-2.4 9.9 -0.7 3-1.3 6-1.8 9 -0.5 3-0.8 6.1-1.1 9.4 -0.3 3.3-0.4 6.9-0.4 11 0 5.3 0.8 9.3 2.3 12.1 1.6 2.7 3.8 4.1 6.6 4.1 2 0 3.8-0.7 5.5-2.2 1.7-1.5 3.2-3.4 4.6-5.8 1.4-2.4 2.5-5.2 3.6-8.4 1-3.1 1.8-6.4 2.4-9.8v-31.4c0-1.4-0.1-2.5-0.3-3.3 -0.2-0.8-0.4-1.5-0.7-1.9 -0.2-0.5-0.4-0.9-0.7-1.1 -0.2-0.3-0.3-0.6-0.3-1 0-0.3 0.2-0.6 0.6-0.9 0.4-0.3 0.9-0.5 1.5-0.7 0.6-0.2 1.3-0.3 2-0.4 0.7-0.1 1.4-0.1 2.1-0.1 3.2 0 5.8 0.8 7.6 2.5 1.9 1.7 2.8 3.7 2.8 6v49.4c0 0.4 0 1.2 0.1 2.1 0.1 1 0.3 2 0.6 3 0.3 1 0.8 1.9 1.5 2.7 0.7 0.8 1.7 1.1 2.9 1.1 2 0 3.7-0.7 5.1-2.1 1.4-1.4 2.7-3.1 3.7-5.2 1-2.1 1.9-4.4 2.6-6.8 0.7-2.4 1.2-4.7 1.7-6.9 0.1-0.7 0.3-1.3 0.5-1.8 0-0.3 0-0.5 0.1-0.7 1.2-6.3 2.6-12.3 4.1-17.8 1.6-5.5 3.6-10.3 6.1-14.4 2.5-4.1 5.7-7.3 9.5-9.6 3.8-2.3 8.5-3.5 14.1-3.5 4.1 0 7.7 0.7 10.9 2.1 3.2 1.4 5.9 3.3 8.1 5.7 2.2 2.4 3.9 5.3 5 8.6 1.2 3.3 1.8 6.8 1.8 10.5 0 4.1-0.7 8-1.9 11.6 -1.3 3.6-3.1 6.9-5.3 10 -2.3 3-4.9 5.7-7.9 8.1 -3 2.4-6.3 4.4-9.7 5.9 3.7 2 6.9 4.4 9.6 7.2 2.6 2.8 4.8 6.3 6.4 10.6 3.8-4 7.4-8.6 10.7-13.8 3.3-5.2 6-11.5 8-18.7 0.2-0.5 0.3-1 0.5-1.5 0-0.4 0-0.7 0.1-1.1 1.2-6.3 2.6-12.3 4.1-17.8 1.6-5.5 3.6-10.3 6.1-14.4 2.5-4.1 5.7-7.3 9.5-9.6 3.8-2.3 8.5-3.5 14.1-3.5 4.1 0 7.7 0.7 10.9 2.1 3.2 1.4 5.9 3.3 8.1 5.7 2.2 2.4 3.9 5.3 5 8.6 1.2 3.3 1.8 6.8 1.8 10.5 0 4.1-0.7 8-1.9 11.6 -1.3 3.6-3.1 6.9-5.3 10 -2.3 3-4.9 5.7-7.9 8.1 -3 2.4-6.3 4.4-9.7 5.9 3.7 2 6.9 4.4 9.6 7.2 2.6 2.8 4.8 6.3 6.4 10.6 3.8-4 7.4-8.6 10.7-13.8 3.3-5.2 6-11.5 8-18.7 0.6-2 1.2-3.5 2-4.4 0.8-0.9 1.6-1.4 2.7-1.4 0.8 0 1.6 0.2 2.4 0.7 0.8 0.5 1.6 1.1 2.2 1.9 0.7 0.8 1.2 1.6 1.6 2.6 0.4 1 0.6 1.9 0.6 2.9 0 0.1 0 0.4 0 0.8C464 401.4 463.9 401.8 463.8 402.2z"/>
  </g>

</svg>
