<?xml version="1.0" encoding="utf-8"?>
<!-- Generator: Adobe Illustrator 21.1.0, SVG Export Plug-In . SVG Version: 6.00 Build 0)  -->
<svg version="1.1" id="Layer_1" xmlns="http://www.w3.org/2000/svg" xmlns:xlink="http://www.w3.org/1999/xlink" x="0px" y="0px"
	 viewBox="0 0 3.3 5" style="enable-background:new 0 0 3.3 5;" xml:space="preserve">
<style type="text/css">
	.st0{fill:#E51937;}
</style>
<title>marker_1</title>
<g id="Layer_2">
	<g id="Layer_1-2">
		<path class="st0" d="M3.3,1.7c0,0.2,0,0.4-0.1,0.6L2,4.8c0,0.1-0.1,0.1-0.1,0.2C1.7,5,1.5,5,1.4,4.9c-0.1,0-0.1-0.1-0.1-0.2
			L0.1,2.3C0,2.1,0,1.9,0,1.7c0-0.4,0.2-0.9,0.5-1.2C0.8,0.2,1.2,0,1.7,0c0.4,0,0.9,0.2,1.2,0.5C3.2,0.8,3.3,1.2,3.3,1.7z M2.3,2.3
			c0.2-0.2,0.2-0.4,0.2-0.6c0-0.2-0.1-0.4-0.2-0.6C2.1,0.9,1.9,0.8,1.7,0.8c-0.2,0-0.4,0.1-0.6,0.2C0.9,1.2,0.8,1.4,0.8,1.7
			c0,0.2,0.1,0.4,0.2,0.6c0.2,0.2,0.4,0.2,0.6,0.2C1.9,2.5,2.1,2.4,2.3,2.3L2.3,2.3z"/>
	</g>
</g>
</svg>
