<?xml version="1.0" encoding="utf-8"?>
<!-- Generator: Adobe Illustrator 20.0.0, SVG Export Plug-In . SVG Version: 6.00 Build 0)  -->
<svg version="1.1" id="Layer_1" xmlns="http://www.w3.org/2000/svg" xmlns:xlink="http://www.w3.org/1999/xlink" x="0px" y="0px"
	 viewBox="0 0 391 454" style="enable-background:new 0 0 391 454;" xml:space="preserve">
<style type="text/css">
	.st0{fill:#FFFFFF;}
</style>
<g>
	<path class="st0" d="M143.5,142.4c0,0.2,0,0.5,0,0.8c1-0.5,2-1.1,2.8-1.9c0.8-0.8,1.6-1.6,2.2-2.6c0.6-1,1.1-2,1.4-3.2
		c0.3-1.2,0.5-2.4,0.5-3.6c0-0.9-0.2-1.6-0.5-2.2c-0.3-0.5-0.7-0.8-1.3-0.8c-0.7,0-1.3,0.2-1.8,0.7c-0.5,0.5-1,1.1-1.4,1.8
		c-0.4,0.7-0.7,1.6-1,2.5c-0.3,0.9-0.5,1.9-0.6,2.8c-0.2,1-0.3,1.9-0.3,2.7c-0.1,0.9-0.1,1.6,0,2.1
		C143.4,141.9,143.5,142.2,143.5,142.4z"/>
	<path class="st0" d="M93.3,188.9c-1.3,0-2.2,0.8-2.7,2.5c-0.5,1.7-0.8,3.9-0.8,6.7c0,4.7,0.8,9.1,2.5,13.3
		c1.7,4.2,3.9,7.8,6.8,10.8c0.4-2.3,0.6-4.5,0.8-6.8c0.1-2.2,0.2-4.3,0.2-6.1c0-6.5-0.7-11.6-2-15.1C96.6,190.7,95,188.9,93.3,188.9
		z"/>
	<path class="st0" d="M100.9,152.9c0.8,0,1.6-0.3,2.2-0.9c0.6-0.6,1.1-1.3,1.6-2.2c0.4-0.9,0.8-1.9,1.1-2.9c0.3-1,0.5-2,0.7-3
		c0.1-0.5,0.2-0.9,0.4-1.2v-20.2c-0.5,0-1.1,0-1.6,0c-2.6,0-5,0-7.2,0v26.5c0,1.4,0.3,2.3,0.8,2.9C99.3,152.6,100,152.9,100.9,152.9
		z"/>
	<path class="st0" d="M305.5,283.2c-1.6,1.9-3,4-4.1,6.2c-1.1,2.2-2,4.7-2.7,7.4c-0.7,2.7-1,5.7-1,9c0,3,0.5,5.6,1.4,7.6
		c0.9,2.1,2.2,3.1,3.8,3.1c1.2,0,2.2-0.5,3.1-1.4c0.9-1,1.6-2.2,2.2-3.8c0.6-1.6,1.1-3.4,1.5-5.4c0.4-2,0.7-4.1,0.9-6.3
		c0.2-2.2,0.3-4.3,0.4-6.4c0.1-2.1,0.1-4,0.1-5.8c0-1.4,0-2.9,0-4.5c0-1.6-0.1-3.3-0.2-5.1C308.9,279.4,307.1,281.3,305.5,283.2z"/>
	<path class="st0" d="M235.5,283.2c-1.6,1.9-3,4-4.1,6.2c-1.1,2.2-2,4.7-2.7,7.4c-0.7,2.7-1,5.7-1,9c0,3,0.5,5.6,1.4,7.6
		c0.9,2.1,2.2,3.1,3.8,3.1c1.2,0,2.2-0.5,3.1-1.4c0.9-1,1.6-2.2,2.2-3.8c0.6-1.6,1.1-3.4,1.5-5.4c0.4-2,0.7-4.1,0.9-6.3
		c0.2-2.2,0.3-4.3,0.4-6.4c0.1-2.1,0.1-4,0.1-5.8c0-1.4,0-2.9,0-4.5c0-1.6-0.1-3.3-0.2-5.1C238.8,279.4,237.1,281.3,235.5,283.2z"/>
	<path class="st0" d="M331.5,61C295.3,25,250.6,7,197.4,7C142.5,7,96.6,24.9,59.6,60.6C22.5,96.4,4,140.7,4,193.4
		c0,50.1,17.3,92.1,51.8,125.8c34.6,33.7,79.3,52.1,134.1,55.2V450c59.8-16.7,108.9-57.8,144.2-100.6c35.4-42.8,51.6-99,51.6-154.4
		C385.8,141.7,367.7,97.1,331.5,61z M83,117.7c0.1-0.6,0.5-0.9,1.1-0.9c0.6,0.1,1.3,0.1,2.1,0.1c0.7,0.1,1.4,0.1,2.4,0.1
		c0.9,0,2,0,3.1,0.1v-14.2c0-0.6,0-1.1-0.1-1.4c-0.1-0.4-0.2-0.6-0.3-0.8c-0.1-0.2-0.2-0.4-0.3-0.5c-0.1-0.1-0.1-0.3-0.1-0.4
		c0-0.2,0.1-0.3,0.2-0.4c0.2-0.1,0.4-0.2,0.7-0.3c0.3-0.1,0.6-0.1,0.9-0.2c0.3,0,0.6-0.1,0.9-0.1c1.4,0,2.5,0.4,3.3,1.1
		c0.8,0.7,1.2,1.6,1.2,2.6v14.7c2.6,0,5.3,0,8.1-0.1c0.2,0,0.5,0,0.7,0v-12.5c0-0.6,0-1.1-0.1-1.4c-0.1-0.4-0.2-0.6-0.3-0.8
		c-0.1-0.2-0.2-0.4-0.3-0.5c-0.1-0.1-0.1-0.3-0.1-0.4c0-0.2,0.1-0.3,0.2-0.4c0.2-0.1,0.4-0.2,0.7-0.3c0.3-0.1,0.6-0.1,0.9-0.2
		c0.3,0,0.6-0.1,0.9-0.1c1.4,0,2.5,0.4,3.3,1.1c0.8,0.7,1.2,1.6,1.2,2.6v12.7c0.5,0,1,0,1.5-0.1c0.4-0.4,0.7-0.6,0.9-0.4
		c0.2,0.1,0.4,0.4,0.4,0.8c0.1,0.4,0.1,0.9,0,1.5c-0.1,0.6-0.2,1.2-0.3,1.7c-0.2,0.6-0.4,1-0.7,1.5c-0.3,0.4-0.6,0.6-1,0.6
		c-0.3,0-0.6,0-0.9,0v9.2c0.6-1.2,1.2-2.3,1.9-3.3c0.7-1,1.4-1.9,2.2-2.6c0.8-0.7,1.6-1.3,2.5-1.8c0.9-0.4,1.8-0.6,2.9-0.6
		c1.4,0,2.5,0.3,3.4,0.8c0.9,0.5,1.6,1.2,2.1,2c0.5,0.8,0.9,1.7,1.1,2.7c0.2,1,0.3,2,0.3,2.9v17.3c0,0.2,0,0.5,0,0.9
		c0,0.4,0.1,0.9,0.2,1.3c0.1,0.4,0.3,0.8,0.6,1.1c0.3,0.3,0.7,0.5,1.2,0.5c0.8,0,1.6-0.3,2.2-0.9c0.6-0.6,1.1-1.3,1.6-2.2
		c0.4-0.9,0.8-1.9,1.1-2.9c0.1-0.4,0.2-0.8,0.3-1.2c-0.2-1.2-0.3-2.4-0.3-3.8c0-2.6,0.4-5.1,1.1-7.4c0.7-2.3,1.7-4.2,2.9-5.9
		c1.2-1.7,2.6-3,4.1-3.9c1.5-0.9,3.1-1.4,4.7-1.4c1.2,0,2.2,0.2,3.2,0.6c0.9,0.4,1.7,1,2.4,1.7c0.7,0.7,1.2,1.6,1.5,2.7
		c0.3,1,0.5,2.2,0.5,3.4c0,1.6-0.3,3.1-0.8,4.8c-0.5,1.6-1.3,3.2-2.4,4.6c-1,1.5-2.3,2.8-3.9,3.9c-1.5,1.2-3.3,2-5.3,2.6
		c0.3,0.7,0.6,1.4,1.1,2c0.4,0.6,1,1.2,1.6,1.7c0.6,0.5,1.4,0.8,2.2,1.1c0.8,0.3,1.8,0.4,2.9,0.4c1.6,0,3-0.3,4.2-0.9
		c1.2-0.6,2.2-1.4,3-2.4c0.8-1,1.5-2.1,1.9-3.4c0.5-1.3,0.9-2.5,1.1-3.8c0.2-0.9,0.6-1.5,1.2-1.9c0.6-0.3,1.2-0.4,1.8-0.2
		c0.6,0.2,1.1,0.5,1.6,1c0.4,0.5,0.6,1.2,0.6,1.9c-0.1,0.8-0.3,1.8-0.6,2.9c-0.3,1.1-0.6,2.2-1.2,3.3c-0.5,1.1-1.2,2.2-2,3.3
		c-0.8,1.1-1.8,2-3,2.9c-1.2,0.8-2.5,1.5-4.1,2c-1.6,0.5-3.4,0.8-5.4,0.8c-1.9,0-3.8-0.4-5.5-1.1c-1.8-0.7-3.4-1.8-4.7-3.2
		c-0.6-0.6-1.1-1.3-1.6-2c-0.4,0.6-0.8,1.3-1.2,1.9c-1,1.3-2.1,2.3-3.4,3.2c-1.3,0.8-2.9,1.3-4.7,1.3c-1.1,0-2.1-0.2-3-0.6
		c-0.9-0.4-1.6-1-2.2-1.7c-0.6-0.7-1.1-1.5-1.4-2.5c-0.3-1-0.5-2-0.5-3v-17c0-0.7,0-1.3,0-1.8c0-0.6-0.1-1.1-0.2-1.5
		c-0.1-0.4-0.3-0.8-0.5-1c-0.2-0.3-0.6-0.4-1-0.4c-0.6,0-1.3,0.4-2.2,1.2c-0.9,0.8-1.7,1.9-2.6,3.2c-0.8,1.3-1.6,2.8-2.2,4.4
		c-0.6,1.6-1,3.3-1.2,5v12.2c0,0.4,0,0.8,0,1.2c0,0.4-0.1,0.8-0.2,1.1c-0.1,0.3-0.4,0.6-0.7,0.9c-0.3,0.2-0.8,0.3-1.4,0.3
		c-0.4,0-0.9,0-1.3-0.1c-0.5-0.1-0.9-0.3-1.3-0.5c-0.4-0.3-0.7-0.6-1-1.1c-0.3-0.5-0.4-1.1-0.4-1.9c-0.8,0.9-1.7,1.7-2.8,2.4
		c-1.3,0.8-2.9,1.3-4.7,1.3c-1.1,0-2.1-0.2-3.1-0.5c-0.9-0.3-1.8-0.9-2.4-1.6c-0.7-0.7-1.2-1.7-1.6-2.9c-0.4-1.2-0.6-2.6-0.6-4.2
		v-26.6c-0.9,0-1.8,0-2.5,0c-0.7,0-1.3,0-1.8-0.1c-0.6,0-1.1-0.1-1.5-0.1c-0.7,0-1.2-0.3-1.7-0.9c-0.5-0.6-0.9-1.2-1.1-1.9
		C82.9,118.9,82.9,118.2,83,117.7z M351.4,224.2c-1.6,5.3-3.5,10.1-5.6,14.3c-2.1,4.2-4.2,7.9-6.6,11.3c-2.3,3.3-4.7,6.3-7.2,8.9
		c-2.5,2.6-5,5-7.6,7.2c0.8,5.3,1.1,11.6,1.1,18.7c0,5.1-0.4,10.3-1.1,15.5c-0.7,5.2-2,10-3.8,14.2c-1.8,4.2-4.1,7.7-7,10.4
		c-2.9,2.7-6.6,4-11,4c-2.7,0-5.2-0.6-7.5-1.8c-2.3-1.2-4.3-2.8-5.9-4.8c-1.7-2-3-4.4-3.9-7.1c-0.9-2.7-1.4-5.6-1.4-8.7
		c0-5.1,0.7-9.5,2.1-13.4c1.4-3.9,3.3-7.5,5.6-10.7c2.3-3.2,5-6.3,8.1-9.1c3-2.9,6.2-5.8,9.5-8.7c-0.5-2.7-1.3-5.3-2.2-7.8
		c-1-2.5-2.2-4.7-3.8-6.6c-1.5-1.9-3.4-3.4-5.6-4.5c-2.2-1.1-4.8-1.7-7.7-1.7l-2.7-10.7c3.4-1,6.8-2.4,10.2-4.4c3.4-2,6.4-4.5,9-7.5
		c2.7-3,4.8-6.4,6.5-10.4c1.7-3.9,2.5-8.3,2.5-13.2c0-1.6-0.2-3.2-0.7-4.7c-0.4-1.5-1.1-2.8-2-3.9c-0.9-1.1-2.1-2.1-3.5-2.8
		c-1.4-0.7-3-1-4.9-1c-2.4,0-4.6,0.5-6.7,1.6c-2,1.1-3.9,3-5.7,5.8c-1.8,2.8-3.6,6.7-5.3,11.5c-1.7,4.8-3.4,10.9-5.2,18.2
		c0,0,0,0,0,0c0,0.1,0,0.4,0,0.8c0,0.4-0.1,0.8-0.2,1.1c-1.6,5.3-3.5,10.1-5.6,14.3c-2.1,4.2-4.2,7.9-6.6,11.3
		c-2.3,3.3-4.7,6.3-7.2,8.9c-2.5,2.6-5,5-7.6,7.2c0.8,5.3,1.1,11.6,1.1,18.7c0,5.1-0.4,10.3-1.1,15.5c-0.7,5.2-2,10-3.8,14.2
		c-1.8,4.2-4.1,7.7-7,10.4c-2.9,2.7-6.6,4-11,4c-2.7,0-5.2-0.6-7.5-1.8c-2.3-1.2-4.3-2.8-5.9-4.8c-1.7-2-3-4.4-3.9-7.1
		c-0.9-2.7-1.4-5.6-1.4-8.7c0-5.1,0.7-9.5,2.1-13.4c1.4-3.9,3.3-7.5,5.6-10.7c2.3-3.2,5-6.3,8.1-9.1c3-2.9,6.2-5.8,9.5-8.7
		c-0.5-2.7-1.3-5.3-2.2-7.8c-1-2.5-2.2-4.7-3.8-6.6c-1.5-1.9-3.4-3.4-5.6-4.5c-2.2-1.1-4.8-1.7-7.7-1.7l-2.7-10.7
		c3.4-1,6.8-2.4,10.2-4.4c3.4-2,6.4-4.5,9-7.5c2.7-3,4.8-6.4,6.5-10.4c1.7-3.9,2.5-8.3,2.5-13.2c0-1.6-0.2-3.2-0.7-4.7
		c-0.4-1.5-1.1-2.8-2-3.9c-0.9-1.1-2.1-2.1-3.5-2.8c-1.4-0.7-3-1-4.9-1c-2.4,0-4.6,0.5-6.7,1.6c-2,1.1-3.9,3-5.7,5.8
		c-1.8,2.8-3.6,6.7-5.3,11.5c-1.7,4.8-3.4,10.9-5.2,18.2c0,0,0,0,0,0c0,0.1,0,0.3,0,0.5c0,0.2-0.1,0.5-0.2,0.9
		c-0.9,3.2-2,6.6-3.5,10.2c-1.4,3.5-3.2,6.8-5.5,9.8c-2.2,3-4.9,5.4-8,7.4c-3.1,2-6.7,2.9-10.9,2.9c-2.2,0-4.2-0.3-6-1
		c-1.8-0.7-3.4-1.7-4.8-2.9c-1.4-1.2-2.5-2.7-3.4-4.4c-0.9-1.7-1.5-3.5-1.8-5.5c-2.3,4.1-5.1,7.5-8.3,10.1
		c-3.2,2.6-6.9,3.9-11.2,3.9c-3.2,0-6.1-0.7-8.7-2c-2.6-1.3-4.7-3.2-6.5-5.7c-1.6-2.2-2.8-4.9-3.7-7.9c-0.8,0.4-1.7,0.9-2.6,1.2
		c-2.7,1-5.6,1.5-8.9,1.5c-1.8,0-3.5-0.1-5.1-0.3c-1.6-0.2-3.3-0.5-4.8-1c-2.4,4.2-5.5,7.6-9.4,10.1c-3.9,2.6-8.6,3.8-14.3,3.8
		c-4.5,0-8.4-0.8-11.8-2.4c-3.4-1.6-6.2-3.8-8.6-6.7c-2.3-2.9-4.1-6.3-5.2-10.3c-1.2-4-1.8-8.4-1.8-13.1v-92.8
		c0-1.4-0.1-2.5-0.3-3.3c-0.2-0.8-0.4-1.5-0.7-1.9c-0.2-0.5-0.4-0.9-0.7-1.1c-0.2-0.3-0.3-0.6-0.3-0.9c0-0.4,0.2-0.7,0.6-0.9
		c0.4-0.3,0.9-0.5,1.5-0.7c0.6-0.2,1.3-0.3,2-0.4c0.7-0.1,1.4-0.1,2.1-0.1c3.2,0,5.8,0.8,7.6,2.5c1.9,1.7,2.8,3.7,2.8,6v91.1
		c0,3.2,0.3,6.2,0.9,8.9c0.6,2.7,1.4,5.1,2.6,7.1c1.1,2,2.6,3.5,4.3,4.7c1.7,1.1,3.8,1.7,6.1,1.7c2.4,0,4.5-0.6,6.2-1.9
		c1.7-1.2,3.1-2.9,4.3-5c-2.8-2-5.3-4.3-7.5-6.9c-2.2-2.6-4.1-5.5-5.6-8.6c-1.6-3.1-2.7-6.3-3.6-9.7c-0.8-3.4-1.2-6.8-1.2-10.2
		c0-3.9,0.4-7.3,1.3-10.2c0.9-2.9,2-5.3,3.6-7.1c1.5-1.9,3.3-3.2,5.3-4.1c2-0.9,4.1-1.3,6.4-1.3c2.6,0,5.1,0.6,7.6,1.9
		c2.5,1.3,4.7,3.2,6.6,5.8c1.9,2.6,3.5,5.9,4.7,9.9c1.2,4,1.8,8.7,1.8,14.2c0,3.8-0.2,7.6-0.7,11.4c-0.5,3.8-1.2,7.4-2.2,10.8
		c0.7,0.3,1.4,0.4,2,0.4c0.7,0,1.3,0,2,0c2.1,0,3.9-0.4,5.6-1.1c1.6-0.8,3-1.8,4.2-3c0.7-0.7,1.3-1.6,1.8-2.5
		c0.1-4.4,0.4-8.8,1.1-13.2c0.7-5.2,1.5-9.9,2.4-14.1c1-4.9,2.2-9.6,3.5-14.2c0.3-0.8,0.6-1.7,0.7-2.5c0.2-0.9,0.5-1.6,1.1-2.3
		c0.6-0.7,1.5-1.3,2.7-1.7c1.2-0.4,3.2-0.7,5.7-0.7c2.4,0,4,0.4,4.7,1.3c0.7,0.9,1,1.9,0.8,3c-0.2,1.1-0.5,2.3-1.1,3.5
		c-0.6,1.2-1,2.2-1.2,2.9c-0.9,3.6-1.7,6.9-2.4,9.9c-0.7,3-1.3,6-1.8,9c-0.5,3-0.8,6.1-1.1,9.4c-0.3,3.3-0.4,6.9-0.4,11
		c0,5.3,0.8,9.3,2.3,12.1c1.6,2.7,3.8,4.1,6.6,4.1c2,0,3.8-0.7,5.5-2.2c1.7-1.5,3.2-3.4,4.6-5.8c1.4-2.4,2.5-5.2,3.6-8.4
		c1-3.1,1.8-6.4,2.4-9.8v-31.4c0-1.4-0.1-2.5-0.3-3.3c-0.2-0.8-0.4-1.5-0.7-1.9c-0.2-0.5-0.4-0.9-0.7-1.1c-0.2-0.3-0.3-0.6-0.3-1
		c0-0.3,0.2-0.6,0.6-0.9c0.4-0.3,0.9-0.5,1.5-0.7c0.6-0.2,1.3-0.3,2-0.4c0.7-0.1,1.4-0.1,2.1-0.1c3.2,0,5.8,0.8,7.6,2.5
		c1.9,1.7,2.8,3.7,2.8,6v49.4c0,0.4,0,1.2,0.1,2.1c0.1,1,0.3,2,0.6,3c0.3,1,0.8,1.9,1.5,2.7c0.7,0.8,1.7,1.1,2.9,1.1
		c2,0,3.7-0.7,5.1-2.1c1.4-1.4,2.7-3.1,3.7-5.2c1-2.1,1.9-4.4,2.6-6.8c0.7-2.4,1.2-4.7,1.7-6.9c0.1-0.7,0.3-1.3,0.5-1.8
		c0-0.3,0-0.5,0.1-0.7c1.2-6.3,2.6-12.3,4.1-17.8c1.6-5.5,3.6-10.3,6.1-14.4c2.5-4.1,5.7-7.3,9.5-9.6c3.8-2.3,8.5-3.5,14.1-3.5
		c4.1,0,7.7,0.7,10.9,2.1c3.2,1.4,5.9,3.3,8.1,5.7c2.2,2.4,3.9,5.3,5,8.6c1.2,3.3,1.8,6.8,1.8,10.5c0,4.1-0.7,8-1.9,11.6
		c-1.3,3.6-3.1,6.9-5.3,10c-2.3,3-4.9,5.7-7.9,8.1c-3,2.4-6.3,4.4-9.7,5.9c3.7,2,6.9,4.4,9.6,7.2c2.6,2.8,4.8,6.3,6.4,10.6
		c3.8-4,7.4-8.6,10.7-13.8c3.3-5.2,6-11.5,8-18.7c0.2-0.5,0.3-1,0.5-1.5c0-0.4,0-0.7,0.1-1.1c1.2-6.3,2.6-12.3,4.1-17.8
		c1.6-5.5,3.6-10.3,6.1-14.4c2.5-4.1,5.7-7.3,9.5-9.6c3.8-2.3,8.5-3.5,14.1-3.5c4.1,0,7.7,0.7,10.9,2.1c3.2,1.4,5.9,3.3,8.1,5.7
		c2.2,2.4,3.9,5.3,5,8.6c1.2,3.3,1.8,6.8,1.8,10.5c0,4.1-0.7,8-1.9,11.6c-1.3,3.6-3.1,6.9-5.3,10c-2.3,3-4.9,5.7-7.9,8.1
		c-3,2.4-6.3,4.4-9.7,5.9c3.7,2,6.9,4.4,9.6,7.2c2.6,2.8,4.8,6.3,6.4,10.6c3.8-4,7.4-8.6,10.7-13.8c3.3-5.2,6-11.5,8-18.7
		c0.6-2,1.2-3.5,2-4.4c0.8-0.9,1.6-1.4,2.7-1.4c0.8,0,1.6,0.2,2.4,0.7c0.8,0.5,1.6,1.1,2.2,1.9c0.7,0.8,1.2,1.6,1.6,2.6
		c0.4,1,0.6,1.9,0.6,2.9c0,0.1,0,0.4,0,0.8C351.6,223.4,351.6,223.8,351.4,224.2z"/>
</g>
</svg>
