<svg xmlns="http://www.w3.org/2000/svg" viewBox="0 0 641.99 623"><defs><style>.cls-1{fill:#ef4c4c;}.cls-2{fill:#fff;}</style></defs><title>Asset 1</title><g id="Layer_2" data-name="Layer 2"><g id="Layer_1-2" data-name="Layer 1"><path class="cls-1" d="M642,311.5c0,172-139.46,311.5-311.5,311.5S19,483.53,19,311.5,158.46,0,330.49,0,642,139.46,642,311.5Z"/><path class="cls-2" d="M310.53,301.61c6.58-17.82,24.16-29.55,44.44-29.55,26.83,0,40.5,23.43,35.38,40.28H337.14c-1.7,24.9,11,36.36,23.92,36.36,11,0,21.48-3.68,29-10.24l4.15,7.08c-8.53,9-23.42,16.12-37.09,16.12-29.3,0-49.3-20.28-49.3-44.93a27.92,27.92,0,0,1,.23-4.38C308.32,308.8,310.53,301.61,310.53,301.61Zm45.65-17.82c-8.79,0-14.66,6.1-17.34,17.82h32.46C372,291.59,366.91,283.79,356.18,283.79Z"/><path class="cls-2" d="M441.37,250.67v30.24h24.39v10.74H441.37v34.91c0,24.39,2.92,28.56,19.27,28.56v7.07H394.5v-7.07c16.35,0,19.28-4.16,19.28-28.56V291.66h0V280.91h0V261.15c0-33.19,14.41-49.53,43.45-49.53H519v115c0,24.39,2.94,28.56,19.28,28.56v7.07H472.11v-7.07c16.36,0,19.28-4.16,19.28-28.56v-70.3c0-24.41-2.92-34.65-19.28-34.65H456.49C444,221.61,441.37,230.9,441.37,250.67Z"/><path class="cls-2" d="M209.31,279.53h45.38a58.84,58.84,0,0,1,3.68,13.41c4.87-9.75,15.85-17.55,25.61-17.55,16.84,0,22,11.21,22,20,0,6.12-4.14,14.65-13.19,14.65-12.43,0-6.08-16.11-19.5-16.11-6.84,0-14.88,6.37-14.88,26.11v5.15c0,24.38,2.92,28.54,19.27,28.54v7.08H211.48v-7.08c16.37,0,19.28-4.16,19.28-28.54v-6.6c0-24.4-2.92-28.31-19.28-28.31h-2.17Z"/><path class="cls-2" d="M526.67,283.61h54v7.09c-10.23,0-12.2,3.16-8,12.2l14.16,31.74,13.42-31.74c3.66-8.78,2-12.2-7.32-12.2v-7.09h36.37v7.09c-8.55,0-13.91,3.42-17.34,12.2l-26.36,63.71c-11.21,27.34-32.18,92.62-68.28,93.49-18.18.45-33-6.71-32.75-18.73.16-7.84,6.54-13.29,11.26-13.06,15.1.77,11.91,18.17,26.08,18.17,21.23,0,40.27-49.61,51-78.15l-27.58-61.78c-3.91-8.78-8.78-12.18-16.37-12.18h-2.29Z"/><path class="cls-2" d="M184.33,324.92V278.47H107.65V234.72c0-21.23,4.15-30.38,21.31-31.28,42.63-2.2,17,38.77,34.6,47.91,14.79,7.7,28.11-9.16,18.34-25.72-13.17-22.35-29.73-35.17-56.28-32.66C97,195.67,80.32,212,80.32,245.19v33.32H63.49v10.73H80.32s0,32.42,0,39.09c.12,86.88-20.26,99.18-31.52,105.18-11.44,6.12-15.23,4.59-28.6.76-7.07-2-17.91,3.44-19.41,9.16-3.52,13.07,4.95,17.9,18.27,16.77,8.78-.75,32.75-8,50.32-23.63,37.5-33.43,38.31-77.52,38.31-127,0-9.2,0-15.67,0-20.13h28.92c16.66,0,19.64,4,19.64,28.83v6.7c0,24.84-3,29.06-19.64,29.06v7.22h67.33V354C187.31,354,184.33,349.77,184.33,324.92Z"/><path class="cls-1" d="M44.69,435.48c-8.47,3.66-12.87,2.08-24.48-1.25-7.07-2-17.91,3.43-19.41,9.15-3.52,13.08,4.95,17.9,18.27,16.78,5.93-.5,18.81-4,32-11Q47.7,442.4,44.69,435.48Z"/></g></g></svg>