<svg id="Layer_1" data-name="Layer 1" xmlns="http://www.w3.org/2000/svg" viewBox="0 0 612.92 244.24"><path d="M52.63,99.24V20h150v80.63c0,26.51-1.26,48-74.15,90.82l-.83.49-.82-.49c-72.89-42.83-74.15-64.31-74.15-90.82Zm185,48.51L217.51,164.9l9.66,16.63.36.62-.5.52c-.15.14-3.78,3.72-25.08,13.82l-6.16,2.93C173.92,209.87,144,224.17,127.71,224h-.21c-16.29.18-46.21-14.12-68.08-24.57l-6.16-2.93c-21.3-10.1-24.93-13.68-25.08-13.82l-.5-.52.36-.62,9.7-16.69L17.55,147.75l-1.87-1.59,2.46-.08,13.38-.47.17-11.31,0-2,1.54,1.34,28.4,24.67.59.52-.4.68-7,11.81c12.33,6.34,30.42,15.43,38.14,19,15,6.92,26.32,10.4,34.62,10.61,8.31-.21,19.64-3.69,34.63-10.61,7.71-3.57,25.81-12.66,38.14-19l-7-11.81-.41-.68.6-.52L222,133.6l1.54-1.34,0,2,.17,11.31,13.39.47,2.44.08Z" style="fill:#050506"/><path d="M126.78,191.49l.82.49.83-.49c72.89-42.83,74.15-64.31,74.15-90.82V20h-150v80.63C52.63,127.18,53.89,148.66,126.78,191.49ZM55.88,99.24V23.29H199.33v76c0,27.06,0,46.65-71.73,89C55.85,145.89,55.85,126.3,55.88,99.24Z" style="fill:#a0a09f"/><path d="M127.6,188.21c71.76-42.32,71.76-61.91,71.73-89V23.29H55.88v76C55.85,126.3,55.85,145.89,127.6,188.21ZM148.07,43.46c.08-.34.13-.69.18-1.05a4.43,4.43,0,0,0,2.61.13h0l.2-.07h.07A2.59,2.59,0,0,0,152.91,40l0-.46-.26.38a3.59,3.59,0,0,1-4.24,1.18c.11-1.26.26-2,1.49-2.23a6.87,6.87,0,0,1,1-.15,4.62,4.62,0,0,1,2.23.51c.28.12.57.24.89.35a1.85,1.85,0,0,0,.74.08,14.62,14.62,0,0,0,3.41-.89,14.42,14.42,0,0,1,3.19-.85,30.39,30.39,0,0,1,5.76.64l.92.15a11.66,11.66,0,0,0,2.52.28,2.42,2.42,0,0,0,2.05-1.12c0,.15,0,.31,0,.5a6,6,0,0,1-.48,2.67l-.07.13.13.08a1.87,1.87,0,0,0,.52.16h.05a2.61,2.61,0,0,0,.55,0,4.08,4.08,0,0,0,2.1-.8,4.77,4.77,0,0,1-2.66,3.43l-.18.07.09.17c.09.15.17.3.25.46v0h0a6.25,6.25,0,0,1,.57,1.94l.1.86c.33,3,.79,7,3.64,10a6.7,6.7,0,0,1-1.46.24,4.62,4.62,0,0,1-2.54-.54,6.56,6.56,0,0,1-1.94-4.46H171a9.47,9.47,0,0,0,.24,3.28,6.48,6.48,0,0,0,2.43,3.44l.44.38a5.31,5.31,0,0,1,1.87,3.2l.09.44c.54,2.61.84,4,2.12,5A4.38,4.38,0,0,1,175,68a6.92,6.92,0,0,1-2.46-2.71h0v0l-.14-.18a8,8,0,0,0-4.24-3.44l-.13.29a9.19,9.19,0,0,1,3.21,4,8.61,8.61,0,0,1,1,3.71c0,.85,0,1.73,0,2.57,0,1.09,0,2.11,0,3.09a11.35,11.35,0,0,0,.47,3.16c-1-.29-4.08-1.46-4.38-4.47-.06-.64-.13-1.21-.23-1.72a10.32,10.32,0,0,0-3.39-6.7h0a2.86,2.86,0,0,0-.33-.29l-.22.23s2.77,3.57,2.59,10c-.08.8-.21,1.61-.34,2.46a26.2,26.2,0,0,0-.47,5.12,12.84,12.84,0,0,0,.42,3c-1-.73-3.68-3.28-4.41-9.65a12.64,12.64,0,0,0-.62-7.23l-.29.13a3.77,3.77,0,0,1,.07.4c0,.86,0,1.72,0,2.54a23.74,23.74,0,0,1-1,6.08,12.52,12.52,0,0,1-1.14,2.32c-1.67,3.25-3.47,4.9-5.83,5.37a7,7,0,0,1-.8.11,5.27,5.27,0,0,0,.66-.49,6.76,6.76,0,0,0,1.45-1.89,12.91,12.91,0,0,0,1-3.55,18,18,0,0,0,.08-2.52c0-.45,0-.86-.07-1.26s-.06-.75-.07-1.14a.49.49,0,0,1,0-.12v-.05a11,11,0,0,0,.22-6.25l-.32.07c0,.11,0,.23,0,.35a21.89,21.89,0,0,1-1.55,6.76.93.93,0,0,0,0,.1c-1.34,2.67-3.35,6.7-7.13,7.43a3.79,3.79,0,0,1-1.45.13c.6-.45,1.73-1.65,2.34-4.56.2-1,.33-1.89.47-2.78.38-2.54.74-4.93,2.46-7.42l-.23-.22c-1.91,1.43-4,5.3-4.3,6.31-.05.16-.09.34-.13.52a5,5,0,0,1-2.28,3.48,3.32,3.32,0,0,1-3.06.46l-.09-.05.07,0a4.34,4.34,0,0,0,2-1.52c.58-.85.92-2.82,1.25-4.73.16-.92.32-1.79.49-2.53a14,14,0,0,1,1.34-3.59,10.26,10.26,0,0,1,3.11-3.68A14.55,14.55,0,0,1,150.62,62l-.09-.3a7.68,7.68,0,0,0-1.79.38c-3,1-4.42,3.48-5.5,5.7a4.89,4.89,0,0,1-3.09,2.83,7.4,7.4,0,0,0,1.4-3.23,30.92,30.92,0,0,1,1-3.29c.74-1.92,2.84-3.41,6.4-4.54,1.32-.43,2.69-.75,3.68-1l.09,0a12.12,12.12,0,0,0-1.26,5.6,11.81,11.81,0,0,1-1,4l-.12.27.29,0a11.63,11.63,0,0,0,4.92-1.88,3.3,3.3,0,0,0,.57-.44l.08-.08,0,0,.05,0,.09-.08.14-.14,0,0,0,0a3.82,3.82,0,0,0,.55-.75,3,3,0,0,0,.23-.49,15.68,15.68,0,0,1,.74-1.55c.06.28.13.54.19.78l.17.72a16,16,0,0,1,0,5.18c0,.17-.07.33-.1.45l-.07.23-.19.58.45-.41c1-.94,2-1.81,2.42-2.27s.74-.83,1-1.16.64-.75,1.21-1.37a7.19,7.19,0,0,0,1.49-2.78,16.68,16.68,0,0,0,2.82,3.37l.31.16-.08-.34a9.26,9.26,0,0,1,0-3.66,25.85,25.85,0,0,1,1-2.93c1.08-2.19,1.36-2.83,1.48-4.55a9.79,9.79,0,0,0-1.46-5l-.29.14a10.65,10.65,0,0,1,.69,3.6,12.77,12.77,0,0,1-1.63,5.24c-.3.63-.59,1.22-.8,1.79,0,.05,0,.1,0,.14v0a6.39,6.39,0,0,0-.42,1.59,1.15,1.15,0,0,1,0,.19v.08h0A9.88,9.88,0,0,1,165,60.5a3.38,3.38,0,0,1-.21-.7,5.22,5.22,0,0,1,0-2.17A6,6,0,0,0,165,55.9a4.71,4.71,0,0,0-.46-2,4.43,4.43,0,0,0-.86-1.24l-.26.18a6.26,6.26,0,0,1,.2,4.31,5.87,5.87,0,0,0-.07,3.22c.07.24.15.48.23.69s0,.19,0,.27a2.29,2.29,0,0,1-.07.44,6.1,6.1,0,0,1-.32,1,9.89,9.89,0,0,1-.74,1.22c-.3.35-.61.69-.91,1l-.63.7-.08.1h0v0l-.07.08-.31.36-.66.68c0-.29.07-.57.08-.84a12.72,12.72,0,0,0-.54-3.46,15.72,15.72,0,0,1-.45-2.14,5.13,5.13,0,0,1,0-1.83,5.92,5.92,0,0,1,1.18-2.47h0s0,0,0,0a2.62,2.62,0,0,0,1-.54,2.47,2.47,0,0,0,.4-.39h0a3.22,3.22,0,0,0,.68-2.52,5.18,5.18,0,0,0-.68-2.13c-.07-.16-.13-.26-.13-.27l-.3.12a4.25,4.25,0,0,1-.13,3.27,2.22,2.22,0,0,1-1.43,1l-.3.08a7.26,7.26,0,0,1-2.34-.06l-.37-.07a12.23,12.23,0,0,0-2.57-.31l-.32,0a9.43,9.43,0,0,0-1.06,0,9,9,0,0,0-2,.4,6.16,6.16,0,0,1-1.33.29,1.67,1.67,0,0,1-1.59-.92,1.83,1.83,0,0,1-.34-.95c0-.87.9-1.47,2.37-1.55a7,7,0,0,1,1.73.14,8.38,8.38,0,0,0,2,.16c2.11-.11,3.62-1.14,3.85-2.63a10.94,10.94,0,0,0,.09-2c0-.82-.21-3.52-1.3-3.66H156c-.55,0-.9.49-1.28,1a3.55,3.55,0,0,1-1.34,1.23,3.19,3.19,0,0,1-1.14.22,5.55,5.55,0,0,1-3.66-1,1.48,1.48,0,0,1-.53-1.08A1.93,1.93,0,0,1,148.07,43.46Zm9.85,17.61a22,22,0,0,0-1.55,3.18,5.27,5.27,0,0,1-1.82,2,10.13,10.13,0,0,1-2,.83s0,0,0-.13a12.23,12.23,0,0,0,.4-2.33c.07-.82.13-1.57.19-2.23,0-.23.06-.45.09-.65a6.52,6.52,0,0,1,3.69-4.91l.67.05c.39,0,.75.08,1.07.09a7.05,7.05,0,0,0-.78,3C157.87,60.35,157.89,60.71,157.92,61.07Zm2.37-4.88Zm-12.46-7.48c.89.94,2.48,0,3.78-.44s3,1.08,4.64.1c0,0-.16,1.89-1.81,1.32s-3-.75-4.16.38-4.08.69-4.75-1-.2-3.44-1.3-3.88c0,0,.57-1.09,2.15-.43S147,47.77,147.83,48.71Zm-39-4c1.58-.66,2.15.43,2.15.43-1.1.44-.62,2.19-1.3,3.88s-3.56,2.12-4.75,1-2.52-1-4.16-.38S99,48.37,99,48.37c1.59,1,3.34-.49,4.64-.1s2.89,1.38,3.78.44S107.26,45.42,108.83,44.76ZM79.15,63.52l.09-.43a5.31,5.31,0,0,1,1.87-3.21l.44-.38A6.53,6.53,0,0,0,84,56.06a9.47,9.47,0,0,0,.24-3.28H83.9a6.52,6.52,0,0,1-2,4.46,4.58,4.58,0,0,1-2.54.54A6.58,6.58,0,0,1,78,57.54c2.86-2.93,3.31-7,3.64-10l.1-.86a6.36,6.36,0,0,1,.56-1.93h0a0,0,0,0,0,0,0,3.47,3.47,0,0,1,.25-.46l.09-.17-.18-.07a4.74,4.74,0,0,1-2.66-3.43,4.08,4.08,0,0,0,2.1.8,2.61,2.61,0,0,0,.55,0h0a2.38,2.38,0,0,0,.52-.16l.13-.08L83.06,41a6,6,0,0,1-.48-2.66c0-.2,0-.36,0-.51a2.42,2.42,0,0,0,2,1.12,11.66,11.66,0,0,0,2.52-.28l.92-.15a30.47,30.47,0,0,1,5.76-.64,14.42,14.42,0,0,1,3.19.85,14.5,14.5,0,0,0,3.41.89,1.85,1.85,0,0,0,.74-.08c.32-.11.61-.23.89-.35a4.62,4.62,0,0,1,2.23-.51,6.87,6.87,0,0,1,1,.15c1.23.28,1.38,1,1.49,2.23a3.59,3.59,0,0,1-4.24-1.18l-.26-.38,0,.46a2.59,2.59,0,0,0,1.75,2.48h.06l.21.07h0a4.45,4.45,0,0,0,2.62-.13,8.85,8.85,0,0,0,.18,1.05,1.93,1.93,0,0,1,0,.47,1.52,1.52,0,0,1-.53,1.08A5.55,5.55,0,0,1,103,46a3.19,3.19,0,0,1-1.14-.22,3.55,3.55,0,0,1-1.34-1.23c-.38-.48-.73-.94-1.28-1h-.19c-1.09.14-1.27,2.84-1.3,3.66a10.94,10.94,0,0,0,.09,2c.23,1.49,1.74,2.52,3.85,2.63a8.38,8.38,0,0,0,2-.16,7,7,0,0,1,1.73-.14c1.47.08,2.4.68,2.37,1.55a1.83,1.83,0,0,1-.34.95,1.67,1.67,0,0,1-1.59.92,6,6,0,0,1-1.33-.29,9,9,0,0,0-2-.4,7.76,7.76,0,0,0-1.07,0,1.68,1.68,0,0,0-.31,0,12.23,12.23,0,0,0-2.57.31l-.37.07a7.27,7.27,0,0,1-2.34.06l-.3-.08a2.22,2.22,0,0,1-1.43-1A4.25,4.25,0,0,1,94,50.49l-.3-.12s-.06.11-.14.28a5.25,5.25,0,0,0-.67,2.13,3.21,3.21,0,0,0,.67,2.5h0v0a3,3,0,0,0,.41.38,2.59,2.59,0,0,0,.93.54l0,0h0a5.86,5.86,0,0,1,1.18,2.47,5.08,5.08,0,0,1,0,1.82,15.55,15.55,0,0,1-.45,2.15,12.72,12.72,0,0,0-.54,3.46c0,.27,0,.55.07.84l-.66-.69-.3-.35-.07-.08v0h0l-.1-.11s-.63-.7-.63-.7l-.9-1a9.89,9.89,0,0,1-.74-1.22,6.1,6.1,0,0,1-.32-1,2.29,2.29,0,0,1-.07-.44,1.39,1.39,0,0,0,0-.27c.08-.21.17-.45.24-.69a5.68,5.68,0,0,0-.08-3.22,6.33,6.33,0,0,1,.21-4.31l-.26-.18a4.3,4.3,0,0,0-.87,1.25,4.63,4.63,0,0,0-.45,2,6,6,0,0,0,.16,1.73,5.26,5.26,0,0,1,0,2.18,3.48,3.48,0,0,1-.21.69,9.88,9.88,0,0,1-1.29,2.26h0v-.26a6.52,6.52,0,0,0-.42-1.61v0a.42.42,0,0,1,0-.12,19.16,19.16,0,0,0-.8-1.79A12.63,12.63,0,0,1,86,53.69a10.38,10.38,0,0,1,.69-3.6L86.42,50A9.78,9.78,0,0,0,85,54.9c.12,1.73.4,2.37,1.47,4.56a24,24,0,0,1,1,2.93,9,9,0,0,1,0,3.66l-.08.34.32-.16a16.68,16.68,0,0,0,2.82-3.37A7.06,7.06,0,0,0,92,65.64c.57.62.89,1,1.21,1.37s.56.66,1,1.16,1.42,1.33,2.42,2.26l.45.42s-.18-.58-.18-.58L96.8,70c0-.12-.06-.28-.1-.46a15.9,15.9,0,0,1,0-5.17l.17-.72c.06-.24.13-.5.19-.78a15.68,15.68,0,0,1,.74,1.55,3,3,0,0,0,.23.49,3.82,3.82,0,0,0,.55.75l0,0,0,0,.14.14.09.08.05,0,0,0a.38.38,0,0,0,.09.09,3,3,0,0,0,.57.43,11.54,11.54,0,0,0,4.91,1.88l.29,0-.12-.27a11.81,11.81,0,0,1-1-4,12.12,12.12,0,0,0-1.26-5.6l.09,0c1,.23,2.36.55,3.68,1,3.56,1.13,5.66,2.62,6.4,4.54a30.92,30.92,0,0,1,1,3.29,7.4,7.4,0,0,0,1.4,3.23A4.89,4.89,0,0,1,112,67.79c-1.08-2.22-2.47-4.68-5.49-5.7a7.87,7.87,0,0,0-1.8-.38l-.09.3a15.07,15.07,0,0,1,2.19,1.38,10.31,10.31,0,0,1,3.11,3.67,14.6,14.6,0,0,1,1.34,3.6c.17.74.33,1.61.49,2.53.33,1.91.67,3.88,1.25,4.73a4.34,4.34,0,0,0,2,1.52l.07,0-.1.05a3.3,3.3,0,0,1-3-.46,5,5,0,0,1-2.28-3.48c0-.18-.08-.36-.13-.52-.3-1-2.39-4.88-4.3-6.31l-.23.22c1.72,2.49,2.08,4.88,2.46,7.42.13.89.27,1.81.47,2.78.61,2.91,1.74,4.11,2.34,4.56a3.65,3.65,0,0,1-1.43-.13c-3.8-.73-5.81-4.76-7.15-7.43l-.05-.11A21.79,21.79,0,0,1,100,69.3c0-.12,0-.24,0-.35l-.32-.07a11,11,0,0,0,.22,6.25v.05a.37.37,0,0,1,0,.11c0,.4,0,.76-.07,1.15s0,.81-.07,1.26a18,18,0,0,0,.08,2.52,13.06,13.06,0,0,0,1,3.54,7.41,7.41,0,0,0,.77,1.17,6.08,6.08,0,0,0,.69.73,5.27,5.27,0,0,0,.66.49,7.5,7.5,0,0,1-.81-.11c-2.35-.47-4.15-2.12-5.81-5.36a12.33,12.33,0,0,1-1.15-2.33,23.32,23.32,0,0,1-1-6.08c0-.82,0-1.68,0-2.56,0-.1,0-.23.07-.38l-.31-.1a12.46,12.46,0,0,0-.6,7.2c-.73,6.37-3.42,8.91-4.41,9.64a12.66,12.66,0,0,0,.42-3,26.2,26.2,0,0,0-.47-5.12c-.13-.85-.27-1.66-.35-2.48-.18-6.43,2.57-10,2.6-10l-.22-.23a2.86,2.86,0,0,0-.33.29h0a10.36,10.36,0,0,0-3.4,6.7c-.09.51-.17,1.08-.23,1.72-.29,3-3.4,4.18-4.37,4.47a11.35,11.35,0,0,0,.47-3.16c0-1,0-2,0-3.09,0-.84,0-1.72,0-2.56a8.61,8.61,0,0,1,1-3.72,9.19,9.19,0,0,1,3.21-4l-.13-.29A8.06,8.06,0,0,0,82.81,65l-.13.17v0h0A6.92,6.92,0,0,1,80.2,68a4.38,4.38,0,0,1-3.17.6C78.31,67.52,78.61,66.13,79.15,63.52ZM96.56,57c.32,0,.68,0,1.06-.09l.68-.05A6.52,6.52,0,0,1,102,61.74c0,.2.06.42.09.65.06.66.12,1.41.19,2.23a12.23,12.23,0,0,0,.4,2.33c0,.08,0,.13,0,.13a9.89,9.89,0,0,1-2-.83,5.36,5.36,0,0,1-1.82-2,22,22,0,0,0-1.55-3.18,9.93,9.93,0,0,0,0-1.1A6.93,6.93,0,0,0,96.56,57Zm-2.33,8.9ZM75.16,120.31c2.15-3.84,4.45-6.14,4.45-7.83a23.75,23.75,0,0,0-.81-3.41,5.5,5.5,0,0,1-4.67,1.06c-3.68-1.23-4.91-1.64-8-8s-1-13.31-1-13.31a63.63,63.63,0,0,1,2.25,6.55,16.39,16.39,0,0,0,2.87,5.53S70,95.8,70,91.5s-.61-5.11-2.46-9.62A14.05,14.05,0,0,1,67,73.29a16.9,16.9,0,0,0,5.73,8.8s.41-6.76-1.84-9.62A27.84,27.84,0,0,1,66,62.24a60.39,60.39,0,0,0-2.87-8.19c7.17,2.46,7.57,7.37,7.57,7.37s2.26-1.23-2.66-9.83A24.88,24.88,0,0,1,65.33,34.4a9.67,9.67,0,0,0,3.48,7.16c5.18,4.6,6.35,15.35,4.91,21.29s3.07,14.74,2,19.65-5.52,16.37-2.25,22.1c1.64,2.87,3.63,2.82,5.22,2.05a3.41,3.41,0,0,1,.56-1.23,25.17,25.17,0,0,0,2-3.39c3.09-4,6.34-7,9.66-12.1,3.09-4.74,3.38-8.57,3.32-10.3a13,13,0,0,0,.92,1.74c1.16,2.26,3.13,5.31,6.76,6l.43.06s0,0,0,0l.35.07c3.07.5,3.31-2.18,3.31-2.18A3.59,3.59,0,0,1,103.7,85a2.8,2.8,0,0,1-.46-.35h0a4.63,4.63,0,0,1-.52-.55,6,6,0,0,1-.59-.89,11.63,11.63,0,0,1-.87-3.08,15.47,15.47,0,0,1-.08-1.77,19.58,19.58,0,0,0,2,3.18,9,9,0,0,0,5.22,3.44,4.72,4.72,0,0,0,2.5.06l2.32-.56c1.47.34,2.87.59,4,.77,0,0,1.43-4.18,4.63-5V56.09c0-.06-.07-5.73,0-10.39-1,2.13-2.65,5-5.09,6.35a7.11,7.11,0,0,0,4.38-1.8c-.3,1.74-3.94,8-8.88,11a12.69,12.69,0,0,0-4.29-2.56c1.4-2.47,3.36-5.86,3.36-5.86,1.79-3.52,2.4-8.19,2.71-11.29,0,0-4.62-1.28-5.41-4.73-.46-2,.85-3.32,2.38-3.93-1,4.66,2.24,5.8,2.24,5.8a8.26,8.26,0,0,1-.38-6.2,9.54,9.54,0,0,1,2.24.14c-.74,5.41,2.48,6.34,2.48,6.34a9,9,0,0,1-.19-6.2,4.78,4.78,0,0,1,4.28,2l.12.18a10.83,10.83,0,0,1-3,9.22s1.57-.12,3.19-2.28a36.63,36.63,0,0,1,.67-5.74c.68-3.21,1.89-5.13,3.69-5.87l.72-.29v-.39l.48.19.53-.22V30l.7.28c1.86.73,3.1,2.65,3.81,5.86a37.74,37.74,0,0,1,.71,6,4.86,4.86,0,0,0,3,2,10.83,10.83,0,0,1-3-9.22l.12-.18a4.78,4.78,0,0,1,4.28-2,9,9,0,0,1-.19,6.2s3.22-.93,2.48-6.34a9.54,9.54,0,0,1,2.24-.14,8.31,8.31,0,0,1-.38,6.2s3.23-1.14,2.24-5.8c1.53.61,2.84,1.92,2.38,3.93-.79,3.45-5.41,4.73-5.41,4.73.31,3.1.91,7.77,2.71,11.29,0,0,2,3.39,3.36,5.86a12.69,12.69,0,0,0-4.29,2.56c-4.94-3-8.58-9.3-8.88-11a7.11,7.11,0,0,0,4.38,1.8c-2.28-1.27-3.91-3.87-4.89-5.94.05,4.58,0,9.92,0,10V80.23c3.07,1,4.44,5,4.44,5,1.18-.18,2.58-.43,4.05-.77l2.32.56a4.86,4.86,0,0,0,1.13.14,4.94,4.94,0,0,0,1.37-.2A9,9,0,0,0,152,81.5a19.58,19.58,0,0,0,2-3.18c0,.57,0,1.15-.08,1.77a11.71,11.71,0,0,1-.88,3.08,5.25,5.25,0,0,1-.58.89,4.63,4.63,0,0,1-.52.55h0a2.8,2.8,0,0,1-.46.35,3.59,3.59,0,0,1-2.29.42s.24,2.68,3.3,2.18l.36-.07v0l.44-.06c3.62-.73,5.59-3.78,6.76-6a14.74,14.74,0,0,0,.88-1.68c0,1.75.27,5.55,3.32,10.24,3.33,5.12,6.59,8.14,9.68,12.12l.05.06a24.08,24.08,0,0,0,1.91,3.31,3.41,3.41,0,0,1,.56,1.23c1.59.77,3.58.82,5.22-2.05,3.28-5.73-1.23-17.19-2.25-22.1s3.48-13.72,2.05-19.65-.27-16.69,4.91-21.29a9.67,9.67,0,0,0,3.48-7.16,24.88,24.88,0,0,1-2.66,17.19c-4.92,8.6-2.66,9.83-2.66,9.83s.41-4.91,7.57-7.37a60.39,60.39,0,0,0-2.87,8.19,28,28,0,0,1-4.91,10.23c-2.25,2.86-1.84,9.62-1.84,9.62a16.9,16.9,0,0,0,5.73-8.8,14.05,14.05,0,0,1-.61,8.59c-1.85,4.51-2.46,5.32-2.46,9.62s-.2,9.42-.2,9.42a16.47,16.47,0,0,0,2.86-5.53,63.63,63.63,0,0,1,2.25-6.55s2,7-1,13.31-4.3,6.75-8,8a5.51,5.51,0,0,1-4.67-1.06,23.75,23.75,0,0,0-.81,3.41c0,1.69,2.3,4,4.45,7.83s1.69,9.52,1.69,9.52a69.12,69.12,0,0,0-4.45-6.14s2,9.05-.31,14.89a74.11,74.11,0,0,0-3.22-8.14s-.31,8.44-3.84,13.2c0,0-.46-3.22-.77-5.83,0,0-1.8,3.77-3.37,4.78v.22c-3.06,4.36-5.88,4-8,4.32l-.25-.08c-2.26-.79-3-2.74-3.45-4.69a10.79,10.79,0,0,1,7.4-2.23s-1.93-3.76-8.17-.64a12.66,12.66,0,0,1-.73-2.81,9.89,9.89,0,0,1,7.45-2s-2.17-3.68-7.46-.56c.34-2.2,1.55-4.4,4.06-4.61,3.32-.29,6.57,3.8,7.87,5.66a8.09,8.09,0,0,1,2-2.74c2.77-2.31,4-8.14,3.07-10s-3.37-3.22-6.14-4.15c-2.15-.71-4.2-2.75-4.27-6.53.18-2.93,2.12-4.7,1.74-6.69-.35-1.8-2.47-6.29-4-9.32-1.24-2.72-2.67-5.37-3.79-7.66-2.19,2.28-5.09,4.29-6.45,4.62a6.89,6.89,0,0,0,1.79-5.41,11.25,11.25,0,0,1-6.78,6.16c-2.58.76-3.77,1.45-5.2,1.63,4-2.15,4.25-5.32,4.25-5.32a10.93,10.93,0,0,1-7.32,3.57v16a3.56,3.56,0,0,1,2.33-.88c4.16-.15,8.5,6.13,8.5,6.13a3.83,3.83,0,0,0,2-.66,5.58,5.58,0,0,0,1.94-3.94,25.1,25.1,0,0,1-.13-3.39c-.14-1-.3-2-.49-2.91-.76-3.84-.61-6.14.92-6,1,.1,5.85,2.12,8.82,3.4.38.58.76,1.17,1.1,1.72,1.32,2.13.88,2.76.35,5.65l-2.95-1.34c2.27,5.28,1.68,9.15.92,10.77-1-3.51-4.34-6.79-4.34-6.79a19.58,19.58,0,0,1,1.65,13.2,20,20,0,0,1-2.15,4.38c.86-5.14-1.33-7.16-1.33-7.16a5.63,5.63,0,0,1-1.83,5.33s-.7-1.56-1.54-3.15a8.84,8.84,0,0,0-3.08-2.46,12.47,12.47,0,0,1-6.55,2.75l-.25-.08a5.62,5.62,0,0,1-3.55-4.27A10.61,10.61,0,0,1,141,118s-1.94-3.18-7.49-1.08v31.49h3.73a5,5,0,0,1,1.34-1.64,4.73,4.73,0,0,1,3-1,4.9,4.9,0,0,1,0,9.8,4.75,4.75,0,0,1-2.58-.77h-6.4l-.35.69a2.53,2.53,0,0,1-.21.32l.22.71a11,11,0,0,1,.28,1.25h0a5,5,0,0,1-.47,3.7l.18.56a7.7,7.7,0,0,1,.29,1.27h0v0h0c.35,2,0,3.44-1,4.3H132a3,3,0,0,1,0,5.92h-8.8a2.76,2.76,0,0,1-2.56-3,2.79,2.79,0,0,1,2.28-2.93l.07-.51a4.33,4.33,0,0,1,.56-1.61l-.27-.8a8.23,8.23,0,0,1-.32-1.64,5,5,0,0,1,.62-3.15l-.3-.89a8.63,8.63,0,0,1-.32-1.64,5.43,5.43,0,0,1,.34-2.6h-7a4.75,4.75,0,0,1-2.58.77,4.9,4.9,0,0,1,0-9.8,4.73,4.73,0,0,1,3,1,4.92,4.92,0,0,1,1.34,1.64h3.92V117c-5.7-2.24-7.68,1-7.68,1a10.61,10.61,0,0,1,7.11,1.66,5.62,5.62,0,0,1-3.55,4.27l-.25.08A12.44,12.44,0,0,1,111,121.3a8.84,8.84,0,0,0-3.08,2.46c-.84,1.59-1.54,3.15-1.54,3.15a5.63,5.63,0,0,1-1.83-5.33s-2.2,2-1.33,7.16a20.5,20.5,0,0,1-2.15-4.38c-.6-2.36-.27-9.42,1.51-13.31,0,0-3.2,3.39-4.2,6.9-.76-1.62-1.22-6.87,1.14-10.86l-2.89,1.33c-.52-2.8-.93-3.45.37-5.55.38-.61.8-1.26,1.22-1.9,3-1.28,7.4-3.13,8.39-3.22,1.54-.16,1.69,2.14.93,6-.19,1-.36,2-.49,2.91a25.1,25.1,0,0,1-.13,3.39,5.58,5.58,0,0,0,1.94,3.94,3.83,3.83,0,0,0,2,.66s4.34-6.28,8.5-6.13a3.57,3.57,0,0,1,2.52,1.06V93.37a10.92,10.92,0,0,1-7.51-3.58A8.84,8.84,0,0,0,119,95.62c-1.44-.18-1.78-.52-4.37-1.27-2-.86-6.41-3.85-7.95-7,0,0-.29,2.69,2.1,6.06-1.36-.33-4.56-3-6.75-5.27-1.71,3.5-4.12,7.83-5.54,12a29.41,29.41,0,0,0-1.92,5c-.28,1.44.67,2.77,1.28,4.51.82,5.19-1.58,7.87-4.11,8.71-2.77.93-5.22,2.31-6.15,4.15s.31,7.67,3.07,10a8,8,0,0,1,2.06,2.74c1.29-1.86,4.54-6,7.87-5.66,2.51.21,3.72,2.41,4.06,4.61-5.29-3.12-7.46.56-7.46.56a9.92,9.92,0,0,1,7.46,2,13.9,13.9,0,0,1-.74,2.81c-6.24-3.12-8.17.64-8.17.64a10.79,10.79,0,0,1,7.4,2.23c-.42,1.95-1.19,3.9-3.45,4.69l-.25.08c-2.13-.35-5,0-8-4.32v-.22c-1.57-1-3.37-4.78-3.37-4.78-.31,2.61-.77,5.83-.77,5.83-3.53-4.76-3.84-13.2-3.84-13.2a74.11,74.11,0,0,0-3.22,8.14c-2.31-5.84-.31-14.89-.31-14.89a69.12,69.12,0,0,0-4.45,6.14S73,124.15,75.16,120.31Z" style="fill:#2b2b2b"/><path d="M119.67,88.9a8.55,8.55,0,0,1,2.26-.45V86.93A3.73,3.73,0,0,0,119.67,88.9Z" style="fill:#282347"/><path d="M120.2,84.59a8,8,0,0,1,1.73-.51v-1.2A3.82,3.82,0,0,0,120.2,84.59Z" style="fill:#282347"/><path d="M115.89,113.19a9.42,9.42,0,0,1,6,.83v-2.14C117.79,110.43,115.89,113.19,115.89,113.19Z" style="fill:#282347"/><path d="M139.32,113.19s-1.84-2.68-5.85-1.38h0v2.11A9.39,9.39,0,0,1,139.32,113.19Z" style="fill:#282347"/><path d="M133.47,87v1.47a8.39,8.39,0,0,1,2.07.43A3.65,3.65,0,0,0,133.47,87Z" style="fill:#282347"/><path d="M133.47,83v1.15a8.11,8.11,0,0,1,1.54.46A3.8,3.8,0,0,0,133.47,83Z" style="fill:#282347"/><path d="M133.48,46.11c1,2.07,2.61,4.67,4.89,5.94a7.11,7.11,0,0,1-4.38-1.8c.3,1.74,3.94,8,8.88,11a12.69,12.69,0,0,1,4.29-2.56c-1.4-2.47-3.36-5.86-3.36-5.86-1.8-3.52-2.4-8.19-2.71-11.29,0,0,4.62-1.28,5.41-4.73.46-2-.85-3.32-2.38-3.93,1,4.66-2.24,5.8-2.24,5.8a8.31,8.31,0,0,0,.38-6.2,9.54,9.54,0,0,0-2.24.14c.74,5.41-2.48,6.34-2.48,6.34a9,9,0,0,0,.19-6.2,4.78,4.78,0,0,0-4.28,2l-.12.18a10.83,10.83,0,0,0,3,9.22,4.86,4.86,0,0,1-3-2c0,1,.08,2.07.11,3.27C133.47,45.65,133.47,45.88,133.48,46.11Z" style="fill:#a0a09f"/><path d="M159.24,42.77h0l0-.05A.08.08,0,0,1,159.24,42.77Z" style="fill:#010101"/><path d="M158.81,42.43h0l-.06,0h0S158.76,42.45,158.81,42.43Z" style="fill:#010101"/><path d="M157.58,56.88l-.67-.05a6.52,6.52,0,0,0-3.69,4.91c0,.2-.06.42-.09.65-.06.66-.12,1.41-.19,2.23a12.23,12.23,0,0,1-.4,2.33c0,.08,0,.13,0,.13a10.13,10.13,0,0,0,2-.83,5.27,5.27,0,0,0,1.82-2,22,22,0,0,1,1.55-3.18c0-.36,0-.72,0-1.1a7.05,7.05,0,0,1,.78-3C158.33,57,158,56.93,157.58,56.88Z" style="fill:#a0a09f"/><path d="M144.23,45.19c1.1.44.62,2.19,1.3,3.88s3.55,2.12,4.75,1,2.52-1,4.16-.38,1.81-1.32,1.81-1.32c-1.59,1-3.34-.49-4.64-.1s-2.89,1.38-3.78.44.12-3.29-1.45-4S144.23,45.19,144.23,45.19Z" style="fill:#efefef"/><path d="M161.44,43.66a2.23,2.23,0,0,0,2.36-1.41,5.58,5.58,0,0,1-.64-.44c-.09-.07-.18-.15-.27-.21A1.12,1.12,0,0,1,163,42a1,1,0,0,1-1,1.11,1,1,0,0,1-1-1,1,1,0,0,1,1-1.1c-.53-.26-.92-.2-1.19.29a3.5,3.5,0,0,1-.63.89C160.29,42.56,160.72,43.44,161.44,43.66Z" style="fill:#eef2e4"/><path d="M133.47,111.81c4-1.3,5.85,1.38,5.85,1.38a9.39,9.39,0,0,0-5.85.74v3C139,114.86,141,118,141,118a10.61,10.61,0,0,0-7.11,1.66A5.62,5.62,0,0,0,137.4,124l.25.08a12.47,12.47,0,0,0,6.55-2.75,8.84,8.84,0,0,1,3.08,2.46c.84,1.59,1.54,3.15,1.54,3.15a5.63,5.63,0,0,0,1.83-5.33s2.19,2,1.33,7.16a20,20,0,0,0,2.15-4.38,19.58,19.58,0,0,0-1.65-13.2s3.34,3.28,4.34,6.79c.76-1.62,1.35-5.49-.92-10.77l2.95,1.34c.53-2.89,1-3.52-.35-5.65-.34-.55-.72-1.14-1.1-1.72-3-1.28-7.77-3.3-8.82-3.4-1.53-.16-1.68,2.14-.92,6,.19,1,.35,2,.49,2.91a25.1,25.1,0,0,0,.13,3.39,5.58,5.58,0,0,1-1.94,3.94,3.83,3.83,0,0,1-2,.66s-4.34-6.28-8.5-6.13a3.56,3.56,0,0,0-2.33.88v2.43Z" style="fill:#a0a09f"/><path d="M135,84.59a8.11,8.11,0,0,0-1.54-.46V87a3.65,3.65,0,0,1,2.07,1.9,8.39,8.39,0,0,0-2.07-.43v4.89a10.93,10.93,0,0,0,7.32-3.57s-.26,3.17-4.25,5.32c1.43-.18,2.62-.87,5.2-1.63a11.25,11.25,0,0,0,6.78-6.16,6.89,6.89,0,0,1-1.79,5.41c1.36-.33,4.26-2.34,6.45-4.62,1.12,2.29,2.55,4.94,3.79,7.66,1.5,3,3.62,7.52,4,9.32.38,2-1.56,3.76-1.74,6.69.07,3.78,2.12,5.82,4.27,6.53,2.77.93,5.22,2.31,6.14,4.15s-.3,7.67-3.07,10a8.09,8.09,0,0,0-2,2.74c-1.3-1.86-4.55-6-7.87-5.66-2.51.21-3.72,2.41-4.06,4.61,5.29-3.12,7.46.56,7.46.56a9.89,9.89,0,0,0-7.45,2,12.66,12.66,0,0,0,.73,2.81c6.24-3.12,8.17.64,8.17.64a10.79,10.79,0,0,0-7.4,2.23c.42,1.95,1.19,3.9,3.45,4.69l.25.08c2.13-.35,4.95,0,8-4.32v-.22c1.57-1,3.37-4.78,3.37-4.78.31,2.61.77,5.83.77,5.83,3.53-4.76,3.84-13.2,3.84-13.2a74.11,74.11,0,0,1,3.22,8.14c2.3-5.84.31-14.89.31-14.89a69.12,69.12,0,0,1,4.45,6.14s.46-5.68-1.69-9.52-4.45-6.14-4.45-7.83a23.75,23.75,0,0,1,.81-3.41,5.51,5.51,0,0,0,4.67,1.06c3.68-1.23,4.91-1.64,8-8s1-13.31,1-13.31a63.63,63.63,0,0,0-2.25,6.55,16.47,16.47,0,0,1-2.86,5.53s.2-5.12.2-9.42.61-5.11,2.46-9.62a14.05,14.05,0,0,0,.61-8.59,16.9,16.9,0,0,1-5.73,8.8s-.41-6.76,1.84-9.62a28,28,0,0,0,4.91-10.23,60.39,60.39,0,0,1,2.87-8.19c-7.16,2.46-7.57,7.37-7.57,7.37s-2.26-1.23,2.66-9.83a24.88,24.88,0,0,0,2.66-17.19,9.67,9.67,0,0,1-3.48,7.16c-5.18,4.6-6.35,15.35-4.91,21.29s-3.08,14.74-2.05,19.65,5.53,16.37,2.25,22.1c-1.64,2.87-3.63,2.82-5.22,2.05a3.41,3.41,0,0,0-.56-1.23,24.08,24.08,0,0,1-1.91-3.31l-.05-.06c-3.09-4-6.35-7-9.68-12.12-3.05-4.69-3.37-8.49-3.32-10.24a14.74,14.74,0,0,1-.88,1.68c-1.17,2.26-3.14,5.31-6.76,6l-.44.06v0l-.36.07c-3.06.5-3.3-2.18-3.3-2.18a3.59,3.59,0,0,0,2.29-.42,2.8,2.8,0,0,0,.46-.35h0a4.63,4.63,0,0,0,.52-.55,5.25,5.25,0,0,0,.58-.89,11.71,11.71,0,0,0,.88-3.08c.06-.62.08-1.2.08-1.77a19.58,19.58,0,0,1-2,3.18,9,9,0,0,1-5.22,3.44,4.94,4.94,0,0,1-1.37.2,4.86,4.86,0,0,1-1.13-.14L142,84.44c-1.47.34-2.87.59-4.05.77,0,0-1.37-4-4.44-5V83A3.8,3.8,0,0,1,135,84.59Z" style="fill:#a0a09f"/><path d="M122.05,41.91c-1.62,2.16-3.19,2.28-3.19,2.28a10.83,10.83,0,0,0,3-9.22l-.12-.18a4.78,4.78,0,0,0-4.28-2,9,9,0,0,0,.19,6.2s-3.22-.93-2.48-6.34a9.54,9.54,0,0,0-2.24-.14,8.26,8.26,0,0,0,.38,6.2s-3.23-1.14-2.24-5.8c-1.53.61-2.84,1.92-2.38,3.93.79,3.45,5.41,4.73,5.41,4.73-.31,3.1-.92,7.77-2.71,11.29,0,0-2,3.39-3.36,5.86a12.69,12.69,0,0,1,4.29,2.56c4.94-3,8.58-9.3,8.88-11a7.11,7.11,0,0,1-4.38,1.8c2.44-1.36,4.12-4.22,5.09-6.35v-.27C122,44.13,122,43,122.05,41.91Z" style="fill:#a0a09f"/><path d="M96,42.77s0,0,0-.05l0,.05Z" style="fill:#010101"/><path d="M96.47,42.47l-.06,0h0l0,0Z" style="fill:#010101"/><path d="M98.84,64.25a5.36,5.36,0,0,0,1.82,2,9.89,9.89,0,0,0,2,.83s0,0,0-.13a12.23,12.23,0,0,1-.4-2.33c-.07-.82-.13-1.57-.19-2.23,0-.23-.06-.45-.09-.65a6.52,6.52,0,0,0-3.69-4.91l-.68.05c-.38,0-.74.08-1.06.09a6.93,6.93,0,0,1,.77,3,9.93,9.93,0,0,1,0,1.1A22,22,0,0,1,98.84,64.25Z" style="fill:#a0a09f"/><path d="M103.6,48.27c-1.3-.39-3,1.08-4.64.1,0,0,.16,1.89,1.81,1.32s3-.75,4.16.38,4.07.69,4.75-1,.2-3.44,1.3-3.88c0,0-.57-1.09-2.15-.43s-.57,3-1.45,4S104.9,48.67,103.6,48.27Z" style="fill:#efefef"/><path d="M93.77,43.66c.72-.22,1.15-1.1,1.32-1.51a3,3,0,0,1-.62-.89c-.28-.49-.67-.55-1.2-.29a1,1,0,0,1,1,1.1,1,1,0,0,1-1,1,1,1,0,0,1-1-1.11,1.12,1.12,0,0,1,.09-.37l-.27.21a5.58,5.58,0,0,1-.64.44A2.23,2.23,0,0,0,93.77,43.66Z" style="fill:#eef2e4"/><path d="M78.23,138.58a74.11,74.11,0,0,1,3.22-8.14s.31,8.44,3.84,13.2c0,0,.46-3.22.77-5.83,0,0,1.8,3.77,3.37,4.78v.22c3.06,4.36,5.88,4,8,4.32l.25-.08c2.26-.79,3-2.74,3.45-4.69a10.79,10.79,0,0,0-7.4-2.23s1.93-3.76,8.17-.64a13.9,13.9,0,0,0,.74-2.81,9.92,9.92,0,0,0-7.46-2s2.17-3.68,7.46-.56c-.34-2.2-1.55-4.4-4.06-4.61-3.33-.29-6.58,3.8-7.87,5.66a8,8,0,0,0-2.06-2.74c-2.76-2.31-4-8.14-3.07-10s3.38-3.22,6.15-4.15c2.53-.84,4.93-3.52,4.11-8.71-.61-1.74-1.56-3.07-1.28-4.51a29.41,29.41,0,0,1,1.92-5c1.42-4.14,3.83-8.47,5.54-12,2.19,2.28,5.39,4.94,6.75,5.27-2.39-3.37-2.1-6.06-2.1-6.06,1.54,3.18,6,6.17,7.95,7,2.59.75,2.93,1.09,4.37,1.27a8.84,8.84,0,0,1-4.58-5.83,10.92,10.92,0,0,0,7.51,3.58V88.45a8.55,8.55,0,0,0-2.26.45,3.73,3.73,0,0,1,2.26-2V84.08a8,8,0,0,0-1.73.51,3.82,3.82,0,0,1,1.73-1.71v-2.7c-3.2.85-4.63,5-4.63,5-1.18-.18-2.58-.43-4-.77l-2.32.56a4.72,4.72,0,0,1-2.5-.06,9,9,0,0,1-5.22-3.44,19.58,19.58,0,0,1-2-3.18,15.47,15.47,0,0,0,.08,1.77,11.63,11.63,0,0,0,.87,3.08,6,6,0,0,0,.59.89,4.63,4.63,0,0,0,.52.55h0a2.8,2.8,0,0,0,.46.35,3.59,3.59,0,0,0,2.29.42s-.24,2.68-3.31,2.18l-.35-.07s0,0,0,0l-.43-.06c-3.63-.73-5.6-3.78-6.76-6a13,13,0,0,1-.92-1.74c.06,1.73-.23,5.56-3.32,10.3C87.59,95,84.34,98.05,81.25,102a25.17,25.17,0,0,1-2,3.39,3.41,3.41,0,0,0-.56,1.23c-1.59.77-3.58.82-5.22-2.05-3.27-5.73,1.23-17.19,2.25-22.1s-3.48-13.72-2-19.65S74,46.16,68.81,41.56a9.67,9.67,0,0,1-3.48-7.16A24.88,24.88,0,0,0,68,51.59c4.92,8.6,2.66,9.83,2.66,9.83s-.4-4.91-7.57-7.37A60.39,60.39,0,0,1,66,62.24a27.84,27.84,0,0,0,4.91,10.23c2.25,2.86,1.84,9.62,1.84,9.62A16.9,16.9,0,0,1,67,73.29a14.05,14.05,0,0,0,.61,8.59C69.43,86.39,70,87.2,70,91.5s.21,9.42.21,9.42a16.39,16.39,0,0,1-2.87-5.53,63.63,63.63,0,0,0-2.25-6.55s-2,7,1,13.31,4.3,6.75,8,8a5.5,5.5,0,0,0,4.67-1.06,23.75,23.75,0,0,1,.81,3.41c0,1.69-2.3,4-4.45,7.83s-1.69,9.52-1.69,9.52a69.12,69.12,0,0,1,4.45-6.14S75.92,132.74,78.23,138.58Z" style="fill:#a0a09f"/><path d="M115.89,113.19s1.9-2.76,6-1.31v-2.32a3.57,3.57,0,0,0-2.52-1.06c-4.16-.15-8.5,6.13-8.5,6.13a3.83,3.83,0,0,1-2-.66,5.58,5.58,0,0,1-1.94-3.94,25.1,25.1,0,0,0,.13-3.39c.13-1,.3-2,.49-2.91.76-3.84.61-6.14-.93-6-1,.09-5.41,1.94-8.39,3.22-.42.64-.84,1.29-1.22,1.9-1.3,2.1-.89,2.75-.37,5.55l2.89-1.33c-2.36,4-1.9,9.24-1.14,10.86,1-3.51,4.2-6.9,4.2-6.9-1.78,3.89-2.11,11-1.51,13.31a20.5,20.5,0,0,0,2.15,4.38c-.87-5.14,1.33-7.16,1.33-7.16a5.63,5.63,0,0,0,1.83,5.33s.7-1.56,1.54-3.15A8.84,8.84,0,0,1,111,121.3a12.44,12.44,0,0,0,6.55,2.75l.25-.08a5.62,5.62,0,0,0,3.55-4.27,10.61,10.61,0,0,0-7.11-1.66s2-3.25,7.68-1v-3A9.42,9.42,0,0,0,115.89,113.19Z" style="fill:#a0a09f"/><path d="M113.7,146.94a3.74,3.74,0,0,0,0,7.47,3.54,3.54,0,0,0,2.17-.77h23.47a3.54,3.54,0,0,0,2.17.77,3.74,3.74,0,0,0,0-7.47,3.61,3.61,0,0,0-3.45,2.68H117.15A3.61,3.61,0,0,0,113.7,146.94Z" style="fill:#a0a09f"/><path d="M132.23,136.68V56.08s0-2.63,0-5.79c0-1.57,0-3.27,0-4.84-.11-6.61-.71-12.83-3.87-14.08v117h3.87Z" style="fill:#a0a09f"/><path d="M121.93,84.08v64.37H118a4.92,4.92,0,0,0-1.34-1.64,4.73,4.73,0,0,0-3-1,4.9,4.9,0,0,0,0,9.8,4.75,4.75,0,0,0,2.58-.77h7a5.43,5.43,0,0,0-.34,2.6,8.63,8.63,0,0,0,.32,1.64l.3.89a5,5,0,0,0-.62,3.15,8.23,8.23,0,0,0,.32,1.64l.27.8a4.33,4.33,0,0,0-.56,1.61l-.07.51a2.79,2.79,0,0,0-2.28,2.93,2.76,2.76,0,0,0,2.56,3H132a3,3,0,0,0,0-5.92h-.48c1-.86,1.34-2.33,1-4.3a7.7,7.7,0,0,0-.29-1.27l-.18-.56a5,5,0,0,0,.47-3.7h0a11,11,0,0,0-.28-1.25l-.22-.71a2.53,2.53,0,0,0,.21-.32l.35-.69h6.4a4.75,4.75,0,0,0,2.58.77,4.9,4.9,0,0,0,0-9.8,4.73,4.73,0,0,0-3,1,5,5,0,0,0-1.34,1.64h-3.73V111.82h0V56.09c0-.06.06-5.4,0-10,0-.23,0-.46,0-.68,0-1.2-.06-2.27-.11-3.27a37.74,37.74,0,0,0-.71-6c-.71-3.21-2-5.13-3.81-5.86l-.7-.28v-.43l-.53.22-.48-.19V30l-.72.29c-1.8.74-3,2.66-3.69,5.87a36.63,36.63,0,0,0-.67,5.74c-.06,1.07-.1,2.22-.12,3.52v.27c-.07,4.66,0,10.33,0,10.39v28Zm10,84.69c.73,0,1.32.8,1.32,1.8s-.59,1.8-1.32,1.8h-8.8c-.73,0-1.33-.81-1.33-1.8s.6-1.8,1.33-1.8Zm-7.12-8.59a4.45,4.45,0,0,1,1.22-.93l2.88-1.3.67-.3a5.32,5.32,0,0,0,1.17-.68l.22-.13a8.28,8.28,0,0,1,.25,1.11,6.75,6.75,0,0,1,.12,1.23,2.5,2.5,0,0,1-.87,2.16,19,19,0,0,1-3.28,1.64,17.39,17.39,0,0,0-2.8,1.39,6.76,6.76,0,0,1-.27-1.39,4.63,4.63,0,0,1,0-.54A3.43,3.43,0,0,1,124.84,160.18Zm-.72-3.4a3.94,3.94,0,0,1,.39-1.79h6.56a1.76,1.76,0,0,1-.57.67,18.9,18.9,0,0,1-3.28,1.63,16.63,16.63,0,0,0-2.8,1.4,7,7,0,0,1-.27-1.4A4.24,4.24,0,0,1,124.12,156.78Zm7.25,7.94a2.51,2.51,0,0,1-.87,2.16l-.68.41h-5.65a3.14,3.14,0,0,1,.67-1.57,4.2,4.2,0,0,1,1.14-.88l.21-.11,1.37-.62.16-.07.06,0c.71-.3,1.43-.61,2.14-1l.1,0c.33-.18.66-.37,1-.58a8.94,8.94,0,0,1,.24,1.08A6.75,6.75,0,0,1,131.37,164.72Zm-3-28V31.37c3.16,1.25,3.76,7.47,3.87,14.08,0,1.57,0,3.27,0,4.84,0,3.16,0,5.79,0,5.79v92.29h-3.87Zm-5.2-91.23c.11-6.61.69-12.83,3.74-14.08v117h-3.74V56.08s0-2.6,0-5.73C123.13,48.76,123.14,47,123.16,45.45Zm-.8,104.17h15.7a3.61,3.61,0,0,1,3.45-2.68,3.74,3.74,0,0,1,0,7.47,3.54,3.54,0,0,1-2.17-.77H115.87a3.54,3.54,0,0,1-2.17.77,3.74,3.74,0,0,1,0-7.47,3.61,3.61,0,0,1,3.45,2.68Z" style="fill:#010101"/><path d="M123.16,57.76v90.61h3.74v-117c-3.05,1.25-3.63,7.47-3.74,14.08,0,1.59,0,3.31,0,4.9,0,3.13,0,5.73,0,5.73Z" style="fill:#a0a09f"/><path d="M121.83,170.57c0,1,.6,1.8,1.33,1.8H132c.73,0,1.32-.81,1.32-1.8s-.59-1.8-1.32-1.8h-8.8C122.43,168.77,121.83,169.57,121.83,170.57Z" style="fill:#a0a09f"/><path d="M130,163l-.1,0c-.71.37-1.43.68-2.14,1l-.06,0-.16.07-1.37.62-.21.11a4.2,4.2,0,0,0-1.14.88,3.14,3.14,0,0,0-.67,1.57h5.65l.68-.41a2.51,2.51,0,0,0,.87-2.16,6.75,6.75,0,0,0-.12-1.23,8.94,8.94,0,0,0-.24-1.08C130.68,162.62,130.35,162.81,130,163Z" style="fill:#a0a09f"/><path d="M132.47,163.3h0Z" style="fill:#010101"/><path d="M127.22,157.29a18.9,18.9,0,0,0,3.28-1.63,1.76,1.76,0,0,0,.57-.67h-6.56a3.94,3.94,0,0,0-.39,1.79,4.24,4.24,0,0,0,0,.51,7,7,0,0,0,.27,1.4A16.63,16.63,0,0,1,127.22,157.29Z" style="fill:#a0a09f"/><path d="M124.15,163a6.76,6.76,0,0,0,.27,1.39,17.39,17.39,0,0,1,2.8-1.39,19,19,0,0,0,3.28-1.64,2.5,2.5,0,0,0,.87-2.16,6.75,6.75,0,0,0-.12-1.23,8.28,8.28,0,0,0-.25-1.11l-.22.13a5.32,5.32,0,0,1-1.17.68l-.67.3-2.88,1.3a4.45,4.45,0,0,0-1.22.93,3.43,3.43,0,0,0-.72,2.26A4.63,4.63,0,0,0,124.15,163Z" style="fill:#a0a09f"/><path d="M38.33,161.57a5.25,5.25,0,0,1,2.93-4.41c2.91-1.58,6.61.56,10.52,2.83l.74.42c3.46,2,4.6,1.38,5.7.8l.84-.76.75-1.26L33.56,136.37l-.15,10.17,0,.91-.9,0-11.84.41,18,15.26A4.43,4.43,0,0,1,38.33,161.57Z" style="fill:#eef2e4"/><path d="M212.22,165.06c1.82-1,2.77-2.24,2.76-3.47a3.4,3.4,0,0,0-1.93-2.76c-2-1.07-5.23.81-8.68,2.8l-.74.43c-2.61,1.5-4.3,1.77-5.62,1.54l4.05,6.81C207,167.88,210.77,165.89,212.22,165.06Z" style="fill:#eef2e4"/><rect x="64.48" y="186.41" width="3.26" height="3.13" transform="translate(-132.13 167.85) rotate(-64.83)" style="fill:#eef2e4"/><rect x="169.25" y="195.1" width="3.13" height="7.97" transform="translate(-67.55 89.58) rotate(-24.7)" style="fill:#eef2e4"/><path d="M213.16,166.71c-5.09,2.91-38.8,20-50.13,25.29-14.77,6.83-26.12,10.36-34.62,10.77v0l-.81,0-.8,0v0c-8.5-.41-19.85-3.94-34.62-10.77-11.33-5.24-45-22.38-50.13-25.29A9.58,9.58,0,0,1,39.83,165l-9.75,16.77c1.59,1.22,7.17,5,24,13l6.17,2.94c21.76,10.4,51.56,24.64,67.36,24.38,15.81.26,45.61-14,67.37-24.38l6.17-2.94c16.83-8,22.41-11.76,24-13L215.38,165A9.58,9.58,0,0,1,213.16,166.71Z" style="fill:#eef2e4"/><rect x="178.8" y="190.35" width="3.13" height="3.16" transform="translate(-65.42 97.29) rotate(-25.72)" style="fill:#eef2e4"/><rect x="141.65" y="206.06" width="3.13" height="3.16" transform="translate(-55.42 52.17) rotate(-17.36)" style="fill:#eef2e4"/><polygon points="126.88 214.25 128.74 214.18 127.68 210.56 126.88 214.25" style="fill:#eef2e4"/><polygon points="102.47 207.79 102.97 204.05 100.74 207.1 102.47 207.79" style="fill:#eef2e4"/><path d="M51.58,162.06l-.75-.43c-3.44-2-6.68-3.87-8.67-2.8a3.4,3.4,0,0,0-1.93,2.76c0,1.23.94,2.43,2.76,3.47,1.45.83,5.24,2.82,10.16,5.35l4-6.81C55.87,163.83,54.19,163.56,51.58,162.06Z" style="fill:#eef2e4"/><path d="M221.82,147.45l0-.91-.15-10.17L195.4,159.19l.93,1.57,1,.59c1.1.58,1.93,1.05,5.39-.94l.73-.42c3.92-2.27,7.61-4.41,10.53-2.83a5.25,5.25,0,0,1,2.93,4.41,4.43,4.43,0,0,1-.29,1.58l18-15.26-11.84-.41Z" style="fill:#eef2e4"/><path d="M223.69,145.61l-.17-11.31,0-2L222,133.6l-28.4,24.67-.6.52.41.68,7,11.81c-12.33,6.34-30.43,15.43-38.14,19-15,6.92-26.32,10.4-34.63,10.61-8.3-.21-19.63-3.69-34.62-10.61-7.72-3.57-25.81-12.66-38.14-19l7-11.81.4-.68-.59-.52L33.26,133.6l-1.54-1.34,0,2-.17,11.31-13.38.47-2.46.08,1.87,1.59,20.19,17.09L28,181.53l-.36.62.5.52c.15.14,3.78,3.72,25.08,13.82l6.16,2.93c21.87,10.45,51.79,24.75,68.08,24.57h.21c16.29.18,46.21-14.12,68.08-24.57l6.16-2.93c21.3-10.1,24.93-13.68,25.08-13.82l.5-.52-.36-.62-9.66-16.63,20.15-17.15,1.86-1.59-2.44-.08ZM198,163.6c1.32.23,3,0,5.62-1.54l.74-.43c3.45-2,6.7-3.87,8.68-2.8a3.4,3.4,0,0,1,1.93,2.76c0,1.23-.94,2.43-2.76,3.47-1.45.83-5.23,2.82-10.16,5.35ZM53.15,170.41c-4.92-2.53-8.71-4.52-10.16-5.35-1.82-1-2.77-2.24-2.76-3.47a3.4,3.4,0,0,1,1.93-2.76c2-1.07,5.23.81,8.67,2.8l.75.43c2.61,1.5,4.29,1.77,5.61,1.54Zm-32.5-22.52,11.84-.41.9,0,0-.91.15-10.17,26.25,22.82-.75,1.26-.84.76c-1.1.58-2.24,1.19-5.7-.8l-.74-.42c-3.91-2.27-7.61-4.41-10.52-2.83a5.25,5.25,0,0,0-2.93,4.41,4.43,4.43,0,0,0,.29,1.58Zm204.48,33.9c-1.58,1.22-7.16,5-24,13L195,197.71c-21.76,10.4-51.56,24.64-67.37,24.38-15.8.26-45.6-14-67.36-24.38l-6.17-2.94c-16.82-8-22.4-11.76-24-13L39.83,165a9.58,9.58,0,0,0,2.22,1.69c5.09,2.91,38.8,20,50.13,25.29,14.77,6.83,26.12,10.36,34.62,10.77v0l.8,0,.81,0v0c8.5-.41,19.85-3.94,34.62-10.77,11.33-5.24,45-22.38,50.13-25.29a9.58,9.58,0,0,0,2.22-1.69Zm-8.54-18.64a4.43,4.43,0,0,0,.29-1.58,5.25,5.25,0,0,0-2.93-4.41c-2.92-1.58-6.61.56-10.53,2.83l-.73.42c-3.46,2-4.29,1.52-5.39.94l-1-.59-.93-1.57,26.25-22.82.15,10.17,0,.91.9,0,11.84.41Z" style="fill:#a0a09f"/><path d="M152.21,46a3.19,3.19,0,0,0,1.14-.22,3.55,3.55,0,0,0,1.34-1.23c.38-.48.73-.94,1.28-1h.19c1.09.14,1.27,2.84,1.3,3.66a10.94,10.94,0,0,1-.09,2c-.23,1.49-1.74,2.52-3.85,2.63a8.38,8.38,0,0,1-2-.16,7,7,0,0,0-1.73-.14c-1.47.08-2.4.68-2.37,1.55a1.83,1.83,0,0,0,.34.95,1.67,1.67,0,0,0,1.59.92,6.16,6.16,0,0,0,1.33-.29,9,9,0,0,1,2-.4,9.43,9.43,0,0,1,1.06,0l.32,0a12.23,12.23,0,0,1,2.57.31l.37.07a7.26,7.26,0,0,0,2.34.06l.3-.08a2.22,2.22,0,0,0,1.43-1,4.25,4.25,0,0,0,.13-3.27l.3-.12s.06.11.13.27a5.18,5.18,0,0,1,.68,2.13,3.22,3.22,0,0,1-.68,2.52h0a2.47,2.47,0,0,1-.4.39,2.62,2.62,0,0,1-1,.54s0,0,0,0h0A5.92,5.92,0,0,0,159,58.74a5.13,5.13,0,0,0,0,1.83,15.72,15.72,0,0,0,.45,2.14,12.72,12.72,0,0,1,.54,3.46c0,.27,0,.55-.08.84l.66-.68.31-.36.07-.08v0h0l.08-.1.63-.7c.3-.33.61-.67.91-1a9.89,9.89,0,0,0,.74-1.22,6.1,6.1,0,0,0,.32-1,2.29,2.29,0,0,0,.07-.44c0-.08,0-.17,0-.27s-.16-.45-.23-.69a5.87,5.87,0,0,1,.07-3.22,6.26,6.26,0,0,0-.2-4.31l.26-.18a4.43,4.43,0,0,1,.86,1.24,4.71,4.71,0,0,1,.46,2,6,6,0,0,1-.16,1.73,5.22,5.22,0,0,0,0,2.17,3.38,3.38,0,0,0,.21.7,9.88,9.88,0,0,0,1.29,2.26h0v-.08a1.15,1.15,0,0,0,0-.19,6.39,6.39,0,0,1,.42-1.59v0s0-.09,0-.14c.21-.57.5-1.16.8-1.79a12.77,12.77,0,0,0,1.63-5.24,10.65,10.65,0,0,0-.69-3.6l.29-.14a9.79,9.79,0,0,1,1.46,5c-.12,1.72-.4,2.36-1.48,4.55a25.85,25.85,0,0,0-1,2.93,9.26,9.26,0,0,0,0,3.66l.08.34-.31-.16a16.68,16.68,0,0,1-2.82-3.37,7.19,7.19,0,0,1-1.49,2.78c-.57.62-.9,1-1.21,1.37s-.56.66-1,1.16-1.41,1.33-2.42,2.27l-.45.41.19-.58.07-.23c0-.12.06-.28.1-.45a16,16,0,0,0,0-5.18l-.17-.72c-.06-.24-.13-.5-.19-.78a15.68,15.68,0,0,0-.74,1.55,3,3,0,0,1-.23.49,3.82,3.82,0,0,1-.55.75l0,0,0,0-.14.14-.09.08-.05,0,0,0-.08.08a3.3,3.3,0,0,1-.57.44,11.63,11.63,0,0,1-4.92,1.88l-.29,0,.12-.27a11.81,11.81,0,0,0,1-4,12.12,12.12,0,0,1,1.26-5.6l-.09,0c-1,.23-2.36.55-3.68,1-3.56,1.13-5.66,2.62-6.4,4.54a30.92,30.92,0,0,0-1,3.29,7.4,7.4,0,0,1-1.4,3.23,4.89,4.89,0,0,0,3.09-2.83c1.08-2.22,2.47-4.68,5.5-5.7a7.68,7.68,0,0,1,1.79-.38l.09.3a14.55,14.55,0,0,0-2.19,1.38,10.26,10.26,0,0,0-3.11,3.68A14,14,0,0,0,144,70.66c-.17.74-.33,1.61-.49,2.53-.33,1.91-.67,3.88-1.25,4.73a4.34,4.34,0,0,1-2,1.52l-.07,0,.09.05a3.32,3.32,0,0,0,3.06-.46,5,5,0,0,0,2.28-3.48c0-.18.08-.36.13-.52.3-1,2.39-4.88,4.3-6.31l.23.22c-1.72,2.49-2.08,4.88-2.46,7.42-.14.89-.27,1.81-.47,2.78-.61,2.91-1.74,4.11-2.34,4.56a3.79,3.79,0,0,0,1.45-.13c3.78-.73,5.79-4.76,7.13-7.43a.93.93,0,0,1,0-.1,21.89,21.89,0,0,0,1.55-6.76c0-.12,0-.24,0-.35l.32-.07a11,11,0,0,1-.22,6.25v.05a.49.49,0,0,0,0,.12c0,.39,0,.75.07,1.14s.06.81.07,1.26a18,18,0,0,1-.08,2.52,12.91,12.91,0,0,1-1,3.55,6.76,6.76,0,0,1-1.45,1.89,5.27,5.27,0,0,1-.66.49A7,7,0,0,0,153,86c2.36-.47,4.16-2.12,5.83-5.37A12.52,12.52,0,0,0,160,78.35a23.74,23.74,0,0,0,1-6.08c0-.82,0-1.68,0-2.54a3.77,3.77,0,0,0-.07-.4l.29-.13a12.64,12.64,0,0,1,.62,7.23c.73,6.37,3.42,8.92,4.41,9.65a12.84,12.84,0,0,1-.42-3,26.2,26.2,0,0,1,.47-5.12c.13-.85.26-1.66.34-2.46.18-6.45-2.56-10-2.59-10l.22-.23a2.86,2.86,0,0,1,.33.29h0a10.32,10.32,0,0,1,3.39,6.7c.1.51.17,1.08.23,1.72.3,3,3.41,4.18,4.38,4.47a11.35,11.35,0,0,1-.47-3.16c0-1,0-2,0-3.09,0-.84,0-1.72,0-2.57a8.61,8.61,0,0,0-1-3.71,9.19,9.19,0,0,0-3.21-4l.13-.29A8,8,0,0,1,172.39,65l.14.18v0h0A6.92,6.92,0,0,0,175,68a4.38,4.38,0,0,0,3.17.6c-1.28-1-1.58-2.42-2.12-5l-.09-.44a5.31,5.31,0,0,0-1.87-3.2l-.44-.38a6.48,6.48,0,0,1-2.43-3.44,9.47,9.47,0,0,1-.24-3.28h.32a6.56,6.56,0,0,0,1.94,4.46,4.62,4.62,0,0,0,2.54.54,6.7,6.7,0,0,0,1.46-.24c-2.85-2.93-3.31-7-3.64-10l-.1-.86a6.25,6.25,0,0,0-.57-1.94h0v0c-.08-.16-.16-.31-.25-.46l-.09-.17.18-.07a4.77,4.77,0,0,0,2.66-3.43,4.08,4.08,0,0,1-2.1.8,2.61,2.61,0,0,1-.55,0h-.05a1.87,1.87,0,0,1-.52-.16l-.13-.08.07-.13a6,6,0,0,0,.48-2.67c0-.19,0-.35,0-.5A2.42,2.42,0,0,1,170.54,39a11.66,11.66,0,0,1-2.52-.28l-.92-.15a30.39,30.39,0,0,0-5.76-.64,14.42,14.42,0,0,0-3.19.85,14.62,14.62,0,0,1-3.41.89,1.85,1.85,0,0,1-.74-.08c-.32-.11-.61-.23-.89-.35a4.62,4.62,0,0,0-2.23-.51,6.87,6.87,0,0,0-1,.15c-1.23.28-1.38,1-1.49,2.23a3.59,3.59,0,0,0,4.24-1.18l.26-.38,0,.46a2.59,2.59,0,0,1-1.75,2.48h-.07l-.2.07h0a4.43,4.43,0,0,1-2.61-.13c-.05.36-.1.71-.18,1.05a1.93,1.93,0,0,0,0,.47,1.48,1.48,0,0,0,.53,1.08A5.55,5.55,0,0,0,152.21,46Zm15.65-.55c1-1.71,1.9-2.64,2.77-2.78l.12.3s-.88.57-1.89,2.89c-1,2.16-2.05,3.18-3.79,3.52s-4.17,0-5.27-1.25l.18-.26a8.69,8.69,0,0,0,4.28.4C166.31,47.87,167,47.07,167.86,45.45Zm-9.06-3h0A3.35,3.35,0,0,0,160,41.26c.76-1.18,1-1.46,1.6-1.38s.79.4,1.39.9A3.7,3.7,0,0,0,165.11,42c.79,0,1.3-.55,1.07-1.08a1.55,1.55,0,0,1,.63.93c0,.56-.28.84-.93,1a3.94,3.94,0,0,1-1.73-.36.35.35,0,0,1,0,.12,2.62,2.62,0,0,1-1.06,1.32,2.5,2.5,0,0,1-2.09.34,2.58,2.58,0,0,1-1.48-1.06h0l0-.06-.06-.09,0-.06a.41.41,0,0,0-.05-.09l0,0h0a.08.08,0,0,0,0-.05l0-.06a.08.08,0,0,0,0,0v0l0-.09-.37,0h0Z" style="fill:#a0a09f"/><polygon points="160.29 56.19 160.29 56.19 160.29 56.19 160.29 56.19" style="fill:#a0a09f"/><path d="M160,47.87l-.18.26c1.1,1.21,3.54,1.58,5.27,1.25s2.84-1.36,3.79-3.52c1-2.32,1.88-2.89,1.89-2.89l-.12-.3c-.87.14-1.8,1.07-2.77,2.78s-1.55,2.42-3.6,2.82A8.69,8.69,0,0,1,160,47.87Z" style="fill:#282347"/><path d="M80.2,68a6.92,6.92,0,0,0,2.46-2.71h0v0l.13-.17a8.06,8.06,0,0,1,4.25-3.45l.13.29a9.19,9.19,0,0,0-3.21,4,8.61,8.61,0,0,0-1,3.72c0,.84,0,1.72,0,2.56,0,1.09,0,2.11,0,3.09a11.35,11.35,0,0,1-.47,3.16c1-.29,4.08-1.46,4.37-4.47.06-.64.14-1.21.23-1.72a10.36,10.36,0,0,1,3.4-6.7h0a2.86,2.86,0,0,1,.33-.29l.22.23s-2.78,3.57-2.6,10c.08.82.22,1.63.35,2.48A26.2,26.2,0,0,1,89.34,83a12.66,12.66,0,0,1-.42,3c1-.73,3.68-3.27,4.41-9.64a12.46,12.46,0,0,1,.6-7.2l.31.1c0,.15-.06.28-.07.38,0,.88,0,1.74,0,2.56a23.32,23.32,0,0,0,1,6.08,12.33,12.33,0,0,0,1.15,2.33c1.66,3.24,3.46,4.89,5.81,5.36a7.5,7.5,0,0,0,.81.11,5.27,5.27,0,0,1-.66-.49,6.08,6.08,0,0,1-.69-.73,7.41,7.41,0,0,1-.77-1.17,13.06,13.06,0,0,1-1-3.54,18,18,0,0,1-.08-2.52c0-.45,0-.86.07-1.26s.06-.75.07-1.15a.37.37,0,0,0,0-.11v-.05a11,11,0,0,1-.22-6.25L100,69c0,.11,0,.23,0,.35a21.79,21.79,0,0,0,1.55,6.75l.05.11c1.34,2.67,3.35,6.7,7.15,7.43a3.65,3.65,0,0,0,1.43.13c-.6-.45-1.73-1.65-2.34-4.56-.2-1-.34-1.89-.47-2.78-.38-2.54-.74-4.93-2.46-7.42l.23-.22c1.91,1.43,4,5.3,4.3,6.31.05.16.09.34.13.52a5,5,0,0,0,2.28,3.48,3.3,3.3,0,0,0,3,.46l.1-.05-.07,0a4.34,4.34,0,0,1-2-1.52c-.58-.85-.92-2.82-1.25-4.73-.16-.92-.32-1.79-.49-2.53a14.6,14.6,0,0,0-1.34-3.6,10.31,10.31,0,0,0-3.11-3.67A15.07,15.07,0,0,0,104.59,62l.09-.3a7.87,7.87,0,0,1,1.8.38c3,1,4.41,3.48,5.49,5.7a4.89,4.89,0,0,0,3.09,2.83,7.4,7.4,0,0,1-1.4-3.23,30.92,30.92,0,0,0-1-3.29c-.74-1.92-2.84-3.41-6.4-4.54-1.32-.43-2.69-.75-3.68-1l-.09,0a12.12,12.12,0,0,1,1.26,5.6,11.81,11.81,0,0,0,1,4l.12.27-.29,0a11.54,11.54,0,0,1-4.91-1.88A3,3,0,0,1,99,66.1a.38.38,0,0,1-.09-.09l0,0-.05,0-.09-.08-.14-.14,0,0,0,0a3.82,3.82,0,0,1-.55-.75,3,3,0,0,1-.23-.49,15.68,15.68,0,0,0-.74-1.55c-.06.28-.13.54-.19.78l-.17.72a15.9,15.9,0,0,0,0,5.17c0,.18.07.34.1.46l.07.23s.19.58.18.58l-.45-.42c-1-.93-1.95-1.8-2.42-2.26s-.73-.83-1-1.16-.64-.75-1.21-1.37a7.06,7.06,0,0,1-1.49-2.78,16.68,16.68,0,0,1-2.82,3.37l-.32.16.08-.34a9,9,0,0,0,0-3.66,24,24,0,0,0-1-2.93c-1.07-2.19-1.35-2.83-1.47-4.56A9.78,9.78,0,0,1,86.42,50l.29.14a10.38,10.38,0,0,0-.69,3.6,12.63,12.63,0,0,0,1.63,5.24,19.16,19.16,0,0,1,.8,1.79.42.42,0,0,0,0,.12v0a6.52,6.52,0,0,1,.42,1.61v.26h0a9.88,9.88,0,0,0,1.29-2.26,3.48,3.48,0,0,0,.21-.69,5.26,5.26,0,0,0,0-2.18,6,6,0,0,1-.16-1.73,4.63,4.63,0,0,1,.45-2,4.3,4.3,0,0,1,.87-1.25l.26.18a6.33,6.33,0,0,0-.21,4.31,5.68,5.68,0,0,1,.08,3.22c-.07.24-.16.48-.24.69a1.39,1.39,0,0,1,0,.27,2.29,2.29,0,0,0,.07.44,6.1,6.1,0,0,0,.32,1A9.89,9.89,0,0,0,92.6,64l.9,1s.64.7.63.7l.1.11h0v0l.07.08.3.35.66.69c0-.29-.06-.57-.07-.84a12.72,12.72,0,0,1,.54-3.46,15.55,15.55,0,0,0,.45-2.15,5.08,5.08,0,0,0,0-1.82A5.86,5.86,0,0,0,95,56.27h0l0,0a2.59,2.59,0,0,1-.93-.54,3,3,0,0,1-.41-.38v0h0a3.21,3.21,0,0,1-.67-2.5,5.25,5.25,0,0,1,.67-2.13c.08-.17.14-.27.14-.28l.3.12a4.25,4.25,0,0,0,.13,3.27,2.22,2.22,0,0,0,1.43,1l.3.08a7.27,7.27,0,0,0,2.34-.06l.37-.07a12.23,12.23,0,0,1,2.57-.31,1.68,1.68,0,0,1,.31,0,7.76,7.76,0,0,1,1.07,0,9,9,0,0,1,2,.4,6,6,0,0,0,1.33.29,1.67,1.67,0,0,0,1.59-.92,1.83,1.83,0,0,0,.34-.95c0-.87-.9-1.47-2.37-1.55a7,7,0,0,0-1.73.14,8.38,8.38,0,0,1-2,.16c-2.11-.11-3.62-1.14-3.85-2.63a10.94,10.94,0,0,1-.09-2c0-.82.21-3.52,1.3-3.66h.19c.55,0,.9.49,1.28,1a3.55,3.55,0,0,0,1.34,1.23A3.19,3.19,0,0,0,103,46a5.55,5.55,0,0,0,3.66-1,1.52,1.52,0,0,0,.53-1.08,1.93,1.93,0,0,0,0-.47,8.85,8.85,0,0,1-.18-1.05,4.45,4.45,0,0,1-2.62.13h0l-.21-.07h-.06A2.59,2.59,0,0,1,102.3,40l0-.46.26.38a3.59,3.59,0,0,0,4.24,1.18c-.11-1.26-.26-2-1.49-2.23a6.87,6.87,0,0,0-1-.15,4.62,4.62,0,0,0-2.23.51c-.28.12-.57.24-.89.35a1.85,1.85,0,0,1-.74.08,14.5,14.5,0,0,1-3.41-.89,14.42,14.42,0,0,0-3.19-.85,30.47,30.47,0,0,0-5.76.64l-.92.15a11.66,11.66,0,0,1-2.52.28,2.42,2.42,0,0,1-2-1.12c0,.15,0,.31,0,.51A6,6,0,0,0,83.06,41l.07.13-.13.08a2.38,2.38,0,0,1-.52.16h0a2.61,2.61,0,0,1-.55,0,4.08,4.08,0,0,1-2.1-.8,4.74,4.74,0,0,0,2.66,3.43l.18.07-.09.17a3.47,3.47,0,0,0-.25.46,0,0,0,0,1,0,0h0a6.36,6.36,0,0,0-.56,1.93l-.1.86c-.33,3-.78,7-3.64,10a6.58,6.58,0,0,0,1.45.24A4.58,4.58,0,0,0,82,57.24a6.52,6.52,0,0,0,2-4.46h.32A9.47,9.47,0,0,1,84,56.06a6.53,6.53,0,0,1-2.43,3.44l-.44.38a5.31,5.31,0,0,0-1.87,3.21l-.09.43c-.54,2.61-.84,4-2.12,5A4.38,4.38,0,0,0,80.2,68ZM89,40.87c-.23.53.28,1.13,1.07,1.08a3.7,3.7,0,0,0,2.16-1.17c.6-.5.74-.82,1.39-.9s.84.2,1.6,1.38a3.27,3.27,0,0,0,1.16,1.17h0l.06,0h0l-.37,0,0,.09a0,0,0,0,0,0,0l0,0,0,.06s0,0,0,.05h0l0,0-.05.09,0,.06-.06.09,0,.06h0a2.54,2.54,0,0,1-1.48,1.06,2.49,2.49,0,0,1-2.09-.34,2.65,2.65,0,0,1-1.07-1.32.74.74,0,0,1,0-.12,3.94,3.94,0,0,1-1.73.36c-.65-.12-1-.4-.93-1A1.51,1.51,0,0,1,89,40.87ZM84.46,43l.12-.3c.87.14,1.8,1.07,2.76,2.78S88.9,47.87,91,48.27a8.69,8.69,0,0,0,4.28-.4l.18.26c-1.1,1.21-3.54,1.58-5.27,1.25S87.3,48,86.35,45.86c-1-2.32-1.88-2.89-1.89-2.89Z" style="fill:#a0a09f"/><path d="M94.23,65.87h0Z" style="fill:#a0a09f"/><path d="M86.35,45.86c1,2.16,2.05,3.18,3.79,3.52s4.17,0,5.27-1.25l-.18-.26a8.69,8.69,0,0,1-4.28.4c-2-.4-2.7-1.2-3.61-2.82s-1.89-2.64-2.76-2.78l-.12.3h0S85.33,43.54,86.35,45.86Z" style="fill:#282347"/><path d="M159.12,42.5l0,.09v0a.08.08,0,0,1,0,0l0,.06,0,.05,0,0a.41.41,0,0,1,.05.09l0,.06.06.09,0,.06h0A2.58,2.58,0,0,0,161,44.18a2.5,2.5,0,0,0,2.09-.34,2.62,2.62,0,0,0,1.06-1.32.35.35,0,0,0,0-.12,3.94,3.94,0,0,0,1.73.36c.65-.12,1-.4.93-1a1.55,1.55,0,0,0-.63-.93c.23.53-.28,1.13-1.07,1.08A3.7,3.7,0,0,1,163,40.78c-.6-.5-.74-.82-1.39-.9s-.84.2-1.6,1.38a3.35,3.35,0,0,1-1.15,1.17c-.05,0-.06,0-.06,0Zm1.63-1.24c.27-.49.66-.55,1.19-.29a1,1,0,0,0-1,1.1,1,1,0,0,0,1,1A1,1,0,0,0,163,42a1.12,1.12,0,0,0-.09-.37c.09.06.18.14.27.21a5.58,5.58,0,0,0,.64.44,2.23,2.23,0,0,1-2.36,1.41c-.72-.22-1.15-1.1-1.32-1.51A3.5,3.5,0,0,0,160.75,41.26Z" style="fill:#1d201d"/><path d="M89.33,42.76a3.94,3.94,0,0,0,1.73-.36.74.74,0,0,0,0,.12,2.65,2.65,0,0,0,1.07,1.32,2.49,2.49,0,0,0,2.09.34,2.54,2.54,0,0,0,1.48-1.06h0l0-.06.06-.09,0-.06.05-.09,0,0,0-.05,0-.06,0,0a0,0,0,0,1,0,0l0-.09.37,0,0,0a3.27,3.27,0,0,1-1.16-1.17c-.76-1.18-1-1.46-1.6-1.38s-.79.4-1.39.9A3.7,3.7,0,0,1,90.1,42c-.79,0-1.3-.55-1.07-1.08a1.51,1.51,0,0,0-.63.93C88.36,42.36,88.68,42.64,89.33,42.76Zm2.72-.95.27-.21a1.12,1.12,0,0,0-.09.37,1,1,0,0,0,1,1.11,1,1,0,0,0,1-1,1,1,0,0,0-1-1.1c.53-.26.92-.2,1.2.29a3,3,0,0,0,.62.89c-.17.41-.6,1.29-1.32,1.51a2.23,2.23,0,0,1-2.36-1.41A5.58,5.58,0,0,0,92.05,41.81Z" style="fill:#1d201d"/><path d="M64.16,196s-.06-.06,0-.12l5.76-11.69c0-.06.07-.07.13,0l1.89.93a.07.07,0,0,1,0,.12l-4.77,9.68,3.51,1.73a.08.08,0,0,1,0,.12l-.95,1.93c0,.06-.07.07-.12,0Z" style="fill:#a0a09f"/><path d="M72.44,200s0-.06,0-.11L78,188.13a.07.07,0,0,1,.1,0l5.51,2.62c.05,0,.06.06,0,.11l-.91,1.93a.06.06,0,0,1-.1,0l-3.52-1.66-1.27,2.67,3.52,1.67a.07.07,0,0,1,0,.1l-.91,1.95c0,.05-.05.06-.1,0l-3.53-1.68-1.43,3L79,200.55s.05.06,0,.12l-.93,2a.06.06,0,0,1-.1,0Z" style="fill:#a0a09f"/><path d="M83.88,205.58a3.5,3.5,0,0,1-1.48-1.23,3.88,3.88,0,0,1-.65-1.81,3.65,3.65,0,0,1,.34-2l2.48-5.49a3.75,3.75,0,0,1,1.24-1.51,3.88,3.88,0,0,1,1.8-.7A3.69,3.69,0,0,1,91,194.42a3.58,3.58,0,0,1,.66,1.79,3.75,3.75,0,0,1-.34,1.95L91,199q0,.08-.12,0l-1.94-.87s-.06-.06,0-.11l.29-.65a1.81,1.81,0,0,0,.13-1.26,1.3,1.3,0,0,0-1.81-.84,1.5,1.5,0,0,0-.83.79l-2.49,5.49a1.53,1.53,0,0,0-.06,1.15,1.35,1.35,0,0,0,1.82.83,1.5,1.5,0,0,0,.82-.82l.38-.84-1.21-.55c-.06,0-.07-.07,0-.13l.87-1.94a.09.09,0,0,1,.13,0l3.24,1.46s.05.06,0,.12l-1.31,2.87a3.7,3.7,0,0,1-1.25,1.55,3.85,3.85,0,0,1-1.79.7A3.54,3.54,0,0,1,83.88,205.58Z" style="fill:#a0a09f"/><path d="M90.2,208.19c-.06,0-.08-.07,0-.13l5.19-12a.07.07,0,0,1,.1,0l2,.84a.07.07,0,0,1,0,.1l-5.16,12c0,.06-.06.08-.11.06Z" style="fill:#a0a09f"/><path d="M97.14,211.12s-.06-.05,0-.11l4.07-10L98.88,200a.09.09,0,0,1,0-.12l.82-2a.07.07,0,0,1,.1,0l6.69,2.72c.06,0,.08.06.06.1l-.8,2c0,.06-.06.08-.11.06l-2.3-.93-4.06,10c0,.06,0,.08-.1.06Z" style="fill:#a0a09f"/><path d="M104.45,214s-.06-.05,0-.11l4.37-12.3a.07.07,0,0,1,.1-.05l5.75,2s.06.05,0,.11l-.71,2a.07.07,0,0,1-.1,0l-3.67-1.3-1,2.8,3.67,1.3a.06.06,0,0,1,0,.09l-.7,2a.07.07,0,0,1-.1,0l-3.69-1.3-1.1,3.13,3.69,1.31s.06,0,0,.11l-.73,2a.06.06,0,0,1-.09,0Z" style="fill:#a0a09f"/><path d="M120,218.87c-.05,0-.08,0-.07-.1l1.15-13c0-.05,0-.07.08-.07l6.07.53c.05,0,.08,0,.07.1l-.18,2.12c0,.05,0,.07-.08.07l-3.88-.34-.26,2.95,3.88.34s.07,0,.07.08l-.17,2.14c0,.05,0,.08-.08.07l-3.9-.34-.29,3.32,3.9.34c.05,0,.08,0,.07.1l-.19,2.15c0,.06,0,.08-.08.07Z" style="fill:#a0a09f"/><path d="M133.31,218.84c-.05,0-.08,0-.09-.08L131.78,208l-2.45.33a.08.08,0,0,1-.1-.08l-.27-2.11s0-.08.07-.09l7.15-1c.06,0,.1,0,.11.06l.28,2.11c0,.07,0,.1-.06.11l-2.47.33,1.46,10.73c0,.06,0,.1-.06.1Z" style="fill:#a0a09f"/><path d="M146.79,215.69a.1.1,0,0,1-.13-.06l-4.55-12.23a.07.07,0,0,1,0-.1l3.32-1.27a3.6,3.6,0,0,1,2-.2,3.76,3.76,0,0,1,1.77.8,3.68,3.68,0,0,1,1.15,1.61l1.92,5.1a4,4,0,0,1-.63,3.91,4,4,0,0,1-1.69,1.23Zm1.25-3,1.11-.41a1.63,1.63,0,0,0,.94-.88,1.67,1.67,0,0,0,0-1.28L148.2,205a1.49,1.49,0,0,0-1.92-.86l-1.24.49Z" style="fill:#a0a09f"/><path d="M157.07,211.65a.08.08,0,0,1-.12-.05l-5.12-12a.07.07,0,0,1,0-.1l2-.83s.07,0,.1,0l5.15,12q0,.09,0,.12Z" style="fill:#a0a09f"/><path d="M165.26,208.25a3.55,3.55,0,0,1-1.92.3,3.91,3.91,0,0,1-1.8-.7,3.75,3.75,0,0,1-1.25-1.53l-.36-.8a.07.07,0,0,1,0-.12l1.94-.88s.08,0,.11,0l.36.8a1.53,1.53,0,0,0,.82.8,1.38,1.38,0,0,0,1.11,0,1.3,1.3,0,0,0,.72-.83,1.52,1.52,0,0,0-.06-1.15,1.46,1.46,0,0,0-1.33-.72l-1.09-.09-1.39-.12a4,4,0,0,1-2-.75,4.23,4.23,0,0,1-1.32-1.69,3.6,3.6,0,0,1-.32-1.95,3.7,3.7,0,0,1,.68-1.78,3.52,3.52,0,0,1,1.46-1.21,3.56,3.56,0,0,1,1.9-.31,3.83,3.83,0,0,1,1.78.67,3.55,3.55,0,0,1,1.24,1.51l.65,1.42a.07.07,0,0,1,0,.1l-1.93.88a.08.08,0,0,1-.11,0l-.66-1.41a1.47,1.47,0,0,0-.83-.81,1.37,1.37,0,0,0-1.8.85,1.5,1.5,0,0,0,.06,1.14,1.86,1.86,0,0,0,.67.84,2.5,2.5,0,0,0,1.21.32l.42,0,.68.05.66,0,.36,0a4.45,4.45,0,0,1,1.9.56,3.13,3.13,0,0,1,1.29,1.49,3.86,3.86,0,0,1,.34,2,3.65,3.65,0,0,1-.66,1.81A3.53,3.53,0,0,1,165.26,208.25Z" style="fill:#a0a09f"/><path d="M174.52,203.93a3.53,3.53,0,0,1-1.93.34,3.85,3.85,0,0,1-1.81-.68,4,4,0,0,1-1.29-1.56L167,196.67a3.85,3.85,0,0,1,.22-3.76,3.74,3.74,0,0,1,3.4-1.63,3.83,3.83,0,0,1,3.07,2.21l.38.79a.07.07,0,0,1,0,.1l-1.92.91s-.08,0-.1,0l-.38-.79a1.56,1.56,0,0,0-.83-.81,1.31,1.31,0,0,0-1.11,0,1.23,1.23,0,0,0-.75.87,1.68,1.68,0,0,0,.14,1.12l2.54,5.36a1.65,1.65,0,0,0,.86.85,1.33,1.33,0,0,0,1.09,0,1.29,1.29,0,0,0,.71-.88,1.65,1.65,0,0,0-.1-1.16l-.37-.79a.06.06,0,0,1,0-.1l1.94-.92a.06.06,0,0,1,.1,0l.38.79a3.76,3.76,0,0,1,.38,2,3.8,3.8,0,0,1-.61,1.84A3.47,3.47,0,0,1,174.52,203.93Z" style="fill:#a0a09f"/><path d="M180.66,200.77a.09.09,0,0,1-.13,0L174.85,189a.06.06,0,0,1,0-.1l1.91-.93c.05,0,.08,0,.11,0l5.72,11.73q0,.09,0,.12Z" style="fill:#a0a09f"/><path d="M187.37,197.5c-.05,0-.08,0-.11-.06l-4.79-9.71-2.21,1.09a.09.09,0,0,1-.13,0l-.92-1.92c0-.05,0-.08,0-.1l6.48-3.19c.06,0,.1,0,.12,0l.94,1.91q0,.09,0,.12l-2.23,1.1,4.8,9.71q0,.09,0,.12Z" style="fill:#a0a09f"/><path d="M194.07,194.19s-.08,0-.11-.05l-5.8-11.7a.07.07,0,0,1,0-.1l5.46-2.72s.08,0,.11,0l1,1.91a.07.07,0,0,1,0,.1l-3.49,1.74,1.32,2.65,3.49-1.74a.07.07,0,0,1,.1,0l1,1.91a.06.06,0,0,1,0,.1l-3.5,1.75,1.48,3,3.5-1.75s.08,0,.11,0l1,1.94c0,.05,0,.08,0,.1Z" style="fill:#a0a09f"/><path d="M320.67,69.24c0,.11-.16.2-.47.25s-.5,0-.56-.17A13.17,13.17,0,0,0,315,61.94a14.12,14.12,0,0,0-8.58-2.4h-2.57a5.39,5.39,0,0,0-3.78,1.12,4.45,4.45,0,0,0-1.2,3.43V82.62h6.18q5,0,7.59-1.75A5.54,5.54,0,0,0,315.26,76c0-.12.17-.17.52-.17s.51.05.51.17l-.08,7.81c0,1.83,0,3.2.08,4.12l.09,4.54c0,.17-.17.26-.52.26s-.51-.09-.51-.26A6.45,6.45,0,0,0,312.64,87q-2.7-2-7.68-2h-6.09v18.36a8.68,8.68,0,0,0,.69,4,3.83,3.83,0,0,0,2.57,1.8,24.69,24.69,0,0,0,5.92.52q.18,0,.18.51c0,.34-.06.52-.18.52q-3.51,0-5.49-.09l-8.75-.09-6.44.09c-1.14.06-2.72.09-4.72.09-.17,0-.26-.18-.26-.52s.09-.51.26-.51a16.35,16.35,0,0,0,4.38-.43,2.73,2.73,0,0,0,1.84-1.68,11.24,11.24,0,0,0,.48-3.81V64a12.29,12.29,0,0,0-.43-3.77,2.74,2.74,0,0,0-1.72-1.68,12.4,12.4,0,0,0-3.95-.47c-.17,0-.25-.17-.25-.51s.08-.52.25-.52h36.39c.57,0,.86.26.86.77Z" style="fill:#2b2b2b"/><path d="M344.44,107.6a2.56,2.56,0,0,0,1.67,1.63,13.55,13.55,0,0,0,4,.43c.17,0,.26.17.26.51s-.09.52-.26.52c-1.89,0-3.37,0-4.46-.09l-6.52-.09-6.35.09c-1.15.06-2.69.09-4.64.09-.11,0-.17-.18-.17-.52s.06-.51.17-.51a14.08,14.08,0,0,0,4-.43,2.73,2.73,0,0,0,1.76-1.68,11.55,11.55,0,0,0,.47-3.81V64a11.2,11.2,0,0,0-.47-3.77,2.87,2.87,0,0,0-1.76-1.68,12.83,12.83,0,0,0-4-.47c-.11,0-.17-.17-.17-.51s.06-.52.17-.52l4.64.09q3.94.16,6.35.17,2.65,0,6.61-.17l4.37-.09c.17,0,.26.17.26.52s-.09.51-.26.51a11.06,11.06,0,0,0-3.94.52,2.81,2.81,0,0,0-1.72,1.76,12.4,12.4,0,0,0-.43,3.81v39.57A12.38,12.38,0,0,0,344.44,107.6Z" style="fill:#2b2b2b"/><path d="M414.81,110.17c0,.34-.06.52-.17.52H399.36q-1.89,0-7-6.83a216,216,0,0,1-12.44-19.09,16.33,16.33,0,0,1-2,.09c-2.24,0-3.81,0-4.72-.09v19a12.38,12.38,0,0,0,.43,3.86,2.56,2.56,0,0,0,1.67,1.63,13.55,13.55,0,0,0,4,.43c.11,0,.17.17.17.51s-.06.52-.17.52c-1.89,0-3.38,0-4.46-.09l-6.53-.09-6.26.09c-1.14.06-2.69.09-4.63.09-.18,0-.26-.18-.26-.52s.08-.51.26-.51a13.55,13.55,0,0,0,4-.43,2.7,2.7,0,0,0,1.71-1.68,11.24,11.24,0,0,0,.48-3.81V64a12.29,12.29,0,0,0-.43-3.77,2.74,2.74,0,0,0-1.72-1.68,12.44,12.44,0,0,0-3.95-.47c-.11,0-.17-.17-.17-.51s.06-.52.17-.52l4.55.09q3.95.16,6.26.17,2.93,0,6.1-.26c.74-.06,1.67-.11,2.79-.17s2.36-.09,3.73-.09q7.81,0,12.1,2.88a9.13,9.13,0,0,1,4.29,8,15,15,0,0,1-2.57,8.54,19.08,19.08,0,0,1-6.87,6.14q6.87,10.29,11.5,16.13a47.42,47.42,0,0,0,8.24,8.5,11.92,11.92,0,0,0,7,2.66C414.75,109.66,414.81,109.83,414.81,110.17ZM378.16,82.71q5,0,7.17-2.79t2.19-9q0-7-2.06-9.69a7,7,0,0,0-5.92-2.66q-3.44,0-4.89,1.28c-1,.86-1.46,2.29-1.46,4.29v18.2A30.66,30.66,0,0,0,378.16,82.71Z" style="fill:#2b2b2b"/><path d="M456.69,96.87a.88.88,0,0,1,.47.13c.14.08.21.16.21.21a97.14,97.14,0,0,0-.86,12.19,1.53,1.53,0,0,1-.25,1,1.36,1.36,0,0,1-1,.3H417.3c-.18,0-.26-.18-.26-.52s.08-.51.26-.51a13.55,13.55,0,0,0,4-.43,2.59,2.59,0,0,0,1.67-1.68,12.36,12.36,0,0,0,.43-3.81V64a12,12,0,0,0-.43-3.77,2.74,2.74,0,0,0-1.72-1.68,12.37,12.37,0,0,0-3.94-.47c-.18,0-.26-.17-.26-.51s.08-.52.26-.52h36.38c.57,0,.86.26.86.77l.17,11.42c0,.11-.16.2-.47.25s-.5,0-.56-.17a13.15,13.15,0,0,0-4.63-7.38,14.16,14.16,0,0,0-8.58-2.4h-2.58a5.38,5.38,0,0,0-3.77,1.12,4.42,4.42,0,0,0-1.21,3.43v17.5H440c3.31,0,5.86-.57,7.63-1.71a5.4,5.4,0,0,0,2.66-4.81c0-.17.16-.25.48-.25s.47.08.47.25l-.09,7.73.09,4.12c.11,1.94.17,3.49.17,4.63,0,.11-.17.17-.51.17s-.52-.06-.52-.17a6.54,6.54,0,0,0-2.7-5.54Q445,84,440,84h-7v19.39a5.93,5.93,0,0,0,.95,3.69,3.59,3.59,0,0,0,3,1.2h2.83q6.71,0,10.73-2.74a15.82,15.82,0,0,0,5.92-8.5C456.34,96.93,456.46,96.87,456.69,96.87Z" style="fill:#2b2b2b"/><path d="M502.08,69.24c0,.11-.16.2-.47.25s-.5,0-.56-.17a13.21,13.21,0,0,0-4.63-7.38,14.17,14.17,0,0,0-8.59-2.4h-2.57a5.36,5.36,0,0,0-3.77,1.12,4.42,4.42,0,0,0-1.21,3.43V82.62h6.18q5,0,7.6-1.75A5.55,5.55,0,0,0,496.67,76c0-.12.18-.17.52-.17s.51.05.51.17l-.08,7.81c0,1.83,0,3.2.08,4.12l.09,4.54c0,.17-.17.26-.51.26s-.52-.09-.52-.26a6.47,6.47,0,0,0-2.7-5.45q-2.71-2-7.68-2h-6.1v18.36a8.68,8.68,0,0,0,.69,4,3.87,3.87,0,0,0,2.57,1.8,24.78,24.78,0,0,0,5.93.52c.11,0,.17.17.17.51s-.06.52-.17.52c-2.35,0-4.18,0-5.5-.09l-8.75-.09-6.44.09c-1.14.06-2.71.09-4.72.09-.17,0-.25-.18-.25-.52s.08-.51.25-.51a16.24,16.24,0,0,0,4.38-.43,2.74,2.74,0,0,0,1.85-1.68,11.55,11.55,0,0,0,.47-3.81V64a12.29,12.29,0,0,0-.43-3.77,2.74,2.74,0,0,0-1.72-1.68,12.37,12.37,0,0,0-3.94-.47c-.18,0-.26-.17-.26-.51s.08-.52.26-.52h36.38c.57,0,.86.26.86.77Z" style="fill:#2b2b2b"/><path d="M524.22,103.39a10.75,10.75,0,0,0,.34,3.22,2.07,2.07,0,0,0,1.33,1.33,10.75,10.75,0,0,0,3.22.34H532a19.1,19.1,0,0,0,11.58-3.56,17,17,0,0,0,6.53-9.65c0-.12.11-.17.34-.17a.78.78,0,0,1,.39.13q.21.12.21.21-.76,8.49-.77,14.16a1.1,1.1,0,0,1-1.29,1.29h-40.5c-.12,0-.18-.18-.18-.52s.06-.51.18-.51a13.55,13.55,0,0,0,4-.43,2.72,2.72,0,0,0,1.71-1.68,11.29,11.29,0,0,0,.47-3.81V64a11,11,0,0,0-.47-3.77,2.85,2.85,0,0,0-1.76-1.68,12.33,12.33,0,0,0-3.94-.47q-.18,0-.18-.51c0-.35.06-.52.18-.52l4.37.09c2.63.11,4.81.17,6.52.17s3.89-.06,6.53-.17l4.37-.09c.17,0,.26.17.26.52s-.09.51-.26.51a12.33,12.33,0,0,0-3.94.47,2.7,2.7,0,0,0-1.72,1.72,12.43,12.43,0,0,0-.43,3.82Z" style="fill:#2b2b2b"/><path d="M604.54,57.57c0,.34,0,.51-.17.51-1.77,0-4,1.1-6.52,3.31A33.59,33.59,0,0,0,591,69.67L582.06,84.6v19.14a12.38,12.38,0,0,0,.43,3.86,2.56,2.56,0,0,0,1.67,1.63,13.55,13.55,0,0,0,4,.43c.18,0,.26.17.26.51s-.08.52-.26.52c-1.88,0-3.37,0-4.46-.09l-6.44-.09-6.35.09c-1.14.06-2.69.09-4.63.09-.12,0-.17-.18-.17-.52s0-.51.17-.51a14,14,0,0,0,4-.43,2.71,2.71,0,0,0,1.76-1.68,11.29,11.29,0,0,0,.47-3.81V86.4L560,66.92A37.11,37.11,0,0,0,554.73,60c-1.4-1.28-2.59-1.93-3.56-1.93-.17,0-.26-.17-.26-.51s.09-.52.26-.52l2.66.09c1.25.11,2.14.17,2.66.17q3,0,8.66-.17l5.67-.09c.11,0,.17.17.17.52s-.06.51-.17.51a3.43,3.43,0,0,0-2.28.69,2.25,2.25,0,0,0-.81,1.8,6.37,6.37,0,0,0,1.2,3.26l11.76,18.54,7.89-13.48a13.42,13.42,0,0,0,2.32-6.6,4,4,0,0,0-1.24-3.14,5.34,5.34,0,0,0-3.57-1.07c-.17,0-.25-.17-.25-.51s.08-.52.25-.52l4.55.09q3.95.16,7,.17c1,0,2.14-.06,3.52-.17l3.17-.09C604.49,57.05,604.54,57.22,604.54,57.57Z" style="fill:#2b2b2b"/><path d="M293.48,176.49a19.36,19.36,0,0,1-8-7.12,18.65,18.65,0,0,1-2.78-10,18.28,18.28,0,0,1,3.12-10.48,20.44,20.44,0,0,1,8.6-7.18,28.72,28.72,0,0,1,12.33-2.56,38,38,0,0,1,5.91.46,21.55,21.55,0,0,1,4.75,1.2,1.93,1.93,0,0,1,.77.4,3.59,3.59,0,0,1,.15,1l.81,8.57c0,.12-.12.2-.34.24s-.36,0-.4-.18a20,20,0,0,0-2.59-4.44,16.78,16.78,0,0,0-4.69-4.19,12.54,12.54,0,0,0-6.72-1.79,12.8,12.8,0,0,0-7.21,2.16,14.64,14.64,0,0,0-5.15,6.16,21.76,21.76,0,0,0-1.88,9.31,23.66,23.66,0,0,0,2.19,10.36,17,17,0,0,0,6.07,7.08,15.67,15.67,0,0,0,8.76,2.53,10.65,10.65,0,0,0,3.88-.55,3.57,3.57,0,0,0,2-2.16,13.92,13.92,0,0,0,.62-4.74,18,18,0,0,0-.37-4.47,2.42,2.42,0,0,0-1.57-1.7,14,14,0,0,0-4.22-.43c-.25,0-.37-.16-.37-.49a.64.64,0,0,1,.09-.34c.06-.11.13-.16.21-.16,3.5.21,6.33.31,8.51.31s4.27-.06,6.53-.18c.17,0,.26.14.28.43s-.07.43-.28.43a2,2,0,0,0-1.57.4,3.13,3.13,0,0,0-.58,1.88c-.09,1-.13,2.59-.13,4.93a24,24,0,0,0,.22,3.95,12.49,12.49,0,0,1,.22,1.48.72.72,0,0,1-.13.49,1.44,1.44,0,0,1-.55.24,68.19,68.19,0,0,1-14.3,1.73A26.67,26.67,0,0,1,293.48,176.49Z" style="fill:#2b2b2b"/><path d="M368.56,178c0,.25,0,.37-.12.37h-11q-1.35,0-5-4.9a155.47,155.47,0,0,1-8.94-13.71,12.61,12.61,0,0,1-1.42.06q-2.4,0-3.39-.06v13.62a9.11,9.11,0,0,0,.31,2.77,1.84,1.84,0,0,0,1.2,1.17,9.45,9.45,0,0,0,2.87.31c.08,0,.12.12.12.37s0,.37-.12.37c-1.36,0-2.42,0-3.21-.06l-4.68-.06-4.5.06q-1.23.06-3.33.06c-.12,0-.18-.12-.18-.37s.06-.37.18-.37a9.45,9.45,0,0,0,2.87-.31,1.93,1.93,0,0,0,1.23-1.2,8.11,8.11,0,0,0,.34-2.74V144.84a8.54,8.54,0,0,0-.31-2.71,2,2,0,0,0-1.23-1.21,9,9,0,0,0-2.84-.34q-.12,0-.12-.36c0-.25,0-.37.12-.37l3.27.06q2.84.12,4.5.12,2.1,0,4.38-.18c.53,0,1.2-.09,2-.13s1.69-.06,2.68-.06q5.61,0,8.69,2.07a6.54,6.54,0,0,1,3.09,5.76,10.74,10.74,0,0,1-1.85,6.13A13.69,13.69,0,0,1,349.2,158q4.94,7.4,8.26,11.59a34,34,0,0,0,5.92,6.1,8.58,8.58,0,0,0,5.06,1.91C368.52,177.63,368.56,177.75,368.56,178Zm-26.32-19.72q3.57,0,5.15-2c1-1.33,1.57-3.48,1.57-6.44,0-3.37-.5-5.69-1.48-7a5.06,5.06,0,0,0-4.26-1.92,5.27,5.27,0,0,0-3.51.93,3.93,3.93,0,0,0-1,3.08V158A22.69,22.69,0,0,0,342.24,158.28Z" style="fill:#2b2b2b"/><path d="M412.33,178c0,.25-.11.37-.31.37-.82,0-2.1,0-3.82-.12s-3.11-.13-3.89-.13c-1,0-2.28,0-3.76.13s-2.51.12-3.33.12c-.16,0-.24-.12-.24-.37s.08-.37.24-.37a5.73,5.73,0,0,0,2.32-.34,1.2,1.2,0,0,0,.7-1.2,9.51,9.51,0,0,0-1.23-3.51l-4.19-8.32H379.66l-2.41,5.36a8.24,8.24,0,0,0-.8,3.33A4.12,4.12,0,0,0,378,176.4a6.69,6.69,0,0,0,4.23,1.23c.2,0,.3.12.3.37s-.1.37-.3.37c-.75,0-1.81,0-3.21-.12-1.56-.08-2.92-.13-4.07-.13s-2.44,0-4,.13q-2.08.12-3.39.12c-.16,0-.24-.12-.24-.37s.08-.37.24-.37a5.45,5.45,0,0,0,2.9-.71,7.82,7.82,0,0,0,2.34-2.52,43.4,43.4,0,0,0,2.78-5.4L389,139.6a.67.67,0,0,1,.56-.19c.33,0,.51.07.55.19l15.41,30.33a31.66,31.66,0,0,0,3.58,6,4,4,0,0,0,3,1.66C412.22,177.63,412.33,177.75,412.33,178Zm-31.87-15.47H393.9l-7.09-14.05Z" style="fill:#2b2b2b"/><path d="M463.43,178c0,.25,0,.37-.13.37-1.39,0-2.5,0-3.32-.06l-4.57-.06-4.62.06q-1.17.06-3.21.06c-.12,0-.18-.12-.18-.37s.06-.37.18-.37a6.83,6.83,0,0,0,3.52-.62c.62-.41.92-1.27.92-2.58l-.06-1.05-1.29-25.21L438,177.94a.51.51,0,0,1-.49.25.51.51,0,0,1-.5-.25l-15.59-29.65-.5,22.25a8.32,8.32,0,0,0,1.33,5.21,4.58,4.58,0,0,0,3.91,1.88c.13,0,.19.12.19.37s-.06.37-.19.37c-1.11,0-2,0-2.59-.06l-3.39-.06-3.88.06c-.66,0-1.54.06-2.65.06-.12,0-.18-.12-.18-.37s.06-.37.18-.37a4.83,4.83,0,0,0,4-1.91,8.55,8.55,0,0,0,1.54-5.18l.55-25.52-.06-.06a10.57,10.57,0,0,0-2.56-3.33,4.77,4.77,0,0,0-3.05-1q-.18,0-.18-.36c0-.25.06-.37.18-.37l2.9.06q.85.06,2.22.06l3.27-.06a13.42,13.42,0,0,1,1.41-.06,1.48,1.48,0,0,1,1.24.55,28.3,28.3,0,0,1,1.6,2.65l13.44,25.21,11.71-26.87a3.19,3.19,0,0,1,.77-1.21,1.66,1.66,0,0,1,1.08-.33q.56,0,1.26.06c.47,0,1,.06,1.63.06l3.64-.06c.58,0,1.4-.06,2.47-.06.12,0,.18.12.18.37s-.06.36-.18.36a6.15,6.15,0,0,0-4.19,1.18,4.3,4.3,0,0,0-1.17,3.63l1.47,28a10,10,0,0,0,.47,2.77,1.89,1.89,0,0,0,1.23,1.17,9.1,9.1,0,0,0,2.8.31C463.39,177.63,463.43,177.75,463.43,178Z" style="fill:#2b2b2b"/><path d="M516.25,178c0,.25,0,.37-.12.37q-2.1,0-3.33-.06l-4.56-.06-4.62.06q-1.17.06-3.21.06c-.12,0-.18-.12-.18-.37s.06-.37.18-.37a6.83,6.83,0,0,0,3.52-.62,2.94,2.94,0,0,0,.92-2.58l-.06-1.05-1.29-25.21-12.7,29.77a.52.52,0,0,1-.5.25.51.51,0,0,1-.49-.25l-15.6-29.65-.49,22.25a8.32,8.32,0,0,0,1.33,5.21,4.58,4.58,0,0,0,3.91,1.88c.12,0,.19.12.19.37s-.07.37-.19.37c-1.11,0-2,0-2.59-.06l-3.39-.06-3.88.06c-.66,0-1.54.06-2.65.06-.13,0-.19-.12-.19-.37s.06-.37.19-.37a4.79,4.79,0,0,0,4-1.91,8.55,8.55,0,0,0,1.55-5.18l.55-25.52-.06-.06a10.72,10.72,0,0,0-2.56-3.33,4.77,4.77,0,0,0-3.05-1c-.12,0-.19-.12-.19-.36s.07-.37.19-.37l2.9.06q.86.06,2.22.06l3.26-.06a13.63,13.63,0,0,1,1.42-.06,1.47,1.47,0,0,1,1.23.55,27.57,27.57,0,0,1,1.61,2.65L493,168.26l11.72-26.87a3.19,3.19,0,0,1,.77-1.21,1.62,1.62,0,0,1,1.08-.33c.36,0,.79,0,1.26.06s1,.06,1.63.06l3.64-.06c.57,0,1.4-.06,2.46-.06.13,0,.19.12.19.37s-.06.36-.19.36a6.17,6.17,0,0,0-4.19,1.18,4.36,4.36,0,0,0-1.17,3.63l1.48,28a10.12,10.12,0,0,0,.46,2.77,1.93,1.93,0,0,0,1.24,1.17,9.1,9.1,0,0,0,2.8.31C516.21,177.63,516.25,177.75,516.25,178Z" style="fill:#2b2b2b"/><path d="M562.12,178c0,.25-.11.37-.31.37-.82,0-2.1,0-3.82-.12s-3.11-.13-3.89-.13c-1,0-2.28,0-3.76.13s-2.51.12-3.33.12c-.16,0-.24-.12-.24-.37s.08-.37.24-.37a5.73,5.73,0,0,0,2.32-.34,1.2,1.2,0,0,0,.7-1.2,9.51,9.51,0,0,0-1.23-3.51l-4.19-8.32H529.45L527,169.62a8.24,8.24,0,0,0-.8,3.33,4.12,4.12,0,0,0,1.57,3.45,6.69,6.69,0,0,0,4.23,1.23c.2,0,.3.12.3.37s-.1.37-.3.37c-.75,0-1.81,0-3.21-.12-1.56-.08-2.92-.13-4.07-.13s-2.44,0-4,.13q-2.09.12-3.39.12c-.16,0-.24-.12-.24-.37s.08-.37.24-.37a5.45,5.45,0,0,0,2.9-.71,7.82,7.82,0,0,0,2.34-2.52,43.4,43.4,0,0,0,2.78-5.4l13.37-29.4a.67.67,0,0,1,.56-.19c.33,0,.51.07.55.19l15.41,30.33a31.66,31.66,0,0,0,3.58,6,4,4,0,0,0,3,1.66C562,177.63,562.12,177.75,562.12,178Zm-31.87-15.47h13.44l-7.09-14.05Z" style="fill:#2b2b2b"/><path d="M605.51,178c0,.25,0,.37-.12.37h-11c-.91,0-2.59-1.63-5.06-4.9a160.18,160.18,0,0,1-8.94-13.71,12.53,12.53,0,0,1-1.41.06q-2.41,0-3.39-.06v13.62a9.18,9.18,0,0,0,.3,2.77,1.84,1.84,0,0,0,1.21,1.17,9.38,9.38,0,0,0,2.86.31c.08,0,.13.12.13.37s0,.37-.13.37c-1.35,0-2.42,0-3.2-.06l-4.69-.06-4.5.06q-1.23.06-3.33.06c-.12,0-.18-.12-.18-.37s.06-.37.18-.37a9.45,9.45,0,0,0,2.87-.31,1.89,1.89,0,0,0,1.23-1.2,8.11,8.11,0,0,0,.34-2.74V144.84a8.54,8.54,0,0,0-.31-2.71,1.93,1.93,0,0,0-1.23-1.21,9,9,0,0,0-2.84-.34q-.12,0-.12-.36c0-.25,0-.37.12-.37l3.27.06q2.83.12,4.5.12,2.1,0,4.38-.18c.53,0,1.2-.09,2-.13s1.7-.06,2.68-.06q5.61,0,8.7,2.07a6.55,6.55,0,0,1,3.08,5.76,10.74,10.74,0,0,1-1.85,6.13,13.66,13.66,0,0,1-4.93,4.41q4.92,7.4,8.26,11.59a34,34,0,0,0,5.91,6.1,8.61,8.61,0,0,0,5.06,1.91C605.47,177.63,605.51,177.75,605.51,178Zm-26.32-19.72q3.57,0,5.15-2t1.57-6.44q0-5.06-1.48-7a5,5,0,0,0-4.25-1.92,5.28,5.28,0,0,0-3.52.93,3.92,3.92,0,0,0-1,3.08V158A22.47,22.47,0,0,0,579.19,158.28Z" style="fill:#2b2b2b"/></svg>