<?xml version="1.0" encoding="utf-8"?>
<!-- Generator: Adobe Illustrator 25.2.3, SVG Export Plug-In . SVG Version: 6.00 Build 0)  -->
<svg version="1.1" id="Layer_1" xmlns="http://www.w3.org/2000/svg" xmlns:xlink="http://www.w3.org/1999/xlink" x="0px" y="0px"
	 viewBox="0 0 259.7 380.3" style="enable-background:new 0 0 259.7 380.3;" xml:space="preserve">
<style type="text/css">
	.st0{fill:#FFFFFF;}
	.st1{fill:#005497;}
	.st2{fill:#F3A519;}
	.st3{fill:#282347;}
	.st4{fill:#010101;}
	.st5{fill:#AB1917;}
	.st6{fill:#1D201D;}
	.st7{fill:#1C1C1C;}
</style>
<path class="st0" d="M53,99.2V20h150v80.6c0,26.5-1.3,48-74.1,90.8L128,192l-0.8-0.5C54.3,148.7,53,127.2,53,100.7V99.2z M238,147.7
	l-20.1,17.1l9.7,16.6l0.4,0.6l-0.5,0.5c-0.1,0.1-3.8,3.7-25.1,13.8l-6.2,2.9c-21.9,10.4-51.8,24.8-68.1,24.6h-0.2
	c-16.3,0.2-46.2-14.1-68.1-24.6l-6.2-2.9c-21.3-10.1-24.9-13.7-25.1-13.8l-0.5-0.5l0.4-0.6l9.7-16.7L18,147.7l-1.9-1.6l2.5-0.1
	l13.4-0.5l0.2-11.3v-2l1.5,1.3l28.4,24.7l0.6,0.5l-0.4,0.7l-7,11.8c12.3,6.3,30.4,15.4,38.1,19c15,6.9,26.3,10.4,34.6,10.6
	c8.3-0.2,19.6-3.7,34.6-10.6c7.7-3.6,25.8-12.7,38.1-19l-7-11.8l-0.4-0.7l0.6-0.5l28.4-24.7l1.5-1.3v2l0.2,11.3l13.4,0.5l2.4,0.1
	L238,147.7z"/>
<path class="st1" d="M127.2,191.5l0.8,0.5l0.8-0.5c72.9-42.8,74.2-64.3,74.2-90.8V20H53v80.6C53,127.2,54.3,148.7,127.2,191.5z
	 M56.3,99.2V23.3h143.4v76c0,27.1,0,46.7-71.7,89C56.2,145.9,56.2,126.3,56.3,99.2z"/>
<path class="st2" d="M128,188.2c71.8-42.3,71.8-61.9,71.7-89V23.3H56.3v76C56.2,126.3,56.2,145.9,128,188.2z M148.5,43.5
	c0.1-0.3,0.1-0.7,0.2-1c0.8,0.3,1.7,0.4,2.6,0.1l0,0l0.2-0.1h0.1c1.1-0.4,1.8-1.3,1.8-2.5v-0.5l-0.3,0.4c-1,1.3-2.7,1.8-4.2,1.2
	c0.1-1.3,0.3-2,1.5-2.2c0.3-0.1,0.7-0.1,1-0.2c0.8,0,1.5,0.2,2.2,0.5c0.3,0.1,0.6,0.2,0.9,0.3c0.2,0.1,0.5,0.1,0.7,0.1
	c1.2-0.2,2.3-0.5,3.4-0.9c1-0.4,2.1-0.7,3.2-0.8c1.9,0,3.9,0.2,5.8,0.6l0.9,0.2c0.8,0.2,1.7,0.3,2.5,0.3c0.8,0,1.6-0.4,2-1.2
	c0,0.2,0,0.3,0,0.5c0,0.9-0.1,1.8-0.5,2.7l-0.1,0.1l0.1,0.1c0.2,0.1,0.3,0.1,0.5,0.2h0.1c0.2,0,0.4,0,0.6,0c0.8-0.1,1.5-0.3,2.1-0.8
	c-0.3,1.5-1.3,2.8-2.7,3.4l-0.2,0.1l0.1,0.2c0.1,0.2,0.2,0.3,0.2,0.5l0,0l0,0c0.3,0.6,0.5,1.3,0.6,1.9l0.1,0.9c0.3,3,0.8,7,3.6,10
	c-0.5,0.1-1,0.2-1.5,0.2c-0.9,0.1-1.8-0.1-2.5-0.5c-1.2-1.2-1.9-2.8-1.9-4.5h-0.3c-0.1,1.1,0,2.2,0.2,3.3c0.4,1.4,1.3,2.6,2.4,3.4
	l0.4,0.4c1,0.8,1.7,1.9,1.9,3.2l0.1,0.4c0.5,2.6,0.8,4,2.1,5c-1.1,0.2-2.2,0-3.2-0.6c-1-0.7-1.8-1.6-2.4-2.7l0,0l0,0l-0.1-0.2
	c-1-1.6-2.5-2.8-4.2-3.4l-0.1,0.3c1.4,1,2.5,2.4,3.2,4c0.6,1.1,0.9,2.4,1,3.7c0,0.8,0,1.7,0,2.6c0,1.1,0,2.1,0,3.1
	c0,1.1,0.2,2.1,0.5,3.2c-1-0.3-4.1-1.5-4.4-4.5c-0.1-0.6-0.1-1.2-0.2-1.7c-0.2-2.6-1.5-5-3.4-6.7l0,0c-0.1-0.1-0.2-0.2-0.3-0.3
	l-0.2,0.2c0,0,2.8,3.6,2.6,10c-0.1,0.8-0.2,1.6-0.3,2.5c-0.3,1.7-0.5,3.4-0.5,5.1c0,1,0.2,2,0.4,3c-1-0.7-3.7-3.3-4.4-9.7
	c0.5-2.4,0.3-4.9-0.6-7.2l-0.3,0.1c0,0.1,0.1,0.3,0.1,0.4c0,0.9,0,1.7,0,2.5c-0.1,2.1-0.4,4.1-1,6.1c-0.3,0.8-0.7,1.6-1.1,2.3
	c-1.7,3.2-3.5,4.9-5.8,5.4c-0.3,0.1-0.5,0.1-0.8,0.1c0.2-0.1,0.5-0.3,0.7-0.5c0.6-0.5,1.1-1.2,1.4-1.9c0.5-1.1,0.8-2.3,1-3.6
	c0.1-0.8,0.1-1.7,0.1-2.5c0-0.4,0-0.9-0.1-1.3s-0.1-0.8-0.1-1.1c0,0,0-0.1,0-0.1v-0.1c0.7-2,0.8-4.2,0.2-6.2l-0.3,0.1
	c0,0.1,0,0.2,0,0.3c-0.2,2.3-0.8,4.6-1.8,6.8c0,0,0,0.1,0,0.1c-1.3,2.7-3.4,6.7-7.1,7.4c-0.5,0.1-1,0.2-1.4,0.1
	c0.6-0.4,1.7-1.7,2.3-4.6c0.2-1,0.3-1.9,0.5-2.8c0.4-2.5,0.7-4.9,2.5-7.4l-0.2-0.2c-1.9,1.4-4,5.3-4.3,6.3c-0.1,0.2-0.1,0.3-0.1,0.5
	c-0.2,1.4-1.1,2.7-2.3,3.5c-0.9,0.6-2,0.8-3.1,0.5l-0.1-0.1h0.1c0.8-0.3,1.5-0.8,2-1.5c0.6-0.8,0.9-2.8,1.3-4.7
	c0.2-0.9,0.3-1.8,0.5-2.5c0.3-1.3,0.7-2.5,1.3-3.6c0.7-1.5,1.8-2.7,3.1-3.7c0.7-0.5,1.4-1,2.1-1.4l-0.1-0.3
	c-0.6,0.1-1.2,0.2-1.8,0.4c-3,1-4.4,3.5-5.5,5.7c-0.6,1.4-1.7,2.4-3.1,2.8c0.7-0.9,1.2-2.1,1.4-3.2c0.3-1.1,0.7-2.2,1.1-3.3
	c0.7-1.9,2.8-3.4,6.4-4.5c1.3-0.4,2.7-0.8,3.7-1h0.1c-0.9,1.7-1.3,3.7-1.3,5.6c-0.1,1.4-0.4,2.7-1,4l-0.1,0.3h0.3
	c1.8-0.2,3.4-0.9,4.9-1.9c0.2-0.1,0.4-0.3,0.6-0.4l0.1-0.1l0,0l0,0l0.1-0.1l0.1-0.1l0,0l0,0c0.2-0.2,0.4-0.5,0.5-0.8
	c0.1-0.2,0.2-0.3,0.2-0.5c0.2-0.5,0.5-1,0.7-1.5c0.1,0.3,0.1,0.5,0.2,0.8l0.2,0.7c0.3,1.7,0.3,3.5,0,5.2c0,0.2-0.1,0.3-0.1,0.4
	s0,0.2-0.1,0.2l-0.2,0.6l0.4-0.4c1-0.9,2-1.8,2.4-2.3s0.7-0.8,1-1.2s0.6-0.8,1.2-1.4c0.7-0.8,1.2-1.8,1.5-2.8c0.9,1.2,1.9,2.3,3,3.3
	l0.3,0.2l-0.1-0.3c-0.2-1.2-0.2-2.5,0-3.7c0.3-1,0.6-2,1-2.9c1.1-2.2,1.4-2.8,1.5-4.5c0-1.8-0.5-3.5-1.5-5L169,50
	c0.4,1.2,0.7,2.4,0.7,3.6c-0.2,1.9-0.7,3.7-1.6,5.3c-0.3,0.6-0.6,1.2-0.8,1.8c0,0,0,0.1,0,0.1l0,0c-0.2,0.5-0.3,1-0.4,1.6
	c0,0.1,0,0.1,0,0.2v0.1l0,0c-0.5-0.7-1-1.5-1.3-2.3c-0.1-0.2-0.2-0.5-0.2-0.7c-0.2-0.7-0.2-1.5,0-2.2c0.1-0.6,0.2-1.1,0.2-1.7
	c0-0.7-0.2-1.4-0.5-2c-0.2-0.5-0.5-0.9-0.9-1.2l-0.2,0.2c0.6,1.4,0.6,2.9,0.2,4.3c-0.3,1-0.4,2.2-0.1,3.2c0.1,0.2,0.1,0.5,0.2,0.7
	s0,0.2,0,0.3c0,0.1,0,0.3-0.1,0.4c-0.1,0.3-0.2,0.7-0.3,1c-0.2,0.4-0.5,0.9-0.8,1.3c-0.3,0.3-0.6,0.7-0.9,1l-0.6,0.7l-0.1,0.1l0,0
	l0,0l-0.1,0.1l-0.3,0.4l-0.7,0.7c0-0.3,0.1-0.6,0.1-0.8c0-1.2-0.2-2.3-0.5-3.5c-0.2-0.7-0.3-1.4-0.4-2.1c-0.1-0.6-0.1-1.2,0-1.8
	c0.2-0.9,0.6-1.8,1.2-2.5l0,0l0,0c0.4-0.1,0.7-0.3,1-0.5c0.1-0.1,0.3-0.2,0.4-0.4l0,0c0.6-0.7,0.8-1.6,0.7-2.5
	c-0.1-0.8-0.3-1.5-0.7-2.1c-0.1-0.2-0.1-0.3-0.1-0.3l-0.3,0.1c0.4,1.1,0.3,2.2-0.1,3.3c-0.3,0.5-0.8,0.9-1.4,1l-0.3,0.1
	c-0.8,0.1-1.6,0.1-2.3-0.1l-0.4-0.1c-0.8-0.2-1.7-0.3-2.6-0.3h-0.3c-0.4,0-0.7,0-1.1,0c-0.7,0.1-1.4,0.2-2,0.4
	c-0.4,0.1-0.9,0.2-1.3,0.3c-0.7,0-1.3-0.3-1.6-0.9c-0.2-0.3-0.3-0.6-0.3-1c0-0.9,0.9-1.5,2.4-1.5c0.6,0,1.2,0,1.7,0.1
	c0.7,0.1,1.3,0.2,2,0.2c2.1-0.1,3.6-1.1,3.9-2.6c0.1-0.7,0.1-1.3,0.1-2c0-0.8-0.2-3.5-1.3-3.7h-0.2c-0.6,0-0.9,0.5-1.3,1
	c-0.3,0.5-0.8,0.9-1.3,1.2c-0.4,0.1-0.7,0.2-1.1,0.2c-1.3,0.1-2.5-0.3-3.6-1.1c-0.3-0.3-0.5-0.7-0.5-1.1
	C148.5,43.8,148.5,43.6,148.5,43.5z M158.3,61.1c-0.6,1-1.1,2.1-1.6,3.2c-0.4,0.8-1.1,1.5-1.8,2c-0.6,0.3-1.3,0.6-2,0.8
	c0,0,0,0,0-0.1c0.2-0.8,0.3-1.5,0.4-2.3c0.1-0.8,0.1-1.6,0.2-2.2c0-0.2,0.1-0.5,0.1-0.7c0.3-2.1,1.7-4,3.7-4.9l0.7,0
	c0.4,0,0.8,0.1,1.1,0.1c-0.5,0.9-0.7,2-0.8,3C158.3,60.3,158.3,60.7,158.3,61.1z M148.2,48.7c0.9,0.9,2.5,0,3.8-0.4s3.1,1.1,4.6,0.1
	c0,0-0.2,1.9-1.8,1.3s-3-0.8-4.2,0.4s-4.1,0.7-4.8-1s-0.2-3.4-1.3-3.9c0,0,0.6-1.1,2.2-0.4S147.4,47.8,148.2,48.7z M109.2,44.7
	c1.6-0.7,2.2,0.4,2.2,0.4c-1.1,0.4-0.6,2.2-1.3,3.9s-3.6,2.1-4.8,1s-2.5-1-4.2-0.4s-1.8-1.3-1.8-1.3c1.6,1,3.3-0.5,4.6-0.1
	s2.9,1.4,3.8,0.4S107.7,45.4,109.2,44.7L109.2,44.7z M79.6,63.5l0.1-0.4c0.2-1.3,0.9-2.4,1.9-3.2l0.5-0.4c1.2-0.8,2-2.1,2.4-3.4
	c0.3-1.1,0.4-2.2,0.2-3.3h-0.4c-0.1,1.7-0.8,3.3-2,4.5c-0.8,0.4-1.7,0.6-2.5,0.5c-0.5,0-1-0.1-1.4-0.2c2.8-2.9,3.3-7,3.6-10l0.1-0.9
	c0.1-0.7,0.3-1.3,0.6-1.9l0,0l0,0c0.1-0.2,0.2-0.3,0.2-0.5l0.1-0.2L82.8,44c-1.4-0.6-2.4-1.9-2.7-3.4c0.6,0.5,1.3,0.7,2.1,0.8
	c0.2,0,0.4,0,0.6,0l0,0c0.2,0,0.3-0.1,0.5-0.2l0.1-0.1l0.1-0.2c-0.4-0.8-0.5-1.7-0.5-2.7c0-0.2,0-0.4,0-0.5c0.4,0.7,1.2,1.1,2,1.1
	c0.8,0,1.7-0.1,2.5-0.3l0.9-0.2c1.9-0.4,3.8-0.6,5.8-0.6c1.1,0.2,2.2,0.4,3.2,0.8c1.1,0.4,2.2,0.7,3.4,0.9c0.2,0,0.5,0,0.7-0.1
	c0.3-0.1,0.6-0.2,0.9-0.3c0.7-0.4,1.4-0.5,2.2-0.5c0.3,0,0.7,0.1,1,0.2c1.2,0.3,1.4,1,1.5,2.2c-1.5,0.6-3.2,0.1-4.1-1.2l-0.3-0.4V40
	c0,1.1,0.7,2.1,1.8,2.5h0.1l0.2,0.1l0,0c0.9,0.2,1.8,0.2,2.6-0.1c0,0.4,0.1,0.7,0.2,1c0,0.2,0,0.3,0,0.5c0,0.4-0.2,0.8-0.5,1.1
	c-1.1,0.8-2.4,1.1-3.7,1c-0.4,0-0.8-0.1-1.1-0.2c-0.5-0.3-1-0.7-1.3-1.2c-0.4-0.5-0.7-0.9-1.3-1h-0.2c-1.1,0.1-1.3,2.8-1.3,3.7
	c0,0.7,0,1.3,0.1,2c0.2,1.5,1.7,2.5,3.8,2.6c0.7,0,1.3,0,2-0.2c0.6-0.1,1.1-0.2,1.7-0.1c1.5,0.1,2.4,0.7,2.4,1.5
	c0,0.3-0.1,0.7-0.3,1c-0.3,0.6-0.9,1-1.6,0.9c-0.5,0-0.9-0.1-1.3-0.3c-0.6-0.2-1.3-0.3-2-0.4c-0.4,0-0.7,0-1.1,0c-0.1,0-0.2,0-0.3,0
	c-0.9,0-1.7,0.1-2.6,0.3l-0.4,0.1c-0.8,0.1-1.6,0.2-2.3,0.1l-0.2,0c-0.6-0.1-1.1-0.5-1.4-1c-0.5-1-0.5-2.2-0.1-3.3l-0.3-0.1
	c0,0-0.1,0.1-0.1,0.3c-0.4,0.7-0.6,1.4-0.7,2.1c-0.1,0.9,0.1,1.8,0.7,2.5l0,0l0,0c0.1,0.1,0.3,0.3,0.4,0.4c0.3,0.2,0.6,0.4,0.9,0.5
	l0,0l0,0c0.6,0.7,1,1.6,1.2,2.5c0.1,0.6,0.1,1.2,0,1.8c-0.1,0.7-0.2,1.4-0.4,2.2c-0.3,1.1-0.5,2.3-0.5,3.5c0,0.3,0,0.6,0.1,0.8
	L95,66.3L94.7,66l-0.1-0.1l0,0l0,0l-0.1-0.1l-0.6-0.7c-0.3-0.3-0.6-0.7-0.9-1c-0.3-0.4-0.5-0.8-0.7-1.2c-0.1-0.3-0.2-0.7-0.3-1
	c0-0.1-0.1-0.3-0.1-0.4c0-0.1,0-0.2,0-0.3c0.1-0.2,0.2-0.5,0.2-0.7c0.3-1.1,0.3-2.2-0.1-3.3c-0.4-1.4-0.4-2.9,0.2-4.3L92,52.7
	c-0.4,0.4-0.7,0.8-0.9,1.2c-0.3,0.6-0.5,1.3-0.5,2c0,0.6,0,1.2,0.2,1.7c0.2,0.7,0.2,1.5,0,2.2c0,0.2-0.1,0.5-0.2,0.7
	c-0.3,0.8-0.8,1.6-1.3,2.3l0,0v-0.3c-0.1-0.6-0.2-1.1-0.4-1.6l0,0v-0.1c-0.3-0.6-0.6-1.3-0.9-1.9c-0.9-1.6-1.5-3.4-1.6-5.2
	c0-1.2,0.2-2.5,0.7-3.6L86.8,50c-0.9,1.5-1.4,3.2-1.5,5c0.1,1.7,0.4,2.4,1.5,4.6c0.4,1,0.7,1.9,1,2.9c0.3,1.2,0.3,2.5,0,3.7
	l-0.1,0.3l0.3-0.2c1.1-1,2-2.1,2.8-3.4c0.3,1,0.8,2,1.5,2.8c0.6,0.6,0.9,1,1.2,1.4s0.6,0.7,1,1.2s1.4,1.3,2.4,2.2l0.4,0.4l-0.2-0.6
	L97.2,70c0-0.1-0.1-0.3-0.1-0.5c-0.3-1.7-0.3-3.5,0-5.2l0.2-0.7c0.1-0.2,0.1-0.5,0.2-0.8c0.3,0.5,0.5,1,0.7,1.6
	c0.1,0.2,0.1,0.3,0.2,0.5c0.2,0.3,0.3,0.5,0.6,0.8l0,0l0,0l0.1,0.1l0.1,0.1l0,0l0,0c0,0,0.1,0.1,0.1,0.1c0.2,0.2,0.4,0.3,0.6,0.4
	c1.5,1,3.1,1.6,4.9,1.9h0.3l-0.1-0.3c-0.6-1.3-0.9-2.6-1-4c0-1.9-0.4-3.9-1.3-5.6h0.1c1,0.2,2.4,0.5,3.7,1c3.6,1.1,5.7,2.6,6.4,4.5
	c0.4,1.1,0.7,2.2,1,3.3c0.2,1.2,0.7,2.3,1.4,3.2c-1.4-0.4-2.5-1.5-3.1-2.8c-1.1-2.2-2.5-4.7-5.5-5.7c-0.6-0.2-1.2-0.3-1.8-0.4
	L105,62c0.8,0.4,1.5,0.9,2.2,1.4c1.3,1,2.4,2.2,3.1,3.7c0.6,1.1,1.1,2.3,1.3,3.6c0.2,0.7,0.3,1.6,0.5,2.5c0.3,1.9,0.7,3.9,1.2,4.7
	c0.5,0.7,1.2,1.2,2,1.5h0.1l-0.1,0.1c-1,0.3-2.1,0.2-3-0.5c-1.2-0.8-2.1-2-2.3-3.5c0-0.2-0.1-0.4-0.1-0.5c-0.3-1-2.4-4.9-4.3-6.3
	l-0.2,0.2c1.7,2.5,2.1,4.9,2.5,7.4c0.1,0.9,0.3,1.8,0.5,2.8c0.6,2.9,1.7,4.1,2.3,4.6c-0.5,0.1-1,0-1.4-0.1c-3.8-0.7-5.8-4.8-7.2-7.4
	L102,76c-0.9-2.2-1.4-4.4-1.5-6.8c0-0.1,0-0.2,0-0.3l-0.3-0.1c-0.5,2.1-0.5,4.2,0.2,6.2v0.1c0,0,0,0.1,0,0.1c0,0.4,0,0.8-0.1,1.2
	s-0.1,0.8-0.1,1.3c0,0.8,0,1.7,0.1,2.5c0.2,1.2,0.5,2.4,1,3.5c0.2,0.4,0.5,0.8,0.8,1.2c0.2,0.3,0.4,0.5,0.7,0.7
	c0.2,0.2,0.4,0.3,0.7,0.5c-0.3,0-0.5-0.1-0.8-0.1c-2.3-0.5-4.2-2.1-5.8-5.4c-0.5-0.7-0.8-1.5-1.2-2.3c-0.6-2-0.9-4-1-6.1
	c0-0.8,0-1.7,0-2.6c0-0.1,0-0.2,0.1-0.4l-0.3-0.1c-0.9,2.3-1.1,4.8-0.6,7.2c-0.7,6.4-3.4,8.9-4.4,9.6c0.3-1,0.4-2,0.4-3
	c0-1.7-0.1-3.4-0.5-5.1c-0.1-0.8-0.3-1.7-0.3-2.5c-0.2-6.4,2.6-10,2.6-10l-0.2-0.2L91,65.5l0,0c-1.9,1.7-3.1,4.1-3.4,6.7
	c-0.1,0.5-0.2,1.1-0.2,1.7c-0.3,3-3.4,4.2-4.4,4.5c0.3-1,0.5-2.1,0.5-3.2c0-1,0-2,0-3.1c0-0.8,0-1.7,0-2.6c0-1.3,0.3-2.6,0.9-3.7
	c0.7-1.6,1.8-3,3.2-4l-0.1-0.3c-1.8,0.6-3.3,1.8-4.3,3.4l-0.1,0.2l0,0l0,0c-0.5,1.2-1.4,2.1-2.5,2.8c-0.9,0.6-2.1,0.8-3.2,0.6
	C78.7,67.5,79,66.1,79.6,63.5z M97,57c0.3,0,0.7,0,1.1-0.1l0.7,0c2,0.9,3.4,2.8,3.7,4.9c0,0.2,0.1,0.4,0.1,0.7
	c0.1,0.7,0.1,1.4,0.2,2.2c0.1,0.8,0.2,1.6,0.4,2.3c0,0.1,0,0.1,0,0.1c-0.7-0.2-1.4-0.5-2-0.8c-0.8-0.5-1.4-1.2-1.8-2
	c-0.4-1.1-0.9-2.2-1.6-3.2c0-0.4,0-0.7,0-1.1C97.7,59,97.5,57.9,97,57z M75.6,120.3c2.2-3.8,4.4-6.1,4.4-7.8
	c-0.2-1.2-0.5-2.3-0.8-3.4c-1.3,1-3,1.4-4.7,1.1c-3.7-1.2-4.9-1.6-8-8s-1-13.3-1-13.3c0.9,2.1,1.6,4.3,2.2,6.6
	c0.6,2,1.6,3.9,2.9,5.5c0,0-0.2-5.1-0.2-9.4s-0.6-5.1-2.5-9.6c-1.1-2.7-1.3-5.7-0.6-8.6c0.9,3.5,2.9,6.5,5.7,8.8
	c0,0,0.4-6.8-1.8-9.6c-2.3-3-4-6.5-4.9-10.2c-0.8-2.8-1.7-5.5-2.9-8.2c7.2,2.5,7.6,7.4,7.6,7.4s2.2-1.2-2.7-9.8
	c-2.9-5.2-3.9-11.3-2.7-17.2c0.1,2.8,1.3,5.4,3.5,7.2c5.2,4.6,6.3,15.4,4.9,21.3s3.1,14.7,2,19.6s-5.5,16.4-2.2,22.1
	c1.6,2.9,3.6,2.8,5.2,2.1c0.1-0.4,0.3-0.9,0.6-1.2c0.8-1.1,1.4-2.2,2-3.4c3.1-4,6.3-7,9.7-12.1c3.1-4.7,3.4-8.6,3.3-10.3
	c0.3,0.6,0.6,1.2,0.9,1.7c1.2,2.3,3.1,5.3,6.8,6l0.4,0.1l0,0l0.3,0.1c3.1,0.5,3.3-2.2,3.3-2.2c-0.8,0.2-1.6,0-2.3-0.3
	c-0.2-0.1-0.3-0.2-0.5-0.3l0,0c-0.2-0.2-0.4-0.4-0.5-0.6c-0.2-0.3-0.4-0.6-0.6-0.9c-0.4-1-0.7-2-0.9-3.1c-0.1-0.6-0.1-1.2-0.1-1.8
	c0.6,1.1,1.2,2.2,2,3.2c1.3,1.7,3.1,3,5.2,3.4c0.8,0.2,1.7,0.3,2.5,0.1l2.3-0.6c1.5,0.3,2.9,0.6,4.1,0.8c0,0,1.4-4.2,4.6-5V56.1
	c0-0.1-0.1-5.7,0-10.4c-1,2.1-2.7,5-5.1,6.3c1.6-0.1,3.2-0.7,4.4-1.8c-0.3,1.7-3.9,8-8.9,11c-1.2-1.1-2.7-2-4.3-2.6
	c1.4-2.5,3.4-5.9,3.4-5.9c1.8-3.5,2.4-8.2,2.7-11.3c0,0-4.6-1.3-5.4-4.7c-0.5-2,0.8-3.3,2.4-3.9c-1,4.7,2.2,5.8,2.2,5.8
	c-0.9-1.9-1.1-4.2-0.4-6.2c0.7,0,1.5,0,2.2,0.1C114.8,38,118,39,118,39c-0.8-2-0.9-4.2-0.2-6.2c1.7-0.1,3.3,0.6,4.3,2l0.1,0.2
	c0.5,3.4-0.6,6.8-3,9.2c0,0,1.6-0.1,3.2-2.3c0.1-1.9,0.3-3.8,0.7-5.7c0.7-3.1,1.9-5.1,3.7-5.8l0.7-0.3v-0.4l0.5,0.2l0.5-0.2V30
	l0.7,0.3c1.9,0.7,3.1,2.6,3.8,5.9c0.4,2,0.6,4,0.7,6c0.7,1,1.8,1.7,3,2c-2.4-2.4-3.5-5.8-3-9.2l0.1-0.2c1-1.4,2.6-2.1,4.3-2
	c0.7,2,0.6,4.2-0.2,6.2c0,0,3.2-0.9,2.5-6.3c0.7-0.1,1.5-0.2,2.2-0.1c0.7,2,0.5,4.3-0.4,6.2c0,0,3.2-1.1,2.2-5.8
	c1.5,0.6,2.8,1.9,2.4,3.9c-0.8,3.5-5.4,4.7-5.4,4.7c0.3,3.1,0.9,7.8,2.7,11.3c0,0,2,3.4,3.4,5.9c-1.6,0.6-3,1.4-4.3,2.6
	c-4.9-3-8.6-9.3-8.9-11c1.2,1.1,2.8,1.7,4.4,1.8c-2.3-1.3-3.9-3.9-4.9-5.9c0.1,4.6,0,9.9,0,10v24.1c3.1,1,4.4,5,4.4,5
	c1.2-0.2,2.6-0.4,4.1-0.8l2.3,0.6c0.4,0.1,0.7,0.1,1.1,0.1c0.5,0,0.9-0.1,1.4-0.2c2.1-0.5,3.9-1.7,5.2-3.4c0.8-1,1.4-2.1,2-3.2
	c0,0.6,0,1.2-0.1,1.8c-0.2,1.1-0.4,2.1-0.9,3.1c-0.2,0.3-0.4,0.6-0.6,0.9c-0.2,0.2-0.3,0.4-0.5,0.6l0,0c-0.1,0.1-0.3,0.2-0.5,0.3
	c-0.7,0.4-1.5,0.5-2.3,0.4c0,0,0.2,2.7,3.3,2.2l0.4-0.1l0,0l0.4-0.1c3.6-0.7,5.6-3.8,6.8-6c0.3-0.5,0.6-1.1,0.9-1.7
	c-0.1,1.8,0.3,5.6,3.3,10.2c3.3,5.1,6.6,8.1,9.7,12.1l0.1,0.1c0.5,1.2,1.2,2.3,1.9,3.3c0.3,0.4,0.5,0.8,0.6,1.2
	c1.6,0.8,3.6,0.8,5.2-2.1c3.3-5.7-1.2-17.2-2.2-22.1s3.5-13.7,2-19.7s-0.3-16.7,4.9-21.3c2.1-1.8,3.4-4.4,3.5-7.2
	c1.2,5.9,0.3,12-2.7,17.2c-4.9,8.6-2.7,9.8-2.7,9.8s0.4-4.9,7.6-7.4c-1.2,2.7-2.1,5.4-2.9,8.2c-0.9,3.7-2.6,7.2-4.9,10.2
	c-2.2,2.9-1.8,9.6-1.8,9.6c2.8-2.3,4.8-5.3,5.7-8.8c0.7,2.9,0.5,5.9-0.6,8.6c-1.9,4.5-2.5,5.3-2.5,9.6s-0.2,9.4-0.2,9.4
	c1.3-1.6,2.3-3.5,2.9-5.5c0.6-2.2,1.4-4.4,2.2-6.6c0,0,2.1,7-1,13.3s-4.3,6.8-8,8c-1.6,0.4-3.4,0-4.7-1.1c-0.4,1.1-0.6,2.3-0.8,3.4
	c0,1.7,2.3,4,4.4,7.8s1.7,9.5,1.7,9.5c-1.4-2.1-2.9-4.2-4.4-6.1c0,0,2,9.1-0.3,14.9c-0.9-2.8-2-5.5-3.2-8.1c0,0-0.3,8.4-3.8,13.2
	c0,0-0.5-3.2-0.8-5.8c0,0-1.8,3.8-3.4,4.8v0.2c-3.1,4.4-5.9,4-8,4.3l-0.2-0.1c-2.3-0.8-3-2.7-3.5-4.7c2.1-1.6,4.7-2.4,7.4-2.2
	c0,0-1.9-3.8-8.2-0.6c-0.3-0.9-0.6-1.8-0.7-2.8c2.1-1.6,4.8-2.4,7.5-2c0,0-2.2-3.7-7.5-0.6c0.3-2.2,1.6-4.4,4.1-4.6
	c3.3-0.3,6.6,3.8,7.9,5.7c0.5-1,1.2-2,2.1-2.7c2.8-2.3,4-8.1,3.1-10s-3.4-3.2-6.1-4.2c-2.1-0.7-4.2-2.8-4.3-6.5
	c0.2-2.9,2.1-4.7,1.7-6.7c-0.4-1.8-2.5-6.3-4-9.3c-1.2-2.7-2.7-5.4-3.8-7.7c-2.2,2.3-5.1,4.3-6.4,4.6c1.3-1.5,2-3.4,1.8-5.4
	c-1.3,2.9-3.7,5.2-6.8,6.2c-2.6,0.8-3.8,1.4-5.2,1.6c4-2.2,4.2-5.3,4.2-5.3c-1.9,2.1-4.5,3.4-7.3,3.6v16c0.6-0.6,1.5-0.9,2.3-0.9
	c4.2-0.2,8.5,6.1,8.5,6.1c0.7,0,1.4-0.3,2-0.7c1.2-1,1.9-2.4,1.9-3.9c-0.1-1.1-0.2-2.3-0.1-3.4c-0.1-1-0.3-2-0.5-2.9
	c-0.8-3.8-0.6-6.1,0.9-6c1.1,0.1,5.9,2.1,8.8,3.4c0.4,0.6,0.8,1.2,1.1,1.7c1.3,2.1,0.9,2.8,0.4,5.7l-3-1.3c2.3,5.3,1.7,9.2,0.9,10.8
	c-1-3.5-4.3-6.8-4.3-6.8c2.1,4.1,2.7,8.7,1.6,13.2c-0.5,1.5-1.3,3-2.1,4.4c0.9-5.1-1.3-7.2-1.3-7.2c0.4,2-0.3,4-1.8,5.3
	c0,0-0.7-1.6-1.5-3.2c-0.8-1-1.9-1.9-3.1-2.5c-1.9,1.5-4.1,2.5-6.6,2.8l-0.2-0.1c-1.9-0.7-3.2-2.3-3.6-4.3c2.1-1.4,4.6-2,7.1-1.7
	c0,0-1.9-3.2-7.5-1.1v31.5h3.7c0.3-0.6,0.8-1.2,1.3-1.6c0.9-0.7,1.9-1,3-1c2.7,0,4.9,2.2,4.9,4.9c0,2.7-2.2,4.9-4.9,4.9l0,0
	c-0.9,0-1.8-0.3-2.6-0.8h-6.4l-0.4,0.7c-0.1,0.1-0.1,0.2-0.2,0.3l0.2,0.7c0.1,0.4,0.2,0.8,0.3,1.2l0,0c0.3,1.2,0.2,2.6-0.5,3.7
	l0.2,0.6c0.1,0.4,0.2,0.8,0.3,1.3l0,0l0,0l0,0c0.4,2,0,3.4-1,4.3h0.5c1.6,0.3,2.7,1.8,2.5,3.4c-0.2,1.3-1.2,2.3-2.5,2.5h-8.8
	c-1.5-0.1-2.7-1.4-2.6-2.9c0,0,0-0.1,0-0.1c-0.1-1.4,0.9-2.7,2.3-2.9l0.1-0.5c0.1-0.6,0.3-1.1,0.6-1.6l-0.3-0.8
	c-0.2-0.5-0.3-1.1-0.3-1.6c-0.1-1.1,0.1-2.2,0.6-3.1l-0.3-0.9c-0.2-0.5-0.3-1.1-0.3-1.6c-0.1-0.9,0-1.8,0.3-2.6h-7
	c-0.8,0.5-1.7,0.8-2.6,0.8c-2.7,0-4.9-2.2-4.9-4.9c0-2.7,2.2-4.9,4.9-4.9c1.1,0,2.1,0.3,3,1c0.6,0.4,1,1,1.3,1.6h3.9V117
	c-5.7-2.2-7.7,1-7.7,1c2.5-0.3,5,0.3,7.1,1.7c-0.3,1.9-1.7,3.6-3.6,4.3l-0.2,0.1c-2.4-0.3-4.7-1.2-6.6-2.8c-1.2,0.6-2.3,1.4-3.1,2.5
	c-0.8,1.6-1.5,3.2-1.5,3.2c-1.5-1.3-2.2-3.4-1.8-5.3c0,0-2.2,2-1.3,7.2c-0.9-1.4-1.6-2.8-2.2-4.4c-0.6-2.4-0.3-9.4,1.5-13.3
	c0,0-3.2,3.4-4.2,6.9c-0.8-1.6-1.2-6.9,1.1-10.9l-2.8,1.4c-0.5-2.8-0.9-3.4,0.4-5.6c0.4-0.6,0.8-1.3,1.2-1.9c3-1.3,7.4-3.1,8.4-3.2
	c1.5-0.2,1.7,2.1,0.9,6c-0.2,1-0.4,2-0.5,2.9c0,1.1,0,2.3-0.1,3.4c0.1,1.5,0.8,2.9,1.9,3.9c0.6,0.4,1.3,0.6,2,0.7
	c0,0,4.3-6.3,8.5-6.1c0.9,0,1.9,0.4,2.5,1.1V93.4c-2.9-0.2-5.6-1.4-7.5-3.6c0.6,2.5,2.3,4.6,4.6,5.8c-1.4-0.2-1.8-0.5-4.4-1.3
	c-2-0.9-6.4-3.8-8-7c0,0-0.3,2.7,2.1,6.1c-1.4-0.3-4.6-3-6.8-5.3c-1.7,3.5-4.1,7.8-5.5,12c-0.8,1.6-1.4,3.3-1.9,5
	c-0.3,1.4,0.7,2.8,1.3,4.5c0.8,5.2-1.6,7.9-4.1,8.7c-2.8,0.9-5.2,2.3-6.1,4.2s0.3,7.7,3.1,10c0.9,0.8,1.6,1.7,2.1,2.7
	c1.3-1.9,4.5-6,7.9-5.7c2.5,0.2,3.7,2.4,4.1,4.6c-5.3-3.1-7.4,0.6-7.4,0.6c2.7-0.4,5.3,0.4,7.4,2c-0.1,1-0.4,1.9-0.7,2.8
	c-6.2-3.1-8.2,0.6-8.2,0.6c2.7-0.2,5.3,0.6,7.4,2.2c-0.4,1.9-1.2,3.9-3.4,4.7l-0.2,0.1c-2.1-0.4-5,0-8-4.3v-0.2
	c-1.6-1-3.4-4.8-3.4-4.8c-0.3,2.6-0.8,5.8-0.8,5.8c-3.5-4.8-3.8-13.2-3.8-13.2c-1.2,2.6-2.3,5.4-3.2,8.1c-2.3-5.8-0.3-14.9-0.3-14.9
	c-1.6,2-3.1,4-4.4,6.1C73.8,129.9,73.4,124.1,75.6,120.3z"/>
<path class="st3" d="M120.1,88.9c0.7-0.3,1.5-0.4,2.3-0.4v-1.5C121.3,87.2,120.5,88,120.1,88.9z"/>
<path class="st3" d="M120.6,84.6c0.6-0.2,1.1-0.4,1.7-0.5v-1.2C121.6,83.2,121,83.8,120.6,84.6z"/>
<path class="st3" d="M116.3,113.2c2-0.4,4.1-0.1,6,0.8v-2.1C118.2,110.4,116.3,113.2,116.3,113.2z"/>
<path class="st3" d="M139.7,113.2c0,0-1.9-2.7-5.9-1.4l0,0v2.1C135.7,113.1,137.7,112.8,139.7,113.2z"/>
<path class="st3" d="M133.9,87v1.5c0.7,0.1,1.4,0.2,2.1,0.4C135.5,88,134.8,87.3,133.9,87z"/>
<path class="st3" d="M133.9,83v1.2c0.5,0.1,1,0.3,1.5,0.5C135.1,83.9,134.5,83.4,133.9,83z"/>
<path class="st1" d="M133.9,46.1c1,2.1,2.6,4.7,4.9,5.9c-1.6-0.1-3.2-0.7-4.4-1.8c0.3,1.7,4,8,8.9,11c1.2-1.1,2.7-2,4.3-2.6
	c-1.4-2.5-3.4-5.9-3.4-5.9c-1.8-3.5-2.4-8.2-2.7-11.3c0,0,4.6-1.3,5.4-4.7c0.5-2-0.9-3.3-2.4-3.9c1,4.7-2.2,5.8-2.2,5.8
	c0.9-1.9,1.1-4.2,0.4-6.2c-0.7,0-1.5,0-2.2,0.1c0.7,5.4-2.5,6.3-2.5,6.3c0.8-2,0.9-4.2,0.2-6.2c-1.7-0.1-3.3,0.6-4.3,2l-0.1,0.2
	c-0.5,3.4,0.6,6.8,3,9.2c-1.2-0.3-2.3-1-3-2c0.1,1,0.1,2.1,0.1,3.3L133.9,46.1z"/>
<path class="st4" d="M159.6,42.8L159.6,42.8L159.6,42.8L159.6,42.8z"/>
<path class="st4" d="M159.2,42.4L159.2,42.4L159.2,42.4L159.2,42.4L159.2,42.4z"/>
<path class="st1" d="M158,56.9l-0.7,0c-2,0.9-3.4,2.8-3.7,4.9c0,0.2-0.1,0.4-0.1,0.7c-0.1,0.7-0.1,1.4-0.2,2.2
	c-0.1,0.8-0.2,1.6-0.4,2.3c0,0.1,0,0.1,0,0.1c0.7-0.2,1.4-0.5,2-0.8c0.8-0.5,1.4-1.2,1.8-2c0.4-1.1,0.9-2.2,1.6-3.2
	c0-0.4,0-0.7,0-1.1c0-1,0.3-2.1,0.8-3C158.7,57,158.4,56.9,158,56.9z"/>
<path class="st5" d="M144.6,45.2c1.1,0.4,0.6,2.2,1.3,3.9s3.6,2.1,4.8,1s2.5-1,4.2-0.4s1.8-1.3,1.8-1.3c-1.6,1-3.3-0.5-4.6-0.1
	s-2.9,1.4-3.8,0.4s0.1-3.3-1.4-4S144.6,45.2,144.6,45.2z"/>
<path class="st2" d="M161.8,43.7c1,0.1,2-0.5,2.4-1.4c-0.2-0.1-0.4-0.3-0.6-0.4c-0.1-0.1-0.2-0.2-0.3-0.2c0.1,0.1,0.1,0.2,0.1,0.4
	c0.1,0.5-0.3,1-0.9,1.1c0,0-0.1,0-0.1,0c-0.6,0-1-0.4-1-1c-0.1-0.5,0.3-1,0.9-1.1c0,0,0.1,0,0.1,0c-0.5-0.3-0.9-0.2-1.2,0.3
	c-0.2,0.3-0.4,0.6-0.6,0.9C160.7,42.6,161.1,43.4,161.8,43.7z"/>
<path class="st1" d="M133.9,111.8c4-1.3,5.9,1.4,5.9,1.4c-2-0.4-4-0.1-5.9,0.7v3c5.6-2.1,7.5,1.1,7.5,1.1c-2.5-0.3-5,0.3-7.1,1.7
	c0.3,2,1.7,3.6,3.6,4.3l0.2,0.1c2.4-0.3,4.7-1.2,6.6-2.8c1.2,0.6,2.3,1.4,3.1,2.5c0.8,1.6,1.5,3.2,1.5,3.2c1.5-1.3,2.2-3.4,1.8-5.3
	c0,0,2.2,2,1.3,7.2c0.9-1.4,1.6-2.8,2.1-4.4c1-4.5,0.4-9.1-1.6-13.2c0,0,3.3,3.3,4.3,6.8c0.8-1.6,1.4-5.5-0.9-10.8l3,1.3
	c0.5-2.9,1-3.5-0.4-5.7c-0.3-0.6-0.7-1.1-1.1-1.7c-3-1.3-7.8-3.3-8.8-3.4c-1.5-0.2-1.7,2.1-0.9,6c0.2,1,0.4,2,0.5,2.9
	c0,1.1,0,2.3,0.1,3.4c-0.1,1.5-0.8,2.9-1.9,3.9c-0.6,0.4-1.3,0.6-2,0.7c0,0-4.3-6.3-8.5-6.1c-0.9,0-1.7,0.3-2.3,0.9L133.9,111.8
	L133.9,111.8z"/>
<path class="st1" d="M135.4,84.6c-0.5-0.2-1-0.4-1.5-0.5V87c0.9,0.3,1.7,1,2.1,1.9c-0.7-0.2-1.4-0.4-2.1-0.4v4.9
	c2.8-0.2,5.4-1.5,7.3-3.6c0,0-0.3,3.2-4.2,5.3c1.4-0.2,2.6-0.9,5.2-1.6c3-1,5.5-3.2,6.8-6.2c0.2,2-0.4,3.9-1.8,5.4
	c1.4-0.3,4.3-2.3,6.4-4.6c1.1,2.3,2.5,4.9,3.8,7.7c1.5,3,3.6,7.5,4,9.3c0.4,2-1.6,3.8-1.7,6.7c0.1,3.8,2.1,5.8,4.3,6.5
	c2.8,0.9,5.2,2.3,6.1,4.2s-0.3,7.7-3.1,10c-0.9,0.8-1.6,1.7-2.1,2.7c-1.3-1.9-4.6-6-7.9-5.7c-2.5,0.2-3.7,2.4-4.1,4.6
	c5.3-3.1,7.5,0.6,7.5,0.6c-2.7-0.4-5.3,0.4-7.5,2c0.1,1,0.4,1.9,0.7,2.8c6.2-3.1,8.2,0.6,8.2,0.6c-2.7-0.2-5.3,0.6-7.4,2.2
	c0.4,1.9,1.2,3.9,3.5,4.7l0.2,0.1c2.1-0.4,5,0,8-4.3v-0.2c1.6-1,3.4-4.8,3.4-4.8c0.3,2.6,0.8,5.8,0.8,5.8c3.5-4.8,3.8-13.2,3.8-13.2
	c1.2,2.6,2.3,5.4,3.2,8.1c2.3-5.8,0.3-14.9,0.3-14.9c1.6,2,3.1,4,4.4,6.1c0,0,0.5-5.7-1.7-9.5s-4.4-6.1-4.4-7.8
	c0.2-1.2,0.5-2.3,0.8-3.4c1.3,1,3,1.4,4.7,1.1c3.7-1.2,4.9-1.6,8-8s1-13.3,1-13.3c-0.9,2.1-1.6,4.3-2.2,6.6c-0.6,2-1.6,3.9-2.9,5.5
	c0,0,0.2-5.1,0.2-9.4s0.6-5.1,2.5-9.6c1.1-2.7,1.3-5.7,0.6-8.6c-0.9,3.5-2.9,6.5-5.7,8.8c0,0-0.4-6.8,1.8-9.6c2.3-3,4-6.5,4.9-10.2
	c0.8-2.8,1.7-5.5,2.9-8.2c-7.2,2.5-7.6,7.4-7.6,7.4s-2.3-1.2,2.7-9.8c2.9-5.2,3.9-11.3,2.7-17.2c-0.1,2.8-1.3,5.4-3.5,7.2
	c-5.2,4.6-6.4,15.4-4.9,21.3s-3.1,14.7-2,19.6s5.5,16.4,2.2,22.1c-1.6,2.9-3.6,2.8-5.2,2.1c-0.1-0.4-0.3-0.9-0.6-1.2
	c-0.7-1.1-1.4-2.2-1.9-3.3l-0.1-0.1c-3.1-4-6.4-7-9.7-12.1c-3-4.7-3.4-8.5-3.3-10.2c-0.3,0.6-0.6,1.1-0.9,1.7
	c-1.2,2.3-3.1,5.3-6.8,6l-0.4,0.1l0,0l-0.4,0.1c-3.1,0.5-3.3-2.2-3.3-2.2c0.8,0.1,1.6,0,2.3-0.4c0.2-0.1,0.3-0.2,0.5-0.3l0,0
	c0.2-0.2,0.4-0.4,0.5-0.6c0.2-0.3,0.4-0.6,0.6-0.9c0.4-1,0.7-2,0.9-3.1c0.1-0.6,0.1-1.2,0.1-1.8c-0.6,1.1-1.2,2.2-2,3.2
	c-1.3,1.7-3.1,3-5.2,3.4c-0.4,0.1-0.9,0.2-1.4,0.2c-0.4,0-0.8,0-1.1-0.1l-2.3-0.6c-1.5,0.3-2.9,0.6-4.1,0.8c0,0-1.4-4-4.4-5V83
	C134.6,83.4,135.1,83.9,135.4,84.6z"/>
<path class="st1" d="M122.4,41.9c-1.6,2.2-3.2,2.3-3.2,2.3c2.4-2.4,3.5-5.8,3-9.2l-0.1-0.2c-1-1.4-2.6-2.1-4.3-2
	c-0.7,2-0.6,4.2,0.2,6.2c0,0-3.2-0.9-2.5-6.3c-0.7-0.1-1.5-0.2-2.2-0.1c-0.7,2-0.5,4.3,0.4,6.2c0,0-3.2-1.1-2.2-5.8
	c-1.5,0.6-2.8,1.9-2.4,3.9c0.8,3.5,5.4,4.7,5.4,4.7c-0.3,3.1-0.9,7.8-2.7,11.3c0,0-2,3.4-3.4,5.9c1.6,0.6,3,1.4,4.3,2.6
	c4.9-3,8.6-9.3,8.9-11c-1.2,1.1-2.8,1.7-4.4,1.8c2.4-1.4,4.1-4.2,5.1-6.3v-0.3C122.3,44.1,122.4,43,122.4,41.9z"/>
<path class="st4" d="M96.4,42.8C96.4,42.8,96.4,42.7,96.4,42.8L96.4,42.8z"/>
<path class="st4" d="M96.9,42.5L96.9,42.5L96.9,42.5L96.9,42.5z"/>
<path class="st1" d="M99.2,64.2c0.4,0.8,1,1.5,1.8,2c0.6,0.3,1.3,0.6,2,0.8c0,0,0,0,0-0.1c-0.2-0.8-0.3-1.5-0.4-2.3
	c-0.1-0.8-0.1-1.6-0.2-2.2c0-0.2-0.1-0.5-0.1-0.7c-0.3-2.2-1.7-4-3.7-4.9l-0.7,0c-0.4,0-0.7,0.1-1.1,0.1c0.5,0.9,0.7,2,0.8,3
	c0,0.4,0,0.7,0,1.1C98.3,62.1,98.8,63.2,99.2,64.2z"/>
<path class="st5" d="M104,48.3c-1.3-0.4-3,1.1-4.6,0.1c0,0,0.2,1.9,1.8,1.3s3-0.8,4.2,0.4s4.1,0.7,4.8-1s0.2-3.4,1.3-3.9
	c0,0-0.6-1.1-2.2-0.4s-0.6,3-1.4,4S105.3,48.7,104,48.3z"/>
<path class="st2" d="M94.2,43.7c0.7-0.2,1.2-1.1,1.3-1.5c-0.3-0.3-0.5-0.6-0.6-0.9c-0.3-0.5-0.7-0.5-1.2-0.3c0.6,0,1,0.4,1,1
	c0,0,0,0.1,0,0.1c0,0.6-0.4,1-1,1c-0.6,0-1-0.4-1-1c0,0,0-0.1,0-0.1c0-0.1,0-0.3,0.1-0.4l-0.3,0.2c-0.2,0.2-0.4,0.3-0.6,0.4
	C92.2,43.2,93.2,43.8,94.2,43.7z"/>
<path class="st1" d="M78.6,138.6c0.9-2.8,2-5.5,3.2-8.1c0,0,0.3,8.4,3.8,13.2c0,0,0.5-3.2,0.8-5.8c0,0,1.8,3.8,3.4,4.8v0.2
	c3.1,4.4,5.9,4,8,4.3l0.2-0.1c2.3-0.8,3-2.7,3.4-4.7c-2.1-1.6-4.7-2.4-7.4-2.2c0,0,1.9-3.8,8.2-0.6c0.3-0.9,0.6-1.8,0.7-2.8
	c-2.1-1.6-4.8-2.4-7.4-2c0,0,2.2-3.7,7.4-0.6c-0.3-2.2-1.5-4.4-4.1-4.6c-3.3-0.3-6.6,3.8-7.9,5.7c-0.5-1.1-1.2-2-2.1-2.7
	c-2.8-2.3-4-8.1-3.1-10s3.4-3.2,6.1-4.2c2.5-0.8,4.9-3.5,4.1-8.7c-0.6-1.7-1.6-3.1-1.3-4.5c0.5-1.7,1.1-3.4,1.9-5
	c1.4-4.1,3.8-8.5,5.5-12c2.2,2.3,5.4,4.9,6.8,5.3c-2.4-3.4-2.1-6.1-2.1-6.1c1.5,3.2,6,6.2,8,7c2.6,0.8,2.9,1.1,4.4,1.3
	c-2.3-1.2-4-3.3-4.6-5.8c1.9,2.1,4.6,3.4,7.5,3.6v-4.8c-0.8,0-1.5,0.2-2.3,0.4c0.4-1,1.3-1.7,2.3-2v-2.8c-0.6,0.1-1.2,0.3-1.7,0.5
	c0.4-0.7,1-1.3,1.7-1.7v-2.7c-3.2,0.8-4.6,5-4.6,5c-1.2-0.2-2.6-0.4-4.1-0.8l-2.3,0.6c-0.8,0.2-1.7,0.2-2.5-0.1
	c-2.1-0.5-3.9-1.7-5.2-3.4c-0.8-1-1.4-2.1-2-3.2c0,0.6,0,1.2,0.1,1.8c0.1,1.1,0.4,2.1,0.9,3.1c0.2,0.3,0.4,0.6,0.6,0.9
	c0.2,0.2,0.3,0.4,0.5,0.6l0,0c0.1,0.1,0.3,0.2,0.5,0.3c0.7,0.4,1.5,0.5,2.3,0.4c0,0-0.2,2.7-3.3,2.2l-0.3-0.1l0,0l-0.4-0.1
	c-3.6-0.7-5.6-3.8-6.8-6c-0.3-0.6-0.6-1.1-0.9-1.7c0.1,1.7-0.2,5.6-3.3,10.3c-3.4,5-6.6,8.1-9.7,12c-0.6,1.2-1.2,2.3-2,3.4
	c-0.3,0.4-0.5,0.8-0.6,1.2c-1.6,0.8-3.6,0.8-5.2-2.1c-3.3-5.7,1.2-17.2,2.2-22.1s-3.5-13.7-2-19.7s0.3-16.7-4.9-21.3
	c-2.1-1.8-3.4-4.4-3.5-7.2c-1.2,5.9-0.3,12,2.7,17.2c4.9,8.6,2.7,9.8,2.7,9.8s-0.4-4.9-7.6-7.4c1.2,2.7,2.1,5.4,2.9,8.2
	c0.9,3.7,2.6,7.2,4.9,10.2c2.2,2.9,1.8,9.6,1.8,9.6c-2.8-2.3-4.8-5.3-5.7-8.8c-0.7,2.9-0.5,5.9,0.6,8.6c1.8,4.5,2.5,5.3,2.5,9.6
	s0.2,9.4,0.2,9.4c-1.3-1.6-2.3-3.5-2.9-5.5c-0.6-2.2-1.4-4.4-2.2-6.6c0,0-2,7,1,13.3c3,6.3,4.3,6.8,8,8c1.6,0.4,3.4,0,4.7-1.1
	c0.4,1.1,0.6,2.3,0.8,3.4c0,1.7-2.3,4-4.4,7.8s-1.7,9.5-1.7,9.5c1.4-2.1,2.9-4.2,4.4-6.1C78.3,123.7,76.3,132.7,78.6,138.6z"/>
<path class="st1" d="M116.3,113.2c0,0,1.9-2.8,6-1.3v-2.3c-0.7-0.7-1.6-1.1-2.5-1.1c-4.2-0.2-8.5,6.1-8.5,6.1c-0.7,0-1.4-0.3-2-0.7
	c-1.2-1-1.9-2.4-1.9-3.9c0.1-1.1,0.2-2.3,0.1-3.4c0.1-1,0.3-2,0.5-2.9c0.8-3.8,0.6-6.1-0.9-6c-1,0.1-5.4,1.9-8.4,3.2
	c-0.4,0.6-0.8,1.3-1.2,1.9c-1.3,2.1-0.9,2.8-0.4,5.6l2.9-1.3c-2.4,4-1.9,9.2-1.1,10.9c1-3.5,4.2-6.9,4.2-6.9
	c-1.8,3.9-2.1,11-1.5,13.3c0.5,1.5,1.3,3,2.2,4.4c-0.9-5.1,1.3-7.2,1.3-7.2c-0.4,2,0.3,4,1.8,5.3c0,0,0.7-1.6,1.5-3.2
	c0.8-1,1.9-1.9,3.1-2.5c1.9,1.5,4.1,2.5,6.6,2.8l0.2-0.1c1.9-0.7,3.2-2.3,3.6-4.3c-2.1-1.4-4.6-2-7.1-1.7c0,0,2-3.2,7.7-1v-3
	C120.5,113.1,118.3,112.8,116.3,113.2z"/>
<path class="st1" d="M114.1,146.9c-2.1,0.1-3.6,1.9-3.5,3.9c0.1,1.9,1.6,3.4,3.5,3.5c0.8,0,1.6-0.3,2.2-0.8h23.5
	c0.6,0.5,1.4,0.8,2.2,0.8c2.1-0.1,3.6-1.9,3.5-3.9c-0.1-1.9-1.6-3.4-3.5-3.5c-1.6,0-3,1.1-3.4,2.7h-20.9
	C117.1,148.1,115.7,147,114.1,146.9z"/>
<path class="st1" d="M132.6,136.7V56.1c0,0,0-2.6,0-5.8c0-1.6,0-3.3,0-4.8c-0.1-6.6-0.7-12.8-3.9-14.1v117h3.9V136.7z"/>
<path class="st4" d="M122.3,84.1v64.4h-3.9c-0.3-0.6-0.8-1.2-1.3-1.6c-0.9-0.7-1.9-1-3-1c-2.7,0-4.9,2.2-4.9,4.9
	c0,2.7,2.2,4.9,4.9,4.9c0.9,0,1.8-0.3,2.6-0.8h7c-0.3,0.8-0.4,1.7-0.3,2.6c0.1,0.6,0.2,1.1,0.3,1.6l0.3,0.9c-0.5,1-0.8,2.1-0.6,3.1
	c0.1,0.6,0.2,1.1,0.3,1.6l0.3,0.8c-0.3,0.5-0.5,1-0.6,1.6l-0.1,0.5c-1.4,0.3-2.4,1.5-2.3,2.9c-0.1,1.5,1,2.9,2.5,3c0,0,0.1,0,0.1,0
	h8.8c1.6-0.3,2.7-1.8,2.5-3.4c-0.2-1.3-1.2-2.3-2.5-2.5h-0.5c1-0.9,1.4-2.3,1-4.3c-0.1-0.4-0.2-0.9-0.3-1.3l-0.2-0.6
	c0.6-1.1,0.8-2.5,0.5-3.7l0,0c-0.1-0.4-0.2-0.8-0.3-1.2l-0.2-0.7c0.1-0.1,0.1-0.2,0.2-0.3l0.4-0.7h6.4c0.8,0.5,1.7,0.8,2.6,0.8
	c2.7,0,4.9-2.2,4.9-4.9c0-2.7-2.2-4.9-4.9-4.9l0,0c-1.1,0-2.1,0.3-3,1c-0.6,0.4-1,1-1.3,1.6h-3.7v-36.7l0,0V56.1c0-0.1,0.1-5.4,0-10
	v-0.7c0-1.2-0.1-2.3-0.1-3.3c-0.1-2-0.3-4-0.7-6c-0.7-3.2-2-5.1-3.8-5.9l-0.7-0.3v-0.4l-0.5,0.2l-0.5-0.2V30l-0.7,0.3
	c-1.8,0.7-3,2.7-3.7,5.9c-0.4,1.9-0.6,3.8-0.7,5.7c-0.1,1.1-0.1,2.2-0.1,3.5v0.3c-0.1,4.7,0,10.3,0,10.4L122.3,84.1L122.3,84.1z
	 M132.3,168.8c0.7,0,1.3,0.8,1.3,1.8s-0.6,1.8-1.3,1.8h-8.8c-0.7,0-1.3-0.8-1.3-1.8s0.6-1.8,1.3-1.8H132.3z M125.2,160.2
	c0.3-0.4,0.8-0.7,1.2-0.9l2.9-1.3l0.7-0.3c0.4-0.2,0.8-0.4,1.2-0.7l0.2-0.1c0.1,0.4,0.2,0.7,0.2,1.1c0.1,0.4,0.1,0.8,0.1,1.2
	c0.1,0.8-0.2,1.6-0.9,2.2c-1,0.7-2.1,1.2-3.3,1.6c-1,0.4-1.9,0.8-2.8,1.4c-0.1-0.5-0.2-0.9-0.3-1.4c0-0.2,0-0.4,0-0.5
	C124.5,161.6,124.7,160.8,125.2,160.2L125.2,160.2z M124.5,156.8c0-0.6,0.1-1.2,0.4-1.8h6.6c-0.1,0.3-0.3,0.5-0.6,0.7
	c-1,0.7-2.1,1.2-3.3,1.6c-1,0.4-1.9,0.8-2.8,1.4c-0.1-0.5-0.2-0.9-0.3-1.4C124.5,157.1,124.5,156.9,124.5,156.8L124.5,156.8z
	 M131.7,164.7c0.1,0.8-0.2,1.6-0.9,2.2c-0.2,0.1-0.4,0.3-0.7,0.4h-5.7c0.1-0.6,0.3-1.1,0.7-1.6c0.3-0.4,0.7-0.7,1.1-0.9l0.2-0.1
	l1.4-0.6l0.2-0.1h0.1c0.7-0.3,1.4-0.6,2.1-1h0.1c0.3-0.2,0.7-0.4,1-0.6c0.1,0.4,0.2,0.7,0.2,1.1
	C131.7,163.9,131.8,164.3,131.7,164.7L131.7,164.7z M128.7,136.7V31.4c3.2,1.3,3.8,7.5,3.9,14.1c0,1.6,0,3.3,0,4.8
	c0,3.2,0,5.8,0,5.8v92.3h-3.9V136.7z M123.5,45.5c0.1-6.6,0.7-12.8,3.7-14.1v117h-3.7V56.1c0,0,0-2.6,0-5.7
	C123.5,48.8,123.5,47,123.5,45.5L123.5,45.5z M122.7,149.7h15.7c0.4-1.6,1.8-2.7,3.4-2.7c2.1,0.1,3.6,1.9,3.5,3.9
	c-0.1,1.9-1.6,3.4-3.5,3.5c-0.8,0-1.6-0.3-2.2-0.8h-23.4c-0.6,0.5-1.4,0.8-2.2,0.8c-2.1-0.1-3.6-1.9-3.5-3.9
	c0.1-1.9,1.6-3.4,3.5-3.5c1.6,0,3,1.1,3.4,2.7H122.7z"/>
<path class="st1" d="M123.6,57.8v90.6h3.7v-117c-3,1.2-3.6,7.5-3.7,14.1c0,1.6,0,3.3,0,4.9c0,3.1,0,5.7,0,5.7V57.8z"/>
<path class="st1" d="M122.2,170.6c0,1,0.6,1.8,1.3,1.8h8.8c0.7,0,1.3-0.8,1.3-1.8s-0.6-1.8-1.3-1.8h-8.8
	C122.8,168.8,122.2,169.6,122.2,170.6z"/>
<path class="st1" d="M130.4,163h-0.1c-0.7,0.4-1.4,0.7-2.1,1h-0.1l-0.2,0.1l-1.4,0.6l-0.2,0.1c-0.4,0.2-0.8,0.5-1.1,0.9
	c-0.4,0.5-0.6,1-0.7,1.6h5.6c0.2-0.1,0.4-0.3,0.7-0.4c0.6-0.5,1-1.3,0.9-2.2c0-0.4,0-0.8-0.1-1.2c-0.1-0.4-0.1-0.7-0.2-1.1
	C131.1,162.6,130.8,162.8,130.4,163z"/>
<path class="st4" d="M132.9,163.3L132.9,163.3z"/>
<path class="st1" d="M127.6,157.3c1.1-0.4,2.2-1,3.3-1.6c0.2-0.2,0.4-0.4,0.6-0.7h-6.6c-0.3,0.6-0.4,1.2-0.4,1.8c0,0.2,0,0.3,0,0.5
	c0,0.5,0.1,0.9,0.3,1.4C125.7,158.1,126.6,157.7,127.6,157.3z"/>
<path class="st1" d="M124.6,163c0,0.5,0.1,0.9,0.3,1.4c0.9-0.5,1.8-1,2.8-1.4c1.1-0.4,2.2-1,3.3-1.6c0.6-0.5,1-1.3,0.9-2.2
	c0-0.4,0-0.8-0.1-1.2c-0.1-0.4-0.1-0.7-0.2-1.1l-0.2,0.1c-0.4,0.3-0.8,0.5-1.2,0.7l-0.7,0.3l-2.9,1.3c-0.5,0.2-0.9,0.6-1.2,0.9
	c-0.5,0.6-0.8,1.4-0.7,2.3C124.5,162.6,124.5,162.8,124.6,163z"/>
<path class="st2" d="M38.7,161.6c0.1-1.9,1.2-3.6,2.9-4.4c2.9-1.6,6.6,0.6,10.5,2.8l0.7,0.4c3.5,2,4.6,1.4,5.7,0.8l0.8-0.8l0.8-1.3
	L34,136.4l-0.2,10.2v0.9h-0.9l-11.8,0.4l18,15.3C38.9,162.6,38.8,162.1,38.7,161.6z"/>
<path class="st2" d="M212.6,165.1c1.8-1,2.8-2.2,2.8-3.5c-0.1-1.2-0.8-2.2-1.9-2.8c-2-1.1-5.2,0.8-8.7,2.8l-0.7,0.4
	c-2.6,1.5-4.3,1.8-5.6,1.5l4.1,6.8C207.4,167.9,211.2,165.9,212.6,165.1z"/>
<rect x="64.9" y="186.4" transform="matrix(0.4253 -0.905 0.905 0.4253 -131.8898 168.219)" class="st2" width="3.3" height="3.1"/>
<rect x="169.7" y="195.1" transform="matrix(0.9085 -0.4179 0.4179 0.9085 -67.5175 89.7606)" class="st2" width="3.1" height="8"/>
<path class="st2" d="M213.6,166.7c-5.1,2.9-38.8,20-50.1,25.3c-14.8,6.8-26.1,10.4-34.6,10.8l0,0H128h-0.8l0,0
	c-8.5-0.4-19.8-3.9-34.6-10.8c-11.3-5.2-45-22.4-50.1-25.3c-0.8-0.5-1.6-1-2.2-1.7l-9.8,16.8c1.6,1.2,7.2,5,24,13l6.2,2.9
	c21.8,10.4,51.6,24.6,67.4,24.4c15.8,0.3,45.6-14,67.4-24.4l6.2-2.9c16.8-8,22.4-11.8,24-13l-9.8-16.8
	C215.1,165.7,214.4,166.3,213.6,166.7z"/>
<rect x="179.2" y="190.3" transform="matrix(0.9009 -0.434 0.434 0.9009 -65.3819 97.4638)" class="st2" width="3.1" height="3.2"/>
<rect x="142.1" y="206" transform="matrix(0.9544 -0.2984 0.2984 0.9544 -55.4063 52.3122)" class="st2" width="3.1" height="3.2"/>
<polygon class="st2" points="127.3,214.2 129.1,214.2 128.1,210.6 "/>
<polygon class="st2" points="102.9,207.8 103.4,204 101.1,207.1 "/>
<path class="st2" d="M52,162.1l-0.8-0.4c-3.4-2-6.7-3.9-8.7-2.8c-1.1,0.5-1.8,1.6-1.9,2.8c0,1.2,0.9,2.4,2.8,3.5
	c1.5,0.8,5.2,2.8,10.1,5.4l4-6.8C56.3,163.8,54.6,163.6,52,162.1z"/>
<path class="st2" d="M222.2,147.4v-0.9l-0.1-10.2l-26.3,22.8l0.9,1.6l1,0.6c1.1,0.6,1.9,1.1,5.4-0.9l0.7-0.4
	c3.9-2.3,7.6-4.4,10.5-2.8c1.7,0.8,2.8,2.5,2.9,4.4c0,0.5-0.1,1.1-0.3,1.6l18-15.3l-11.8-0.4L222.2,147.4z"/>
<path class="st1" d="M224.1,145.6l-0.2-11.3v-2l-1.5,1.3L194,158.3l-0.6,0.5l0.4,0.7l7,11.8c-12.3,6.3-30.4,15.4-38.1,19
	c-15,6.9-26.3,10.4-34.6,10.6c-8.3-0.2-19.6-3.7-34.6-10.6c-7.7-3.6-25.8-12.7-38.1-19l7-11.8l0.4-0.7l-0.6-0.5l-28.4-24.7l-1.5-1.3
	v2l-0.2,11.3L18.6,146l-2.5,0.1l1.9,1.6l20.2,17.1l-9.7,16.7l-0.4,0.6l0.5,0.5c0.1,0.1,3.8,3.7,25.1,13.8l6.2,2.9
	c21.9,10.4,51.8,24.8,68.1,24.6h0.2c16.3,0.2,46.2-14.1,68.1-24.6l6.2-2.9c21.3-10.1,24.9-13.7,25.1-13.8l0.5-0.5l-0.4-0.6
	l-9.7-16.6l20.1-17.1l1.9-1.6l-2.4-0.1L224.1,145.6z M198.4,163.6c1.3,0.2,3,0,5.6-1.5l0.7-0.4c3.4-2,6.7-3.9,8.7-2.8
	c1.1,0.5,1.8,1.6,1.9,2.8c0,1.2-0.9,2.4-2.8,3.5c-1.4,0.8-5.2,2.8-10.2,5.4L198.4,163.6z M53.5,170.4c-4.9-2.5-8.7-4.5-10.2-5.4
	c-1.8-1-2.8-2.2-2.8-3.5c0.1-1.2,0.8-2.2,1.9-2.8c2-1.1,5.2,0.8,8.7,2.8l0.8,0.4c2.6,1.5,4.3,1.8,5.6,1.5L53.5,170.4z M21,147.9
	l11.8-0.4h0.9v-0.9l0.2-10.2l26.2,22.8l-0.8,1.3l-0.8,0.8c-1.1,0.6-2.2,1.2-5.7-0.8l-0.7-0.4c-3.9-2.3-7.6-4.4-10.5-2.8
	c-1.7,0.8-2.8,2.5-2.9,4.4c0,0.5,0.1,1.1,0.3,1.6L21,147.9z M225.5,181.8c-1.6,1.2-7.2,5-24,13l-6.2,2.9
	c-21.8,10.4-51.6,24.6-67.4,24.4c-15.8,0.3-45.6-14-67.4-24.4l-6.2-2.9c-16.8-8-22.4-11.8-24-13l9.8-16.8c0.7,0.7,1.4,1.2,2.2,1.7
	c5.1,2.9,38.8,20,50.1,25.3c14.8,6.8,26.1,10.4,34.6,10.8l0,0h0.8h0.8l0,0c8.5-0.4,19.9-3.9,34.6-10.8c11.3-5.2,45-22.4,50.1-25.3
	c0.8-0.5,1.6-1,2.2-1.7L225.5,181.8z M217,163.1c0.2-0.5,0.3-1,0.3-1.6c-0.1-1.9-1.2-3.6-2.9-4.4c-2.9-1.6-6.6,0.6-10.5,2.8
	l-0.7,0.4c-3.5,2-4.3,1.5-5.4,0.9l-1-0.6l-0.9-1.6l26.3-22.8l0.1,10.2v0.9h0.9l11.8,0.4L217,163.1z"/>
<path class="st1" d="M152.6,46c0.4,0,0.8-0.1,1.1-0.2c0.5-0.3,1-0.7,1.3-1.2c0.4-0.5,0.7-0.9,1.3-1h0.2c1.1,0.1,1.3,2.8,1.3,3.7
	c0,0.7,0,1.3-0.1,2c-0.2,1.5-1.7,2.5-3.9,2.6c-0.7,0-1.3,0-2-0.2c-0.6-0.1-1.1-0.2-1.7-0.1c-1.5,0.1-2.4,0.7-2.4,1.5
	c0,0.3,0.1,0.7,0.3,1c0.3,0.6,0.9,1,1.6,0.9c0.5,0,0.9-0.1,1.3-0.3c0.6-0.2,1.3-0.3,2-0.4c0.4,0,0.7,0,1.1,0h0.3
	c0.9,0,1.7,0.1,2.6,0.3l0.4,0.1c0.8,0.1,1.6,0.2,2.3,0.1l0.3-0.1c0.6-0.1,1.1-0.5,1.4-1c0.5-1,0.5-2.2,0.1-3.3l0.3-0.1
	c0,0,0.1,0.1,0.1,0.3c0.4,0.7,0.6,1.4,0.7,2.1c0.1,0.9-0.1,1.8-0.7,2.5l0,0c-0.1,0.1-0.3,0.3-0.4,0.4c-0.3,0.3-0.6,0.4-1,0.5l0,0
	l0,0c-0.6,0.7-1,1.6-1.2,2.5c-0.1,0.6-0.1,1.2,0,1.8c0.1,0.7,0.3,1.4,0.4,2.1c0.3,1.1,0.5,2.3,0.5,3.5c0,0.3,0,0.6-0.1,0.8l0.7-0.7
	l0.3-0.4l0.1-0.1l0,0l0,0l0.1-0.1l0.6-0.7c0.3-0.3,0.6-0.7,0.9-1c0.3-0.4,0.5-0.8,0.7-1.2c0.1-0.3,0.2-0.7,0.3-1
	c0-0.1,0.1-0.3,0.1-0.4c0-0.1,0-0.2,0-0.3s-0.2-0.5-0.2-0.7c-0.3-1.1-0.3-2.2,0.1-3.2c0.4-1.4,0.4-2.9-0.2-4.3l0.2-0.2
	c0.4,0.4,0.7,0.8,0.9,1.2c0.3,0.6,0.5,1.3,0.5,2c0,0.6,0,1.2-0.2,1.7c-0.2,0.7-0.2,1.5,0,2.2c0,0.2,0.1,0.5,0.2,0.7
	c0.3,0.8,0.8,1.6,1.3,2.3l0,0v-0.1c0-0.1,0-0.1,0-0.2c0.1-0.5,0.2-1.1,0.4-1.6l0,0c0,0,0-0.1,0-0.1c0.2-0.6,0.5-1.2,0.8-1.8
	c0.9-1.6,1.5-3.4,1.6-5.2c0-1.2-0.3-2.4-0.7-3.6l0.3-0.1c0.9,1.5,1.4,3.2,1.5,5c-0.1,1.7-0.4,2.4-1.5,4.5c-0.4,1-0.7,1.9-1,2.9
	c-0.2,1.2-0.2,2.5,0,3.7l0.1,0.3l-0.3-0.2c-1.1-1-2-2.1-2.8-3.4c-0.3,1-0.8,2-1.5,2.8c-0.6,0.6-0.9,1-1.2,1.4s-0.6,0.7-1,1.2
	s-1.4,1.3-2.4,2.3l-0.4,0.4l0.2-0.6c0-0.1,0-0.1,0.1-0.2s0.1-0.3,0.1-0.4c0.3-1.7,0.3-3.5,0-5.2l-0.2-0.7c-0.1-0.2-0.1-0.5-0.2-0.8
	c-0.3,0.5-0.5,1-0.7,1.6c-0.1,0.2-0.1,0.3-0.2,0.5c-0.1,0.3-0.3,0.5-0.5,0.8l0,0l0,0l-0.1,0.1l-0.1,0.1l0,0l0,0l-0.1,0.1
	c-0.2,0.2-0.4,0.3-0.6,0.4c-1.5,1-3.2,1.6-4.9,1.9h-0.3l0.1-0.3c0.6-1.3,0.9-2.6,1-4c0-1.9,0.4-3.9,1.3-5.6h-0.1
	c-1,0.2-2.4,0.5-3.7,1c-3.6,1.1-5.6,2.6-6.4,4.5c-0.4,1.1-0.8,2.2-1.1,3.4c-0.2,1.2-0.7,2.3-1.4,3.2c1.4-0.4,2.5-1.5,3.1-2.8
	c1.1-2.2,2.5-4.7,5.5-5.7c0.6-0.2,1.2-0.3,1.8-0.4l0.1,0.3c-0.8,0.4-1.5,0.9-2.2,1.4c-1.3,1-2.4,2.2-3.1,3.7c-0.6,1.1-1,2.3-1.3,3.6
	c-0.2,0.7-0.3,1.6-0.5,2.5c-0.3,1.9-0.7,3.9-1.3,4.7c-0.5,0.7-1.2,1.2-2,1.5h-0.1l0.1,0.1c1,0.4,2.2,0.2,3.1-0.5
	c1.2-0.8,2-2,2.2-3.5c0-0.2,0.1-0.4,0.1-0.5c0.3-1,2.4-4.9,4.3-6.3l0.2,0.2c-1.7,2.5-2.1,4.9-2.5,7.4c-0.1,0.9-0.3,1.8-0.5,2.8
	c-0.6,2.9-1.7,4.1-2.3,4.6c0.5,0.1,1,0,1.4-0.1c3.8-0.7,5.8-4.8,7.1-7.4c0,0,0-0.1,0-0.1c0.9-2.2,1.4-4.4,1.6-6.8c0-0.1,0-0.2,0-0.3
	l0.3-0.1c0.5,2.1,0.5,4.2-0.2,6.2v0.1c0,0,0,0.1,0,0.1c0,0.4,0,0.8,0.1,1.1s0.1,0.8,0.1,1.3c0,0.8,0,1.7-0.1,2.5
	c-0.2,1.2-0.5,2.4-1,3.6c-0.4,0.7-0.9,1.4-1.4,1.9c-0.2,0.2-0.4,0.3-0.7,0.5c0.3,0,0.5-0.1,0.8-0.1c2.4-0.5,4.2-2.1,5.8-5.4
	c0.5-0.7,0.8-1.5,1.1-2.3c0.6-2,0.9-4,1-6.1c0-0.8,0-1.7,0-2.5c0-0.1,0-0.3-0.1-0.4l0.3-0.1c0.9,2.3,1.1,4.8,0.6,7.2
	c0.7,6.4,3.4,8.9,4.4,9.7c-0.3-1-0.4-2-0.4-3c0-1.7,0.1-3.4,0.5-5.1c0.1-0.8,0.3-1.7,0.3-2.5c0.2-6.4-2.6-10-2.6-10l0.2-0.2
	c0.1,0.1,0.2,0.2,0.3,0.3l0,0c1.9,1.7,3.1,4.1,3.4,6.7c0.1,0.5,0.2,1.1,0.2,1.7c0.3,3,3.4,4.2,4.4,4.5c-0.3-1-0.5-2.1-0.5-3.2
	c0-1,0-2,0-3.1c0-0.8,0-1.7,0-2.6c-0.1-1.3-0.4-2.6-1-3.7c-0.7-1.6-1.8-3-3.2-4l0.1-0.3c1.8,0.6,3.4,1.8,4.4,3.4l0.1,0.2l0,0l0,0
	c0.6,1.2,1.4,2.1,2.5,2.8c0.9,0.6,2.1,0.8,3.2,0.6c-1.3-1-1.6-2.4-2.1-5l-0.1-0.4c-0.2-1.3-0.9-2.4-1.9-3.2l-0.4-0.4
	c-1.2-0.8-2-2.1-2.4-3.4c-0.3-1.1-0.4-2.2-0.2-3.3h0.3c0.1,1.7,0.7,3.3,1.9,4.5c0.8,0.4,1.7,0.6,2.5,0.5c0.5,0,1-0.1,1.5-0.2
	c-2.9-2.9-3.3-7-3.6-10l-0.1-0.9c-0.1-0.7-0.3-1.3-0.6-1.9l0,0l0,0c-0.1-0.2-0.2-0.3-0.2-0.5l-0.1-0.2l0.2-0.1
	c1.4-0.7,2.4-1.9,2.7-3.4c-0.6,0.5-1.3,0.7-2.1,0.8c-0.2,0-0.4,0-0.6,0h-0.1c-0.2,0-0.4-0.1-0.5-0.2l-0.1-0.1l0.1-0.1
	c0.4-0.8,0.5-1.8,0.5-2.7c0-0.2,0-0.3,0-0.5c-0.5,0.7-1.3,1.1-2.1,1.1c-0.8,0-1.7-0.1-2.5-0.3l-0.9-0.2c-1.9-0.4-3.8-0.6-5.8-0.6
	c-1.1,0.2-2.2,0.4-3.2,0.8c-1.1,0.4-2.2,0.7-3.4,0.9c-0.2,0-0.5,0-0.7-0.1c-0.3-0.1-0.6-0.2-0.9-0.3c-0.7-0.4-1.5-0.5-2.2-0.5
	c-0.3,0-0.7,0.1-1,0.2c-1.2,0.3-1.4,1-1.5,2.2c1.5,0.6,3.2,0.1,4.2-1.2l0.3-0.4V40c0,1.1-0.7,2.1-1.8,2.5h-0.1l-0.2,0.1l0,0
	c-0.9,0.2-1.8,0.2-2.6-0.1c-0.1,0.4-0.1,0.7-0.2,1c0,0.2-0.1,0.3-0.1,0.5c0,0.4,0.2,0.8,0.6,1.1C150.1,45.7,151.3,46.1,152.6,46z
	 M168.3,45.4c1-1.7,1.9-2.6,2.8-2.8l0.1,0.3c-0.9,0.8-1.5,1.8-1.9,2.9c-0.9,2.2-2,3.2-3.8,3.5s-4.2,0-5.3-1.2l0.2-0.3
	c1.4,0.5,2.8,0.6,4.3,0.4C166.7,47.9,167.4,47.1,168.3,45.4z M159.2,42.4L159.2,42.4c0.5-0.3,0.9-0.7,1.1-1.2c0.8-1.2,1-1.5,1.6-1.4
	s0.8,0.4,1.4,0.9c0.6,0.6,1.3,1.1,2.2,1.2c0.8,0,1.3-0.5,1.1-1.1c0.3,0.2,0.5,0.6,0.6,0.9c0,0.6-0.3,0.8-0.9,1
	c-0.6,0-1.2-0.1-1.7-0.4c0,0,0,0.1,0,0.1c-0.2,0.5-0.6,1-1.1,1.3c-0.6,0.4-1.4,0.5-2.1,0.3c-0.6-0.2-1.1-0.5-1.5-1.1l0,0v-0.1
	l-0.1-0.1V43v-0.1l0,0l0,0v0v-0.1l0,0l0,0c0,0,0-0.1,0-0.1h-0.4l0,0L159.2,42.4z"/>
<polygon class="st1" points="160.7,56.2 160.7,56.2 160.7,56.2 "/>
<path class="st3" d="M160.4,47.9l-0.2,0.3c1.1,1.2,3.5,1.6,5.3,1.2s2.8-1.4,3.8-3.5c0.4-1.1,1-2.1,1.9-2.9l-0.1-0.3
	c-0.9,0.1-1.8,1.1-2.8,2.8s-1.6,2.4-3.6,2.8C163.2,48.5,161.7,48.4,160.4,47.9z"/>
<path class="st1" d="M80.6,68c1-0.7,1.9-1.6,2.5-2.7l0,0l0,0l0.1-0.2c1-1.6,2.5-2.8,4.2-3.5l0.1,0.3c-1.4,1-2.5,2.4-3.2,4
	c-0.6,1.2-0.9,2.4-0.9,3.7c0,0.8,0,1.7,0,2.6c0,1.1,0,2.1,0,3.1c0,1-0.1,2.1-0.4,3c1-0.3,4.1-1.5,4.4-4.5c0.1-0.6,0.1-1.2,0.2-1.7
	c0.3-2.6,1.5-5,3.4-6.7l0,0l0.3-0.3l0.2,0.2c0,0-2.8,3.6-2.6,10c0.1,0.8,0.2,1.6,0.3,2.5c0.3,1.7,0.5,3.4,0.4,5.1c0,1-0.2,2-0.4,3
	c1-0.7,3.7-3.3,4.4-9.6c-0.5-2.4-0.3-4.9,0.6-7.2l0.3,0.1c0,0.2,0,0.3-0.1,0.4c0,0.9,0,1.7,0,2.6c0.1,2.1,0.4,4.1,1,6.1
	c0.3,0.8,0.7,1.6,1.2,2.3c1.7,3.2,3.5,4.9,5.8,5.4c0.3,0.1,0.5,0.1,0.8,0.1c-0.2-0.1-0.5-0.3-0.7-0.5c-0.2-0.2-0.5-0.5-0.7-0.7
	c-0.3-0.4-0.6-0.8-0.8-1.2c-0.5-1.1-0.8-2.3-1-3.5c-0.1-0.8-0.1-1.7-0.1-2.5c0-0.4,0-0.9,0.1-1.3s0.1-0.8,0.1-1.2c0,0,0-0.1,0-0.1
	v-0.1c-0.7-2-0.8-4.2-0.2-6.2l0.3,0.1c0,0.1,0,0.2,0,0.3c0.2,2.3,0.7,4.6,1.6,6.8l0.1,0.1c1.3,2.7,3.3,6.7,7.2,7.4
	c0.5,0.1,0.9,0.2,1.4,0.1c-0.6-0.4-1.7-1.7-2.3-4.6c-0.2-1-0.3-1.9-0.5-2.8c-0.4-2.5-0.7-4.9-2.5-7.4l0.2-0.2c1.9,1.4,4,5.3,4.3,6.3
	c0,0.2,0.1,0.3,0.1,0.5c0.2,1.4,1.1,2.7,2.3,3.5c0.9,0.6,2,0.8,3,0.5l0.1-0.1h-0.1c-0.8-0.3-1.5-0.8-2-1.5c-0.6-0.8-0.9-2.8-1.2-4.7
	c-0.2-0.9-0.3-1.8-0.5-2.5c-0.3-1.3-0.7-2.5-1.3-3.6c-0.7-1.5-1.8-2.7-3.1-3.7c-0.7-0.5-1.4-1-2.2-1.4l0.1-0.3
	c0.6,0.1,1.2,0.2,1.8,0.4c3,1,4.4,3.5,5.5,5.7c0.6,1.4,1.7,2.4,3.1,2.8c-0.7-0.9-1.2-2.1-1.4-3.2c-0.3-1.1-0.6-2.2-1-3.3
	c-0.7-1.9-2.8-3.4-6.4-4.5c-1.3-0.4-2.7-0.8-3.7-1h-0.1c0.9,1.7,1.3,3.7,1.3,5.6c0.1,1.4,0.4,2.7,1,4l0.1,0.3H105
	c-1.8-0.2-3.4-0.9-4.9-1.9c-0.2-0.1-0.4-0.3-0.6-0.4c0,0-0.1-0.1-0.1-0.1l0,0l0,0l-0.1-0.1L99,65.7l0,0l0,0
	c-0.2-0.2-0.4-0.5-0.6-0.8c-0.1-0.2-0.2-0.3-0.2-0.5c-0.2-0.5-0.5-1-0.7-1.5c-0.1,0.3-0.1,0.5-0.2,0.8l-0.2,0.7
	c-0.3,1.7-0.3,3.5,0,5.2c0,0.2,0.1,0.3,0.1,0.5l0.1,0.2c0,0,0.2,0.6,0.2,0.6L97,70.4c-1-0.9-2-1.8-2.4-2.3s-0.7-0.8-1-1.2
	s-0.6-0.8-1.2-1.4c-0.7-0.8-1.2-1.8-1.5-2.8c-0.8,1.2-1.7,2.4-2.8,3.4l-0.3,0.2l0.1-0.3c0.3-1.2,0.3-2.5,0-3.7c-0.3-1-0.6-2-1-2.9
	c-1.1-2.2-1.3-2.8-1.5-4.6c0-1.7,0.6-3.4,1.5-4.9l0.3,0.1c-0.4,1.1-0.7,2.4-0.7,3.6c0.1,1.8,0.7,3.6,1.6,5.2
	c0.3,0.6,0.6,1.2,0.8,1.8v0.1l0,0c0.2,0.5,0.3,1.1,0.4,1.6v0.3l0,0c0.5-0.7,1-1.5,1.3-2.3c0.1-0.2,0.2-0.5,0.2-0.7
	c0.2-0.7,0.2-1.5,0-2.2c-0.1-0.6-0.2-1.1-0.2-1.7c0-0.7,0.2-1.4,0.5-2c0.3-0.4,0.6-0.8,1-1.2l0.3,0.2c-0.6,1.4-0.7,2.9-0.3,4.3
	c0.3,1,0.4,2.2,0.1,3.2c-0.1,0.2-0.2,0.5-0.2,0.7c0,0.1,0,0.2,0,0.3c0,0.1,0,0.3,0.1,0.4c0.1,0.3,0.2,0.7,0.3,1
	c0.2,0.4,0.5,0.8,0.8,1.2c0.3,0.3,0.6,0.7,0.9,1c0,0,0.6,0.7,0.6,0.7l0.1,0.1l0,0l0,0l0.1,0.1l0.3,0.3l0.7,0.7
	c0-0.3-0.1-0.6-0.1-0.8c0-1.2,0.2-2.3,0.5-3.5c0.2-0.7,0.4-1.4,0.4-2.2c0.1-0.6,0.1-1.2,0-1.8c-0.2-0.9-0.6-1.8-1.2-2.5l0,0l0,0
	c-0.3-0.1-0.7-0.3-0.9-0.5c-0.1-0.1-0.3-0.2-0.4-0.4l0,0l0,0c-0.6-0.7-0.8-1.6-0.7-2.5c0-0.7,0.3-1.5,0.6-2.1
	c0.1-0.2,0.1-0.3,0.1-0.3l0.3,0.1c-0.4,1.1-0.4,2.2,0.1,3.3c0.3,0.5,0.8,0.9,1.4,1l0.3,0.1c0.8,0.1,1.6,0.1,2.3-0.1l0.4-0.1
	c0.8-0.2,1.7-0.3,2.6-0.3c0.1,0,0.2,0,0.3,0c0.4,0,0.7,0,1.1,0c0.7,0.1,1.4,0.2,2,0.4c0.4,0.1,0.9,0.2,1.3,0.3
	c0.7,0,1.3-0.3,1.6-0.9c0.2-0.3,0.3-0.6,0.3-1c0-0.9-0.9-1.5-2.4-1.5c-0.6,0-1.2,0-1.7,0.1c-0.7,0.1-1.3,0.2-2,0.2
	c-2.1-0.1-3.6-1.1-3.8-2.6c-0.1-0.7-0.1-1.3-0.1-2c0-0.8,0.2-3.5,1.3-3.7h0.2c0.6,0,0.9,0.5,1.3,1c0.3,0.5,0.8,0.9,1.3,1.2
	c0.4,0.1,0.7,0.2,1.1,0.2c1.3,0.1,2.6-0.2,3.7-1c0.3-0.3,0.5-0.7,0.5-1.1c0-0.2,0-0.3,0-0.5c-0.1-0.3-0.1-0.7-0.2-1
	c-0.8,0.3-1.8,0.4-2.6,0.1l0,0l-0.2-0.1h-0.1c-1.1-0.3-1.9-1.4-1.8-2.6v-0.5l0.3,0.4c1,1.3,2.7,1.8,4.2,1.2c-0.1-1.3-0.2-2-1.5-2.2
	c-0.3-0.1-0.7-0.1-1-0.2c-0.8,0-1.5,0.2-2.2,0.5c-0.3,0.1-0.6,0.2-0.9,0.3c-0.2,0.1-0.5,0.1-0.7,0.1c-1.2-0.2-2.3-0.5-3.4-0.9
	c-1-0.4-2.1-0.7-3.2-0.8c-1.9,0-3.9,0.2-5.8,0.6l-0.9,0.2c-0.8,0.2-1.7,0.3-2.5,0.3c-0.8,0-1.6-0.4-2-1.1c0,0.2,0,0.3,0,0.5
	c-0.1,0.9,0.1,1.8,0.4,2.6l0.1,0.1l-0.1,0.1c-0.2,0.1-0.3,0.1-0.5,0.2l0,0c-0.2,0-0.4,0-0.6,0c-0.8-0.1-1.5-0.3-2.1-0.8
	c0.3,1.5,1.3,2.8,2.7,3.4l0.2,0.1L83,44.2c-0.1,0.1-0.2,0.3-0.2,0.5l0,0l0,0c-0.3,0.6-0.5,1.3-0.6,1.9l-0.1,0.9c-0.3,3-0.8,7-3.6,10
	c0.5,0.1,1,0.2,1.4,0.2c0.9,0.1,1.8-0.1,2.5-0.5c1.2-1.2,1.9-2.8,2-4.5h0.3c0.1,1.1,0,2.2-0.2,3.3c-0.4,1.4-1.3,2.6-2.5,3.5
	l-0.4,0.4c-1,0.8-1.7,1.9-1.9,3.2l-0.1,0.4c-0.5,2.6-0.8,4-2.1,5C78.5,68.7,79.7,68.6,80.6,68z M89.4,40.9c-0.2,0.5,0.3,1.1,1.1,1.1
	c0.8-0.1,1.6-0.5,2.2-1.2c0.6-0.5,0.7-0.8,1.4-0.9s0.8,0.2,1.6,1.4c0.3,0.5,0.7,0.9,1.2,1.2l0,0h0.1l0,0h-0.4v0.1l0,0l0,0v0.1
	c0,0,0,0,0,0l0,0l0,0c0,0,0,0.1,0,0.1v0.1l-0.1,0.1L96.4,43l0,0c-0.3,0.5-0.9,0.9-1.5,1.1c-0.7,0.2-1.5,0.1-2.1-0.3
	c-0.5-0.3-0.9-0.8-1.1-1.3c0,0,0-0.1,0-0.1c-0.5,0.2-1.1,0.4-1.7,0.4c-0.7-0.1-1-0.4-0.9-1C89.1,41.3,89.2,41.1,89.4,40.9L89.4,40.9
	z M84.9,43l0.1-0.3c0.9,0.1,1.8,1.1,2.8,2.8s1.6,2.4,3.6,2.8c1.4,0.2,2.9,0.1,4.3-0.4l0.2,0.3c-1.1,1.2-3.5,1.6-5.3,1.2
	s-2.8-1.4-3.8-3.5C85.8,43.5,84.9,43,84.9,43L84.9,43z"/>
<path class="st1" d="M94.6,65.9L94.6,65.9z"/>
<path class="st3" d="M86.8,45.9c1,2.2,2,3.2,3.8,3.5s4.2,0,5.3-1.2l-0.2-0.3c-1.4,0.5-2.8,0.6-4.3,0.4c-2-0.4-2.7-1.2-3.6-2.8
	s-1.9-2.6-2.7-2.8L84.9,43l0,0C84.9,43,85.7,43.5,86.8,45.9z"/>
<path class="st6" d="M159.5,42.5C159.5,42.5,159.5,42.6,159.5,42.5L159.5,42.5L159.5,42.5v0.2v0l0,0v0.1v0.1l0.1,0.1V43l0,0
	c0.4,0.5,0.9,0.9,1.5,1.1c0.7,0.2,1.5,0.1,2.1-0.3c0.5-0.3,0.9-0.8,1.1-1.3c0,0,0-0.1,0-0.1c0.5,0.2,1.1,0.4,1.7,0.4
	c0.6-0.1,1-0.4,0.9-1c-0.1-0.4-0.3-0.7-0.6-0.9c0.2,0.5-0.3,1.1-1.1,1.1c-0.8-0.1-1.6-0.5-2.2-1.2c-0.6-0.5-0.7-0.8-1.4-0.9
	s-0.8,0.2-1.6,1.4c-0.3,0.5-0.7,0.9-1.1,1.2h-0.1L159.5,42.5z M161.1,41.3c0.3-0.5,0.7-0.5,1.2-0.3c-0.6,0-1,0.4-1,1
	c0,0,0,0.1,0,0.1c0,0.6,0.4,1,1,1c0.6,0,1-0.4,1-1c0,0,0-0.1,0-0.1c0-0.1,0-0.3-0.1-0.4c0.1,0.1,0.2,0.1,0.3,0.2
	c0.2,0.2,0.4,0.3,0.6,0.4c-0.4,1-1.3,1.5-2.4,1.4c-0.7-0.2-1.1-1.1-1.3-1.5C160.8,41.9,161,41.6,161.1,41.3z"/>
<path class="st6" d="M89.7,42.8c0.6,0,1.2-0.1,1.7-0.4c0,0,0,0.1,0,0.1c0.2,0.5,0.6,1,1.1,1.3c0.6,0.4,1.4,0.5,2.1,0.3
	c0.6-0.2,1.1-0.5,1.5-1.1l0,0l0.1-0.1l0.1-0.1v-0.1c0,0,0-0.1,0-0.1l0,0v0v-0.1l0,0l0,0v-0.1h0.4h-0.1c-0.5-0.3-0.9-0.7-1.2-1.2
	c-0.8-1.2-1-1.5-1.6-1.4S93,40.5,92.4,41c-0.5,0.5-1.2,0.9-1.9,1c-0.8,0-1.3-0.5-1.1-1.1c-0.3,0.2-0.5,0.6-0.6,0.9
	C88.8,42.4,89.1,42.6,89.7,42.8z M92.5,41.8l0.3-0.2c0,0.1-0.1,0.2-0.1,0.4c-0.1,0.5,0.3,1,0.9,1.1c0,0,0.1,0,0.1,0c0.6,0,1-0.4,1-1
	c0.1-0.5-0.3-1-0.9-1.1c0,0-0.1,0-0.1,0c0.5-0.3,0.9-0.2,1.2,0.3c0.2,0.3,0.4,0.6,0.6,0.9c-0.2,0.4-0.6,1.3-1.3,1.5
	c-1,0.1-2-0.5-2.4-1.4C92,42.1,92.2,42,92.5,41.8z"/>
<path class="st7" d="M62.4,196c0,0,0-0.1,0-0.1l5.8-11.7c0-0.1,0.1-0.1,0.1,0l1.9,0.9c0,0,0,0.1,0,0.1c0,0,0,0,0,0l-4.8,9.7l3.5,1.7
	c0,0,0,0.1,0,0.1c0,0,0,0,0,0l-1,1.9c0,0.1-0.1,0.1-0.1,0L62.4,196z"/>
<path class="st7" d="M70.7,200c0,0-0.1-0.1,0-0.1l5.6-11.8c0,0,0.1,0,0.1,0c0,0,0,0,0,0l5.5,2.6c0,0,0.1,0.1,0,0.1l-0.9,1.9
	c0,0-0.1,0-0.1,0c0,0,0,0,0,0l-3.5-1.7l-1.3,2.7l3.5,1.7c0,0,0,0.1,0,0.1c0,0,0,0,0,0l-0.9,1.9c0,0.1,0,0.1-0.1,0l-3.5-1.7l-1.4,3
	l3.5,1.7c0,0,0,0.1,0,0.1l-0.9,2c0,0-0.1,0.1-0.1,0L70.7,200z"/>
<path class="st7" d="M82.1,205.6c-0.6-0.3-1.1-0.7-1.5-1.2c-0.4-0.5-0.6-1.2-0.7-1.8c-0.1-0.7,0-1.4,0.3-2l2.5-5.5
	c0.3-0.6,0.7-1.1,1.2-1.5c0.5-0.4,1.2-0.6,1.8-0.7c0.6-0.1,1.3,0,1.9,0.3c1.2,0.5,2,1.7,2.2,3c0.1,0.7-0.1,1.3-0.3,1.9l-0.4,0.8
	c0,0.1,0,0.1-0.1,0l-1.9-0.9c0,0,0-0.1,0-0.1c0,0,0,0,0,0l0.3-0.6c0.2-0.4,0.2-0.8,0.1-1.3c-0.1-0.4-0.4-0.7-0.7-0.9
	c-0.3-0.2-0.7-0.2-1.1,0c-0.4,0.1-0.7,0.4-0.8,0.8l-2.5,5.5c-0.2,0.4-0.2,0.8-0.1,1.2c0.2,0.7,1,1.1,1.7,0.9c0,0,0.1,0,0.1,0
	c0.4-0.2,0.7-0.4,0.8-0.8l0.4-0.8l-1.2-0.6c0,0,0-0.1,0-0.1c0,0,0,0,0,0l0.9-1.9c0,0,0.1,0,0.1,0c0,0,0,0,0,0l3.2,1.5
	c0.1,0,0.1,0,0,0.1l-1.3,2.9c-0.3,0.6-0.7,1.2-1.2,1.6c-0.5,0.4-1.1,0.6-1.8,0.7C83.4,206,82.7,205.9,82.1,205.6z"/>
<path class="st7" d="M88.4,208.2c-0.1,0-0.1-0.1-0.1-0.1l5.2-12c0,0,0.1,0,0.1,0c0,0,0,0,0,0l2,0.8c0,0,0.1,0.1,0,0.1l-5.2,12
	c0,0.1-0.1,0.1-0.1,0.1L88.4,208.2z"/>
<path class="st7" d="M95.4,211.1c-0.1,0-0.1-0.1,0-0.1l4.1-10l-2.3-1c-0.1,0-0.1-0.1,0-0.1l0.8-2c0,0,0.1,0,0.1,0c0,0,0,0,0,0
	l6.7,2.7c0.1,0,0.1,0.1,0.1,0.1l-0.8,2c0,0.1-0.1,0.1-0.1,0.1l-2.3-0.9l-4.1,10c0,0.1-0.1,0.1-0.1,0.1L95.4,211.1z"/>
<path class="st7" d="M102.7,214c-0.1,0-0.1-0.1,0-0.1l4.4-12.3c0,0,0-0.1,0.1-0.1c0,0,0,0,0,0l5.8,2c0.1,0,0.1,0.1,0,0.1l-0.7,2
	c0,0,0,0.1-0.1,0l-3.7-1.3l-1,2.8l3.7,1.3c0,0,0.1,0,0.1,0.1c0,0,0,0,0,0l-0.7,2c0,0-0.1,0-0.1,0c0,0,0,0,0,0l-3.7-1.3l-1.1,3.1
	l3.7,1.3c0.1,0,0.1,0,0,0.1l-0.7,2c0,0-0.1,0-0.1,0c0,0,0,0,0,0L102.7,214z"/>
<path class="st7" d="M118.2,218.9c-0.1,0-0.1,0-0.1-0.1l1.1-13c0,0,0-0.1,0.1-0.1c0,0,0,0,0,0l6.1,0.5c0,0,0.1,0,0.1,0.1l-0.2,2.1
	c0,0,0,0.1-0.1,0.1c0,0,0,0,0,0l-3.9-0.3l-0.2,2.9l3.9,0.3c0,0,0.1,0,0.1,0.1l-0.2,2.1c0,0.1,0,0.1-0.1,0.1l-3.9-0.3l-0.3,3.3
	l3.9,0.3c0,0,0.1,0,0.1,0.1l-0.2,2.1c0,0.1,0,0.1-0.1,0.1L118.2,218.9z"/>
<path class="st7" d="M131.5,218.8C131.5,218.8,131.5,218.8,131.5,218.8L130,208l-2.4,0.3c0,0-0.1,0-0.1-0.1c0,0,0,0,0,0l-0.3-2.1
	c0,0,0-0.1,0-0.1c0,0,0,0,0,0l7.2-1c0.1,0,0.1,0,0.1,0.1l0.3,2.1c0,0.1,0,0.1-0.1,0.1l-2.5,0.3l1.5,10.7c0,0.1,0,0.1-0.1,0.1
	L131.5,218.8z"/>
<path class="st7" d="M145,215.7c0,0-0.1,0-0.1,0c0,0,0,0,0,0l-4.6-12.2c0,0,0-0.1,0-0.1c0,0,0,0,0,0l3.4-1.3c0.6-0.3,1.3-0.3,2-0.2
	c0.7,0.1,1.3,0.4,1.8,0.8c0.5,0.4,0.9,1,1.1,1.6l1.9,5.1c0.2,0.7,0.3,1.4,0.2,2.1c-0.1,0.7-0.4,1.3-0.8,1.8c-0.4,0.6-1,1-1.7,1.2
	L145,215.7z M146.3,212.7l1.1-0.4c0.9-0.3,1.3-1.3,1-2.2c0,0,0,0,0,0l-1.9-5.1c-0.1-0.4-0.4-0.7-0.8-0.8c-0.4-0.2-0.8-0.2-1.1,0
	l-1.2,0.5L146.3,212.7z"/>
<path class="st7" d="M155.3,211.6c0,0-0.1,0-0.1,0c0,0,0,0,0,0l-5.1-12c0,0,0-0.1,0-0.1c0,0,0,0,0,0l2-0.8c0,0,0.1,0,0.1,0l5.2,12
	c0,0.1,0,0.1,0,0.1L155.3,211.6z"/>
<path class="st7" d="M163.5,208.2c-0.6,0.3-1.3,0.4-1.9,0.3c-0.7-0.1-1.3-0.3-1.8-0.7c-0.5-0.4-1-0.9-1.2-1.5l-0.4-0.8
	c0,0,0-0.1,0-0.1c0,0,0,0,0,0l1.9-0.9c0,0,0.1,0,0.1,0l0.4,0.8c0.2,0.4,0.5,0.6,0.8,0.8c0.4,0.2,0.7,0.2,1.1,0
	c0.4-0.2,0.6-0.5,0.7-0.8c0.1-0.4,0.1-0.8-0.1-1.1c-0.3-0.5-0.8-0.7-1.3-0.7l-1.1-0.1l-1.4-0.1c-0.7-0.1-1.4-0.3-2-0.8
	c-0.6-0.4-1-1-1.3-1.7c-0.3-0.6-0.4-1.3-0.3-1.9c0.1-0.6,0.3-1.3,0.7-1.8c0.8-1.1,2-1.7,3.4-1.5c0.6,0.1,1.3,0.3,1.8,0.7
	c0.5,0.4,1,0.9,1.2,1.5l0.6,1.4c0,0,0,0.1,0,0.1c0,0,0,0,0,0l-1.9,0.9c0,0-0.1,0-0.1,0c0,0,0,0,0,0l-0.7-1.4
	c-0.2-0.4-0.5-0.7-0.8-0.8c-0.7-0.3-1.5,0.1-1.8,0.8c0,0,0,0,0,0.1c-0.1,0.4-0.1,0.8,0,1.1c0.1,0.3,0.4,0.6,0.7,0.8
	c0.4,0.2,0.8,0.3,1.2,0.3h0.4l0.7,0.1h0.7h0.4c0.7,0,1.3,0.2,1.9,0.6c0.6,0.3,1,0.9,1.3,1.5c0.3,0.6,0.4,1.3,0.4,2
	c0,0.7-0.3,1.3-0.7,1.9C164.6,207.6,164.1,208,163.5,208.2z"/>
<path class="st7" d="M172.8,203.9c-0.6,0.3-1.3,0.4-1.9,0.3c-0.7-0.1-1.3-0.3-1.8-0.7c-0.6-0.4-1-0.9-1.3-1.6l-2.5-5.4
	c-0.6-1.2-0.5-2.6,0.2-3.8c0.4-0.6,0.9-1,1.5-1.3c0.6-0.3,1.3-0.4,1.9-0.4c1.3,0.1,2.5,1,3.1,2.2l0.4,0.8c0,0,0,0.1,0,0.1l-1.9,0.9
	c-0.1,0-0.1,0-0.1,0l-0.4-0.8c-0.2-0.4-0.5-0.7-0.8-0.8c-0.4-0.2-0.8-0.2-1.1,0c-0.4,0.1-0.7,0.5-0.7,0.9c-0.1,0.4,0,0.8,0.1,1.1
	l2.5,5.4c0.2,0.4,0.5,0.7,0.9,0.9c0.3,0.2,0.7,0.2,1.1,0c0.4-0.2,0.6-0.5,0.7-0.9c0.1-0.4,0.1-0.8-0.1-1.2L172,199
	c0-0.1,0-0.1,0-0.1l2-0.9c0,0,0.1,0,0.1,0c0,0,0,0,0,0l0.4,0.8c0.3,0.6,0.4,1.3,0.4,2c0,0.7-0.3,1.3-0.6,1.8
	C173.9,203.2,173.4,203.7,172.8,203.9z"/>
<path class="st7" d="M178.9,200.8c0,0-0.1,0-0.1,0c0,0,0,0,0,0l-5.7-11.8c0,0,0-0.1,0-0.1l1.9-0.9c0,0,0.1,0,0.1,0c0,0,0,0,0,0
	l5.7,11.7c0,0.1,0,0.1,0,0.1L178.9,200.8z"/>
<path class="st7" d="M185.6,197.5c0,0-0.1,0-0.1-0.1l-4.8-9.7l-2.2,1.1c-0.1,0-0.1,0-0.1,0l-0.9-1.9c0,0,0-0.1,0-0.1c0,0,0,0,0,0
	l6.5-3.2c0.1,0,0.1,0,0.1,0l0.9,1.9c0,0.1,0,0.1,0,0.1l-2.2,1.1l4.8,9.7c0,0.1,0,0.1,0,0.1L185.6,197.5z"/>
<path class="st7" d="M192.3,194.2c0,0-0.1,0-0.1,0c0,0,0,0,0,0l-5.8-11.7c0,0,0-0.1,0-0.1c0,0,0,0,0,0l5.5-2.7c0.1,0,0.1,0,0.1,0
	l0.9,1.9c0,0,0,0.1,0,0.1c0,0,0,0,0,0l-3.5,1.7l1.3,2.6l3.5-1.7c0,0,0.1,0,0.1,0c0,0,0,0,0,0l1,1.9c0,0.1,0,0.1,0,0.1l-3.5,1.8
	l1.5,3l3.5-1.7c0,0,0.1,0,0.1,0l1,1.9c0,0.1,0,0.1,0,0.1L192.3,194.2z"/>
<path class="st0" d="M40.3,277.6c0,0.1-0.1,0.1-0.3,0.2s-0.4,0-0.4-0.1c-0.5-2.1-1.6-3.9-3.3-5.2c-1.8-1.2-3.9-1.8-6.1-1.7h-1.8
	c-1-0.1-1.9,0.2-2.7,0.8c-0.6,0.7-0.9,1.6-0.9,2.5v13.1h4.4c1.9,0.1,3.8-0.3,5.4-1.2c1.2-0.7,1.9-2,1.9-3.4c0-0.1,0.1-0.1,0.4-0.1
	c0.2,0,0.4,0,0.4,0.1l-0.1,5.5c0,1.3,0,2.3,0.1,2.9l0.1,3.2c0,0.1-0.1,0.2-0.4,0.2s-0.4-0.1-0.4-0.2c0-1.5-0.7-3-1.9-3.9
	c-1.6-1-3.5-1.5-5.5-1.4h-4.3v13c-0.1,1,0.1,1.9,0.5,2.8c0.4,0.7,1.1,1.1,1.8,1.3c1.4,0.3,2.8,0.4,4.2,0.4c0.1,0,0.1,0.1,0.1,0.4
	c0,0.2,0,0.4-0.1,0.4c-1.7,0-3,0-3.9-0.1l-6.2-0.1l-4.6,0.1c-0.8,0-1.9,0.1-3.4,0.1c-0.1,0-0.2-0.1-0.2-0.4s0.1-0.4,0.2-0.4
	c1,0,2.1-0.1,3.1-0.3c0.6-0.2,1.1-0.6,1.3-1.2c0.3-0.9,0.4-1.8,0.3-2.7v-28.2c0-0.9-0.1-1.8-0.3-2.7c-0.2-0.6-0.6-1-1.2-1.2
	c-0.9-0.3-1.9-0.4-2.8-0.3c-0.1,0-0.2-0.1-0.2-0.4s0.1-0.4,0.2-0.4h25.8c0.4,0,0.6,0.2,0.6,0.5L40.3,277.6z"/>
<path class="st0" d="M57.1,304.8c0.2,0.6,0.6,1,1.2,1.2c0.9,0.2,1.9,0.3,2.8,0.3c0.1,0,0.2,0.1,0.2,0.4c0,0.2-0.1,0.4-0.2,0.4
	c-1.3,0-2.4,0-3.2-0.1l-4.6-0.1l-4.5,0.1c-0.8,0-1.9,0.1-3.3,0.1c-0.1,0-0.1-0.1-0.1-0.4s0-0.4,0.1-0.4c1,0,1.9-0.1,2.9-0.3
	c0.6-0.2,1-0.6,1.2-1.2c0.3-0.9,0.4-1.8,0.3-2.7v-28.2c0-0.9-0.1-1.8-0.3-2.7c-0.2-0.6-0.7-1-1.2-1.2c-0.9-0.3-1.9-0.4-2.9-0.3
	c-0.1,0-0.1-0.1-0.1-0.4s0-0.4,0.1-0.4l3.3,0.1c1.9,0.1,3.4,0.1,4.5,0.1s2.8,0,4.7-0.1l3.1-0.1c0.1,0,0.2,0.1,0.2,0.4
	s-0.1,0.4-0.2,0.4c-0.9,0-1.9,0.1-2.8,0.4c-0.6,0.2-1,0.7-1.2,1.2c-0.2,0.9-0.3,1.8-0.3,2.7v28.1C56.8,303,56.9,303.9,57.1,304.8z"
	/>
<path class="st0" d="M107,306.6c0,0.2,0,0.4-0.1,0.4H96.1c-0.9,0-2.6-1.6-5-4.8c-3.2-4.4-6.1-8.9-8.8-13.5c-0.5,0-0.9,0.1-1.4,0.1
	c-1.6,0-2.7,0-3.3-0.1v13.5c0,0.9,0.1,1.8,0.3,2.7c0.2,0.6,0.6,1,1.2,1.2c0.9,0.2,1.9,0.3,2.8,0.3c0.1,0,0.1,0.1,0.1,0.4
	c0,0.2,0,0.4-0.1,0.4c-1.3,0-2.4,0-3.2-0.1l-4.7-0.1l-4.4,0.1c-0.8,0-1.9,0.1-3.3,0.1c-0.1,0-0.2-0.1-0.2-0.4s0.1-0.4,0.2-0.4
	c1,0,1.9-0.1,2.8-0.3c0.6-0.2,1-0.6,1.2-1.2c0.3-0.9,0.4-1.8,0.3-2.7v-28.2c0-0.9-0.1-1.8-0.3-2.7c-0.2-0.6-0.7-1-1.2-1.2
	c-0.9-0.3-1.9-0.4-2.8-0.3c-0.1,0-0.1-0.1-0.1-0.4c0-0.2,0-0.4,0.1-0.4l3.2,0.1c1.9,0.1,3.3,0.1,4.4,0.1c1.4,0,2.8-0.1,4.3-0.2
	l2-0.1c0.8,0,1.7-0.1,2.6-0.1c3.7,0,6.6,0.7,8.6,2c1.9,1.2,3.1,3.4,3,5.7c0,2.2-0.6,4.3-1.8,6c-1.2,1.8-2.9,3.3-4.9,4.4
	c3.3,4.9,6,8.7,8.2,11.4c1.7,2.2,3.6,4.3,5.8,6c1.4,1.2,3.2,1.8,5,1.9C106.9,306.3,107,306.4,107,306.6z M81,287.2
	c2.3,0,4-0.7,5.1-2s1.6-3.5,1.6-6.4c0-3.3-0.5-5.6-1.5-6.9c-1-1.3-2.6-2-4.2-1.9c-1.2-0.1-2.5,0.2-3.5,0.9c-0.7,0.8-1.1,1.9-1,3
	v12.9C78.7,287.1,79.8,287.2,81,287.2z"/>
<path class="st0" d="M136.7,297.2c0.1,0,0.2,0,0.3,0.1c0.1,0.1,0.1,0.1,0.1,0.1c-0.4,2.9-0.6,5.8-0.6,8.6c0,0.2,0,0.5-0.2,0.7
	c-0.2,0.2-0.5,0.2-0.7,0.2h-26.9c-0.1,0-0.2-0.1-0.2-0.4s0.1-0.4,0.2-0.4c1,0,1.9-0.1,2.8-0.3c0.6-0.2,1-0.6,1.2-1.2
	c0.2-0.9,0.3-1.8,0.3-2.7v-28.2c0-0.9-0.1-1.8-0.3-2.7c-0.2-0.6-0.7-1-1.2-1.2c-0.9-0.3-1.9-0.4-2.8-0.3c-0.1,0-0.2-0.1-0.2-0.4
	c0-0.2,0.1-0.4,0.2-0.4h25.8c0.4,0,0.6,0.2,0.6,0.5l0.1,8.1c0,0.1-0.1,0.1-0.3,0.2s-0.4,0-0.4-0.1c-0.5-2.1-1.6-3.9-3.3-5.2
	c-1.8-1.2-3.9-1.8-6.1-1.7h-1.8c-1-0.1-1.9,0.2-2.7,0.8c-0.6,0.7-0.9,1.5-0.8,2.4v12.4h5c1.9,0.1,3.8-0.3,5.4-1.2
	c1.2-0.7,1.9-2,1.9-3.4c0-0.1,0.1-0.2,0.3-0.2c0.2,0,0.3,0.1,0.3,0.2l-0.1,5.5l0.1,2.9c0.1,1.4,0.1,2.5,0.1,3.3
	c0,0.1-0.1,0.1-0.4,0.1c-0.2,0-0.4,0-0.4-0.1c0.1-1.5-0.7-3-1.9-3.9c-1.6-1.1-3.6-1.6-5.5-1.4h-5v13.8c-0.1,0.9,0.2,1.8,0.7,2.6
	c0.5,0.6,1.3,0.9,2.1,0.9h2c2.7,0.1,5.3-0.5,7.6-2c2-1.5,3.5-3.6,4.2-6C136.5,297.3,136.6,297.2,136.7,297.2z"/>
<path class="st0" d="M168.9,277.6c0,0.1-0.1,0.1-0.3,0.2s-0.4,0-0.4-0.1c-0.5-2.1-1.6-3.9-3.3-5.2c-1.8-1.2-3.9-1.8-6.1-1.7H157
	c-1-0.1-1.9,0.2-2.7,0.8c-0.6,0.7-0.9,1.5-0.9,2.4v13.1h4.4c1.9,0.1,3.8-0.3,5.4-1.2c1.2-0.7,1.9-2,1.9-3.4c0-0.1,0.1-0.1,0.4-0.1
	s0.4,0,0.4,0.1l-0.1,5.5c0,1.3,0,2.3,0.1,2.9l0.1,3.2c0,0.1-0.1,0.2-0.4,0.2s-0.4-0.1-0.4-0.2c0-1.5-0.7-3-1.9-3.9
	c-1.6-1-3.5-1.5-5.4-1.4h-4.3v13c-0.1,1,0.1,1.9,0.5,2.8c0.4,0.7,1.1,1.1,1.8,1.3c1.4,0.3,2.8,0.4,4.2,0.4c0.1,0,0.1,0.1,0.1,0.4
	c0,0.2,0,0.4-0.1,0.4c-1.7,0-3,0-3.9-0.1l-6.2-0.1l-4.6,0.1c-0.8,0-1.9,0.1-3.3,0.1c-0.1,0-0.2-0.1-0.2-0.4s0.1-0.4,0.2-0.4
	c1,0,2.1-0.1,3.1-0.3c0.6-0.2,1.1-0.6,1.3-1.2c0.3-0.9,0.4-1.8,0.3-2.7v-28.2c0-0.9-0.1-1.8-0.3-2.7c-0.2-0.6-0.7-1-1.2-1.2
	c-0.9-0.3-1.9-0.4-2.8-0.3c-0.1,0-0.2-0.1-0.2-0.4c0-0.2,0.1-0.4,0.2-0.4h25.8c0.4,0,0.6,0.2,0.6,0.5L168.9,277.6z"/>
<path class="st0" d="M184.6,301.9c0,0.8,0,1.5,0.2,2.3c0.1,0.5,0.5,0.8,0.9,0.9c0.7,0.2,1.5,0.3,2.3,0.2h2.1
	c2.9,0.1,5.8-0.8,8.2-2.5c2.3-1.7,3.9-4.1,4.6-6.9c0-0.1,0.1-0.1,0.2-0.1c0.1,0,0.2,0,0.3,0.1c0.1,0.1,0.1,0.1,0.1,0.1
	c-0.4,4-0.6,7.4-0.6,10c0,0.3-0.1,0.5-0.2,0.7c-0.2,0.2-0.4,0.2-0.7,0.2h-28.7c-0.1,0-0.1-0.1-0.1-0.4s0-0.4,0.1-0.4
	c1,0,1.9-0.1,2.8-0.3c0.6-0.2,1-0.6,1.2-1.2c0.3-0.9,0.4-1.8,0.3-2.7v-28.2c0-0.9-0.1-1.8-0.3-2.7c-0.2-0.6-0.7-1-1.2-1.2
	c-0.9-0.3-1.9-0.4-2.8-0.3c-0.1,0-0.1-0.1-0.1-0.4c0-0.2,0-0.4,0.1-0.4l3.1,0.1c1.9,0.1,3.4,0.1,4.6,0.1s2.8,0,4.6-0.1l3.1-0.1
	c0.1,0,0.2,0.1,0.2,0.4s-0.1,0.4-0.2,0.4c-0.9,0-1.9,0.1-2.8,0.3c-0.6,0.2-1,0.6-1.2,1.2c-0.2,0.9-0.3,1.8-0.3,2.7V301.9z"/>
<path class="st0" d="M241.6,269.4c0,0.2,0,0.4-0.1,0.4c-1.3,0-2.8,0.8-4.6,2.4c-1.9,1.7-3.6,3.7-4.9,5.9l-6.3,10.6v13.6
	c0,0.9,0.1,1.8,0.3,2.7c0.2,0.6,0.6,1,1.2,1.2c0.9,0.2,1.9,0.3,2.8,0.3c0.1,0,0.2,0.1,0.2,0.4c0,0.2-0.1,0.4-0.2,0.4
	c-1.3,0-2.4,0-3.2-0.1l-4.6-0.1l-4.5,0.1c-0.8,0-1.9,0.1-3.3,0.1c-0.1,0-0.1-0.1-0.1-0.4s0-0.4,0.1-0.4c1,0,1.9-0.1,2.9-0.3
	c0.6-0.2,1-0.6,1.2-1.2c0.3-0.9,0.4-1.8,0.3-2.7v-12.3L210,276c-1-1.8-2.3-3.4-3.8-4.9c-0.7-0.7-1.5-1.2-2.5-1.4
	c-0.1,0-0.2-0.1-0.2-0.4c0-0.2,0.1-0.4,0.2-0.4l1.9,0.1c0.9,0.1,1.5,0.1,1.9,0.1c1.4,0,3.5,0,6.1-0.1l4-0.1c0.1,0,0.1,0.1,0.1,0.4
	s0,0.4-0.1,0.4c-0.6,0-1.2,0.1-1.6,0.5c-0.4,0.3-0.6,0.8-0.6,1.3c0.1,0.8,0.4,1.6,0.9,2.3l8.3,13.1l5.6-9.6c1-1.4,1.5-3,1.6-4.7
	c0.1-0.8-0.3-1.6-0.9-2.2c-0.7-0.5-1.6-0.8-2.5-0.8c-0.1,0-0.2-0.1-0.2-0.4c0-0.2,0.1-0.4,0.2-0.4l3.2,0.1c1.9,0.1,3.5,0.1,5,0.1
	c0.7,0,1.5,0,2.5-0.1l2.2-0.1C241.5,269,241.6,269.1,241.6,269.4z"/>
<path class="st0" d="M21,353.7c-2.3-1.1-4.3-2.9-5.6-5c-1.3-2.1-2-4.6-2-7.1c0-2.6,0.7-5.2,2.2-7.4c1.5-2.2,3.6-4,6.1-5.1
	c2.7-1.2,5.7-1.9,8.7-1.8c1.4,0,2.8,0.1,4.2,0.3c1.2,0.1,2.3,0.4,3.4,0.9c0.2,0.1,0.4,0.1,0.5,0.3c0.1,0.2,0.1,0.5,0.1,0.7l0.6,6.1
	c0,0.1-0.1,0.1-0.2,0.2c-0.2,0-0.3,0-0.3-0.1c-0.5-1.1-1.1-2.2-1.8-3.1c-0.9-1.2-2-2.2-3.3-3c-1.4-0.9-3.1-1.3-4.8-1.3
	c-1.8,0-3.6,0.5-5.1,1.5c-1.6,1.1-2.9,2.6-3.6,4.4c-0.9,2.1-1.4,4.3-1.3,6.6c-0.1,2.6,0.5,5.1,1.6,7.4c0.9,2,2.4,3.8,4.3,5
	c1.8,1.2,4,1.8,6.2,1.8c0.9,0,1.9-0.1,2.8-0.4c0.7-0.3,1.2-0.8,1.4-1.5c0.3-1.1,0.5-2.2,0.4-3.4c0-1.1,0-2.1-0.3-3.2
	c-0.2-0.6-0.6-1-1.1-1.2c-1-0.2-2-0.3-3-0.3c-0.2,0-0.3-0.1-0.3-0.4c0-0.1,0-0.2,0.1-0.2c0-0.1,0.1-0.1,0.1-0.1
	c2.5,0.1,4.5,0.2,6,0.2c1.5,0,3,0,4.6-0.1c0.1,0,0.2,0.1,0.2,0.3s0,0.3-0.2,0.3c-0.4-0.1-0.8,0-1.1,0.3c-0.3,0.4-0.4,0.9-0.4,1.3
	c-0.1,0.7-0.1,1.8-0.1,3.5c0,0.9,0,1.9,0.2,2.8c0.1,0.3,0.1,0.7,0.2,1c0,0.1,0,0.2-0.1,0.4c-0.1,0.1-0.2,0.1-0.4,0.2
	c-3.3,0.8-6.7,1.2-10.1,1.2C26.6,355.6,23.7,355,21,353.7z"/>
<path class="st0" d="M74.2,354.8c0,0.2,0,0.3-0.1,0.3h-7.8c-0.7,0-1.9-1.2-3.6-3.5c-2.3-3.1-4.4-6.4-6.3-9.7c-0.3,0-0.7,0-1,0
	c-1.1,0-1.9,0-2.4,0v9.7c0,0.7,0,1.3,0.2,2c0.1,0.4,0.5,0.7,0.8,0.8c0.7,0.2,1.3,0.2,2,0.2c0.1,0,0.1,0.1,0.1,0.3s0,0.3-0.1,0.3
	c-1,0-1.7,0-2.3,0l-3.3,0l-3.2,0c-0.6,0-1.4,0-2.4,0c-0.1,0-0.1-0.1-0.1-0.3s0-0.3,0.1-0.3c0.7,0,1.3-0.1,2-0.2
	c0.4-0.1,0.7-0.4,0.9-0.9c0.2-0.6,0.3-1.3,0.2-2v-20.3c0-0.6,0-1.3-0.2-1.9c-0.1-0.4-0.5-0.7-0.9-0.9c-0.6-0.2-1.3-0.3-2-0.2
	c-0.1,0-0.1-0.1-0.1-0.3s0-0.3,0.1-0.3h2.3c1.3,0.1,2.4,0.1,3.2,0.1c1,0,2,0,3.1-0.1l1.4-0.1c0.6,0,1.2,0,1.9,0
	c2.2-0.1,4.3,0.4,6.2,1.4c1.4,0.9,2.2,2.4,2.2,4.1c0,1.6-0.4,3.1-1.3,4.4c-0.9,1.3-2.1,2.4-3.5,3.1c2.3,3.5,4.3,6.2,5.9,8.2
	c1.2,1.6,2.6,3.1,4.2,4.3c1,0.8,2.3,1.3,3.6,1.4C74.2,354.5,74.2,354.6,74.2,354.8z M55.6,340.8c1.4,0.1,2.7-0.4,3.7-1.4
	c0.9-1.4,1.2-3,1.1-4.6c0-2.4-0.3-4-1-4.9c-0.7-0.9-1.8-1.4-3-1.4c-0.9-0.1-1.8,0.1-2.5,0.6c-0.6,0.6-0.8,1.4-0.8,2.2v9.3
	C53.9,340.7,54.7,340.8,55.6,340.8L55.6,340.8z"/>
<path class="st0" d="M105.3,354.8c0,0.2-0.1,0.3-0.2,0.3c-0.6,0-1.5,0-2.7-0.1s-2.2-0.1-2.8-0.1c-0.7,0-1.6,0-2.7,0.1
	s-1.8,0.1-2.4,0.1c-0.1,0-0.2-0.1-0.2-0.3s0.1-0.3,0.2-0.3c0.6,0,1.1,0,1.6-0.2c0.3-0.2,0.5-0.5,0.5-0.9c-0.1-0.9-0.4-1.7-0.9-2.5
	l-3-5.9H82.1l-1.7,3.8c-0.4,0.7-0.5,1.5-0.6,2.4c0,1,0.4,1.9,1.1,2.5c0.9,0.6,1.9,0.9,3,0.9c0.2,0,0.2,0.1,0.2,0.3s-0.1,0.3-0.2,0.3
	c-0.5,0-1.3,0-2.3-0.1s-2.1-0.1-2.9-0.1s-1.7,0-2.8,0.1s-1.8,0.1-2.4,0.1c-0.1,0-0.2-0.1-0.2-0.3s0.1-0.3,0.2-0.3
	c0.7,0,1.4-0.2,2-0.5c0.7-0.5,1.2-1.1,1.7-1.8c0.8-1.2,1.4-2.5,2-3.8l9.5-20.9c0-0.1,0.2-0.1,0.4-0.1s0.4,0,0.4,0.1l10.9,21.5
	c0.7,1.5,1.5,3,2.5,4.3c0.5,0.7,1.3,1.1,2.1,1.2C105.2,354.5,105.3,354.6,105.3,354.8z M82.7,343.8h9.5l-5-10L82.7,343.8z"/>
<path class="st0" d="M141.5,354.8c0,0.2,0,0.3-0.1,0.3c-1,0-1.8,0-2.4,0l-3.2,0l-3.3,0c-0.6,0-1.3,0-2.3,0c-0.1,0-0.1-0.1-0.1-0.3
	s0-0.3,0.1-0.3c0.9,0.1,1.7-0.1,2.5-0.4c0.5-0.5,0.8-1.2,0.7-1.8v-0.7l-0.9-17.9l-9,21.1c-0.1,0.1-0.2,0.2-0.3,0.2
	c-0.1,0-0.3-0.1-0.3-0.2l-11.1-21l-0.3,15.8c-0.1,1.3,0.2,2.6,0.9,3.7c0.6,0.9,1.7,1.4,2.8,1.3c0.1,0,0.1,0.1,0.1,0.3s0,0.3-0.1,0.3
	c-0.8,0-1.4,0-1.8,0l-2.4,0l-2.8,0c-0.5,0-1.1,0-1.9,0c-0.1,0-0.1-0.1-0.1-0.3s0-0.3,0.1-0.3c1.1,0,2.2-0.5,2.8-1.4
	c0.8-1.1,1.1-2.4,1.1-3.7l0.4-18.1l0,0c-0.4-0.9-1.1-1.7-1.8-2.4c-0.6-0.5-1.4-0.8-2.2-0.8c-0.1,0-0.1-0.1-0.1-0.3s0-0.3,0.1-0.3
	h2.1c0.4,0,0.9,0,1.6,0l2.3,0c0.3,0,0.7,0,1,0c0.3,0,0.7,0.1,0.9,0.4c0.4,0.6,0.8,1.2,1.1,1.9l9.5,17.8l8.3-19.1
	c0.1-0.3,0.3-0.6,0.5-0.9c0.2-0.2,0.5-0.3,0.8-0.2c0.3,0,0.6,0,0.9,0s0.7,0,1.2,0l2.6,0c0.4,0,1,0,1.8,0c0.1,0,0.1,0.1,0.1,0.3
	s0,0.3-0.1,0.3c-1.1-0.1-2.1,0.2-3,0.8c-0.7,0.7-1,1.6-0.8,2.6l1,19.9c0,0.7,0.1,1.4,0.3,2c0.2,0.4,0.5,0.7,0.9,0.8
	c0.7,0.2,1.3,0.2,2,0.2C141.5,354.5,141.5,354.6,141.5,354.8z"/>
<path class="st0" d="M179,354.8c0,0.2,0,0.3-0.1,0.3c-1,0-1.8,0-2.4,0l-3.2,0l-3.3,0c-0.6,0-1.3,0-2.3,0c-0.1,0-0.1-0.1-0.1-0.3
	s0.1-0.3,0.1-0.3c0.9,0.1,1.7-0.1,2.5-0.4c0.5-0.5,0.7-1.2,0.6-1.8v-0.7l-0.9-17.9l-9,21.1c-0.1,0.1-0.2,0.2-0.4,0.2
	c-0.1,0-0.3,0-0.3-0.2l-11.1-21l-0.4,15.8c-0.1,1.3,0.2,2.6,0.9,3.7c0.6,0.9,1.7,1.4,2.8,1.3c0.1,0,0.1,0.1,0.1,0.3s0,0.3-0.1,0.3
	c-0.8,0-1.4,0-1.8,0l-2.4,0l-2.8,0c-0.5,0-1.1,0-1.9,0c-0.1,0-0.1-0.1-0.1-0.3s0-0.3,0.1-0.3c1.1,0,2.2-0.5,2.8-1.4
	c0.8-1.1,1.1-2.4,1.1-3.7l0.4-18.1l0,0c-0.4-0.9-1.1-1.7-1.8-2.4c-0.6-0.5-1.4-0.8-2.2-0.8c-0.1,0-0.1-0.1-0.1-0.3s0.1-0.3,0.1-0.3
	h2.1c0.4,0,0.9,0,1.6,0l2.3,0c0.3,0,0.7,0,1,0c0.3,0,0.7,0.1,0.9,0.4c0.4,0.6,0.8,1.2,1.1,1.9l9.5,17.9l8.3-19.1
	c0.1-0.3,0.3-0.6,0.6-0.9c0.2-0.2,0.5-0.3,0.8-0.2c0.3,0,0.6,0,0.9,0s0.7,0,1.2,0l2.6,0c0.4,0,1,0,1.7,0c0.1,0,0.1,0.1,0.1,0.3
	s-0.1,0.3-0.1,0.3c-1.1-0.1-2.1,0.2-3,0.8c-0.7,0.7-1,1.6-0.8,2.6l1.1,19.9c0,0.7,0.1,1.4,0.3,2c0.1,0.4,0.5,0.7,0.9,0.8
	c0.7,0.2,1.3,0.2,2,0.2C178.9,354.5,179,354.6,179,354.8z"/>
<path class="st0" d="M211.5,354.8c0,0.2-0.1,0.3-0.2,0.3c-0.6,0-1.5,0-2.7-0.1s-2.2-0.1-2.8-0.1c-0.7,0-1.6,0-2.7,0.1
	s-1.8,0.1-2.4,0.1c-0.1,0-0.2-0.1-0.2-0.3s0.1-0.3,0.2-0.3c0.6,0,1.1,0,1.6-0.2c0.3-0.2,0.5-0.5,0.5-0.9c-0.1-0.9-0.4-1.7-0.9-2.5
	l-3-5.9h-10.7l-1.7,3.8c-0.4,0.7-0.5,1.5-0.6,2.4c0,1,0.4,1.9,1.1,2.5c0.9,0.6,1.9,0.9,3,0.9c0.1,0,0.2,0.1,0.2,0.3
	s-0.1,0.3-0.2,0.3c-0.5,0-1.3,0-2.3-0.1s-2.1-0.1-2.9-0.1s-1.7,0-2.8,0.1s-1.8,0.1-2.4,0.1c-0.1,0-0.2-0.1-0.2-0.3s0.1-0.3,0.2-0.3
	c0.7,0,1.4-0.2,2.1-0.5c0.7-0.5,1.2-1.1,1.7-1.8c0.8-1.2,1.4-2.5,2-3.8l9.5-20.9c0-0.1,0.2-0.1,0.4-0.1s0.4,0,0.4,0.1l10.9,21.5
	c0.7,1.5,1.5,3,2.5,4.3c0.5,0.7,1.3,1.1,2.1,1.2C211.4,354.5,211.5,354.6,211.5,354.8z M188.9,343.8h9.5l-5-10L188.9,343.8z"/>
<path class="st0" d="M242.3,354.8c0,0.2,0,0.3-0.1,0.3h-7.8c-0.7,0-1.9-1.2-3.6-3.5c-2.3-3.1-4.4-6.4-6.3-9.7c-0.3,0-0.7,0-1,0
	c-1.1,0-1.9,0-2.4,0v9.7c0,0.7,0,1.3,0.2,2c0.1,0.4,0.4,0.7,0.9,0.8c0.7,0.2,1.3,0.2,2,0.2c0.1,0,0.1,0.1,0.1,0.3s0,0.3-0.1,0.3
	c-1,0-1.7,0-2.3,0l-3.3,0l-3.2,0c-0.6,0-1.4,0-2.4,0c-0.1,0-0.1-0.1-0.1-0.3s0.1-0.3,0.1-0.3c0.7,0,1.3-0.1,2-0.2
	c0.4-0.1,0.7-0.4,0.9-0.9c0.2-0.6,0.3-1.3,0.2-2v-20.3c0-0.6,0-1.3-0.2-1.9c-0.1-0.4-0.5-0.7-0.9-0.9c-0.6-0.2-1.3-0.3-2-0.2
	c-0.1,0-0.1-0.1-0.1-0.3s0-0.3,0.1-0.3h2.3c1.3,0.1,2.4,0.1,3.2,0.1c1,0,2,0,3.1-0.1l1.4-0.1c0.6,0,1.2,0,1.9,0
	c2.2-0.1,4.3,0.4,6.2,1.5c1.4,0.9,2.2,2.4,2.2,4.1c0,1.5-0.4,3.1-1.3,4.4c-0.9,1.3-2.1,2.4-3.5,3.1c2.3,3.5,4.3,6.2,5.9,8.2
	c1.2,1.6,2.6,3.1,4.2,4.3c1,0.8,2.3,1.3,3.6,1.4C242.2,354.5,242.3,354.6,242.3,354.8z M223.6,340.8c1.4,0.1,2.7-0.4,3.6-1.4
	c0.9-1.4,1.3-3,1.1-4.6c0-2.4-0.4-4-1.1-4.9c-0.7-0.9-1.8-1.4-3-1.4c-0.9-0.1-1.8,0.1-2.5,0.6c-0.5,0.6-0.8,1.4-0.7,2.2v9.3
	C221.9,340.7,222.8,340.8,223.6,340.8L223.6,340.8z"/>
</svg>
