<?xml version="1.0" encoding="utf-8"?>
<!-- Generator: Adobe Illustrator 25.2.3, SVG Export Plug-In . SVG Version: 6.00 Build 0)  -->
<svg version="1.1" id="Layer_1" xmlns="http://www.w3.org/2000/svg" xmlns:xlink="http://www.w3.org/1999/xlink" x="0px" y="0px"
	 viewBox="0 0 612.9 244.2" style="enable-background:new 0 0 612.9 244.2;" xml:space="preserve">
<style type="text/css">
	.st0{fill:#FFFFFF;}
	.st1{fill:#005497;}
	.st2{fill:#F3A519;}
	.st3{fill:#282347;}
	.st4{fill:#010101;}
	.st5{fill:#AB1917;}
	.st6{fill:#1D201D;}
</style>
<path class="st0" d="M52.6,99.2V20h150v80.6c0,26.5-1.3,48-74.1,90.8l-0.8,0.5l-0.8-0.5c-72.9-42.8-74.2-64.3-74.2-90.8L52.6,99.2z
	 M237.6,147.7l-20.1,17.1l9.7,16.6l0.4,0.6l-0.5,0.5c-0.1,0.1-3.8,3.7-25.1,13.8l-6.2,2.9c-21.9,10.5-51.8,24.8-68.1,24.6h-0.2
	c-16.3,0.2-46.2-14.1-68.1-24.6l-6.2-2.9c-21.3-10.1-24.9-13.7-25.1-13.8l-0.5-0.5l0.4-0.6l9.7-16.7l-20.2-17.1l-1.9-1.6l2.5-0.1
	l13.4-0.5l0.2-11.3v-2l1.5,1.3l28.4,24.7l0.6,0.5l-0.4,0.7l-7,11.8c12.3,6.3,30.4,15.4,38.1,19c15,6.9,26.3,10.4,34.6,10.6
	c8.3-0.2,19.6-3.7,34.6-10.6c7.7-3.6,25.8-12.7,38.1-19l-7-11.8l-0.4-0.7l0.6-0.5l28.5-24.7l1.5-1.3v2l0.2,11.3l13.4,0.5l2.4,0.1
	L237.6,147.7z"/>
<path class="st1" d="M126.8,191.5l0.8,0.5l0.8-0.5c72.9-42.8,74.1-64.3,74.1-90.8V20h-150v80.6C52.6,127.2,53.9,148.7,126.8,191.5z
	 M55.9,99.2V23.3h143.4v76c0,27.1,0,46.7-71.7,89C55.8,145.9,55.8,126.3,55.9,99.2z"/>
<path class="st2" d="M127.6,188.2c71.8-42.3,71.8-61.9,71.7-89V23.3H55.9v76C55.8,126.3,55.8,145.9,127.6,188.2z M148.1,43.5
	c0.1-0.3,0.1-0.7,0.2-1c0.8,0.3,1.7,0.4,2.6,0.1l0,0l0.2-0.1h0.1c1.1-0.4,1.8-1.3,1.8-2.5v-0.5l-0.3,0.4c-1,1.3-2.7,1.8-4.2,1.2
	c0.1-1.3,0.3-2,1.5-2.2c0.3-0.1,0.7-0.1,1-0.2c0.8,0,1.5,0.2,2.2,0.5c0.3,0.1,0.6,0.2,0.9,0.3c0.2,0.1,0.5,0.1,0.7,0.1
	c1.2-0.2,2.3-0.5,3.4-0.9c1-0.4,2.1-0.7,3.2-0.8c1.9,0,3.9,0.2,5.8,0.6l0.9,0.2c0.8,0.2,1.7,0.3,2.5,0.3c0.8,0,1.6-0.4,2.1-1.1
	c0,0.2,0,0.3,0,0.5c0,0.9-0.1,1.8-0.5,2.7l-0.1,0.1l0.1,0.1c0.2,0.1,0.3,0.1,0.5,0.2h0.1c0.2,0,0.4,0,0.6,0c0.8-0.1,1.5-0.3,2.1-0.8
	c-0.3,1.5-1.3,2.8-2.7,3.4l-0.2,0.1l0.1,0.2c0.1,0.2,0.2,0.3,0.2,0.5l0,0l0,0c0.3,0.6,0.5,1.3,0.6,1.9l0.1,0.9c0.3,3,0.8,7,3.6,10
	c-0.5,0.1-1,0.2-1.5,0.2c-0.9,0.1-1.8-0.1-2.5-0.5c-1.2-1.2-1.9-2.8-1.9-4.5H171c-0.1,1.1,0,2.2,0.2,3.3c0.4,1.4,1.3,2.6,2.4,3.4
	l0.4,0.4c1,0.8,1.7,1.9,1.9,3.2l0.1,0.4c0.5,2.6,0.8,4,2.1,5c-1.1,0.2-2.2,0.1-3.2-0.5c-1-0.7-1.9-1.6-2.5-2.7l0,0l0,0l-0.1-0.2
	c-1-1.6-2.5-2.8-4.2-3.4L168,62c1.4,1,2.5,2.4,3.2,4c0.6,1.1,1,2.4,1,3.7c0,0.8,0,1.7,0,2.6c0,1.1,0,2.1,0,3.1
	c0,1.1,0.2,2.1,0.5,3.2c-1-0.3-4.1-1.5-4.4-4.5c-0.1-0.6-0.1-1.2-0.2-1.7c-0.2-2.6-1.5-5-3.4-6.7l0,0c-0.1-0.1-0.2-0.2-0.3-0.3
	l-0.2,0.2c0,0,2.8,3.6,2.6,10c-0.1,0.8-0.2,1.6-0.3,2.5c-0.3,1.7-0.5,3.4-0.5,5.1c0,1,0.2,2,0.4,3c-1-0.7-3.7-3.3-4.4-9.7
	c0.5-2.4,0.3-4.9-0.6-7.2l-0.3,0.1c0,0.1,0.1,0.3,0.1,0.4c0,0.9,0,1.7,0,2.5c-0.1,2.1-0.4,4.1-1,6.1c-0.3,0.8-0.7,1.6-1.1,2.3
	c-1.7,3.2-3.5,4.9-5.8,5.4c-0.3,0.1-0.5,0.1-0.8,0.1c0.2-0.1,0.5-0.3,0.7-0.5c0.6-0.5,1.1-1.2,1.4-1.9c0.5-1.1,0.8-2.3,1-3.6
	c0.1-0.8,0.1-1.7,0.1-2.5c0-0.4,0-0.9-0.1-1.3s-0.1-0.8-0.1-1.1c0,0,0-0.1,0-0.1v-0.1c0.7-2,0.8-4.2,0.2-6.2l-0.3,0.1
	c0,0.1,0,0.2,0,0.3c-0.2,2.3-0.7,4.6-1.6,6.8c0,0,0,0.1,0,0.1c-1.3,2.7-3.4,6.7-7.1,7.4c-0.5,0.1-1,0.2-1.4,0.1
	c0.6-0.4,1.7-1.7,2.3-4.6c0.2-1,0.3-1.9,0.5-2.8c0.4-2.5,0.7-4.9,2.5-7.4l-0.2-0.2c-1.9,1.4-4,5.3-4.3,6.3c-0.1,0.2-0.1,0.3-0.1,0.5
	c-0.2,1.4-1.1,2.7-2.3,3.5c-0.9,0.6-2,0.8-3.1,0.5l-0.1-0.1h0.1c0.8-0.3,1.5-0.8,2-1.5c0.6-0.8,0.9-2.8,1.2-4.7
	c0.2-0.9,0.3-1.8,0.5-2.5c0.3-1.3,0.7-2.5,1.3-3.6c0.7-1.5,1.8-2.7,3.1-3.7c0.6-0.5,1.3-1,2-1.5l-0.1-0.3c-0.6,0.1-1.2,0.2-1.8,0.4
	c-3,1-4.4,3.5-5.5,5.7c-0.6,1.4-1.7,2.4-3.1,2.8c0.7-0.9,1.2-2.1,1.4-3.2c0.3-1.1,0.6-2.2,1-3.3c0.7-1.9,2.8-3.4,6.4-4.5
	c1.3-0.4,2.7-0.8,3.7-1h0.1c-0.9,1.7-1.3,3.7-1.3,5.6c-0.1,1.4-0.4,2.7-1,4l-0.1,0.3h0.3c1.8-0.2,3.4-0.9,4.9-1.9
	c0.2-0.1,0.4-0.3,0.6-0.4l0.1-0.1l0,0h0.1l0.1-0.1l0.1-0.1l0,0l0,0c0.2-0.2,0.4-0.5,0.6-0.8c0.1-0.2,0.2-0.3,0.2-0.5
	c0.2-0.5,0.5-1,0.7-1.5c0.1,0.3,0.1,0.5,0.2,0.8l0.2,0.7c0.3,1.7,0.3,3.5,0,5.2c0,0.2-0.1,0.3-0.1,0.4l-0.1,0.2l-0.2,0.6l0.4-0.4
	c1-0.9,2-1.8,2.4-2.3s0.7-0.8,1-1.2s0.6-0.8,1.2-1.4c0.7-0.8,1.2-1.8,1.5-2.8c0.8,1.2,1.7,2.4,2.8,3.4l0.3,0.2l-0.1-0.3
	c-0.2-1.2-0.2-2.5,0-3.7c0.3-1,0.6-2,1-2.9c1.1-2.2,1.4-2.8,1.5-4.5c0-1.8-0.5-3.5-1.5-5l-0.3,0.1c0.4,1.2,0.7,2.4,0.7,3.6
	c-0.2,1.8-0.7,3.6-1.6,5.2c-0.3,0.6-0.6,1.2-0.8,1.8c0,0,0,0.1,0,0.1l0,0c-0.2,0.5-0.3,1-0.4,1.6c0,0.1,0,0.1,0,0.2v0.1l0,0
	c-0.5-0.7-0.9-1.5-1.2-2.3c-0.1-0.2-0.2-0.5-0.2-0.7c-0.2-0.7-0.2-1.5,0-2.2c0.2-0.6,0.2-1.1,0.2-1.7c0-0.7-0.2-1.4-0.5-2
	c-0.2-0.5-0.5-0.9-0.9-1.2l-0.3,0.2c0.6,1.4,0.6,2.9,0.2,4.3c-0.3,1-0.3,2.2-0.1,3.2c0.1,0.2,0.1,0.5,0.2,0.7s0,0.2,0,0.3
	c0,0.1,0,0.3-0.1,0.4c-0.1,0.3-0.2,0.7-0.3,1c-0.2,0.4-0.5,0.8-0.7,1.2c-0.3,0.4-0.6,0.7-0.9,1l-0.6,0.7l-0.1,0.1l0,0l0,0l-0.1,0.1
	l-0.3,0.4l-0.7,0.7c0-0.3,0.1-0.6,0.1-0.8c0-1.2-0.2-2.3-0.5-3.5c-0.2-0.7-0.3-1.4-0.4-2.1c-0.1-0.6-0.1-1.2,0-1.8
	c0.2-0.9,0.6-1.8,1.2-2.5l0,0l0,0c0.4-0.1,0.7-0.3,1-0.5c0.1-0.1,0.3-0.2,0.4-0.4l0,0c0.6-0.7,0.8-1.6,0.7-2.5
	c-0.1-0.8-0.3-1.5-0.7-2.1c-0.1-0.2-0.1-0.3-0.1-0.3l-0.3,0.1c0.4,1.1,0.3,2.2-0.1,3.3c-0.3,0.5-0.8,0.9-1.4,1l-0.3,0.1
	c-0.8,0.1-1.6,0.1-2.3-0.1l-0.4-0.1c-0.8-0.2-1.7-0.3-2.6-0.3h-0.3c-0.4,0-0.7,0-1.1,0c-0.7,0.1-1.4,0.2-2,0.4
	c-0.4,0.1-0.9,0.2-1.3,0.3c-0.7,0-1.3-0.3-1.6-0.9c-0.2-0.3-0.3-0.6-0.3-1c0-0.9,0.9-1.5,2.4-1.5c0.6,0,1.2,0,1.7,0.1
	c0.7,0.1,1.3,0.2,2,0.2c2.1-0.1,3.6-1.1,3.9-2.6c0.1-0.7,0.1-1.3,0.1-2c0-0.8-0.2-3.5-1.3-3.7H156c-0.6,0-0.9,0.5-1.3,1
	c-0.3,0.5-0.8,0.9-1.3,1.2c-0.4,0.1-0.7,0.2-1.1,0.2c-1.3,0.1-2.6-0.2-3.7-1c-0.3-0.3-0.5-0.7-0.5-1.1C148,43.8,148,43.6,148.1,43.5
	z M157.9,61.1c-0.6,1-1.1,2.1-1.6,3.2c-0.4,0.8-1,1.5-1.8,2c-0.6,0.3-1.3,0.6-2,0.8c0,0,0,0,0-0.1c0.2-0.8,0.3-1.5,0.4-2.3
	c0.1-0.8,0.1-1.6,0.2-2.2c0-0.2,0.1-0.5,0.1-0.7c0.3-2.1,1.7-4,3.7-4.9l0.7,0c0.4,0,0.8,0.1,1.1,0.1c-0.5,0.9-0.7,2-0.8,3
	C157.9,60.3,157.9,60.7,157.9,61.1L157.9,61.1z M147.8,48.7c0.9,0.9,2.5,0,3.8-0.4s3,1.1,4.6,0.1c0,0-0.2,1.9-1.8,1.3
	s-3-0.8-4.2,0.4s-4.1,0.7-4.8-1s-0.2-3.4-1.3-3.9c0,0,0.6-1.1,2.1-0.4S147,47.8,147.8,48.7z M108.8,44.7c1.6-0.7,2.2,0.4,2.2,0.4
	c-1.1,0.4-0.6,2.2-1.3,3.9s-3.6,2.1-4.8,1s-2.5-1-4.2-0.4S99,48.4,99,48.4c1.6,1,3.3-0.5,4.6-0.1s2.9,1.4,3.8,0.4
	S107.3,45.4,108.8,44.7L108.8,44.7z M79.2,63.5l0.1-0.4c0.2-1.3,0.9-2.4,1.9-3.2l0.4-0.4c1.2-0.8,2-2.1,2.4-3.4
	c0.3-1.1,0.4-2.2,0.2-3.3h-0.3c-0.1,1.7-0.8,3.3-2,4.5c-0.8,0.4-1.7,0.6-2.5,0.5c-0.5,0-0.9-0.1-1.4-0.2c2.9-2.9,3.3-7,3.6-10
	l0.1-0.9c0.1-0.7,0.3-1.3,0.6-1.9l0,0l0,0c0.1-0.2,0.2-0.3,0.2-0.5l0.1-0.2L82.5,44c-1.4-0.6-2.4-1.9-2.7-3.4
	c0.6,0.5,1.3,0.7,2.1,0.8c0.2,0,0.4,0,0.6,0l0,0c0.2,0,0.4-0.1,0.5-0.2l0.1-0.1l0-0.2c-0.4-0.8-0.5-1.7-0.5-2.7c0-0.2,0-0.4,0-0.5
	c0.4,0.7,1.2,1.1,2,1.1c0.8,0,1.7-0.1,2.5-0.3l0.9-0.2c1.9-0.4,3.8-0.6,5.8-0.6c1.1,0.2,2.2,0.4,3.2,0.8c1.1,0.4,2.2,0.7,3.4,0.9
	c0.2,0,0.5,0,0.7-0.1c0.3-0.1,0.6-0.2,0.9-0.3c0.7-0.4,1.5-0.5,2.2-0.5c0.3,0,0.7,0.1,1,0.2c1.2,0.3,1.4,1,1.5,2.2
	c-1.5,0.6-3.3,0.1-4.2-1.2l-0.3-0.4V40c0,1.1,0.7,2.1,1.8,2.5h0.1l0.2,0.1l0,0c0.9,0.2,1.8,0.2,2.6-0.1c0,0.4,0.1,0.7,0.2,1
	c0,0.2,0,0.3,0,0.5c0,0.4-0.2,0.8-0.5,1.1c-1,0.7-2.3,1.1-3.5,1c-0.4,0-0.8-0.1-1.1-0.2c-0.5-0.3-1-0.7-1.3-1.2
	c-0.4-0.5-0.7-0.9-1.3-1h-0.2c-1.1,0.1-1.3,2.8-1.3,3.7c0,0.7,0,1.3,0.1,2c0.2,1.5,1.7,2.5,3.8,2.6c0.7,0,1.3,0,2-0.2
	c0.6-0.1,1.1-0.2,1.7-0.1c1.5,0.1,2.4,0.7,2.4,1.5c0,0.3-0.1,0.7-0.3,1c-0.3,0.6-0.9,1-1.6,0.9c-0.5,0-0.9-0.1-1.3-0.3
	c-0.6-0.2-1.3-0.3-2-0.4c-0.4,0-0.7,0-1.1,0c-0.1,0-0.2,0-0.3,0c-0.9,0-1.7,0.1-2.6,0.3l-0.4,0.1c-0.8,0.1-1.6,0.2-2.3,0.1l-0.3-0.1
	c-0.6-0.1-1.1-0.5-1.4-1c-0.4-1-0.5-2.1-0.1-3.1l-0.3-0.1c0,0-0.1,0.1-0.1,0.3c-0.4,0.7-0.6,1.4-0.7,2.1c-0.1,0.9,0.1,1.8,0.7,2.5
	l0,0l0,0c0.1,0.1,0.3,0.3,0.4,0.4c0.3,0.2,0.6,0.4,0.9,0.5l0,0l0,0c0.6,0.7,1,1.6,1.2,2.5c0.1,0.6,0.1,1.2,0,1.8
	c-0.1,0.7-0.2,1.4-0.4,2.2c-0.3,1.1-0.5,2.3-0.5,3.5c0,0.3,0,0.6,0.1,0.8l-0.7-0.7l-0.3-0.3l-0.1-0.1l0,0l0,0L94,65.7L93.4,65
	l-0.9-1c-0.3-0.4-0.5-0.8-0.7-1.2c-0.1-0.3-0.2-0.7-0.3-1c0-0.1-0.1-0.3-0.1-0.4c0-0.1,0-0.2,0-0.3c0.1-0.2,0.2-0.5,0.2-0.7
	c0.3-1.1,0.3-2.2-0.1-3.2c-0.4-1.4-0.4-2.9,0.2-4.3l-0.3-0.2c-0.4,0.4-0.7,0.8-0.9,1.2c-0.3,0.6-0.5,1.3-0.4,2c0,0.6,0,1.2,0.2,1.7
	c0.2,0.7,0.2,1.5,0,2.2c0,0.2-0.1,0.5-0.2,0.7c-0.3,0.8-0.8,1.6-1.3,2.3l0,0v-0.3c-0.1-0.6-0.2-1.1-0.4-1.6l0,0c0,0,0-0.1,0-0.1
	c-0.2-0.6-0.5-1.2-0.8-1.8c-0.9-1.6-1.5-3.4-1.6-5.3c0-1.2,0.2-2.5,0.7-3.6L86.4,50c-0.9,1.5-1.4,3.2-1.4,4.9
	c0.1,1.7,0.4,2.4,1.5,4.6c0.4,1,0.7,1.9,1,2.9c0.3,1.2,0.3,2.5,0,3.7l-0.1,0.3l0.3-0.2c1.1-1,2-2.1,2.8-3.4c0.3,1,0.8,2,1.5,2.8
	c0.6,0.6,0.9,1,1.2,1.4s0.6,0.7,1,1.2s1.4,1.3,2.4,2.3l0.4,0.4l-0.2-0.6L96.8,70c0-0.1-0.1-0.3-0.1-0.5c-0.3-1.7-0.3-3.5,0-5.2
	l0.2-0.7c0.1-0.2,0.1-0.5,0.2-0.8c0.3,0.5,0.5,1,0.7,1.6c0.1,0.2,0.1,0.3,0.2,0.5c0.2,0.3,0.3,0.5,0.6,0.8l0,0l0,0l0.1,0.1l0.1,0.1
	h0.1l0,0c0,0,0.1,0.1,0.1,0.1c0.2,0.2,0.4,0.3,0.6,0.4c1.5,1,3.2,1.6,4.9,1.9h0.3l-0.1-0.3c-0.6-1.3-0.9-2.6-1-4
	c0-1.9-0.4-3.9-1.3-5.6h0.1c1,0.2,2.4,0.5,3.7,1c3.6,1.1,5.7,2.6,6.4,4.5c0.4,1.1,0.7,2.2,1,3.3c0.2,1.2,0.7,2.3,1.4,3.2
	c-1.3-0.4-2.4-1.4-2.9-2.7c-1.1-2.2-2.5-4.7-5.5-5.7c-0.6-0.2-1.2-0.3-1.8-0.4l-0.1,0.3c0.8,0.4,1.5,0.9,2.2,1.4
	c1.3,1,2.4,2.2,3.1,3.7c0.6,1.1,1.1,2.3,1.3,3.6c0.2,0.7,0.3,1.6,0.5,2.5c0.3,1.9,0.7,3.9,1.2,4.7c0.5,0.7,1.2,1.2,2,1.5h0.1
	l-0.1,0.1c-1,0.3-2.1,0.2-3-0.5c-1.2-0.8-2.1-2-2.3-3.5c0-0.2-0.1-0.4-0.1-0.5c-0.3-1-2.4-4.9-4.3-6.3l-0.2,0.2
	c1.7,2.5,2.1,4.9,2.5,7.4c0.1,0.9,0.3,1.8,0.5,2.8c0.6,2.9,1.7,4.1,2.3,4.6c-0.5,0.1-1,0-1.4-0.1c-3.8-0.7-5.8-4.8-7.2-7.4l-0.1-0.1
	c-0.9-2.1-1.5-4.4-1.7-6.7c0-0.1,0-0.2,0-0.3l-0.3-0.1c-0.5,2.1-0.5,4.2,0.2,6.2v0.1c0,0,0,0.1,0,0.1c0,0.4,0,0.8-0.1,1.2
	s0,0.8-0.1,1.3c0,0.8,0,1.7,0.1,2.5c0.2,1.2,0.5,2.4,1,3.5c0.2,0.4,0.5,0.8,0.8,1.2c0.2,0.3,0.4,0.5,0.7,0.7
	c0.2,0.2,0.4,0.3,0.7,0.5c-0.3,0-0.5-0.1-0.8-0.1c-2.3-0.5-4.2-2.1-5.8-5.4c-0.5-0.7-0.8-1.5-1.2-2.3c-0.6-2-0.9-4-1-6.1
	c0-0.8,0-1.7,0-2.6c0-0.1,0-0.2,0.1-0.4L94,69.2c-0.9,2.3-1.1,4.8-0.6,7.2c-0.7,6.4-3.4,8.9-4.4,9.6c0.3-1,0.4-2,0.4-3
	c0-1.7-0.1-3.4-0.5-5.1c-0.1-0.8-0.3-1.7-0.3-2.5c-0.2-6.4,2.6-10,2.6-10l-0.2-0.2c-0.1,0.1-0.2,0.2-0.3,0.3l0,0
	c-1.9,1.7-3.1,4.1-3.4,6.7c-0.1,0.5-0.2,1.1-0.2,1.7c-0.3,3-3.4,4.2-4.4,4.5c0.3-1,0.5-2.1,0.5-3.2c0-1,0-2,0-3.1c0-0.8,0-1.7,0-2.6
	c0-1.3,0.4-2.6,1-3.7c0.7-1.6,1.8-3,3.2-4l-0.1-0.3c-1.8,0.6-3.3,1.8-4.3,3.4l-0.1,0.2l0,0l0,0c-0.5,1.2-1.4,2.1-2.5,2.8
	c-0.9,0.6-2.1,0.8-3.2,0.6C78.3,67.5,78.6,66.1,79.2,63.5z M96.6,57c0.3,0,0.7,0,1.1-0.1l0.7,0c2,0.9,3.4,2.7,3.7,4.9
	c0,0.2,0.1,0.4,0.1,0.7c0.1,0.7,0.1,1.4,0.2,2.2c0.1,0.8,0.2,1.6,0.4,2.3c0,0.1,0,0.1,0,0.1c-0.7-0.2-1.4-0.5-2-0.8
	c-0.8-0.5-1.4-1.2-1.8-2c-0.4-1.1-0.9-2.2-1.6-3.2c0-0.4,0-0.7,0-1.1C97.3,58.9,97,57.9,96.6,57z M75.2,120.3
	c2.2-3.8,4.4-6.1,4.4-7.8c-0.2-1.2-0.5-2.3-0.8-3.4c-1.3,1-3,1.4-4.7,1.1c-3.7-1.2-4.9-1.6-8-8s-1-13.3-1-13.3
	c0.9,2.1,1.6,4.3,2.2,6.6c0.6,2,1.6,3.9,2.9,5.5c0,0-0.3-5.1-0.3-9.4s-0.6-5.1-2.5-9.6c-1.1-2.7-1.3-5.7-0.5-8.6
	c0.9,3.5,2.9,6.5,5.7,8.8c0,0,0.4-6.8-1.8-9.6c-2.3-3-4-6.5-4.9-10.2c-0.8-2.8-1.7-5.5-2.9-8.2c7.2,2.5,7.6,7.4,7.6,7.4
	s2.3-1.2-2.7-9.8c-2.9-5.2-3.9-11.3-2.7-17.2c0.1,2.8,1.3,5.4,3.5,7.2c5.2,4.6,6.3,15.4,4.9,21.3s3.1,14.7,2,19.6
	s-5.5,16.4-2.2,22.1c1.6,2.9,3.6,2.8,5.2,2.1c0.1-0.4,0.3-0.9,0.6-1.2c0.8-1.1,1.4-2.2,2-3.4c3.1-4,6.3-7,9.7-12.1
	c3.1-4.7,3.4-8.6,3.3-10.3c0.3,0.6,0.6,1.2,0.9,1.7c1.2,2.3,3.1,5.3,6.8,6l0.4,0.1l0,0l0.3,0.1c3.1,0.5,3.3-2.2,3.3-2.2
	c-0.8,0.2-1.6,0-2.3-0.3c-0.2-0.1-0.3-0.2-0.5-0.3l0,0c-0.2-0.2-0.4-0.4-0.5-0.6c-0.2-0.3-0.4-0.6-0.6-0.9c-0.4-1-0.7-2-0.9-3.1
	c-0.1-0.6-0.1-1.2-0.1-1.8c0.6,1.1,1.2,2.2,2,3.2c1.3,1.7,3.1,3,5.2,3.4c0.8,0.2,1.7,0.3,2.5,0.1l2.3-0.6c1.5,0.3,2.9,0.6,4,0.8
	c0,0,1.4-4.2,4.6-5V56.1c0-0.1-0.1-5.7,0-10.4c-1,2.1-2.7,5-5.1,6.3c1.6-0.1,3.2-0.7,4.4-1.8c-0.3,1.7-3.9,8-8.9,11
	c-1.2-1.1-2.7-2-4.3-2.6c1.4-2.5,3.4-5.9,3.4-5.9c1.8-3.5,2.4-8.2,2.7-11.3c0,0-4.6-1.3-5.4-4.7c-0.5-2,0.8-3.3,2.4-3.9
	c-1,4.7,2.2,5.8,2.2,5.8c-0.9-1.9-1.1-4.2-0.4-6.2c0.7,0,1.5,0,2.2,0.1c-0.7,5.4,2.5,6.3,2.5,6.3c-0.8-2-0.9-4.2-0.2-6.2
	c1.7-0.1,3.3,0.6,4.3,2l0.1,0.2c0.5,3.4-0.6,6.8-3,9.2c0,0,1.6-0.1,3.2-2.3c0.1-1.9,0.3-3.8,0.7-5.7c0.7-3.2,1.9-5.1,3.7-5.9
	l0.7-0.3v-0.4l0.5,0.2l0.5-0.2V30l0.7,0.3c1.9,0.7,3.1,2.6,3.8,5.9c0.4,2,0.6,4,0.7,6c0.7,1,1.8,1.7,3,2c-2.4-2.4-3.5-5.8-3-9.2
	l0.1-0.2c1-1.4,2.6-2.1,4.3-2c0.7,2,0.6,4.2-0.2,6.2c0,0,3.2-0.9,2.5-6.3c0.7-0.1,1.5-0.2,2.2-0.1c0.7,2,0.5,4.3-0.4,6.2
	c0,0,3.2-1.1,2.2-5.8c1.5,0.6,2.8,1.9,2.4,3.9c-0.8,3.5-5.4,4.7-5.4,4.7c0.3,3.1,0.9,7.8,2.7,11.3c0,0,2,3.4,3.4,5.9
	c-1.6,0.6-3,1.4-4.3,2.6c-4.9-3-8.6-9.3-8.9-11c1.2,1.1,2.8,1.7,4.4,1.8c-2.3-1.3-3.9-3.9-4.9-5.9c0.1,4.6,0,9.9,0,10v24.1
	c3.1,1,4.4,5,4.4,5c1.2-0.2,2.6-0.4,4.1-0.8l2.3,0.6c0.4,0.1,0.7,0.1,1.1,0.1c0.5,0,0.9-0.1,1.4-0.2c2.1-0.5,4-1.7,5.2-3.5
	c0.8-1,1.4-2.1,2-3.2c0,0.6,0,1.2-0.1,1.8c-0.2,1.1-0.4,2.1-0.9,3.1c-0.2,0.3-0.4,0.6-0.6,0.9c-0.2,0.2-0.3,0.4-0.5,0.6l0,0
	c-0.1,0.1-0.3,0.2-0.5,0.3c-0.7,0.4-1.5,0.5-2.3,0.4c0,0,0.2,2.7,3.3,2.2l0.4-0.1l0,0l0.4-0.1c3.6-0.7,5.6-3.8,6.8-6
	c0.3-0.5,0.6-1.1,0.9-1.7c0,1.8,0.3,5.6,3.3,10.2c3.3,5.1,6.6,8.1,9.7,12.1l0.1,0.1c0.5,1.2,1.2,2.3,1.9,3.3
	c0.3,0.4,0.5,0.8,0.6,1.2c1.6,0.8,3.6,0.8,5.2-2.1c3.3-5.7-1.2-17.2-2.2-22.1s3.5-13.7,2.1-19.7s-0.3-16.7,4.9-21.3
	c2.1-1.8,3.4-4.4,3.5-7.2c1.2,5.9,0.3,12-2.7,17.2c-4.9,8.6-2.7,9.8-2.7,9.8s0.4-4.9,7.6-7.4c-1.2,2.7-2.1,5.4-2.9,8.2
	c-0.9,3.7-2.6,7.2-4.9,10.2c-2.2,2.9-1.8,9.6-1.8,9.6c2.8-2.3,4.8-5.3,5.7-8.8c0.7,2.9,0.5,5.9-0.6,8.6c-1.9,4.5-2.5,5.3-2.5,9.6
	s-0.2,9.4-0.2,9.4c1.3-1.6,2.3-3.5,2.9-5.5c0.6-2.2,1.4-4.4,2.2-6.6c0,0,2,7-1,13.3s-4.3,6.8-8,8c-1.6,0.4-3.4,0-4.7-1.1
	c-0.4,1.1-0.6,2.3-0.8,3.4c0,1.7,2.3,4,4.4,7.8s1.7,9.5,1.7,9.5c-1.4-2.1-2.9-4.2-4.4-6.1c0,0,2,9.1-0.3,14.9
	c-0.9-2.8-2-5.5-3.2-8.1c0,0-0.3,8.4-3.8,13.2c0,0-0.5-3.2-0.8-5.8c0,0-1.8,3.8-3.4,4.8v0.2c-3.1,4.4-5.9,4-8,4.3l-0.2-0.1
	c-2.3-0.8-3-2.7-3.4-4.7c2.1-1.6,4.7-2.4,7.4-2.2c0,0-1.9-3.8-8.2-0.6c-0.4-0.9-0.6-1.8-0.7-2.8c2.1-1.6,4.8-2.4,7.4-2
	c0,0-2.2-3.7-7.5-0.6c0.3-2.2,1.6-4.4,4.1-4.6c3.3-0.3,6.6,3.8,7.9,5.7c0.5-1,1.1-2,2-2.7c2.8-2.3,4-8.1,3.1-10s-3.4-3.2-6.1-4.2
	c-2.1-0.7-4.2-2.8-4.3-6.5c0.2-2.9,2.1-4.7,1.7-6.7c-0.4-1.8-2.5-6.3-4-9.3c-1.2-2.7-2.7-5.4-3.8-7.7c-2.2,2.3-5.1,4.3-6.4,4.6
	c1.3-1.5,2-3.4,1.8-5.4c-1.3,2.9-3.7,5.2-6.8,6.2c-2.6,0.8-3.8,1.4-5.2,1.6c4-2.2,4.2-5.3,4.2-5.3c-1.9,2.1-4.5,3.4-7.3,3.6v16
	c0.6-0.6,1.5-0.9,2.3-0.9c4.2-0.2,8.5,6.1,8.5,6.1c0.7,0,1.4-0.3,2-0.7c1.2-1,1.9-2.4,1.9-3.9c-0.1-1.1-0.2-2.3-0.1-3.4
	c-0.1-1-0.3-2-0.5-2.9c-0.8-3.8-0.6-6.1,0.9-6c1,0.1,5.9,2.1,8.8,3.4c0.4,0.6,0.8,1.2,1.1,1.7c1.3,2.1,0.9,2.8,0.4,5.7l-2.9-1.3
	c2.3,5.3,1.7,9.2,0.9,10.8c-1-3.5-4.3-6.8-4.3-6.8c2.1,4.1,2.7,8.7,1.6,13.2c-0.5,1.5-1.3,3-2.1,4.4c0.9-5.1-1.3-7.2-1.3-7.2
	c0.4,2-0.3,4-1.8,5.3c0,0-0.7-1.6-1.5-3.2c-0.8-1-1.9-1.9-3.1-2.5c-1.9,1.5-4.1,2.5-6.6,2.8l-0.2-0.1c-1.9-0.7-3.2-2.3-3.6-4.3
	c2.1-1.4,4.7-2,7.3-1.7c0,0-1.9-3.2-7.5-1.1v31.5h3.7c0.3-0.6,0.8-1.2,1.3-1.6c0.9-0.7,1.9-1,3-1c2.7,0,4.9,2.2,4.9,4.9
	c0,2.7-2.2,4.9-4.9,4.9c-0.9,0-1.8-0.3-2.6-0.8h-6.4l-0.4,0.7c-0.1,0.1-0.1,0.2-0.2,0.3l0.2,0.7c0.1,0.4,0.2,0.8,0.3,1.2l0,0
	c0.3,1.2,0.2,2.6-0.5,3.7l0.2,0.6c0.1,0.4,0.2,0.8,0.3,1.3l0,0l0,0l0,0c0.4,2,0,3.4-1,4.3h0.5c1.6,0.3,2.7,1.8,2.5,3.4
	c-0.2,1.3-1.2,2.3-2.5,2.5h-8.8c-1.5-0.1-2.7-1.4-2.6-2.9c0,0,0,0,0-0.1c-0.1-1.4,0.9-2.7,2.3-2.9l0.1-0.5c0.1-0.6,0.3-1.1,0.6-1.6
	l-0.3-0.8c-0.2-0.5-0.3-1.1-0.3-1.6c-0.1-1.1,0.1-2.2,0.6-3.1l-0.3-0.9c-0.2-0.5-0.3-1.1-0.3-1.6c-0.1-0.9,0-1.8,0.3-2.6h-7
	c-0.8,0.5-1.7,0.8-2.6,0.8c-2.7,0-4.9-2.2-4.9-4.9c0-2.7,2.2-4.9,4.9-4.9l0,0c1.1,0,2.1,0.3,3,1c0.6,0.4,1,1,1.3,1.6h3.9V117
	c-5.7-2.2-7.7,1-7.7,1c2.5-0.3,5,0.3,7.1,1.7c-0.3,1.9-1.7,3.6-3.6,4.3l-0.2,0.1c-2.4-0.2-4.7-1.2-6.6-2.7c-1.2,0.6-2.3,1.4-3.1,2.5
	c-0.8,1.6-1.5,3.2-1.5,3.2c-1.5-1.3-2.2-3.4-1.8-5.3c0,0-2.2,2-1.3,7.2c-0.9-1.4-1.6-2.8-2.2-4.4c-0.6-2.4-0.3-9.4,1.5-13.3
	c0,0-3.2,3.4-4.2,6.9c-0.8-1.6-1.2-6.9,1.1-10.9l-2.9,1.3c-0.5-2.8-0.9-3.4,0.4-5.6c0.4-0.6,0.8-1.3,1.2-1.9c3-1.3,7.4-3.1,8.4-3.2
	c1.5-0.2,1.7,2.1,0.9,6c-0.2,1-0.4,2-0.5,2.9c0,1.1,0,2.3-0.1,3.4c0.1,1.5,0.8,2.9,1.9,3.9c0.6,0.4,1.3,0.6,2,0.7
	c0,0,4.3-6.3,8.5-6.1c0.9,0,1.9,0.4,2.5,1.1V93.4c-2.9-0.2-5.6-1.4-7.5-3.6c0.6,2.5,2.3,4.7,4.6,5.8c-1.4-0.2-1.8-0.5-4.4-1.3
	c-2-0.9-6.4-3.8-7.9-7c0,0-0.3,2.7,2.1,6.1c-1.4-0.3-4.6-3-6.8-5.3c-1.7,3.5-4.1,7.8-5.5,12c-0.8,1.6-1.4,3.3-1.9,5
	c-0.3,1.4,0.7,2.8,1.3,4.5c0.8,5.2-1.6,7.9-4.1,8.7c-2.8,0.9-5.2,2.3-6.2,4.2s0.3,7.7,3.1,10c0.9,0.8,1.6,1.7,2.1,2.7
	c1.3-1.9,4.5-6,7.9-5.7c2.5,0.2,3.7,2.4,4.1,4.6c-5.3-3.1-7.5,0.6-7.5,0.6c2.7-0.4,5.3,0.4,7.5,2c-0.1,1-0.4,1.9-0.7,2.8
	c-6.2-3.1-8.2,0.6-8.2,0.6c2.7-0.2,5.3,0.6,7.4,2.2c-0.4,1.9-1.2,3.9-3.4,4.7l-0.2,0.1c-2.1-0.4-5,0-8-4.3v-0.2
	c-1.6-1-3.4-4.8-3.4-4.8c-0.3,2.6-0.8,5.8-0.8,5.8c-3.5-4.8-3.8-13.2-3.8-13.2c-1.2,2.6-2.3,5.4-3.2,8.1c-2.3-5.8-0.3-14.9-0.3-14.9
	c-1.6,2-3.1,4-4.4,6.1C73.5,129.9,73,124.1,75.2,120.3z"/>
<path class="st3" d="M119.7,88.9c0.7-0.3,1.5-0.4,2.3-0.4v-1.5C120.9,87.2,120.1,88,119.7,88.9z"/>
<path class="st3" d="M120.2,84.6c0.6-0.2,1.1-0.4,1.7-0.5v-1.2C121.2,83.2,120.6,83.8,120.2,84.6z"/>
<path class="st3" d="M115.9,113.2c2-0.4,4.1-0.1,6,0.8v-2.1C117.8,110.4,115.9,113.2,115.9,113.2z"/>
<path class="st3" d="M139.3,113.2c0,0-1.8-2.7-5.9-1.4l0,0v2.1C135.3,113.1,137.3,112.8,139.3,113.2z"/>
<path class="st3" d="M133.5,87v1.5c0.7,0.1,1.4,0.2,2.1,0.4C135.1,88,134.4,87.3,133.5,87z"/>
<path class="st3" d="M133.5,83v1.2c0.5,0.1,1,0.3,1.5,0.5C134.7,83.9,134.1,83.4,133.5,83z"/>
<path class="st1" d="M133.5,46.1c1,2.1,2.6,4.7,4.9,5.9c-1.6-0.1-3.2-0.7-4.4-1.8c0.3,1.7,3.9,8,8.9,11c1.2-1.1,2.7-2,4.3-2.6
	c-1.4-2.5-3.4-5.9-3.4-5.9c-1.8-3.5-2.4-8.2-2.7-11.3c0,0,4.6-1.3,5.4-4.7c0.5-2-0.9-3.3-2.4-3.9c1,4.7-2.2,5.8-2.2,5.8
	c0.9-1.9,1.1-4.2,0.4-6.2c-0.7,0-1.5,0-2.2,0.1c0.7,5.4-2.5,6.3-2.5,6.3c0.8-2,0.9-4.2,0.2-6.2c-1.7-0.1-3.3,0.6-4.3,2l-0.1,0.2
	c-0.5,3.4,0.6,6.8,3,9.2c-1.2-0.3-2.3-1-3-2c0,1,0.1,2.1,0.1,3.3C133.5,45.6,133.5,45.9,133.5,46.1z"/>
<path class="st4" d="M159.2,42.8L159.2,42.8L159.2,42.8C159.2,42.7,159.2,42.8,159.2,42.8z"/>
<path class="st4" d="M158.8,42.4L158.8,42.4L158.8,42.4L158.8,42.4C158.8,42.4,158.8,42.4,158.8,42.4z"/>
<path class="st1" d="M157.6,56.9l-0.7,0c-2,0.9-3.4,2.8-3.7,4.9c0,0.2-0.1,0.4-0.1,0.7c-0.1,0.7-0.1,1.4-0.2,2.2
	c-0.1,0.8-0.2,1.6-0.4,2.3c0,0.1,0,0.1,0,0.1c0.7-0.2,1.4-0.5,2-0.8c0.8-0.5,1.4-1.2,1.8-2c0.4-1.1,0.9-2.2,1.6-3.2
	c0-0.4,0-0.7,0-1.1c0-1,0.3-2.1,0.8-3C158.3,57,158,56.9,157.6,56.9z"/>
<path class="st5" d="M144.2,45.2c1.1,0.4,0.6,2.2,1.3,3.9s3.6,2.1,4.8,1s2.5-1,4.2-0.4s1.8-1.3,1.8-1.3c-1.6,1-3.3-0.5-4.6-0.1
	s-2.9,1.4-3.8,0.4s0.1-3.3-1.4-4S144.2,45.2,144.2,45.2z"/>
<path class="st2" d="M161.4,43.7c1,0.1,2-0.5,2.4-1.4c-0.2-0.1-0.4-0.3-0.6-0.4c-0.1-0.1-0.2-0.2-0.3-0.2c0.1,0.1,0.1,0.3,0.1,0.4
	c0.1,0.5-0.3,1-0.9,1.1c0,0-0.1,0-0.1,0c-0.6,0-1-0.4-1-1c-0.1-0.5,0.3-1,0.9-1.1c0,0,0.1,0,0.1,0c-0.5-0.3-0.9-0.2-1.2,0.3
	c-0.2,0.3-0.4,0.6-0.6,0.9C160.3,42.6,160.7,43.4,161.4,43.7z"/>
<path class="st1" d="M133.5,111.8c4-1.3,5.9,1.4,5.9,1.4c-2-0.4-4-0.1-5.9,0.7v3c5.5-2.1,7.5,1.1,7.5,1.1c-2.5-0.3-5,0.3-7.1,1.7
	c0.3,2,1.7,3.6,3.5,4.3l0.2,0.1c2.4-0.3,4.7-1.2,6.6-2.8c1.2,0.6,2.3,1.4,3.1,2.5c0.8,1.6,1.5,3.2,1.5,3.2c1.5-1.3,2.2-3.4,1.8-5.3
	c0,0,2.2,2,1.3,7.2c0.9-1.4,1.6-2.8,2.1-4.4c1-4.5,0.4-9.1-1.6-13.2c0,0,3.3,3.3,4.3,6.8c0.8-1.6,1.4-5.5-0.9-10.8l2.9,1.3
	c0.5-2.9,1-3.5-0.4-5.7c-0.3-0.6-0.7-1.1-1.1-1.7c-3-1.3-7.8-3.3-8.8-3.4c-1.5-0.2-1.7,2.1-0.9,6c0.2,1,0.4,2,0.5,2.9
	c0,1.1,0,2.3,0.1,3.4c-0.1,1.5-0.8,2.9-1.9,3.9c-0.6,0.4-1.3,0.6-2,0.7c0,0-4.3-6.3-8.5-6.1c-0.9,0-1.7,0.3-2.3,0.9L133.5,111.8
	L133.5,111.8z"/>
<path class="st1" d="M135,84.6c-0.5-0.2-1-0.4-1.5-0.5V87c0.9,0.3,1.7,1,2.1,1.9c-0.7-0.2-1.4-0.4-2.1-0.4v4.9
	c2.8-0.2,5.4-1.5,7.3-3.6c0,0-0.3,3.2-4.2,5.3c1.4-0.2,2.6-0.9,5.2-1.6c3-1,5.5-3.2,6.8-6.2c0.2,2-0.4,3.9-1.8,5.4
	c1.4-0.3,4.3-2.3,6.4-4.6c1.1,2.3,2.6,4.9,3.8,7.7c1.5,3,3.6,7.5,4,9.3c0.4,2-1.6,3.8-1.7,6.7c0.1,3.8,2.1,5.8,4.3,6.5
	c2.8,0.9,5.2,2.3,6.1,4.2s-0.3,7.7-3.1,10c-0.9,0.8-1.5,1.7-2,2.7c-1.3-1.9-4.6-6-7.9-5.7c-2.5,0.2-3.7,2.4-4.1,4.6
	c5.3-3.1,7.5,0.6,7.5,0.6c-2.7-0.4-5.3,0.4-7.4,2c0.1,1,0.4,1.9,0.7,2.8c6.2-3.1,8.2,0.6,8.2,0.6c-2.7-0.2-5.3,0.6-7.4,2.2
	c0.4,1.9,1.2,3.9,3.4,4.7l0.2,0.1c2.1-0.4,4.9,0,8-4.3v-0.2c1.6-1,3.4-4.8,3.4-4.8c0.3,2.6,0.8,5.8,0.8,5.8
	c3.5-4.8,3.8-13.2,3.8-13.2c1.2,2.6,2.3,5.4,3.2,8.1c2.3-5.8,0.3-14.9,0.3-14.9c1.6,2,3.1,4,4.4,6.1c0,0,0.5-5.7-1.7-9.5
	s-4.4-6.1-4.4-7.8c0.2-1.2,0.5-2.3,0.8-3.4c1.3,1,3,1.4,4.7,1.1c3.7-1.2,4.9-1.6,8-8s1-13.3,1-13.3c-0.9,2.1-1.6,4.3-2.2,6.6
	c-0.6,2-1.6,3.9-2.9,5.5c0,0,0.2-5.1,0.2-9.4s0.6-5.1,2.5-9.6c1.1-2.7,1.3-5.7,0.6-8.6c-0.9,3.5-2.9,6.5-5.7,8.8
	c0,0-0.4-6.8,1.8-9.6c2.3-3,4-6.5,4.9-10.2c0.8-2.8,1.7-5.5,2.9-8.2c-7.2,2.5-7.6,7.4-7.6,7.4s-2.3-1.2,2.7-9.8
	c2.9-5.2,3.9-11.3,2.7-17.2c-0.1,2.8-1.3,5.4-3.5,7.2c-5.2,4.6-6.4,15.4-4.9,21.3s-3.1,14.7-2.1,19.6s5.5,16.4,2.2,22.1
	c-1.6,2.9-3.6,2.8-5.2,2.1c-0.1-0.4-0.3-0.9-0.6-1.2c-0.7-1.1-1.4-2.2-1.9-3.3l-0.1-0.1c-3.1-4-6.4-7-9.7-12.1
	c-3.1-4.7-3.4-8.5-3.3-10.2c-0.3,0.6-0.6,1.1-0.9,1.7c-1.2,2.3-3.1,5.3-6.8,6l-0.4,0.1l0,0l-0.4,0.1c-3.1,0.5-3.3-2.2-3.3-2.2
	c0.8,0.1,1.6,0,2.3-0.4c0.2-0.1,0.3-0.2,0.5-0.3l0,0c0.2-0.2,0.4-0.4,0.5-0.6c0.2-0.3,0.4-0.6,0.6-0.9c0.4-1,0.7-2,0.9-3.1
	c0.1-0.6,0.1-1.2,0.1-1.8c-0.6,1.1-1.2,2.2-2,3.2c-1.3,1.7-3.1,3-5.2,3.4c-0.4,0.1-0.9,0.2-1.4,0.2c-0.4,0-0.8,0-1.1-0.1l-2.4-0.5
	c-1.5,0.3-2.9,0.6-4.1,0.8c0,0-1.4-4-4.4-5V83C134.2,83.4,134.7,83.9,135,84.6z"/>
<path class="st1" d="M122.1,41.9c-1.6,2.2-3.2,2.3-3.2,2.3c2.4-2.4,3.5-5.8,3-9.2l-0.1-0.2c-1-1.4-2.6-2.1-4.3-2
	c-0.7,2-0.6,4.2,0.2,6.2c0,0-3.2-0.9-2.5-6.3c-0.7-0.1-1.5-0.2-2.2-0.1c-0.7,2-0.5,4.3,0.4,6.2c0,0-3.2-1.1-2.2-5.8
	c-1.5,0.6-2.8,1.9-2.4,3.9c0.8,3.5,5.4,4.7,5.4,4.7c-0.3,3.1-0.9,7.8-2.7,11.3c0,0-2,3.4-3.4,5.9c1.6,0.6,3,1.4,4.3,2.6
	c4.9-3,8.6-9.3,8.9-11c-1.2,1.1-2.8,1.7-4.4,1.8c2.4-1.4,4.1-4.2,5.1-6.3v-0.3C122,44.1,122,43,122.1,41.9z"/>
<path class="st4" d="M96,42.8C96,42.8,96,42.8,96,42.8L96,42.8z"/>
<path class="st4" d="M96.5,42.5L96.5,42.5L96.5,42.5L96.5,42.5L96.5,42.5z"/>
<path class="st1" d="M98.8,64.2c0.4,0.8,1.1,1.5,1.8,2c0.6,0.3,1.3,0.6,2,0.8c0,0,0,0,0-0.1c-0.2-0.8-0.3-1.5-0.4-2.3
	c-0.1-0.8-0.1-1.6-0.2-2.2c0-0.2-0.1-0.5-0.1-0.7c-0.3-2.1-1.7-4-3.7-4.9l-0.7,0c-0.4,0-0.7,0.1-1.1,0.1c0.5,0.9,0.7,2,0.8,3
	c0,0.4,0,0.7,0,1.1C97.9,62.1,98.4,63.2,98.8,64.2z"/>
<path class="st5" d="M103.6,48.3c-1.3-0.4-3,1.1-4.6,0.1c0,0,0.2,1.9,1.8,1.3s3-0.8,4.2,0.4s4.1,0.7,4.8-1s0.2-3.4,1.3-3.9
	c0,0-0.6-1.1-2.2-0.4s-0.6,3-1.4,4S104.9,48.7,103.6,48.3z"/>
<path class="st2" d="M93.8,43.7c0.7-0.2,1.2-1.1,1.3-1.5c-0.3-0.3-0.5-0.6-0.6-0.9c-0.3-0.5-0.7-0.5-1.2-0.3c0.6,0,1,0.4,1,1
	c0,0,0,0.1,0,0.1c0,0.6-0.4,1-1,1c-0.6,0-1-0.4-1-1c0,0,0-0.1,0-0.1c0-0.1,0-0.3,0.1-0.4l-0.3,0.2c-0.2,0.2-0.4,0.3-0.6,0.4
	C91.8,43.2,92.8,43.8,93.8,43.7z"/>
<path class="st1" d="M78.2,138.6c0.9-2.8,2-5.5,3.2-8.1c0,0,0.3,8.4,3.8,13.2c0,0,0.5-3.2,0.8-5.8c0,0,1.8,3.8,3.4,4.8v0.2
	c3.1,4.4,5.9,4,8,4.3l0.2-0.1c2.3-0.8,3-2.7,3.4-4.7c-2.1-1.6-4.7-2.4-7.4-2.2c0,0,1.9-3.8,8.2-0.6c0.3-0.9,0.6-1.9,0.7-2.8
	c-2.1-1.6-4.8-2.4-7.5-2c0,0,2.2-3.7,7.5-0.6c-0.3-2.2-1.6-4.4-4.1-4.6c-3.3-0.3-6.6,3.8-7.9,5.7c-0.5-1.1-1.2-2-2.1-2.7
	c-2.8-2.3-4-8.1-3.1-10s3.4-3.2,6.2-4.2c2.5-0.8,4.9-3.5,4.1-8.7c-0.6-1.7-1.6-3.1-1.3-4.5c0.5-1.7,1.1-3.4,1.9-5
	c1.4-4.1,3.8-8.5,5.5-12c2.2,2.3,5.4,4.9,6.8,5.3c-2.4-3.4-2.1-6.1-2.1-6.1c1.5,3.2,6,6.2,7.9,7c2.6,0.8,2.9,1.1,4.4,1.3
	c-2.3-1.2-4-3.3-4.6-5.8c1.9,2.1,4.6,3.4,7.5,3.6v-4.8c-0.8,0-1.5,0.2-2.3,0.4c0.4-1,1.3-1.7,2.3-2v-2.8c-0.6,0.1-1.2,0.3-1.7,0.5
	c0.4-0.7,1-1.3,1.7-1.7v-2.7c-3.2,0.8-4.6,5-4.6,5c-1.2-0.2-2.6-0.4-4-0.8L111,85c-0.8,0.2-1.7,0.2-2.5-0.1
	c-2.1-0.5-3.9-1.7-5.2-3.4c-0.8-1-1.4-2.1-2-3.2c0,0.6,0,1.2,0.1,1.8c0.1,1.1,0.4,2.1,0.9,3.1c0.2,0.3,0.4,0.6,0.6,0.9
	c0.2,0.2,0.3,0.4,0.5,0.6l0,0c0.1,0.1,0.3,0.2,0.5,0.3c0.7,0.4,1.5,0.5,2.3,0.4c0,0-0.2,2.7-3.3,2.2l-0.3-0.1l0,0l-0.4-0.1
	c-3.6-0.7-5.6-3.8-6.8-6c-0.4-0.6-0.7-1.1-0.9-1.7c0.1,1.7-0.2,5.6-3.3,10.3c-3.4,5-6.6,8.1-9.7,12c-0.6,1.2-1.2,2.3-2,3.4
	c-0.3,0.4-0.5,0.8-0.6,1.2c-1.6,0.8-3.6,0.8-5.2-2.1c-3.3-5.7,1.2-17.2,2.2-22.1s-3.5-13.7-2-19.7s0.3-16.7-4.9-21.3
	c-2.1-1.8-3.4-4.4-3.5-7.2c-1.2,5.9-0.3,12,2.7,17.2c4.9,8.6,2.7,9.8,2.7,9.8s-0.4-4.9-7.6-7.4c1.2,2.7,2.1,5.4,2.9,8.2
	c0.9,3.7,2.6,7.2,4.9,10.2c2.2,2.9,1.8,9.6,1.8,9.6c-2.8-2.2-4.8-5.3-5.8-8.8c-0.7,2.9-0.5,5.9,0.6,8.6c1.8,4.5,2.4,5.3,2.4,9.6
	s0.2,9.4,0.2,9.4c-1.3-1.6-2.3-3.5-2.9-5.5c-0.6-2.2-1.4-4.4-2.2-6.6c0,0-2,7,1,13.3s4.3,6.8,8,8c1.6,0.4,3.4,0,4.7-1.1
	c0.4,1.1,0.6,2.3,0.8,3.4c0,1.7-2.3,4-4.4,7.8s-1.7,9.5-1.7,9.5c1.4-2.1,2.9-4.2,4.4-6.1C77.9,123.7,75.9,132.7,78.2,138.6z"/>
<path class="st1" d="M115.9,113.2c0,0,1.9-2.8,6-1.3v-2.3c-0.7-0.7-1.6-1.1-2.5-1.1c-4.2-0.2-8.5,6.1-8.5,6.1c-0.7,0-1.4-0.3-2-0.7
	c-1.2-1-1.9-2.4-1.9-3.9c0.1-1.1,0.2-2.3,0.1-3.4c0.1-1,0.3-2,0.5-2.9c0.8-3.8,0.6-6.1-0.9-6c-1,0.1-5.4,1.9-8.4,3.2
	c-0.4,0.6-0.8,1.3-1.2,1.9c-1.3,2.1-0.9,2.8-0.4,5.6l2.9-1.3c-2.4,4-1.9,9.2-1.1,10.9c1-3.5,4.2-6.9,4.2-6.9
	c-1.8,3.9-2.1,11-1.5,13.3c0.5,1.5,1.3,3,2.2,4.4c-0.9-5.1,1.3-7.2,1.3-7.2c-0.4,2,0.3,4,1.8,5.3c0,0,0.7-1.6,1.5-3.2
	c0.8-1,1.9-1.9,3.1-2.4c1.9,1.5,4.1,2.5,6.6,2.8l0.2-0.1c1.9-0.7,3.2-2.3,3.6-4.3c-2.1-1.4-4.6-2-7.1-1.7c0,0,2-3.2,7.7-1v-3
	C120.1,113.1,117.9,112.8,115.9,113.2z"/>
<path class="st1" d="M113.7,146.9c-2.1,0.1-3.6,1.9-3.5,3.9c0.1,1.9,1.6,3.4,3.5,3.5c0.8,0,1.6-0.3,2.2-0.8h23.5
	c0.6,0.5,1.4,0.8,2.2,0.8c2.1-0.1,3.6-1.9,3.5-3.9c-0.1-1.9-1.6-3.4-3.5-3.5c-1.6,0-3,1.1-3.4,2.7h-20.9
	C116.7,148.1,115.3,147,113.7,146.9z"/>
<path class="st1" d="M132.2,136.7V56.1c0,0,0-2.6,0-5.8c0-1.6,0-3.3,0-4.8c-0.1-6.6-0.7-12.8-3.9-14.1v117h3.9V136.7z"/>
<path class="st4" d="M121.9,84.1v64.4H118c-0.3-0.6-0.8-1.2-1.3-1.6c-0.9-0.7-1.9-1-3-1c-2.7,0-4.9,2.2-4.9,4.9
	c0,2.7,2.2,4.9,4.9,4.9c0.9,0,1.8-0.3,2.6-0.8h7c-0.3,0.8-0.4,1.7-0.3,2.6c0.1,0.6,0.2,1.1,0.3,1.6l0.3,0.9c-0.5,1-0.8,2.1-0.6,3.1
	c0.1,0.6,0.2,1.1,0.3,1.6l0.3,0.8c-0.3,0.5-0.5,1-0.6,1.6l-0.1,0.5c-1.4,0.3-2.4,1.5-2.3,2.9c-0.1,1.5,1,2.9,2.5,3c0,0,0,0,0.1,0
	h8.9c1.6-0.3,2.7-1.8,2.5-3.4c-0.2-1.3-1.2-2.3-2.5-2.5h-0.5c1-0.9,1.3-2.3,1-4.3c-0.1-0.4-0.2-0.9-0.3-1.3l-0.2-0.6
	c0.6-1.1,0.8-2.5,0.5-3.7l0,0c-0.1-0.4-0.2-0.8-0.3-1.2l-0.2-0.7c0.1-0.1,0.1-0.2,0.2-0.3l0.4-0.7h6.4c0.8,0.5,1.7,0.8,2.6,0.8
	c2.7,0,4.9-2.2,4.9-4.9c0-2.7-2.2-4.9-4.9-4.9l0,0c-1.1,0-2.1,0.3-3,1c-0.6,0.4-1,1-1.3,1.6h-3.7v-36.7l0,0V56.1c0-0.1,0.1-5.4,0-10
	c0-0.2,0-0.5,0-0.7c0-1.2-0.1-2.3-0.1-3.3c-0.1-2-0.3-4-0.7-6c-0.7-3.2-2-5.1-3.8-5.9l-0.7-0.3v-0.4l-0.5,0.2l-0.5-0.2V30l-0.7,0.3
	c-1.8,0.7-3,2.7-3.7,5.9c-0.4,1.9-0.6,3.8-0.7,5.7c-0.1,1.1-0.1,2.2-0.1,3.5v0.3c-0.1,4.7,0,10.3,0,10.4L121.9,84.1L121.9,84.1z
	 M131.9,168.8c0.7,0,1.3,0.8,1.3,1.8s-0.6,1.8-1.3,1.8h-8.8c-0.7,0-1.3-0.8-1.3-1.8s0.6-1.8,1.3-1.8H131.9z M124.8,160.2
	c0.3-0.4,0.8-0.7,1.2-0.9l2.9-1.3l0.7-0.3c0.4-0.2,0.8-0.4,1.2-0.7l0.2-0.1c0.1,0.4,0.2,0.7,0.2,1.1c0.1,0.4,0.1,0.8,0.1,1.2
	c0.1,0.8-0.2,1.6-0.9,2.2c-1,0.7-2.1,1.2-3.3,1.6c-1,0.4-1.9,0.8-2.8,1.4c-0.1-0.5-0.2-0.9-0.3-1.4c0-0.2,0-0.4,0-0.5
	C124.1,161.6,124.3,160.8,124.8,160.2L124.8,160.2z M124.1,156.8c0-0.6,0.1-1.2,0.4-1.8h6.6c-0.1,0.3-0.3,0.5-0.6,0.7
	c-1,0.6-2.1,1.2-3.3,1.6c-1,0.4-1.9,0.8-2.8,1.4c-0.1-0.5-0.2-0.9-0.3-1.4C124.1,157.1,124.1,156.9,124.1,156.8L124.1,156.8z
	 M131.3,164.7c0.1,0.8-0.2,1.6-0.9,2.2l-0.7,0.4h-5.7c0.1-0.6,0.3-1.1,0.7-1.6c0.3-0.4,0.7-0.7,1.1-0.9l0.2-0.1l1.4-0.6l0.2-0.1h0.1
	c0.7-0.3,1.4-0.6,2.1-1h0.1c0.3-0.2,0.7-0.4,1-0.6c0.1,0.4,0.2,0.7,0.2,1.1C131.3,163.9,131.4,164.3,131.3,164.7L131.3,164.7z
	 M128.3,136.7V31.4c3.2,1.3,3.8,7.5,3.9,14.1c0,1.6,0,3.3,0,4.8c0,3.2,0,5.8,0,5.8v92.3h-3.9V136.7z M123.1,45.5
	c0.1-6.6,0.7-12.8,3.7-14.1v117h-3.7V56.1c0,0,0-2.6,0-5.7C123.1,48.8,123.1,47,123.1,45.5L123.1,45.5z M122.3,149.7H138
	c0.4-1.6,1.8-2.7,3.4-2.7c2.1,0.1,3.6,1.9,3.5,3.9c-0.1,1.9-1.6,3.4-3.5,3.5c-0.8,0-1.6-0.3-2.2-0.8h-23.4c-0.6,0.5-1.4,0.8-2.2,0.8
	c-2.1-0.1-3.6-1.9-3.5-3.9c0.1-1.9,1.6-3.4,3.5-3.5c1.6,0,3,1.1,3.4,2.7H122.3z"/>
<path class="st1" d="M123.2,57.8v90.6h3.7v-117c-3.1,1.2-3.6,7.5-3.7,14.1c0,1.6,0,3.3,0,4.9c0,3.1,0,5.7,0,5.7V57.8z"/>
<path class="st1" d="M121.8,170.6c0,1,0.6,1.8,1.3,1.8h8.8c0.7,0,1.3-0.8,1.3-1.8s-0.6-1.8-1.3-1.8h-8.8
	C122.4,168.8,121.8,169.6,121.8,170.6z"/>
<path class="st1" d="M130,163h-0.1c-0.7,0.4-1.4,0.7-2.1,1h-0.1l-0.2,0.1l-1.4,0.6l-0.2,0.1c-0.4,0.2-0.8,0.5-1.1,0.9
	c-0.4,0.5-0.6,1-0.7,1.6h5.6l0.7-0.4c0.6-0.5,1-1.3,0.9-2.2c0-0.4,0-0.8-0.1-1.2c-0.1-0.4-0.1-0.7-0.2-1.1
	C130.7,162.6,130.4,162.8,130,163z"/>
<path class="st4" d="M132.5,163.3L132.5,163.3z"/>
<path class="st1" d="M127.2,157.3c1.1-0.4,2.2-1,3.3-1.6c0.2-0.2,0.4-0.4,0.6-0.7h-6.6c-0.3,0.6-0.4,1.2-0.4,1.8c0,0.2,0,0.3,0,0.5
	c0,0.5,0.1,0.9,0.3,1.4C125.3,158.1,126.2,157.7,127.2,157.3z"/>
<path class="st1" d="M124.2,163c0,0.5,0.1,0.9,0.3,1.4c0.9-0.5,1.8-1,2.8-1.4c1.1-0.4,2.2-1,3.3-1.6c0.6-0.5,1-1.3,0.9-2.2
	c0-0.4,0-0.8-0.1-1.2c-0.1-0.4-0.1-0.7-0.2-1.1l-0.2,0.1c-0.4,0.3-0.8,0.5-1.2,0.7l-0.7,0.3l-2.9,1.3c-0.5,0.2-0.9,0.6-1.2,0.9
	c-0.5,0.6-0.8,1.4-0.7,2.3C124.1,162.6,124.1,162.8,124.2,163z"/>
<path class="st2" d="M38.3,161.6c0.1-1.9,1.2-3.6,2.9-4.4c2.9-1.6,6.6,0.6,10.5,2.8l0.7,0.4c3.5,2,4.6,1.4,5.7,0.8l0.8-0.8l0.8-1.3
	l-26.3-22.8l-0.2,10.2v0.9h-0.9l-11.8,0.4l18,15.3C38.5,162.6,38.3,162.1,38.3,161.6z"/>
<path class="st2" d="M212.2,165.1c1.8-1,2.8-2.2,2.8-3.5c-0.1-1.2-0.8-2.2-1.9-2.8c-2-1.1-5.2,0.8-8.7,2.8l-0.7,0.4
	c-2.6,1.5-4.3,1.8-5.6,1.5l4.1,6.8C207,167.9,210.8,165.9,212.2,165.1z"/>
<rect x="64.5" y="186.4" transform="matrix(0.4253 -0.905 0.905 0.4253 -132.1216 167.858)" class="st2" width="3.3" height="3.1"/>
<rect x="169.3" y="195.1" transform="matrix(0.9085 -0.4179 0.4179 0.9085 -67.5564 89.5969)" class="st2" width="3.1" height="8"/>
<path class="st2" d="M213.2,166.7c-5.1,2.9-38.8,20-50.1,25.3c-14.8,6.8-26.1,10.4-34.6,10.8l0,0h-0.8h-0.8l0,0
	c-8.5-0.4-19.8-3.9-34.6-10.8c-11.3-5.2-45-22.4-50.1-25.3c-0.8-0.5-1.6-1-2.2-1.7l-9.8,16.8c1.6,1.2,7.2,5,24,13l6.2,2.9
	c21.8,10.4,51.6,24.6,67.4,24.4c15.8,0.3,45.6-14,67.4-24.4l6.2-2.9c16.8-8,22.4-11.8,24-13l-9.8-16.8
	C214.7,165.7,214,166.3,213.2,166.7z"/>
<rect x="178.8" y="190.4" transform="matrix(0.9009 -0.434 0.434 0.9009 -65.4231 97.2904)" class="st2" width="3.1" height="3.2"/>
<rect x="141.7" y="206" transform="matrix(0.9544 -0.2984 0.2984 0.9544 -55.4244 52.1923)" class="st2" width="3.1" height="3.2"/>
<polygon class="st2" points="126.9,214.2 128.7,214.2 127.7,210.6 "/>
<polygon class="st2" points="102.5,207.8 103,204 100.7,207.1 "/>
<path class="st2" d="M51.6,162.1l-0.8-0.4c-3.4-2-6.7-3.9-8.7-2.8c-1.1,0.5-1.8,1.6-1.9,2.8c0,1.2,0.9,2.4,2.8,3.5
	c1.5,0.8,5.2,2.8,10.2,5.4l4-6.8C55.9,163.8,54.2,163.6,51.6,162.1z"/>
<path class="st2" d="M221.8,147.4v-0.9l-0.1-10.2l-26.3,22.8l0.9,1.6l1,0.6c1.1,0.6,1.9,1.1,5.4-0.9l0.7-0.4
	c3.9-2.3,7.6-4.4,10.5-2.8c1.7,0.8,2.8,2.5,2.9,4.4c0,0.5-0.1,1.1-0.3,1.6l18-15.3l-11.8-0.4L221.8,147.4z"/>
<path class="st1" d="M223.7,145.6l-0.2-11.3v-2l-1.5,1.3l-28.4,24.7l-0.6,0.5l0.4,0.7l7,11.8c-12.3,6.3-30.4,15.4-38.1,19
	c-15,6.9-26.3,10.4-34.6,10.6c-8.3-0.2-19.6-3.7-34.6-10.6c-7.7-3.6-25.8-12.7-38.1-19l7-11.8l0.4-0.7l-0.6-0.5l-28.4-24.7l-1.5-1.3
	v2l-0.2,11.3L18.2,146l-2.5,0.1l1.9,1.6l20.2,17.1L28,181.5l-0.4,0.6l0.5,0.5c0.1,0.1,3.8,3.7,25.1,13.8l6.2,2.9
	c21.9,10.4,51.8,24.8,68.1,24.6h0.2c16.3,0.2,46.2-14.1,68.1-24.6l6.2-2.9c21.3-10.1,24.9-13.7,25.1-13.8l0.5-0.5l-0.4-0.6
	l-9.7-16.6l20.1-17.1l1.9-1.6l-2.4-0.1L223.7,145.6z M198,163.6c1.3,0.2,3,0,5.6-1.5l0.7-0.4c3.4-2,6.7-3.9,8.7-2.8
	c1.1,0.5,1.8,1.6,1.9,2.8c0,1.2-0.9,2.4-2.8,3.5c-1.4,0.8-5.2,2.8-10.2,5.4L198,163.6z M53.2,170.4c-4.9-2.5-8.7-4.5-10.2-5.4
	c-1.8-1-2.8-2.2-2.8-3.5c0.1-1.2,0.8-2.2,1.9-2.8c2-1.1,5.2,0.8,8.7,2.8l0.8,0.4c2.6,1.5,4.3,1.8,5.6,1.5L53.2,170.4z M20.7,147.9
	l11.8-0.4h0.9v-0.9l0.2-10.2l26.2,22.8l-0.8,1.3l-0.8,0.8c-1.1,0.6-2.2,1.2-5.7-0.8l-0.7-0.4c-3.9-2.3-7.6-4.4-10.5-2.8
	c-1.7,0.8-2.8,2.5-2.9,4.4c0,0.5,0.1,1.1,0.3,1.6L20.7,147.9z M225.1,181.8c-1.6,1.2-7.2,5-24,13l-6.1,2.9
	c-21.8,10.4-51.6,24.6-67.4,24.4c-15.8,0.3-45.6-14-67.4-24.4l-6.2-2.9c-16.8-8-22.4-11.8-24-13l9.7-16.8c0.7,0.7,1.4,1.2,2.2,1.7
	c5.1,2.9,38.8,20,50.1,25.3c14.8,6.8,26.1,10.4,34.6,10.8l0,0h0.8h0.8l0,0c8.5-0.4,19.9-3.9,34.6-10.8c11.3-5.2,45-22.4,50.1-25.3
	c0.8-0.5,1.6-1,2.2-1.7L225.1,181.8z M216.6,163.1c0.2-0.5,0.3-1,0.3-1.6c-0.1-1.9-1.2-3.6-2.9-4.4c-2.9-1.6-6.6,0.6-10.5,2.8
	l-0.7,0.4c-3.5,2-4.3,1.5-5.4,0.9l-1-0.6l-0.9-1.6l26.2-22.8l0.1,10.2v0.9h0.9l11.8,0.4L216.6,163.1z"/>
<path class="st1" d="M152.2,46c0.4,0,0.8-0.1,1.1-0.2c0.5-0.3,1-0.7,1.3-1.2c0.4-0.5,0.7-0.9,1.3-1h0.2c1.1,0.1,1.3,2.8,1.3,3.7
	c0,0.7,0,1.3-0.1,2c-0.2,1.5-1.7,2.5-3.9,2.6c-0.7,0-1.3,0-2-0.2c-0.6-0.1-1.1-0.2-1.7-0.1c-1.5,0.1-2.4,0.7-2.4,1.5
	c0,0.3,0.1,0.7,0.3,1c0.3,0.6,0.9,1,1.6,0.9c0.5,0,0.9-0.1,1.3-0.3c0.6-0.2,1.3-0.3,2-0.4c0.4,0,0.7,0,1.1,0h0.3
	c0.9,0,1.7,0.1,2.6,0.3l0.4,0.1c0.8,0.1,1.6,0.2,2.3,0.1l0.3-0.1c0.6-0.1,1.1-0.5,1.4-1c0.5-1,0.5-2.2,0.1-3.3l0.3-0.1
	c0,0,0.1,0.1,0.1,0.3c0.4,0.7,0.6,1.4,0.7,2.1c0.1,0.9-0.1,1.8-0.7,2.5l0,0c-0.1,0.1-0.3,0.3-0.4,0.4c-0.3,0.3-0.6,0.4-1,0.5l0,0
	l0,0c-0.6,0.8-1,1.7-1.2,2.7c-0.1,0.6-0.1,1.2,0,1.8c0.1,0.7,0.3,1.4,0.4,2.1c0.3,1.1,0.5,2.3,0.5,3.5c0,0.3,0,0.6-0.1,0.8l0.7-0.7
	l0.3-0.4l0.1-0.1l0,0l0,0l0.1-0.1l0.6-0.7c0.3-0.3,0.6-0.7,0.9-1c0.3-0.4,0.5-0.8,0.7-1.2c0.1-0.3,0.2-0.7,0.3-1
	c0-0.1,0.1-0.3,0.1-0.4c0-0.1,0-0.2,0-0.3s-0.2-0.5-0.2-0.7c-0.3-1.1-0.3-2.2,0.1-3.2c0.4-1.4,0.4-2.9-0.2-4.3l0.3-0.2
	c0.4,0.4,0.6,0.8,0.9,1.2c0.3,0.6,0.5,1.3,0.5,2c0,0.6,0,1.2-0.2,1.7c-0.2,0.7-0.2,1.5,0,2.2c0,0.2,0.1,0.5,0.2,0.7
	c0.3,0.8,0.8,1.6,1.3,2.3l0,0v-0.1c0-0.1,0-0.1,0-0.2c0.1-0.5,0.2-1.1,0.4-1.6l0,0c0,0,0-0.1,0-0.1c0.2-0.6,0.5-1.2,0.8-1.8
	c0.9-1.6,1.5-3.4,1.6-5.2c0-1.2-0.3-2.4-0.7-3.6l0.3-0.1c0.9,1.5,1.4,3.2,1.5,5c-0.1,1.7-0.4,2.4-1.5,4.5c-0.4,1-0.7,1.9-1,2.9
	c-0.2,1.2-0.2,2.5,0,3.7l0.1,0.3l-0.3-0.2c-1.1-1-2-2.1-2.8-3.4c-0.3,1-0.8,2-1.5,2.8c-0.6,0.6-0.9,1-1.2,1.4s-0.6,0.7-1,1.2
	s-1.4,1.3-2.4,2.3l-0.4,0.4l0.2-0.6l0.1-0.2c0-0.1,0.1-0.3,0.1-0.4c0.3-1.7,0.3-3.5,0-5.2l-0.2-0.7c-0.1-0.2-0.1-0.5-0.2-0.8
	c-0.3,0.5-0.5,1-0.7,1.6c-0.1,0.2-0.1,0.3-0.2,0.5c-0.2,0.3-0.3,0.5-0.6,0.8l0,0l0,0l-0.1,0.1l-0.1,0.1h-0.1l0,0l-0.1,0.1
	c-0.2,0.2-0.4,0.3-0.6,0.4c-1.5,1-3.2,1.6-4.9,1.9h-0.3l0.1-0.3c0.6-1.3,0.9-2.6,1-4c0-1.9,0.4-3.9,1.3-5.6h-0.1
	c-1,0.2-2.4,0.5-3.7,1c-3.6,1.1-5.7,2.6-6.4,4.5c-0.4,1.1-0.7,2.2-1,3.3c-0.2,1.2-0.7,2.3-1.4,3.2c1.4-0.4,2.5-1.5,3.1-2.8
	c1.1-2.2,2.5-4.7,5.5-5.7c0.6-0.2,1.2-0.3,1.8-0.4l0.1,0.3c-0.8,0.4-1.5,0.9-2.2,1.4c-1.3,1-2.4,2.2-3.1,3.7
	c-0.6,1.1-1.1,2.3-1.4,3.5c-0.2,0.7-0.3,1.6-0.5,2.5c-0.3,1.9-0.7,3.9-1.2,4.7c-0.5,0.7-1.2,1.2-2,1.5h-0.1l0.1,0.1
	c1,0.4,2.2,0.2,3.1-0.5c1.2-0.8,2.1-2,2.3-3.5c0-0.2,0.1-0.4,0.1-0.5c0.3-1,2.4-4.9,4.3-6.3l0.2,0.2c-1.7,2.5-2.1,4.9-2.5,7.4
	c-0.1,0.9-0.3,1.8-0.5,2.8c-0.6,2.9-1.7,4.1-2.3,4.6c0.5,0.1,1,0,1.4-0.1c3.8-0.7,5.8-4.8,7.1-7.4c0,0,0-0.1,0-0.1
	c0.9-2.2,1.4-4.4,1.6-6.8c0-0.1,0-0.2,0-0.3l0.3-0.1c0.5,2.1,0.5,4.2-0.2,6.2v0.1c0,0,0,0.1,0,0.1c0,0.4,0,0.8,0.1,1.1
	s0.1,0.8,0.1,1.3c0,0.8,0,1.7-0.1,2.5c-0.2,1.2-0.5,2.4-1,3.6c-0.4,0.7-0.9,1.4-1.4,1.9c-0.2,0.2-0.4,0.3-0.7,0.5
	c0.3,0,0.5-0.1,0.8-0.1c2.4-0.5,4.2-2.1,5.8-5.4c0.5-0.7,0.9-1.5,1.2-2.3c0.6-2,0.9-4,1-6.1c0-0.8,0-1.7,0-2.5c0-0.1,0-0.3-0.1-0.4
	l0.3-0.1c0.9,2.3,1.1,4.8,0.6,7.2c0.7,6.4,3.4,8.9,4.4,9.7c-0.3-1-0.4-2-0.4-3c0-1.7,0.1-3.4,0.5-5.1c0.1-0.8,0.3-1.7,0.3-2.5
	c0.2-6.4-2.6-10-2.6-10l0.2-0.2c0.1,0.1,0.2,0.2,0.3,0.3l0,0c1.9,1.7,3.1,4.1,3.4,6.7c0.1,0.5,0.2,1.1,0.2,1.7
	c0.3,3,3.4,4.2,4.4,4.5c-0.3-1-0.5-2.1-0.5-3.2c0-1,0-2,0-3.1c0-0.8,0-1.7,0-2.6c0-1.3-0.4-2.6-1-3.7c-0.7-1.6-1.8-3-3.2-4l0.1-0.3
	c1.8,0.6,3.3,1.8,4.3,3.4l0.1,0.2l0,0l0,0c0.5,1.1,1.4,2.1,2.5,2.8c0.9,0.6,2.1,0.8,3.2,0.6c-1.3-1-1.6-2.4-2.1-5l-0.1-0.4
	c-0.2-1.3-0.9-2.4-1.9-3.2l-0.4-0.4c-1.2-0.8-2-2.1-2.4-3.4c-0.3-1.1-0.4-2.2-0.2-3.3h0.3c0.1,1.7,0.7,3.3,1.9,4.5
	c0.8,0.4,1.7,0.6,2.5,0.5c0.5,0,1-0.1,1.5-0.2c-2.9-2.9-3.3-7-3.6-10l-0.1-0.9c-0.1-0.7-0.3-1.3-0.6-1.9l0,0l0,0
	c-0.1-0.2-0.2-0.3-0.2-0.5l-0.1-0.2l0.2-0.1c1.4-0.7,2.4-1.9,2.7-3.4c-0.6,0.5-1.3,0.7-2.1,0.8c-0.2,0-0.4,0-0.6,0h-0.1
	c-0.2,0-0.4-0.1-0.5-0.2l-0.1-0.1l0.1-0.1c0.4-0.8,0.5-1.8,0.5-2.7c0-0.2,0-0.3,0-0.5c-0.5,0.7-1.3,1.1-2.1,1.1
	c-0.8,0-1.7-0.1-2.5-0.3l-0.9-0.2c-1.9-0.4-3.8-0.6-5.8-0.6c-1.1,0.2-2.2,0.4-3.2,0.8c-1.1,0.4-2.2,0.7-3.4,0.9
	c-0.2,0-0.5,0-0.7-0.1c-0.3-0.1-0.6-0.2-0.9-0.3c-0.7-0.4-1.5-0.5-2.2-0.5c-0.3,0-0.7,0.1-1,0.2c-1.2,0.3-1.4,1-1.5,2.2
	c1.5,0.6,3.3,0.1,4.2-1.2l0.3-0.4V40c0,1.1-0.7,2.1-1.8,2.5h-0.1l-0.2,0.1l0,0c-0.9,0.2-1.8,0.2-2.6-0.1c-0.1,0.4-0.1,0.7-0.2,1
	c0,0.2,0,0.3,0,0.5c0,0.4,0.2,0.8,0.5,1.1C149.7,45.8,150.9,46.1,152.2,46z M167.9,45.4c1-1.7,1.9-2.6,2.8-2.8l0.1,0.3
	c0,0-0.9,0.6-1.9,2.9c-1,2.2-2.1,3.2-3.8,3.5s-4.2,0-5.3-1.2l0.2-0.3c1.4,0.5,2.8,0.6,4.3,0.4C166.3,47.9,167,47.1,167.9,45.4z
	 M158.8,42.4L158.8,42.4c0.5-0.3,0.9-0.7,1.2-1.2c0.8-1.2,1-1.5,1.6-1.4s0.8,0.4,1.4,0.9c0.5,0.6,1.3,1.1,2.1,1.2
	c0.8,0,1.3-0.5,1.1-1.1c0.3,0.2,0.5,0.6,0.6,0.9c0,0.6-0.3,0.8-0.9,1c-0.6,0-1.2-0.1-1.7-0.4c0,0,0,0.1,0,0.1
	c-0.2,0.5-0.6,1-1.1,1.3c-0.6,0.4-1.4,0.5-2.1,0.3c-0.6-0.2-1.1-0.5-1.5-1.1l0,0v-0.1l-0.1-0.1V43c0,0,0-0.1-0.1-0.1l0,0l0,0
	c0,0,0,0,0,0v-0.1l0,0l0,0v-0.1H159l0,0L158.8,42.4z"/>
<polygon class="st1" points="160.3,56.2 160.3,56.2 160.3,56.2 "/>
<path class="st3" d="M160,47.9l-0.2,0.3c1.1,1.2,3.5,1.6,5.3,1.2s2.8-1.4,3.8-3.5c1-2.3,1.9-2.9,1.9-2.9l-0.1-0.3
	c-0.9,0.1-1.8,1.1-2.8,2.8s-1.6,2.4-3.6,2.8C162.8,48.5,161.4,48.4,160,47.9z"/>
<path class="st1" d="M80.2,68c1-0.7,1.9-1.6,2.5-2.7l0,0l0,0l0.1-0.2c1-1.6,2.5-2.8,4.2-3.5l0.1,0.3c-1.4,1-2.5,2.4-3.2,4
	c-0.6,1.1-1,2.4-1,3.7c0,0.8,0,1.7,0,2.6c0,1.1,0,2.1,0,3.1c0,1.1-0.2,2.1-0.5,3.2c1-0.3,4.1-1.5,4.4-4.5c0.1-0.6,0.1-1.2,0.2-1.7
	c0.3-2.6,1.5-5,3.4-6.7l0,0c0.1-0.1,0.2-0.2,0.3-0.3l0.2,0.2c0,0-2.8,3.6-2.6,10c0.1,0.8,0.2,1.6,0.3,2.5c0.3,1.6,0.5,3.3,0.5,5
	c0,1-0.2,2-0.4,3c1-0.7,3.7-3.3,4.4-9.6c-0.5-2.4-0.3-4.9,0.6-7.2l0.3,0.1c0,0.2-0.1,0.3-0.1,0.4c0,0.9,0,1.7,0,2.6
	c0.1,2.1,0.4,4.1,1,6.1c0.3,0.8,0.7,1.6,1.2,2.3c1.7,3.2,3.5,4.9,5.8,5.4c0.3,0.1,0.5,0.1,0.8,0.1c-0.2-0.1-0.5-0.3-0.7-0.5
	c-0.2-0.2-0.5-0.5-0.7-0.7c-0.3-0.4-0.6-0.8-0.8-1.2c-0.5-1.1-0.8-2.3-1-3.5c-0.1-0.8-0.1-1.7-0.1-2.5c0-0.4,0-0.9,0.1-1.3
	s0.1-0.8,0.1-1.2c0,0,0-0.1,0-0.1v-0.1c-0.7-2-0.8-4.2-0.2-6.2L100,69c0,0.1,0,0.2,0,0.3c0.2,2.3,0.7,4.6,1.6,6.8l0.1,0.1
	c1.3,2.7,3.3,6.7,7.2,7.4c0.5,0.1,0.9,0.2,1.4,0.1c-0.6-0.4-1.7-1.7-2.3-4.6c-0.2-1-0.3-1.9-0.5-2.8c-0.4-2.5-0.7-4.9-2.5-7.4
	l0.2-0.2c1.9,1.4,4,5.3,4.3,6.3c0.1,0.2,0.1,0.3,0.1,0.5c0.2,1.4,1.1,2.7,2.3,3.5c0.9,0.6,2,0.8,3,0.5l0.1-0.1h-0.1
	c-0.8-0.3-1.5-0.8-2-1.5c-0.6-0.8-0.9-2.8-1.2-4.7c-0.2-0.9-0.3-1.8-0.5-2.5c-0.3-1.3-0.7-2.5-1.3-3.6c-0.7-1.5-1.8-2.7-3.1-3.7
	c-0.7-0.5-1.4-1-2.1-1.5l0.1-0.3c0.6,0.1,1.2,0.2,1.8,0.4c3,1,4.4,3.5,5.5,5.7c0.6,1.4,1.7,2.4,3.1,2.8c-0.7-0.9-1.2-2.1-1.4-3.2
	c-0.3-1.1-0.6-2.2-1-3.3c-0.7-1.9-2.8-3.4-6.4-4.5c-1.3-0.4-2.7-0.8-3.7-1h-0.1c0.9,1.7,1.3,3.7,1.3,5.6c0.1,1.4,0.4,2.7,1,4
	l0.1,0.3h-0.3c-1.8-0.2-3.4-0.9-4.9-1.9c-0.2-0.1-0.5-0.3-0.7-0.4c0,0-0.1-0.1-0.1-0.1l0,0h-0.1l-0.1-0.1l-0.1-0.1l0,0l0,0
	c-0.2-0.2-0.4-0.5-0.6-0.8c-0.1-0.2-0.2-0.3-0.2-0.5c-0.2-0.5-0.5-1-0.7-1.5c-0.1,0.3-0.1,0.5-0.2,0.8l-0.2,0.7
	c-0.3,1.7-0.3,3.5,0,5.2c0,0.2,0.1,0.3,0.1,0.5l0.1,0.2c0,0,0.2,0.6,0.2,0.6l-0.4-0.4c-1-0.9-1.9-1.8-2.4-2.3s-0.7-0.8-1-1.2
	s-0.6-0.8-1.2-1.4c-0.7-0.8-1.2-1.8-1.5-2.8c-0.8,1.2-1.7,2.4-2.8,3.4l-0.3,0.2l0.1-0.3c0.3-1.2,0.3-2.5,0-3.7c-0.3-1-0.6-2-1-2.9
	c-1.1-2.2-1.3-2.8-1.5-4.6c0-1.8,0.5-3.5,1.4-5l0.3,0.1c-0.4,1.1-0.7,2.4-0.7,3.6c0.2,1.8,0.7,3.6,1.6,5.2c0.3,0.6,0.6,1.2,0.8,1.8
	c0,0,0,0.1,0,0.1l0,0c0.2,0.5,0.3,1.1,0.4,1.6v0.3l0,0c0.5-0.7,1-1.5,1.3-2.3c0.1-0.2,0.2-0.5,0.2-0.7c0.2-0.7,0.2-1.5,0-2.2
	c-0.1-0.6-0.2-1.1-0.2-1.7c0-0.7,0.2-1.4,0.4-2c0.2-0.5,0.5-0.9,0.9-1.2l0.3,0.2c-0.6,1.4-0.6,2.9-0.2,4.3c0.3,1,0.4,2.2,0.1,3.2
	c-0.1,0.2-0.2,0.5-0.2,0.7c0,0.1,0,0.2,0,0.3c0,0.1,0,0.3,0.1,0.4c0.1,0.3,0.2,0.7,0.3,1c0.2,0.4,0.5,0.8,0.8,1.2l0.9,1
	c0,0,0.6,0.7,0.6,0.7l0.1,0.1l0,0l0,0l0.1,0.1l0.3,0.3l0.7,0.7c0-0.3-0.1-0.6-0.1-0.8c0-1.2,0.2-2.3,0.5-3.5
	c0.2-0.7,0.4-1.4,0.4-2.2c0.1-0.6,0.1-1.2,0-1.8C96,57.8,95.6,57,95,56.3l0,0l0,0c-0.3-0.1-0.7-0.3-0.9-0.5
	c-0.1-0.1-0.3-0.2-0.4-0.4l0,0l0,0c-0.6-0.7-0.8-1.6-0.7-2.5c0.1-0.7,0.3-1.5,0.7-2.1c0.1-0.2,0.1-0.3,0.1-0.3l0.3,0.1
	c-0.4,1.1-0.3,2.2,0.1,3.3c0.3,0.5,0.8,0.9,1.4,1l0.3,0.1c0.8,0.1,1.6,0.1,2.3-0.1l0.4-0.1c0.8-0.2,1.7-0.3,2.6-0.3
	c0.1,0,0.2,0,0.3,0c0.4,0,0.7,0,1.1,0c0.7,0.1,1.4,0.2,2,0.4c0.4,0.1,0.9,0.2,1.3,0.3c0.7,0,1.3-0.3,1.6-0.9c0.2-0.3,0.3-0.6,0.3-1
	c0-0.9-0.9-1.5-2.4-1.5c-0.6,0-1.2,0-1.7,0.1c-0.7,0.1-1.3,0.2-2,0.2c-2.1-0.1-3.6-1.1-3.8-2.6c-0.1-0.7-0.1-1.3-0.1-2
	c0-0.8,0.2-3.5,1.3-3.7h0.2c0.6,0,0.9,0.5,1.3,1c0.3,0.5,0.8,0.9,1.3,1.2c0.3,0.1,0.7,0.1,1.1,0c1.3,0.1,2.6-0.2,3.7-1
	c0.3-0.3,0.5-0.7,0.5-1.1c0-0.2,0-0.3,0-0.5c-0.1-0.3-0.1-0.7-0.2-1c-0.8,0.3-1.8,0.4-2.6,0.1l0,0l-0.2-0.1h-0.1
	c-1.1-0.3-1.8-1.3-1.8-2.5v-0.5l0.3,0.4c1,1.3,2.7,1.8,4.2,1.2c-0.1-1.3-0.3-2-1.5-2.2c-0.3-0.1-0.7-0.1-1-0.2
	c-0.8,0-1.5,0.2-2.2,0.5c-0.3,0.1-0.6,0.2-0.9,0.3c-0.2,0.1-0.5,0.1-0.7,0.1c-1.2-0.2-2.3-0.5-3.4-0.9c-1-0.4-2.1-0.7-3.2-0.8
	c-1.9,0-3.9,0.2-5.8,0.6l-0.9,0.2c-0.8,0.2-1.7,0.3-2.5,0.3c-0.8,0-1.6-0.4-2-1.1c0,0.2,0,0.3,0,0.5c-0.1,0.9,0.1,1.8,0.4,2.6
	l0.1,0.1L83,41.2c-0.2,0.1-0.3,0.1-0.5,0.2l0,0c-0.2,0-0.4,0-0.6,0c-0.8-0.1-1.5-0.3-2.1-0.8c0.3,1.5,1.3,2.8,2.7,3.4l0.2,0.1
	l-0.1,0.2c-0.1,0.1-0.2,0.3-0.2,0.5l0,0l0,0c-0.3,0.6-0.5,1.3-0.6,1.9l-0.1,0.9c-0.3,3-0.8,7-3.6,10c0.5,0.1,1,0.2,1.4,0.2
	c0.9,0.1,1.7-0.1,2.5-0.5c1.2-1.2,1.9-2.8,2-4.5h0.3c0.1,1.1,0,2.2-0.3,3.3c-0.4,1.4-1.3,2.6-2.4,3.4l-0.4,0.4
	c-1,0.8-1.7,1.9-1.9,3.2l-0.1,0.4c-0.5,2.6-0.8,4-2.1,5C78.1,68.7,79.3,68.6,80.2,68z M89,40.9c-0.2,0.5,0.3,1.1,1.1,1.1
	c0.8-0.1,1.6-0.5,2.2-1.2c0.6-0.5,0.7-0.8,1.4-0.9s0.8,0.2,1.6,1.4c0.3,0.5,0.7,0.9,1.2,1.2l0,0h0.1l0,0h-0.4v0.1l0,0l0,0v0.1
	c0,0,0,0,0,0l0,0l0,0L96,42.7v0.1L96,42.9v0.1l0,0c-0.3,0.5-0.9,0.9-1.5,1.1c-0.7,0.2-1.5,0.1-2.1-0.3c-0.5-0.3-0.9-0.8-1.1-1.3
	c0,0,0-0.1,0-0.1c-0.5,0.2-1.1,0.4-1.7,0.4c-0.7-0.1-1-0.4-0.9-1C88.7,41.3,88.8,41.1,89,40.9z M84.5,43l0.1-0.3
	c0.9,0.1,1.8,1.1,2.8,2.8s1.6,2.4,3.7,2.8c1.4,0.2,2.9,0.1,4.3-0.4l0.2,0.3c-1.1,1.2-3.5,1.6-5.3,1.2s-2.9-1.4-3.8-3.5
	C85.3,43.5,84.5,43,84.5,43L84.5,43z"/>
<path class="st1" d="M94.2,65.9L94.2,65.9z"/>
<path class="st3" d="M86.3,45.9c1,2.2,2.1,3.2,3.8,3.5s4.2,0,5.3-1.2l-0.2-0.3c-1.4,0.5-2.8,0.6-4.3,0.4c-2-0.4-2.7-1.2-3.6-2.8
	s-1.9-2.6-2.8-2.8L84.5,43l0,0C84.5,43,85.3,43.5,86.3,45.9z"/>
<path class="st6" d="M159.1,42.5L159.1,42.5L159.1,42.5L159.1,42.5v0.2v0l0,0c0,0,0,0.1,0.1,0.1v0.1l0.1,0.1V43l0,0
	c0.4,0.6,1,1.1,1.8,1.2c0.7,0.2,1.5,0.1,2.1-0.3c0.5-0.3,0.9-0.8,1.1-1.3c0,0,0-0.1,0-0.1c0.5,0.2,1.1,0.4,1.7,0.4
	c0.6-0.1,1-0.4,0.9-1c-0.1-0.4-0.3-0.7-0.6-0.9c0.2,0.5-0.3,1.1-1.1,1.1c-0.8-0.1-1.6-0.5-2.1-1.1c-0.6-0.5-0.7-0.8-1.4-0.9
	s-0.8,0.2-1.6,1.4c-0.3,0.5-0.7,0.9-1.1,1.2c-0.1,0-0.1,0-0.1,0L159.1,42.5z M160.8,41.3c0.3-0.5,0.7-0.5,1.2-0.3c-0.6,0-1,0.4-1,1
	c0,0,0,0.1,0,0.1c0,0.6,0.4,1,1,1c0.6,0,1-0.4,1.1-0.9c0,0,0-0.1,0-0.1c0-0.1,0-0.3-0.1-0.4c0.1,0.1,0.2,0.1,0.3,0.2
	c0.2,0.2,0.4,0.3,0.6,0.4c-0.4,1-1.3,1.5-2.4,1.4c-0.7-0.2-1.1-1.1-1.3-1.5C160.4,41.9,160.6,41.6,160.8,41.3z"/>
<path class="st6" d="M89.3,42.8c0.6,0,1.2-0.1,1.7-0.4c0,0,0,0.1,0,0.1c0.2,0.5,0.6,1,1.1,1.3c0.6,0.4,1.4,0.5,2.1,0.3
	c0.6-0.2,1.1-0.5,1.5-1.1l0,0v-0.1l0.1-0.1v-0.1l0.1-0.1l0,0v0v-0.1l0,0l0,0v-0.1h0.4l0,0c-0.5-0.3-0.9-0.7-1.2-1.2
	c-0.8-1.2-1-1.5-1.6-1.4S92.6,40.5,92,41c-0.5,0.5-1.2,0.9-1.9,1c-0.8,0-1.3-0.5-1.1-1.1c-0.3,0.2-0.5,0.6-0.6,0.9
	C88.4,42.4,88.7,42.6,89.3,42.8z M92.1,41.8l0.3-0.2c-0.1,0.1-0.1,0.2-0.1,0.4c-0.1,0.5,0.3,1,0.9,1.1c0,0,0.1,0,0.1,0
	c0.6,0,1-0.4,1-1c0.1-0.5-0.3-1-0.9-1.1c0,0-0.1,0-0.1,0c0.5-0.3,0.9-0.2,1.2,0.3c0.2,0.3,0.4,0.6,0.6,0.9c-0.2,0.4-0.6,1.3-1.3,1.5
	c-1,0.1-2-0.5-2.4-1.4C91.6,42.1,91.8,42,92.1,41.8z"/>
<path class="st1" d="M64.2,196c0,0-0.1-0.1,0-0.1l5.8-11.7c0-0.1,0.1-0.1,0.1,0l1.9,0.9c0,0,0,0.1,0,0.1c0,0,0,0,0,0l-4.8,9.7
	l3.5,1.7c0.1,0,0.1,0.1,0,0.1l-0.9,1.9c0,0.1-0.1,0.1-0.1,0L64.2,196z"/>
<path class="st1" d="M72.4,200c0,0,0-0.1,0-0.1l5.6-11.8c0,0,0.1,0,0.1,0c0,0,0,0,0,0l5.5,2.6c0.1,0,0.1,0,0,0.1l-0.9,1.9
	c0,0-0.1,0-0.1,0c0,0,0,0,0,0l-3.5-1.7l-1.3,2.7l3.5,1.7c0,0,0,0.1,0,0.1c0,0,0,0,0,0l-0.9,1.9c0,0.1-0.1,0.1-0.1,0l-3.5-1.7l-1.4,3
	l3.6,1.7c0,0,0.1,0.1,0,0.1l-0.9,2c0,0-0.1,0-0.1,0c0,0,0,0,0,0L72.4,200z"/>
<path class="st1" d="M83.9,205.6c-0.6-0.3-1.1-0.7-1.5-1.2c-0.4-0.5-0.6-1.2-0.7-1.8c-0.1-0.7,0-1.4,0.3-2l2.5-5.5
	c0.3-0.6,0.7-1.1,1.2-1.5c0.5-0.4,1.2-0.6,1.8-0.7c1.3-0.1,2.6,0.5,3.4,1.6c0.4,0.5,0.6,1.1,0.7,1.8c0.1,0.7-0.1,1.3-0.3,1.9L91,199
	c0,0-0.1,0-0.1,0l-1.9-0.9c0,0-0.1-0.1,0-0.1l0.3-0.6c0.2-0.4,0.2-0.8,0.1-1.3c-0.2-0.7-0.9-1.1-1.6-0.9c-0.1,0-0.1,0-0.2,0.1
	c-0.4,0.1-0.7,0.4-0.8,0.8l-2.5,5.5c-0.2,0.4-0.2,0.8-0.1,1.1c0.1,0.4,0.4,0.7,0.7,0.8c0.4,0.2,0.8,0.2,1.1,0
	c0.4-0.2,0.7-0.4,0.8-0.8l0.4-0.8l-1.2-0.6c-0.1,0-0.1-0.1,0-0.1l0.9-1.9c0,0,0.1,0,0.1,0c0,0,0,0,0,0l3.2,1.5c0,0,0.1,0.1,0,0.1
	l-1.3,2.9c-0.3,0.6-0.7,1.2-1.2,1.6c-0.5,0.4-1.1,0.6-1.8,0.7C85.2,206,84.5,205.9,83.9,205.6z"/>
<path class="st1" d="M90.2,208.2c-0.1,0-0.1-0.1,0-0.1l5.2-12c0,0,0.1,0,0.1,0c0,0,0,0,0,0l2,0.8c0,0,0,0.1,0,0.1c0,0,0,0,0,0
	l-5.2,12c0,0.1-0.1,0.1-0.1,0.1L90.2,208.2z"/>
<path class="st1" d="M97.1,211.1c0,0-0.1-0.1,0-0.1l4.1-10l-2.3-1c0,0,0-0.1,0-0.1l0.8-2c0-0.1,0-0.1,0.1-0.1l6.7,2.7
	c0.1,0,0.1,0.1,0.1,0.1l-0.8,2c0,0.1-0.1,0.1-0.1,0.1l-2.3-0.9l-4.1,10c0,0.1,0,0.1-0.1,0.1L97.1,211.1z"/>
<path class="st1" d="M104.4,214c0,0-0.1-0.1,0-0.1l4.4-12.3c0,0,0-0.1,0.1-0.1c0,0,0,0,0,0l5.8,2c0,0,0.1,0.1,0,0.1l-0.7,2
	c0,0-0.1,0-0.1,0c0,0,0,0,0,0l-3.7-1.3l-1,2.8l3.7,1.3c0,0,0,0.1,0,0.1c0,0,0,0,0,0l-0.7,2c0,0-0.1,0-0.1,0c0,0,0,0,0,0l-3.7-1.3
	l-1.1,3.1l3.7,1.3c0,0,0.1,0,0,0.1l-0.7,2c0,0-0.1,0-0.1,0c0,0,0,0,0,0L104.4,214z"/>
<path class="st1" d="M120,218.9c-0.1,0-0.1,0-0.1-0.1l1.2-13c0-0.1,0-0.1,0.1-0.1l6.1,0.5c0.1,0,0.1,0,0.1,0.1l-0.2,2.1
	c0,0.1,0,0.1-0.1,0.1l-3.9-0.3l-0.3,2.9l3.9,0.3c0,0,0.1,0,0.1,0.1l-0.2,2.1c0,0.1,0,0.1-0.1,0.1l-3.9-0.3l-0.3,3.3l3.9,0.3
	c0.1,0,0.1,0,0.1,0.1l-0.2,2.1c0,0.1,0,0.1-0.1,0.1L120,218.9z"/>
<path class="st1" d="M133.3,218.8C133.3,218.8,133.2,218.8,133.3,218.8l-1.5-10.8l-2.4,0.3c0,0-0.1,0-0.1-0.1c0,0,0,0,0,0l-0.3-2.1
	c0,0,0-0.1,0.1-0.1l7.1-1c0,0,0.1,0,0.1,0.1l0.3,2.1c0,0.1,0,0.1-0.1,0.1l-2.5,0.3l1.5,10.7c0,0.1,0,0.1-0.1,0.1L133.3,218.8z"/>
<path class="st1" d="M146.8,215.7c-0.1,0-0.1,0-0.1-0.1c0,0,0,0,0,0l-4.6-12.2c0,0,0-0.1,0-0.1c0,0,0,0,0,0l3.3-1.3
	c0.6-0.3,1.3-0.3,2-0.2c0.6,0.1,1.3,0.4,1.8,0.8c0.5,0.4,0.9,1,1.1,1.6l1.9,5.1c0.5,1.3,0.3,2.8-0.6,3.9c-0.4,0.6-1,1-1.7,1.2
	L146.8,215.7z M148,212.7l1.1-0.4c0.4-0.2,0.8-0.5,0.9-0.9c0.2-0.4,0.2-0.9,0-1.3l-1.9-5.1c-0.3-0.8-1.2-1.2-1.9-0.9l-1.2,0.5
	L148,212.7z"/>
<path class="st1" d="M157.1,211.6c0,0-0.1,0-0.1,0c0,0,0,0,0,0l-5.1-12c0,0,0-0.1,0-0.1c0,0,0,0,0,0l2-0.8c0,0,0.1,0,0.1,0l5.1,12
	c0,0.1,0,0.1,0,0.1L157.1,211.6z"/>
<path class="st1" d="M165.3,208.2c-0.6,0.3-1.3,0.4-1.9,0.3c-0.6-0.1-1.3-0.3-1.8-0.7c-0.5-0.4-1-0.9-1.2-1.5l-0.4-0.8
	c0,0,0-0.1,0-0.1c0,0,0,0,0,0l1.9-0.9c0,0,0.1,0,0.1,0l0.4,0.8c0.2,0.4,0.5,0.6,0.8,0.8c0.4,0.2,0.8,0.2,1.1,0
	c0.4-0.2,0.6-0.5,0.7-0.8c0.1-0.4,0.1-0.8-0.1-1.1c-0.3-0.5-0.8-0.7-1.3-0.7l-1.1-0.1l-1.4-0.1c-0.7-0.1-1.4-0.3-2-0.8
	c-0.6-0.4-1-1-1.3-1.7c-0.3-0.6-0.4-1.3-0.3-1.9c0.1-0.6,0.3-1.3,0.7-1.8c0.4-0.5,0.9-0.9,1.5-1.2c0.6-0.3,1.3-0.4,1.9-0.3
	c0.6,0.1,1.3,0.3,1.8,0.7c0.5,0.4,1,0.9,1.2,1.5l0.6,1.4c0,0.1,0,0.1,0,0.1l-1.9,0.9c0,0-0.1,0-0.1,0l-0.7-1.4
	c-0.2-0.4-0.5-0.7-0.8-0.8c-0.7-0.3-1.5,0.1-1.8,0.8c0,0,0,0,0,0.1c-0.1,0.4-0.1,0.8,0.1,1.1c0.1,0.3,0.4,0.6,0.7,0.8
	c0.4,0.2,0.8,0.3,1.2,0.3h0.4l0.7,0.1h0.7h0.4c0.7,0,1.3,0.2,1.9,0.6c0.6,0.3,1,0.9,1.3,1.5c0.3,0.6,0.4,1.3,0.3,2
	c-0.1,0.7-0.3,1.3-0.7,1.8C166.4,207.5,165.9,208,165.3,208.2z"/>
<path class="st1" d="M174.5,203.9c-0.6,0.3-1.3,0.4-1.9,0.3c-0.7-0.1-1.3-0.3-1.8-0.7c-0.6-0.4-1-0.9-1.3-1.6l-2.5-5.4
	c-0.3-0.6-0.4-1.3-0.4-1.9c0-0.6,0.2-1.3,0.6-1.8c0.4-0.6,0.9-1,1.5-1.3c0.6-0.3,1.3-0.4,1.9-0.3c0.6,0.1,1.3,0.3,1.8,0.7
	c0.6,0.4,1,0.9,1.3,1.5l0.4,0.8c0,0,0,0.1,0,0.1c0,0,0,0,0,0l-1.9,0.9c0,0-0.1,0-0.1,0l-0.4-0.8c-0.2-0.4-0.5-0.7-0.8-0.8
	c-0.4-0.2-0.8-0.2-1.1,0c-0.4,0.1-0.7,0.5-0.8,0.9c-0.1,0.4,0,0.8,0.1,1.1l2.5,5.4c0.2,0.4,0.5,0.7,0.9,0.9c0.3,0.2,0.7,0.2,1.1,0
	c0.4-0.2,0.6-0.5,0.7-0.9c0.1-0.4,0.1-0.8-0.1-1.2l-0.4-0.8c0,0,0-0.1,0-0.1c0,0,0,0,0,0l1.9-0.9c0,0,0.1,0,0.1,0c0,0,0,0,0,0
	l0.4,0.8c0.3,0.6,0.4,1.3,0.4,2c0,0.7-0.3,1.3-0.6,1.8C175.7,203.2,175.1,203.7,174.5,203.9z"/>
<path class="st1" d="M180.7,200.8c0,0-0.1,0-0.1,0c0,0,0,0,0,0l-5.7-11.8c0,0,0-0.1,0-0.1c0,0,0,0,0,0l1.9-0.9c0.1,0,0.1,0,0.1,0
	l5.7,11.7c0,0.1,0,0.1,0,0.1L180.7,200.8z"/>
<path class="st1" d="M187.4,197.5c-0.1,0-0.1,0-0.1-0.1l-4.8-9.7l-2.2,1.1c0,0-0.1,0-0.1,0c0,0,0,0,0,0l-0.9-1.9c0-0.1,0-0.1,0-0.1
	l6.5-3.2c0.1,0,0.1,0,0.1,0l0.9,1.9c0,0.1,0,0.1,0,0.1l-2.2,1.1l4.8,9.7c0,0.1,0,0.1,0,0.1L187.4,197.5z"/>
<path class="st1" d="M194.1,194.2c0,0-0.1,0-0.1-0.1l-5.8-11.7c0,0,0-0.1,0-0.1c0,0,0,0,0,0l5.5-2.7c0,0,0.1,0,0.1,0l1,1.9
	c0,0,0,0.1,0,0.1l-3.5,1.7l1.3,2.6l3.5-1.7c0,0,0.1,0,0.1,0c0,0,0,0,0,0l1,1.9c0,0,0,0.1,0,0.1c0,0,0,0,0,0l-3.5,1.8l1.5,3l3.5-1.8
	c0,0,0.1,0,0.1,0l1,1.9c0,0.1,0,0.1,0,0.1L194.1,194.2z"/>
<path class="st0" d="M320.7,69.2c0,0.1-0.2,0.2-0.5,0.3s-0.5,0-0.6-0.2c-0.7-2.9-2.3-5.5-4.6-7.4c-2.5-1.7-5.5-2.5-8.6-2.4h-2.6
	c-1.4-0.1-2.7,0.3-3.8,1.1c-0.9,0.9-1.3,2.2-1.2,3.4v18.5h6.2c3.3,0,5.9-0.6,7.6-1.8c1.7-1,2.7-2.9,2.6-4.9c0-0.1,0.2-0.2,0.5-0.2
	s0.5,0.1,0.5,0.2l-0.1,7.8c0,1.8,0,3.2,0.1,4.1l0.1,4.5c0,0.2-0.2,0.3-0.5,0.3s-0.5-0.1-0.5-0.3c0.1-2.2-0.9-4.2-2.7-5.5
	c-1.8-1.3-4.4-2-7.7-2h-6.1v18.4c-0.1,1.4,0.1,2.7,0.7,4c0.6,0.9,1.5,1.6,2.6,1.8c1.9,0.4,3.9,0.6,5.9,0.5c0.1,0,0.2,0.2,0.2,0.5
	s0,0.5-0.2,0.5c-2.3,0-4.2,0-5.5-0.1l-8.8-0.1l-6.4,0.1c-1.1,0.1-2.7,0.1-4.7,0.1c-0.2,0-0.3-0.2-0.3-0.5s0.1-0.5,0.3-0.5
	c1.5,0.1,2.9-0.1,4.4-0.4c0.8-0.2,1.5-0.9,1.8-1.7c0.4-1.2,0.5-2.5,0.5-3.8V64c0.1-1.3-0.1-2.5-0.4-3.8c-0.3-0.8-0.9-1.4-1.7-1.7
	c-1.3-0.4-2.6-0.5-4-0.5c-0.2,0-0.2-0.2-0.2-0.5s0.1-0.5,0.2-0.5h36.4c0.6,0,0.9,0.3,0.9,0.8L320.7,69.2z"/>
<path class="st0" d="M344.4,107.6c0.3,0.8,0.9,1.4,1.7,1.6c1.3,0.3,2.7,0.5,4,0.4c0.2,0,0.3,0.2,0.3,0.5s-0.1,0.5-0.3,0.5
	c-1.9,0-3.4,0-4.5-0.1l-6.5-0.1l-6.4,0.1c-1.1,0.1-2.7,0.1-4.6,0.1c-0.1,0-0.2-0.2-0.2-0.5s0.1-0.5,0.2-0.5c1.3,0,2.7-0.1,4-0.4
	c0.8-0.3,1.5-0.9,1.8-1.7c0.4-1.2,0.5-2.5,0.5-3.8V64c0.1-1.3-0.1-2.5-0.5-3.8c-0.3-0.8-1-1.4-1.8-1.7c-1.3-0.4-2.7-0.5-4-0.5
	c-0.1,0-0.2-0.2-0.2-0.5s0.1-0.5,0.2-0.5l4.6,0.1c2.6,0.1,4.7,0.2,6.4,0.2c1.8,0,4-0.1,6.6-0.2l4.4-0.1c0.2,0,0.3,0.2,0.3,0.5
	s-0.1,0.5-0.3,0.5c-1.4-0.1-2.7,0.1-4,0.5c-0.8,0.3-1.4,0.9-1.7,1.8c-0.3,1.2-0.5,2.5-0.4,3.8v39.6
	C343.9,105,344.1,106.3,344.4,107.6z"/>
<path class="st0" d="M414.8,110.2c0,0.3-0.1,0.5-0.2,0.5h-15.3c-1.3,0-3.6-2.3-7-6.8c-4.5-6.1-8.6-12.5-12.4-19.1
	c-0.7,0.1-1.3,0.1-2,0.1c-2.2,0-3.8,0-4.7-0.1v19c-0.1,1.3,0.1,2.6,0.4,3.9c0.3,0.8,0.9,1.4,1.7,1.6c1.3,0.3,2.7,0.5,4,0.4
	c0.1,0,0.2,0.2,0.2,0.5s-0.1,0.5-0.2,0.5c-1.9,0-3.4,0-4.5-0.1l-6.5-0.1l-6.3,0.1c-1.1,0.1-2.7,0.1-4.6,0.1c-0.2,0-0.3-0.2-0.3-0.5
	s0.1-0.5,0.3-0.5c1.3,0.1,2.7-0.1,4-0.4c0.8-0.3,1.4-0.9,1.7-1.7c0.4-1.2,0.5-2.5,0.5-3.8V64c0.1-1.3-0.1-2.5-0.4-3.8
	c-0.3-0.8-0.9-1.4-1.7-1.7c-1.3-0.4-2.6-0.5-4-0.5c-0.1,0-0.2-0.2-0.2-0.5s0.1-0.5,0.2-0.5l4.5,0.1c2.6,0.1,4.7,0.2,6.3,0.2
	c2,0,4-0.1,6.1-0.3l2.8-0.2c1.1-0.1,2.4-0.1,3.7-0.1c5.2,0,9.2,1,12.1,2.9c2.7,1.7,4.4,4.8,4.3,8c0,3-0.9,6-2.6,8.5
	c-1.8,2.6-4.1,4.7-6.9,6.1c4.6,6.9,8.4,12.2,11.5,16.1c2.4,3.2,5.1,6,8.2,8.5c2,1.6,4.4,2.5,7,2.7
	C414.8,109.7,414.8,109.8,414.8,110.2z M378.2,82.7c3.3,0,5.7-0.9,7.2-2.8s2.2-4.9,2.2-9c0-4.7-0.7-7.9-2.1-9.7
	c-1.4-1.8-3.6-2.8-5.9-2.7c-2.3,0-3.9,0.4-4.9,1.3c-1,0.9-1.5,2.3-1.5,4.3v18.2C374.8,82.6,376.5,82.7,378.2,82.7z"/>
<path class="st0" d="M456.7,96.9c0.2,0,0.3,0,0.5,0.1c0.1,0.1,0.2,0.2,0.2,0.2c-0.5,4-0.8,8.1-0.9,12.2c0,0.4-0.1,0.7-0.3,1
	c-0.3,0.2-0.6,0.3-1,0.3h-38c-0.2,0-0.2-0.2-0.2-0.5s0.1-0.5,0.2-0.5c1.3,0.1,2.7-0.1,4-0.4c0.8-0.3,1.4-0.9,1.7-1.7
	c0.3-1.2,0.5-2.5,0.4-3.8V64c0.1-1.3-0.1-2.5-0.4-3.8c-0.3-0.8-0.9-1.4-1.7-1.7c-1.3-0.4-2.6-0.5-4-0.5c-0.2,0-0.2-0.2-0.2-0.5
	s0.1-0.5,0.2-0.5h36.4c0.6,0,0.9,0.3,0.9,0.8l0.2,11.4c0,0.1-0.2,0.2-0.5,0.3s-0.5,0-0.6-0.2c-0.7-2.9-2.3-5.5-4.6-7.4
	c-2.5-1.7-5.5-2.5-8.6-2.4h-2.6c-1.4-0.1-2.7,0.3-3.8,1.1c-0.9,0.9-1.3,2.2-1.2,3.4v17.5h7.1c3.3,0,5.9-0.6,7.6-1.7
	c1.7-1,2.7-2.8,2.7-4.8c0-0.2,0.2-0.2,0.5-0.2s0.5,0.1,0.5,0.2l-0.1,7.7l0.1,4.1c0.1,1.9,0.2,3.5,0.2,4.6c0,0.1-0.2,0.2-0.5,0.2
	s-0.5,0-0.5-0.2c0.1-2.2-0.9-4.3-2.7-5.5c-1.8-1.3-4.4-2-7.8-2h-7v19.4c-0.1,1.3,0.2,2.6,1,3.7c0.8,0.9,1.9,1.3,3,1.2h2.8
	c4.5,0,8-0.9,10.7-2.7c2.9-2.1,5-5.1,5.9-8.5C456.3,96.9,456.5,96.9,456.7,96.9z"/>
<path class="st0" d="M502.1,69.2c0,0.1-0.2,0.2-0.5,0.3s-0.5,0-0.6-0.2c-0.7-2.9-2.3-5.5-4.6-7.4c-2.5-1.7-5.5-2.5-8.6-2.4h-2.6
	c-1.4-0.1-2.7,0.3-3.8,1.1c-0.9,0.9-1.3,2.2-1.2,3.4v18.5h6.2c3.3,0,5.9-0.6,7.6-1.8c1.7-1,2.7-2.9,2.6-4.9c0-0.1,0.2-0.2,0.5-0.2
	s0.5,0.1,0.5,0.2l-0.1,7.8c0,1.8,0,3.2,0.1,4.1l0.1,4.5c0,0.2-0.2,0.3-0.5,0.3s-0.5-0.1-0.5-0.3c0.1-2.2-0.9-4.2-2.7-5.4
	c-1.8-1.3-4.4-2-7.7-2h-6.1v18.4c-0.1,1.4,0.1,2.7,0.7,4c0.6,0.9,1.5,1.6,2.6,1.8c1.9,0.4,3.9,0.6,5.9,0.5c0.1,0,0.2,0.2,0.2,0.5
	c0,0.3-0.1,0.5-0.2,0.5c-2.3,0-4.2,0-5.5-0.1l-8.8-0.1l-6.4,0.1c-1.1,0.1-2.7,0.1-4.7,0.1c-0.2,0-0.2-0.2-0.2-0.5s0.1-0.5,0.2-0.5
	c1.5,0.1,2.9-0.1,4.4-0.4c0.8-0.2,1.5-0.9,1.9-1.7c0.4-1.2,0.5-2.5,0.5-3.8V64c0.1-1.3-0.1-2.5-0.4-3.8c-0.3-0.8-0.9-1.4-1.7-1.7
	c-1.3-0.4-2.6-0.5-4-0.5c-0.2,0-0.2-0.2-0.2-0.5s0.1-0.5,0.2-0.5h36.4c0.6,0,0.9,0.3,0.9,0.8L502.1,69.2z"/>
<path class="st0" d="M524.2,103.4c0,1.1,0.1,2.2,0.3,3.2c0.2,0.6,0.7,1.1,1.3,1.3c1,0.3,2.1,0.4,3.2,0.3h2.9
	c4.1,0.1,8.2-1.1,11.6-3.6c3.2-2.3,5.6-5.8,6.5-9.7c0-0.1,0.1-0.2,0.3-0.2c0.1,0,0.3,0.1,0.4,0.1c0.2,0.1,0.2,0.2,0.2,0.2
	c-0.5,5.7-0.8,10.4-0.8,14.2c0.1,0.6-0.3,1.2-0.9,1.3c-0.1,0-0.3,0-0.4,0h-40.5c-0.1,0-0.2-0.2-0.2-0.5s0.1-0.5,0.2-0.5
	c1.3,0.1,2.7-0.1,4-0.4c0.8-0.3,1.4-0.9,1.7-1.7c0.4-1.2,0.5-2.5,0.5-3.8V64c0.1-1.3-0.1-2.6-0.5-3.8c-0.3-0.8-1-1.4-1.8-1.7
	c-1.3-0.4-2.6-0.5-4-0.5c-0.1,0-0.2-0.2-0.2-0.5s0.1-0.5,0.2-0.5l4.4,0.1c2.6,0.1,4.8,0.2,6.5,0.2s3.9-0.1,6.5-0.2l4.4-0.1
	c0.2,0,0.3,0.2,0.3,0.5s-0.1,0.5-0.3,0.5c-1.3-0.1-2.7,0.1-4,0.5c-0.8,0.3-1.4,0.9-1.7,1.7c-0.3,1.2-0.5,2.5-0.4,3.8L524.2,103.4z"
	/>
<path class="st0" d="M604.5,57.6c0,0.3-0.1,0.5-0.2,0.5c-1.8,0-4,1.1-6.5,3.3c-2.7,2.4-5,5.2-6.8,8.3l-8.9,14.9v19.1
	c-0.1,1.3,0.1,2.6,0.4,3.9c0.3,0.8,0.9,1.4,1.7,1.6c1.3,0.3,2.7,0.5,4,0.4c0.2,0,0.3,0.2,0.3,0.5s-0.1,0.5-0.3,0.5
	c-1.9,0-3.4,0-4.5-0.1l-6.4-0.1l-6.3,0.1c-1.1,0.1-2.7,0.1-4.6,0.1c-0.1,0-0.2-0.2-0.2-0.5s0-0.5,0.2-0.5c1.3,0,2.7-0.1,4-0.4
	c0.8-0.3,1.5-0.9,1.8-1.7c0.4-1.2,0.5-2.5,0.5-3.8V86.4L560,66.9c-1.5-2.5-3.2-4.8-5.3-6.9c-1.4-1.3-2.6-1.9-3.6-1.9
	c-0.2,0-0.3-0.2-0.3-0.5s0.1-0.5,0.3-0.5l2.7,0.1c1.2,0.1,2.1,0.2,2.7,0.2c2,0,4.9-0.1,8.7-0.2l5.7-0.1c0.1,0,0.2,0.2,0.2,0.5
	s-0.1,0.5-0.2,0.5c-0.8,0-1.6,0.2-2.3,0.7c-0.5,0.4-0.8,1.1-0.8,1.8c0.1,1.2,0.5,2.3,1.2,3.3l11.8,18.5l7.9-13.5
	c1.3-2,2.1-4.2,2.3-6.6c0.1-1.2-0.4-2.3-1.2-3.1c-1-0.8-2.3-1.2-3.6-1.1c-0.2,0-0.3-0.2-0.3-0.5s0.1-0.5,0.3-0.5l4.5,0.1
	c2.6,0.1,5,0.2,7,0.2c1,0,2.1-0.1,3.5-0.2l3.2-0.1C604.5,57,604.5,57.2,604.5,57.6z"/>
<path class="st0" d="M293.5,176.5c-3.3-1.6-6.1-4-8-7.1c-1.9-3-2.8-6.5-2.8-10c-0.1-3.7,1-7.4,3.1-10.5c2.1-3.1,5.1-5.6,8.6-7.2
	c3.9-1.8,8.1-2.6,12.3-2.6c2,0,4,0.2,5.9,0.5c1.6,0.2,3.2,0.6,4.8,1.2c0.3,0.1,0.5,0.2,0.8,0.4c0.1,0.3,0.1,0.7,0.1,1l0.8,8.6
	c0,0.1-0.1,0.2-0.3,0.2s-0.4,0-0.4-0.2c-0.7-1.6-1.5-3.1-2.6-4.4c-1.3-1.7-2.9-3.1-4.7-4.2c-2-1.2-4.4-1.8-6.7-1.8
	c-2.6,0-5.1,0.7-7.2,2.2c-2.3,1.5-4,3.7-5.1,6.2c-1.3,2.9-1.9,6.1-1.9,9.3c-0.1,3.6,0.7,7.1,2.2,10.4c1.3,2.9,3.4,5.3,6.1,7.1
	c2.6,1.7,5.7,2.6,8.8,2.5c1.3,0.1,2.6-0.1,3.9-0.6c0.9-0.4,1.7-1.2,2-2.2c0.5-1.5,0.7-3.1,0.6-4.7c0.1-1.5-0.1-3-0.4-4.5
	c-0.2-0.8-0.8-1.4-1.6-1.7c-1.4-0.4-2.8-0.5-4.2-0.4c-0.2,0-0.4-0.2-0.4-0.5c0-0.1,0-0.2,0.1-0.3c0.1-0.1,0.1-0.2,0.2-0.2
	c3.5,0.2,6.3,0.3,8.5,0.3s4.3-0.1,6.5-0.2c0.2,0,0.3,0.1,0.3,0.4s-0.1,0.4-0.3,0.4c-0.6-0.1-1.1,0.1-1.6,0.4
	c-0.4,0.5-0.6,1.2-0.6,1.9c-0.1,1-0.1,2.6-0.1,4.9c0,1.3,0,2.6,0.2,3.9c0.1,0.5,0.2,1,0.2,1.5c0,0.2,0,0.3-0.1,0.5
	c-0.2,0.1-0.4,0.2-0.5,0.2c-4.7,1.1-9.5,1.7-14.3,1.7C301.5,179.2,297.3,178.3,293.5,176.5z"/>
<path class="st0" d="M368.6,178c0,0.2,0,0.4-0.1,0.4h-11c-0.9,0-2.6-1.6-5-4.9c-3.2-4.4-6.2-9-8.9-13.7c-0.5,0-0.9,0.1-1.4,0.1
	c-1.6,0-2.7,0-3.4-0.1v13.6c0,0.9,0.1,1.9,0.3,2.8c0.2,0.6,0.6,1,1.2,1.2c0.9,0.2,1.9,0.4,2.9,0.3c0.1,0,0.1,0.1,0.1,0.4
	s0,0.4-0.1,0.4c-1.3,0-2.4,0-3.2-0.1l-4.7-0.1l-4.5,0.1c-0.8,0-1.9,0.1-3.3,0.1c-0.1,0-0.2-0.1-0.2-0.4s0.1-0.4,0.2-0.4
	c1,0,1.9-0.1,2.9-0.3c0.6-0.2,1-0.6,1.2-1.2c0.3-0.9,0.4-1.8,0.3-2.7v-28.5c0-0.9-0.1-1.8-0.3-2.7c-0.2-0.6-0.7-1-1.2-1.2
	c-0.9-0.3-1.9-0.4-2.8-0.3c-0.1,0-0.1-0.1-0.1-0.4c0-0.2,0-0.4,0.1-0.4l3.3,0.1c1.9,0.1,3.4,0.1,4.5,0.1c1.4,0,2.9-0.1,4.4-0.2
	c0.5,0,1.2-0.1,2-0.1s1.7-0.1,2.7-0.1c3.7,0,6.6,0.7,8.7,2.1c2,1.2,3.2,3.4,3.1,5.8c0,2.2-0.6,4.3-1.8,6.1c-1.3,1.8-3,3.3-5,4.4
	c3.3,4.9,6,8.8,8.3,11.6c1.7,2.3,3.7,4.3,5.9,6.1c1.4,1.2,3.2,1.8,5.1,1.9C368.5,177.6,368.6,177.7,368.6,178z M342.2,158.3
	c2.4,0,4.1-0.7,5.1-2c1-1.3,1.6-3.5,1.6-6.4c0-3.4-0.5-5.7-1.5-7c-1-1.3-2.6-2-4.3-1.9c-1.2-0.1-2.5,0.2-3.5,0.9
	c-0.8,0.8-1.1,2-1,3.1V158C339.9,158.2,341.1,158.3,342.2,158.3z"/>
<path class="st0" d="M412.3,178c0,0.2-0.1,0.4-0.3,0.4c-0.8,0-2.1,0-3.8-0.1s-3.1-0.1-3.9-0.1c-1,0-2.3,0-3.8,0.1s-2.5,0.1-3.3,0.1
	c-0.2,0-0.2-0.1-0.2-0.4s0.1-0.4,0.2-0.4c0.8,0,1.6-0.1,2.3-0.3c0.5-0.2,0.7-0.7,0.7-1.2c-0.2-1.2-0.6-2.4-1.2-3.5l-4.2-8.3h-15.2
	l-2.4,5.4c-0.5,1-0.8,2.2-0.8,3.3c-0.1,1.3,0.5,2.6,1.5,3.4c1.2,0.9,2.7,1.3,4.2,1.2c0.2,0,0.3,0.1,0.3,0.4s-0.1,0.4-0.3,0.4
	c-0.7,0-1.8,0-3.2-0.1c-1.6-0.1-2.9-0.1-4.1-0.1s-2.4,0-4,0.1c-1.4,0.1-2.5,0.1-3.4,0.1c-0.2,0-0.2-0.1-0.2-0.4s0.1-0.4,0.2-0.4
	c1,0,2-0.2,2.9-0.7c1-0.7,1.8-1.5,2.3-2.5c1.1-1.7,2-3.5,2.8-5.4l13.4-29.4c0.1-0.1,0.4-0.2,0.6-0.2c0.3,0,0.5,0.1,0.5,0.2
	l15.4,30.3c1,2.1,2.2,4.1,3.6,6c0.7,1,1.8,1.6,3,1.7C412.2,177.6,412.3,177.7,412.3,178z M380.5,162.5h13.4l-7.1-14.1L380.5,162.5z"
	/>
<path class="st0" d="M463.4,178c0,0.2,0,0.4-0.1,0.4c-1.4,0-2.5,0-3.3-0.1l-4.6-0.1l-4.6,0.1c-0.8,0-1.8,0.1-3.2,0.1
	c-0.1,0-0.2-0.1-0.2-0.4s0.1-0.4,0.2-0.4c1.2,0.1,2.4-0.1,3.5-0.6c0.7-0.7,1.1-1.6,0.9-2.6l-0.1-1.1l-1.3-25.2L438,177.9
	c-0.1,0.2-0.3,0.3-0.5,0.2c-0.2,0-0.4-0.1-0.5-0.2l-15.6-29.6l-0.5,22.2c-0.1,1.8,0.3,3.7,1.3,5.2c0.9,1.2,2.4,1.9,3.9,1.9
	c0.1,0,0.2,0.1,0.2,0.4s-0.1,0.4-0.2,0.4c-1.1,0-2,0-2.6-0.1l-3.4-0.1l-3.9,0.1c-0.7,0-1.5,0.1-2.6,0.1c-0.1,0-0.2-0.1-0.2-0.4
	s0.1-0.4,0.2-0.4c1.6,0.1,3.1-0.7,4-1.9c1.1-1.5,1.6-3.3,1.5-5.2l0.5-25.5l-0.1-0.1c-0.6-1.3-1.5-2.4-2.6-3.3c-0.9-0.7-1.9-1-3-1
	c-0.1,0-0.2-0.1-0.2-0.4c0-0.2,0.1-0.4,0.2-0.4l2.9,0.1c0.6,0,1.3,0.1,2.2,0.1l3.3-0.1c0.5,0,0.9-0.1,1.4-0.1c0.5,0,0.9,0.2,1.2,0.6
	c0.6,0.8,1.1,1.7,1.6,2.6l13.4,25.2l11.7-26.9c0.2-0.5,0.4-0.9,0.8-1.2c0.3-0.2,0.7-0.4,1.1-0.3c0.4,0,0.8,0,1.3,0.1
	c0.5,0,1,0.1,1.6,0.1l3.6-0.1c0.6,0,1.4-0.1,2.5-0.1c0.1,0,0.2,0.1,0.2,0.4s-0.1,0.4-0.2,0.4c-1.5-0.1-3,0.3-4.2,1.2
	c-0.9,1-1.4,2.3-1.2,3.6l1.5,28c0,0.9,0.2,1.9,0.5,2.8c0.2,0.6,0.7,1,1.2,1.2c0.9,0.2,1.9,0.4,2.8,0.3
	C463.4,177.6,463.4,177.7,463.4,178z"/>
<path class="st0" d="M516.2,178c0,0.2,0,0.4-0.1,0.4c-1.4,0-2.5,0-3.3-0.1l-4.6-0.1l-4.6,0.1c-0.8,0-1.9,0.1-3.2,0.1
	c-0.1,0-0.2-0.1-0.2-0.4s0.1-0.4,0.2-0.4c1.2,0.1,2.4-0.1,3.5-0.6c0.6-0.4,0.9-1.3,0.9-2.6l-0.1-1.1l-1.3-25.2l-12.7,29.8
	c-0.1,0.2-0.3,0.3-0.5,0.2c-0.2,0-0.4-0.1-0.5-0.2l-15.6-29.6l-0.5,22.2c-0.1,1.8,0.3,3.7,1.3,5.2c0.9,1.2,2.4,2,3.9,1.9
	c0.1,0,0.2,0.1,0.2,0.4s-0.1,0.4-0.2,0.4c-1.1,0-2,0-2.6-0.1l-3.4-0.1l-3.9,0.1c-0.7,0-1.5,0.1-2.6,0.1c-0.1,0-0.2-0.1-0.2-0.4
	s0.1-0.4,0.2-0.4c1.6,0.1,3.1-0.7,4-1.9c1.1-1.5,1.6-3.3,1.5-5.2l0.6-25.5l-0.1-0.1c-0.6-1.3-1.5-2.4-2.6-3.3c-0.9-0.7-1.9-1-3-1
	c-0.1,0-0.2-0.1-0.2-0.4s0.1-0.4,0.2-0.4l2.9,0.1c0.6,0,1.3,0.1,2.2,0.1l3.3-0.1c0.5,0,0.9-0.1,1.4-0.1c0.5,0,0.9,0.2,1.2,0.6
	c0.6,0.9,1.1,1.7,1.6,2.6l13.5,25.2l11.7-26.9c0.2-0.5,0.4-0.9,0.8-1.2c0.3-0.2,0.7-0.4,1.1-0.3c0.4,0,0.8,0,1.3,0.1s1,0.1,1.6,0.1
	l3.6-0.1c0.6,0,1.4-0.1,2.5-0.1c0.1,0,0.2,0.1,0.2,0.4s-0.1,0.4-0.2,0.4c-1.5-0.1-3,0.3-4.2,1.2c-0.9,1-1.4,2.3-1.2,3.6l1.5,28
	c0,0.9,0.2,1.9,0.5,2.8c0.2,0.6,0.7,1,1.2,1.2c0.9,0.2,1.9,0.4,2.8,0.3C516.2,177.6,516.2,177.7,516.2,178z"/>
<path class="st0" d="M562.1,178c0,0.2-0.1,0.4-0.3,0.4c-0.8,0-2.1,0-3.8-0.1s-3.1-0.1-3.9-0.1c-1,0-2.3,0-3.8,0.1s-2.5,0.1-3.3,0.1
	c-0.2,0-0.2-0.1-0.2-0.4s0.1-0.4,0.2-0.4c0.8,0,1.6-0.1,2.3-0.3c0.5-0.2,0.8-0.7,0.7-1.2c-0.2-1.2-0.6-2.4-1.2-3.5l-4.2-8.3h-15.2
	l-2.4,5.4c-0.5,1-0.8,2.2-0.8,3.3c-0.1,1.3,0.5,2.6,1.6,3.4c1.2,0.9,2.7,1.3,4.2,1.2c0.2,0,0.3,0.1,0.3,0.4s-0.1,0.4-0.3,0.4
	c-0.7,0-1.8,0-3.2-0.1c-1.6-0.1-2.9-0.1-4.1-0.1s-2.5,0-4,0.1c-1.4,0.1-2.5,0.1-3.4,0.1c-0.2,0-0.2-0.1-0.2-0.4s0.1-0.4,0.2-0.4
	c1,0,2-0.2,2.9-0.7c1-0.7,1.8-1.5,2.3-2.5c1.1-1.7,2-3.5,2.8-5.4l13.4-29.4c0.1-0.1,0.4-0.2,0.6-0.2c0.3,0,0.5,0.1,0.5,0.2
	l15.4,30.3c1,2.1,2.2,4.1,3.6,6c0.7,1,1.8,1.6,3,1.7C562,177.6,562.1,177.7,562.1,178z M530.2,162.5h13.4l-7.1-14.1L530.2,162.5z"/>
<path class="st0" d="M605.5,178c0,0.2,0,0.4-0.1,0.4h-11c-0.9,0-2.6-1.6-5-4.9c-3.2-4.4-6.2-9-8.9-13.7c-0.5,0-0.9,0.1-1.4,0.1
	c-1.6,0-2.7,0-3.4-0.1v13.6c0,0.9,0.1,1.9,0.3,2.8c0.2,0.6,0.6,1,1.2,1.2c0.9,0.2,1.9,0.4,2.9,0.3c0.1,0,0.1,0.1,0.1,0.4
	s0,0.4-0.1,0.4c-1.4,0-2.4,0-3.2-0.1l-4.7-0.1l-4.5,0.1c-0.8,0-1.9,0.1-3.3,0.1c-0.1,0-0.2-0.1-0.2-0.4s0.1-0.4,0.2-0.4
	c1,0,1.9-0.1,2.9-0.3c0.6-0.2,1-0.6,1.2-1.2c0.3-0.9,0.4-1.8,0.3-2.7v-28.5c0-0.9-0.1-1.8-0.3-2.7c-0.2-0.6-0.7-1-1.2-1.2
	c-0.9-0.3-1.9-0.4-2.8-0.3c-0.1,0-0.1-0.1-0.1-0.4c0-0.2,0-0.4,0.1-0.4l3.3,0.1c1.9,0.1,3.4,0.1,4.5,0.1c1.4,0,2.9-0.1,4.4-0.2
	c0.5,0,1.2-0.1,2-0.1s1.7-0.1,2.7-0.1c3.7,0,6.6,0.7,8.7,2.1c2,1.2,3.2,3.4,3.1,5.8c0,2.2-0.6,4.3-1.8,6.1c-1.3,1.9-3,3.4-4.9,4.4
	c3.3,4.9,6,8.8,8.3,11.6c1.7,2.3,3.7,4.3,5.9,6.1c1.4,1.2,3.2,1.8,5.1,1.9C605.5,177.6,605.5,177.7,605.5,178z M579.2,158.3
	c2.4,0,4.1-0.7,5.2-2c1-1.3,1.6-3.5,1.6-6.4c0-3.4-0.5-5.7-1.5-7c-1-1.3-2.6-2-4.3-1.9c-1.2-0.1-2.5,0.2-3.5,0.9
	c-0.8,0.8-1.1,2-1,3.1V158C576.8,158.2,578,158.3,579.2,158.3z"/>
</svg>
