<svg id="Layer_1" data-name="Layer 1" xmlns="http://www.w3.org/2000/svg" viewBox="0 0 259.74 380.26"><path d="M53,99.24V20H203v80.63c0,26.51-1.27,48-74.15,90.82L128,192l-.82-.49C54.29,148.66,53,127.18,53,100.67Zm185,48.51L217.91,164.9l9.66,16.63.36.62-.5.52c-.15.14-3.78,3.72-25.08,13.82l-6.16,2.93c-21.87,10.45-51.79,24.75-68.08,24.57h-.21c-16.29.18-46.21-14.12-68.08-24.57l-6.16-2.93c-21.3-10.1-24.93-13.68-25.08-13.82l-.5-.52.36-.62,9.7-16.69L18,147.75l-1.87-1.59,2.46-.08,13.38-.47.17-11.31,0-2,1.54,1.34,28.4,24.67.59.52-.4.68-7,11.81c12.33,6.34,30.42,15.43,38.14,19,15,6.92,26.32,10.4,34.62,10.61,8.31-.21,19.64-3.69,34.63-10.61,7.71-3.57,25.81-12.66,38.14-19l-7-11.81-.41-.68.6-.52,28.4-24.67,1.54-1.34,0,2,.17,11.31,13.39.47,2.44.08Z" style="fill:#050506"/><path d="M127.18,191.49l.82.49.83-.49C201.71,148.66,203,127.18,203,100.67V20H53v80.63C53,127.18,54.29,148.66,127.18,191.49ZM56.28,99.24V23.29H199.73v76c0,27.06,0,46.65-71.73,89C56.25,145.89,56.25,126.3,56.28,99.24Z" style="fill:#a0a09f"/><path d="M128,188.21c71.76-42.32,71.76-61.91,71.73-89V23.29H56.28v76C56.25,126.3,56.25,145.89,128,188.21ZM148.47,43.46c.08-.34.13-.69.18-1.05a4.43,4.43,0,0,0,2.61.13h0l.2-.07h.07A2.59,2.59,0,0,0,153.31,40l0-.46-.26.38a3.59,3.59,0,0,1-4.24,1.18c.11-1.26.26-2,1.49-2.23a6.68,6.68,0,0,1,1-.15,4.62,4.62,0,0,1,2.23.51c.28.12.57.24.89.35a1.85,1.85,0,0,0,.74.08,14.62,14.62,0,0,0,3.41-.89,14.28,14.28,0,0,1,3.19-.85,30.39,30.39,0,0,1,5.76.64l.92.15a11.66,11.66,0,0,0,2.52.28A2.42,2.42,0,0,0,173,37.84c0,.15,0,.31,0,.5a6,6,0,0,1-.48,2.67l-.07.13.13.08a1.87,1.87,0,0,0,.52.16h.05a2.61,2.61,0,0,0,.55,0,4.08,4.08,0,0,0,2.1-.8,4.77,4.77,0,0,1-2.66,3.43l-.18.07.09.17c.09.15.17.3.25.46v0h0a6.25,6.25,0,0,1,.57,1.94l.1.86c.33,3,.78,7,3.64,10a6.7,6.7,0,0,1-1.46.24,4.62,4.62,0,0,1-2.54-.54,6.56,6.56,0,0,1-1.94-4.46h-.32a9.47,9.47,0,0,0,.24,3.28,6.48,6.48,0,0,0,2.43,3.44l.44.38a5.31,5.31,0,0,1,1.87,3.2l.09.44c.54,2.61.84,4,2.12,5a4.37,4.37,0,0,1-3.17-.6A6.92,6.92,0,0,1,173,65.24h0v0l-.14-.18a8,8,0,0,0-4.24-3.44l-.13.29a9.19,9.19,0,0,1,3.21,4,8.75,8.75,0,0,1,1,3.71c0,.85,0,1.73,0,2.57,0,1.09,0,2.11,0,3.09a11.35,11.35,0,0,0,.47,3.16c-1-.29-4.08-1.46-4.38-4.47-.06-.64-.13-1.21-.23-1.72a10.32,10.32,0,0,0-3.39-6.7h0a2.86,2.86,0,0,0-.33-.29l-.22.23s2.77,3.57,2.59,10c-.08.8-.21,1.61-.34,2.46a26.2,26.2,0,0,0-.47,5.12,12.84,12.84,0,0,0,.42,3c-1-.73-3.68-3.28-4.41-9.65a12.64,12.64,0,0,0-.62-7.23l-.29.13a3.77,3.77,0,0,1,.07.4c0,.86,0,1.72,0,2.54a23.31,23.31,0,0,1-1,6.08,11.9,11.9,0,0,1-1.13,2.32c-1.67,3.25-3.47,4.9-5.83,5.37a6.88,6.88,0,0,1-.81.11,4.67,4.67,0,0,0,.67-.49,6.76,6.76,0,0,0,1.45-1.89,12.91,12.91,0,0,0,1-3.55,18,18,0,0,0,.08-2.52c0-.45,0-.86-.07-1.26s-.06-.75-.07-1.14a.49.49,0,0,1,0-.12v-.05a10.86,10.86,0,0,0,.21-6.25l-.31.07c0,.11,0,.23,0,.35A21.89,21.89,0,0,1,154,76.06a.93.93,0,0,0,0,.1c-1.34,2.67-3.35,6.7-7.13,7.43a3.79,3.79,0,0,1-1.45.13c.6-.45,1.73-1.65,2.34-4.56.2-1,.33-1.89.47-2.78.38-2.54.74-4.93,2.46-7.42l-.23-.22c-1.91,1.43-4,5.3-4.3,6.31-.05.16-.09.34-.13.52a5,5,0,0,1-2.28,3.48,3.32,3.32,0,0,1-3.06.46l-.09-.05.07,0a4.27,4.27,0,0,0,2-1.52c.58-.85.93-2.82,1.26-4.73.16-.92.32-1.79.49-2.53a14.37,14.37,0,0,1,1.33-3.59,10.39,10.39,0,0,1,3.12-3.68A14.55,14.55,0,0,1,151,62l-.09-.3a7.87,7.87,0,0,0-1.8.38c-3,1-4.42,3.48-5.49,5.7a4.89,4.89,0,0,1-3.09,2.83,7.4,7.4,0,0,0,1.4-3.23A30.92,30.92,0,0,1,143,64.1c.74-1.92,2.84-3.41,6.39-4.54,1.33-.43,2.7-.75,3.69-1l.09,0a12.12,12.12,0,0,0-1.26,5.6,11.81,11.81,0,0,1-1,4l-.12.27.29,0A11.63,11.63,0,0,0,156,66.53a3.3,3.3,0,0,0,.57-.44l.08-.08,0,0,0,0,.09-.08.14-.14,0,0,0,0a3.41,3.41,0,0,0,.54-.75,2.43,2.43,0,0,0,.24-.49,13.71,13.71,0,0,1,.74-1.55c.06.28.13.54.19.78l.17.72a16,16,0,0,1,0,5.18c0,.17-.07.33-.11.45s0,.16-.06.23l-.19.58.45-.41c1-.94,2-1.81,2.42-2.27s.74-.83,1-1.16.64-.75,1.21-1.37a7.19,7.19,0,0,0,1.49-2.78A16.68,16.68,0,0,0,168,66.23l.31.16-.08-.34a9.26,9.26,0,0,1,0-3.66,25.85,25.85,0,0,1,1-2.93c1.08-2.19,1.36-2.83,1.48-4.55a9.79,9.79,0,0,0-1.46-5l-.29.14a10.65,10.65,0,0,1,.69,3.6A12.77,12.77,0,0,1,168,58.93c-.3.63-.59,1.22-.8,1.79a1,1,0,0,0,0,.14v0a6.39,6.39,0,0,0-.42,1.59,1.15,1.15,0,0,1,0,.19v.08h0a9.88,9.88,0,0,1-1.29-2.26,3.38,3.38,0,0,1-.21-.7,5.22,5.22,0,0,1,0-2.17,6,6,0,0,0,.16-1.73,4.71,4.71,0,0,0-.46-2,4.12,4.12,0,0,0-.87-1.24l-.25.18a6.26,6.26,0,0,1,.2,4.31,5.78,5.78,0,0,0-.07,3.22c.07.24.15.48.23.69s0,.19,0,.27a2.29,2.29,0,0,1-.07.44,7.15,7.15,0,0,1-.32,1A9.89,9.89,0,0,1,163,64c-.3.35-.61.69-.91,1l-.63.7-.09.1h0v0l-.07.08-.31.36-.66.68c0-.29.07-.57.08-.84a13.12,13.12,0,0,0-.54-3.46,15.72,15.72,0,0,1-.45-2.14,4.91,4.91,0,0,1,0-1.83,5.92,5.92,0,0,1,1.18-2.47h0s0,0,0,0a2.62,2.62,0,0,0,1-.54,3,3,0,0,0,.4-.39h0a3.26,3.26,0,0,0,.68-2.52,5.18,5.18,0,0,0-.68-2.13c-.07-.16-.13-.26-.13-.27l-.3.12a4.25,4.25,0,0,1-.13,3.27,2.22,2.22,0,0,1-1.43,1l-.3.08a7.26,7.26,0,0,1-2.34-.06l-.37-.07a12.23,12.23,0,0,0-2.57-.31l-.32,0a9.43,9.43,0,0,0-1.06,0,9,9,0,0,0-2,.4,6.16,6.16,0,0,1-1.33.29,1.67,1.67,0,0,1-1.59-.92,1.83,1.83,0,0,1-.34-.95c0-.87.9-1.47,2.37-1.55a7,7,0,0,1,1.73.14,8.38,8.38,0,0,0,2,.16c2.11-.11,3.62-1.14,3.85-2.63a10.94,10.94,0,0,0,.09-2c0-.82-.21-3.52-1.31-3.66h-.18c-.55,0-.9.49-1.28,1a3.55,3.55,0,0,1-1.34,1.23,3.19,3.19,0,0,1-1.14.22A5.55,5.55,0,0,1,149,45a1.48,1.48,0,0,1-.53-1.08A1.93,1.93,0,0,1,148.47,43.46Zm9.85,17.61a22,22,0,0,0-1.55,3.18,5.36,5.36,0,0,1-1.82,2,10.13,10.13,0,0,1-2,.83s0,0,0-.13a12.23,12.23,0,0,0,.4-2.33c.07-.82.13-1.57.19-2.23,0-.23.06-.45.09-.65a6.52,6.52,0,0,1,3.69-4.91l.67.05c.39,0,.75.08,1.07.09a7.05,7.05,0,0,0-.78,3C158.27,60.35,158.29,60.71,158.32,61.07Zm2.37-4.88Zm-12.46-7.48c.89.94,2.48,0,3.78-.44s3.05,1.08,4.64.1c0,0-.16,1.89-1.81,1.32s-3-.75-4.16.38-4.08.69-4.75-1-.21-3.44-1.31-3.88c0,0,.58-1.09,2.16-.43S147.35,47.77,148.23,48.71Zm-39-4c1.57-.66,2.15.43,2.15.43-1.1.44-.62,2.19-1.3,3.88s-3.56,2.12-4.75,1-2.52-1-4.16-.38-1.81-1.32-1.81-1.32c1.59,1,3.34-.49,4.64-.1s2.89,1.38,3.78.44S107.66,45.42,109.23,44.76ZM79.55,63.52l.09-.43a5.31,5.31,0,0,1,1.87-3.21L82,59.5a6.53,6.53,0,0,0,2.43-3.44,9.47,9.47,0,0,0,.24-3.28H84.3a6.57,6.57,0,0,1-2,4.46,4.6,4.6,0,0,1-2.54.54,6.58,6.58,0,0,1-1.45-.24c2.85-2.93,3.31-7,3.64-10l.1-.86a6.36,6.36,0,0,1,.56-1.93h0a0,0,0,0,0,0,0,3.47,3.47,0,0,1,.25-.46l.09-.17-.18-.07a4.74,4.74,0,0,1-2.66-3.43,4.08,4.08,0,0,0,2.1.8,2.61,2.61,0,0,0,.55,0h0a2,2,0,0,0,.51-.16l.14-.08L83.46,41A6,6,0,0,1,83,38.35c0-.2,0-.36,0-.51a2.41,2.41,0,0,0,2,1.12,11.66,11.66,0,0,0,2.52-.28l.92-.15a30.31,30.31,0,0,1,5.76-.64,14.42,14.42,0,0,1,3.19.85,14.5,14.5,0,0,0,3.41.89,1.85,1.85,0,0,0,.74-.08c.32-.11.61-.23.89-.35a4.61,4.61,0,0,1,2.22-.51,6.8,6.8,0,0,1,1,.15c1.23.28,1.38,1,1.48,2.23A3.58,3.58,0,0,1,103,39.89l-.26-.38,0,.46a2.59,2.59,0,0,0,1.75,2.48h.06l.21.07h0a4.46,4.46,0,0,0,2.62-.13,8.85,8.85,0,0,0,.18,1.05,1.93,1.93,0,0,1,0,.47,1.56,1.56,0,0,1-.53,1.08,5.55,5.55,0,0,1-3.66,1,3.19,3.19,0,0,1-1.14-.22,3.55,3.55,0,0,1-1.34-1.23c-.38-.48-.73-.94-1.28-1h-.19c-1.09.14-1.27,2.84-1.3,3.66a10.94,10.94,0,0,0,.09,2c.22,1.49,1.73,2.52,3.85,2.63a8.38,8.38,0,0,0,2-.16,6.92,6.92,0,0,1,1.73-.14c1.47.08,2.4.68,2.37,1.55a1.77,1.77,0,0,1-.35.95,1.64,1.64,0,0,1-1.58.92,5.92,5.92,0,0,1-1.33-.29,9,9,0,0,0-2-.4,7.76,7.76,0,0,0-1.07,0,1.68,1.68,0,0,0-.31,0,12.23,12.23,0,0,0-2.57.31l-.37.07a7.27,7.27,0,0,1-2.34.06L96,54.74a2.23,2.23,0,0,1-1.42-1,4.2,4.2,0,0,1-.13-3.27l-.3-.12s-.06.11-.14.28a5.1,5.1,0,0,0-.67,2.13,3.21,3.21,0,0,0,.67,2.5h0v0a3,3,0,0,0,.41.38,2.59,2.59,0,0,0,.93.54l0,0h0a5.86,5.86,0,0,1,1.18,2.47,5.08,5.08,0,0,1,0,1.82,15.55,15.55,0,0,1-.45,2.15,12.72,12.72,0,0,0-.54,3.46,8.39,8.39,0,0,0,.07.84L95,66.32l-.3-.35-.07-.08v0h0l-.1-.11s-.63-.7-.63-.7c-.29-.33-.6-.67-.9-1a9.89,9.89,0,0,1-.74-1.22,6.1,6.1,0,0,1-.32-1,2.29,2.29,0,0,1-.07-.44,1.39,1.39,0,0,0,0-.27c.08-.21.17-.45.24-.69A5.68,5.68,0,0,0,92,57.16a6.33,6.33,0,0,1,.21-4.31L92,52.67a4.3,4.3,0,0,0-.87,1.25,4.77,4.77,0,0,0-.46,2,6.37,6.37,0,0,0,.17,1.73,5.26,5.26,0,0,1,0,2.18,3.48,3.48,0,0,1-.21.69,9.88,9.88,0,0,1-1.29,2.26h0v-.26a6.52,6.52,0,0,0-.42-1.61l0,0,0-.12A19.37,19.37,0,0,0,88,58.93a12.77,12.77,0,0,1-1.62-5.24,10.38,10.38,0,0,1,.69-3.6L86.82,50a9.78,9.78,0,0,0-1.46,4.95c.12,1.73.4,2.37,1.47,4.56a24,24,0,0,1,1,2.93,9,9,0,0,1,0,3.66l-.08.34.32-.16a16.68,16.68,0,0,0,2.82-3.37,6.93,6.93,0,0,0,1.49,2.78c.57.62.89,1,1.21,1.37s.56.66,1,1.16S96,69.5,97,70.43l.45.42s-.18-.58-.18-.58L97.2,70c0-.12-.07-.28-.1-.46a15.63,15.63,0,0,1,0-5.17l.17-.72c.06-.24.13-.5.19-.78a13.63,13.63,0,0,1,.73,1.55,4.35,4.35,0,0,0,.24.49,3.82,3.82,0,0,0,.55.75l0,0,0,0,.14.14.09.08,0,0,0,0a.38.38,0,0,0,.09.09,3,3,0,0,0,.57.43,11.49,11.49,0,0,0,4.9,1.88l.3,0-.12-.27a11.81,11.81,0,0,1-1-4,12.12,12.12,0,0,0-1.26-5.6l.09,0c1,.23,2.36.55,3.68,1,3.56,1.13,5.66,2.62,6.4,4.54a33.41,33.41,0,0,1,1,3.29,7.4,7.4,0,0,0,1.4,3.23,4.89,4.89,0,0,1-3.09-2.83c-1.08-2.22-2.48-4.68-5.5-5.7a7.79,7.79,0,0,0-1.79-.38L105,62a15.07,15.07,0,0,1,2.19,1.38,10.31,10.31,0,0,1,3.11,3.67,14.6,14.6,0,0,1,1.34,3.6c.17.74.33,1.61.49,2.53.33,1.91.67,3.88,1.25,4.73a4.34,4.34,0,0,0,2,1.52l.07,0-.1.05a3.3,3.3,0,0,1-3-.46A5,5,0,0,1,110,75.57c0-.18-.08-.36-.13-.52-.3-1-2.39-4.88-4.3-6.31l-.23.22c1.72,2.49,2.08,4.88,2.46,7.42.13.89.27,1.81.47,2.78.61,2.91,1.74,4.11,2.34,4.56a3.65,3.65,0,0,1-1.43-.13c-3.8-.73-5.81-4.76-7.15-7.43l-.06-.11a22,22,0,0,1-1.54-6.75c0-.12,0-.24,0-.35l-.32-.07a11,11,0,0,0,.22,6.25v.05a.37.37,0,0,1,0,.11c0,.4,0,.76-.07,1.15s-.05.81-.07,1.26a18,18,0,0,0,.08,2.52,13.06,13.06,0,0,0,1,3.54,7.41,7.41,0,0,0,.77,1.17,6.08,6.08,0,0,0,.69.73,5.27,5.27,0,0,0,.66.49,7.5,7.5,0,0,1-.81-.11c-2.35-.47-4.15-2.12-5.81-5.36a12.33,12.33,0,0,1-1.15-2.33,23.32,23.32,0,0,1-1-6.08c0-.82,0-1.68,0-2.56,0-.1,0-.23.06-.38l-.3-.1a12.46,12.46,0,0,0-.6,7.2c-.73,6.37-3.42,8.91-4.41,9.64a12.66,12.66,0,0,0,.42-3,26.2,26.2,0,0,0-.47-5.12c-.14-.85-.27-1.66-.35-2.48-.18-6.43,2.57-10,2.6-10l-.23-.23L91,65.5h0a10.36,10.36,0,0,0-3.4,6.7c-.09.51-.17,1.08-.23,1.72-.29,3-3.4,4.18-4.37,4.47a11.35,11.35,0,0,0,.47-3.16c0-1,0-2,0-3.09,0-.84,0-1.72,0-2.56a8.57,8.57,0,0,1,.94-3.72,9.26,9.26,0,0,1,3.22-4l-.13-.29A8.06,8.06,0,0,0,83.21,65l-.13.17v0h0A6.92,6.92,0,0,1,80.6,68a4.38,4.38,0,0,1-3.17.6C78.71,67.52,79,66.13,79.55,63.52ZM97,57c.32,0,.67,0,1.06-.09l.68-.05a6.48,6.48,0,0,1,3.68,4.91c0,.2.07.42.1.65.06.66.12,1.41.19,2.23a12.23,12.23,0,0,0,.4,2.33c0,.08,0,.13,0,.13a9.89,9.89,0,0,1-2-.83,5.27,5.27,0,0,1-1.82-2,22,22,0,0,0-1.55-3.18,9.93,9.93,0,0,0,0-1.1A6.93,6.93,0,0,0,97,57Zm-2.33,8.9ZM75.56,120.31c2.15-3.84,4.45-6.14,4.45-7.83a23.75,23.75,0,0,0-.81-3.41,5.51,5.51,0,0,1-4.67,1.06c-3.68-1.23-4.91-1.64-8-8s-1-13.31-1-13.31a63.63,63.63,0,0,1,2.25,6.55,16.47,16.47,0,0,0,2.86,5.53s-.2-5.12-.2-9.42-.61-5.11-2.46-9.62a14.05,14.05,0,0,1-.61-8.59,16.9,16.9,0,0,0,5.73,8.8s.41-6.76-1.84-9.62a27.84,27.84,0,0,1-4.91-10.23,60.39,60.39,0,0,0-2.87-8.19c7.16,2.46,7.57,7.37,7.57,7.37s2.25-1.23-2.66-9.83A24.88,24.88,0,0,1,65.73,34.4a9.67,9.67,0,0,0,3.48,7.16c5.18,4.6,6.35,15.35,4.91,21.29s3.07,14.74,2,19.65-5.53,16.37-2.25,22.1c1.64,2.87,3.63,2.82,5.22,2.05a3.41,3.41,0,0,1,.56-1.23,25.17,25.17,0,0,0,2-3.39c3.09-4,6.34-7,9.66-12.1,3.09-4.74,3.38-8.57,3.32-10.3a14.26,14.26,0,0,0,.91,1.74c1.17,2.26,3.14,5.31,6.76,6l.44.06s0,0,0,0l.35.07c3.07.5,3.3-2.18,3.3-2.18A3.57,3.57,0,0,1,104.1,85a2.8,2.8,0,0,1-.46-.35h0a4.63,4.63,0,0,1-.52-.55,6,6,0,0,1-.59-.89,11.63,11.63,0,0,1-.87-3.08,15.47,15.47,0,0,1-.08-1.77,19.58,19.58,0,0,0,2,3.18,9,9,0,0,0,5.22,3.44,4.72,4.72,0,0,0,2.5.06l2.31-.56c1.48.34,2.88.59,4.06.77,0,0,1.43-4.18,4.63-5V56.09c0-.06-.07-5.73,0-10.39-1,2.13-2.65,5-5.09,6.35a7.11,7.11,0,0,0,4.38-1.8c-.3,1.74-3.94,8-8.88,11a12.69,12.69,0,0,0-4.29-2.56c1.4-2.47,3.36-5.86,3.36-5.86,1.79-3.52,2.4-8.19,2.71-11.29,0,0-4.62-1.28-5.41-4.73-.46-2,.85-3.32,2.38-3.93-1,4.66,2.24,5.8,2.24,5.8a8.26,8.26,0,0,1-.38-6.2,9.57,9.57,0,0,1,2.24.14c-.74,5.41,2.48,6.34,2.48,6.34a9,9,0,0,1-.19-6.2,4.78,4.78,0,0,1,4.28,2l.12.18a10.83,10.83,0,0,1-3,9.22s1.57-.12,3.19-2.28a36.63,36.63,0,0,1,.67-5.74C123.8,33,125,31,126.8,30.3l.73-.29v-.39l.48.19.53-.22V30l.7.28c1.86.73,3.1,2.65,3.81,5.86a37.74,37.74,0,0,1,.71,6,4.86,4.86,0,0,0,3,2,10.83,10.83,0,0,1-3-9.22l.12-.18a4.78,4.78,0,0,1,4.28-2,9,9,0,0,1-.19,6.2s3.22-.93,2.48-6.34a9.54,9.54,0,0,1,2.24-.14,8.36,8.36,0,0,1-.38,6.2s3.23-1.14,2.24-5.8c1.53.61,2.84,1.92,2.38,3.93-.79,3.45-5.41,4.73-5.41,4.73.31,3.1.91,7.77,2.71,11.29,0,0,2,3.39,3.36,5.86a12.69,12.69,0,0,0-4.29,2.56c-4.94-3-8.58-9.3-8.89-11a7.15,7.15,0,0,0,4.39,1.8c-2.28-1.27-3.91-3.87-4.9-5.94.06,4.58,0,9.92,0,10V80.23c3.07,1,4.44,5,4.44,5,1.18-.18,2.58-.43,4.05-.77l2.32.56a4.79,4.79,0,0,0,1.13.14,4.94,4.94,0,0,0,1.37-.2,9,9,0,0,0,5.22-3.44,20.28,20.28,0,0,0,2-3.18c0,.57,0,1.15-.08,1.77a11.71,11.71,0,0,1-.88,3.08,5.94,5.94,0,0,1-.58.89,4,4,0,0,1-.53.55h0a2.8,2.8,0,0,1-.46.35,3.59,3.59,0,0,1-2.29.42s.24,2.68,3.3,2.18l.36-.07v0l.44-.06c3.62-.73,5.58-3.78,6.75-6a13.33,13.33,0,0,0,.89-1.68c-.06,1.75.27,5.55,3.32,10.24,3.33,5.12,6.59,8.14,9.68,12.12l.05.06a24.08,24.08,0,0,0,1.91,3.31,3.41,3.41,0,0,1,.56,1.23c1.59.77,3.58.82,5.22-2.05,3.28-5.73-1.23-17.19-2.25-22.1s3.48-13.72,2-19.65-.26-16.69,4.92-21.29a9.67,9.67,0,0,0,3.48-7.16,24.88,24.88,0,0,1-2.66,17.19c-4.92,8.6-2.66,9.83-2.66,9.83s.41-4.91,7.57-7.37a60.39,60.39,0,0,0-2.87,8.19,28,28,0,0,1-4.91,10.23c-2.25,2.86-1.84,9.62-1.84,9.62a16.9,16.9,0,0,0,5.73-8.8,14.05,14.05,0,0,1-.61,8.59c-1.85,4.51-2.46,5.32-2.46,9.62s-.2,9.42-.2,9.42a16.47,16.47,0,0,0,2.86-5.53,63.63,63.63,0,0,1,2.25-6.55s2.05,7-1,13.31-4.3,6.75-8,8a5.5,5.5,0,0,1-4.67-1.06,23.75,23.75,0,0,0-.81,3.41c0,1.69,2.3,4,4.45,7.83s1.69,9.52,1.69,9.52a69.12,69.12,0,0,0-4.45-6.14s2,9.05-.31,14.89a74.11,74.11,0,0,0-3.22-8.14s-.31,8.44-3.84,13.2c0,0-.46-3.22-.77-5.83,0,0-1.8,3.77-3.37,4.78v.22c-3.06,4.36-5.88,4-8,4.32l-.25-.08c-2.26-.79-3-2.74-3.46-4.69a10.84,10.84,0,0,1,7.41-2.23s-1.93-3.76-8.17-.64a13.27,13.27,0,0,1-.74-2.81,9.92,9.92,0,0,1,7.46-2s-2.17-3.68-7.46-.56c.34-2.2,1.55-4.4,4.06-4.61,3.32-.29,6.57,3.8,7.87,5.66a8.09,8.09,0,0,1,2.05-2.74c2.77-2.31,4-8.14,3.07-10s-3.37-3.22-6.14-4.15c-2.15-.71-4.2-2.75-4.27-6.53.18-2.93,2.12-4.7,1.74-6.69-.35-1.8-2.47-6.29-4-9.32-1.25-2.72-2.67-5.37-3.79-7.66-2.19,2.28-5.09,4.29-6.45,4.62a6.89,6.89,0,0,0,1.79-5.41,11.25,11.25,0,0,1-6.78,6.16c-2.59.76-3.77,1.45-5.2,1.63,4-2.15,4.25-5.32,4.25-5.32a11,11,0,0,1-7.32,3.57v16a3.56,3.56,0,0,1,2.33-.88c4.16-.15,8.5,6.13,8.5,6.13a3.83,3.83,0,0,0,2-.66,5.58,5.58,0,0,0,1.94-3.94,25.1,25.1,0,0,1-.13-3.39c-.14-1-.3-2-.49-2.91-.77-3.84-.61-6.14.92-6,1.05.1,5.85,2.12,8.82,3.4.38.58.76,1.17,1.1,1.72,1.32,2.13.88,2.76.35,5.65l-3-1.34c2.28,5.28,1.69,9.15.93,10.77-1-3.51-4.34-6.79-4.34-6.79a19.58,19.58,0,0,1,1.65,13.2,20.5,20.5,0,0,1-2.15,4.38c.86-5.14-1.33-7.16-1.33-7.16a5.61,5.61,0,0,1-1.84,5.33s-.69-1.56-1.53-3.15a8.84,8.84,0,0,0-3.08-2.46,12.47,12.47,0,0,1-6.55,2.75l-.25-.08a5.62,5.62,0,0,1-3.55-4.27,10.61,10.61,0,0,1,7.11-1.66s-1.94-3.18-7.49-1.08v31.49h3.73a4.92,4.92,0,0,1,1.34-1.64,4.71,4.71,0,0,1,3-1,4.9,4.9,0,0,1,0,9.8,4.75,4.75,0,0,1-2.58-.77h-6.4l-.35.69a2.53,2.53,0,0,1-.21.32l.22.71a11,11,0,0,1,.28,1.25h0a5,5,0,0,1-.47,3.7l.18.56a9,9,0,0,1,.29,1.27h0v0h0c.35,2,0,3.44-1,4.3h.49a3,3,0,0,1,0,5.92h-8.8a2.75,2.75,0,0,1-2.56-3,2.79,2.79,0,0,1,2.28-2.93l.07-.51a4.33,4.33,0,0,1,.56-1.61l-.27-.8a8.23,8.23,0,0,1-.32-1.64,5,5,0,0,1,.62-3.15l-.3-.89a8.63,8.63,0,0,1-.32-1.64,5.43,5.43,0,0,1,.34-2.6h-7a4.75,4.75,0,0,1-2.58.77,4.9,4.9,0,0,1,0-9.8,4.73,4.73,0,0,1,3,1,5,5,0,0,1,1.34,1.64h3.92V117c-5.7-2.24-7.68,1-7.68,1a10.61,10.61,0,0,1,7.11,1.66,5.62,5.62,0,0,1-3.55,4.27l-.25.08a12.44,12.44,0,0,1-6.55-2.75,8.84,8.84,0,0,0-3.08,2.46c-.84,1.59-1.54,3.15-1.54,3.15a5.63,5.63,0,0,1-1.83-5.33s-2.2,2-1.33,7.16a20,20,0,0,1-2.15-4.38c-.6-2.36-.27-9.42,1.51-13.31,0,0-3.2,3.39-4.2,6.9-.76-1.62-1.22-6.87,1.14-10.86L97,108.42c-.52-2.8-.93-3.45.37-5.55.38-.61.8-1.26,1.22-1.9,3-1.28,7.4-3.13,8.39-3.22,1.54-.16,1.69,2.14.93,6-.19,1-.36,2-.49,2.91a25.1,25.1,0,0,1-.13,3.39,5.58,5.58,0,0,0,1.94,3.94,3.83,3.83,0,0,0,2,.66s4.34-6.28,8.5-6.13a3.57,3.57,0,0,1,2.52,1.06V93.37a10.9,10.9,0,0,1-7.51-3.58,8.84,8.84,0,0,0,4.57,5.83c-1.43-.18-1.77-.52-4.36-1.27-2-.86-6.41-3.85-8-7,0,0-.29,2.69,2.1,6.06-1.36-.33-4.56-3-6.75-5.27-1.71,3.5-4.13,7.83-5.54,12a28.57,28.57,0,0,0-1.92,5c-.28,1.44.67,2.77,1.28,4.51.82,5.19-1.58,7.87-4.12,8.71-2.76.93-5.21,2.31-6.14,4.15s.31,7.67,3.07,10a8,8,0,0,1,2.06,2.74c1.29-1.86,4.54-6,7.87-5.66,2.51.21,3.72,2.41,4.05,4.61-5.28-3.12-7.45.56-7.45.56a9.89,9.89,0,0,1,7.45,2,13.23,13.23,0,0,1-.73,2.81c-6.24-3.12-8.18.64-8.18.64a10.8,10.8,0,0,1,7.41,2.23c-.42,1.95-1.19,3.9-3.45,4.69l-.25.08c-2.13-.35-5,0-8-4.32v-.22c-1.57-1-3.37-4.78-3.37-4.78-.31,2.61-.77,5.83-.77,5.83-3.53-4.76-3.84-13.2-3.84-13.2a74.11,74.11,0,0,0-3.22,8.14c-2.31-5.84-.31-14.89-.31-14.89a69.12,69.12,0,0,0-4.45,6.14S73.41,124.15,75.56,120.31Z" style="fill:#2b2b2b"/><path d="M120.07,88.9a8.55,8.55,0,0,1,2.26-.45V86.93A3.69,3.69,0,0,0,120.07,88.9Z" style="fill:#282347"/><path d="M120.6,84.59a8,8,0,0,1,1.73-.51v-1.2A3.82,3.82,0,0,0,120.6,84.59Z" style="fill:#282347"/><path d="M116.29,113.19a9.42,9.42,0,0,1,6,.83v-2.14C118.19,110.43,116.29,113.19,116.29,113.19Z" style="fill:#282347"/><path d="M139.72,113.19s-1.85-2.68-5.85-1.38h0v2.11A9.39,9.39,0,0,1,139.72,113.19Z" style="fill:#282347"/><path d="M133.87,87v1.47a8.39,8.39,0,0,1,2.07.43A3.65,3.65,0,0,0,133.87,87Z" style="fill:#282347"/><path d="M133.87,83v1.15a8.11,8.11,0,0,1,1.54.46A3.8,3.8,0,0,0,133.87,83Z" style="fill:#282347"/><path d="M133.87,46.11c1,2.07,2.62,4.67,4.9,5.94a7.15,7.15,0,0,1-4.39-1.8c.31,1.74,4,8,8.89,11a12.69,12.69,0,0,1,4.29-2.56c-1.4-2.47-3.36-5.86-3.36-5.86-1.8-3.52-2.4-8.19-2.71-11.29,0,0,4.62-1.28,5.41-4.73.46-2-.85-3.32-2.38-3.93,1,4.66-2.24,5.8-2.24,5.8a8.36,8.36,0,0,0,.38-6.2,9.54,9.54,0,0,0-2.24.14c.74,5.41-2.48,6.34-2.48,6.34a9,9,0,0,0,.19-6.2,4.78,4.78,0,0,0-4.28,2l-.12.18a10.83,10.83,0,0,0,3,9.22,4.86,4.86,0,0,1-3-2c.05,1,.08,2.07.11,3.27Z" style="fill:#a0a09f"/><path d="M159.64,42.77h0l0-.05Z" style="fill:#010101"/><path d="M159.21,42.43h0l-.06,0h0Z" style="fill:#010101"/><path d="M158,56.88l-.67-.05a6.52,6.52,0,0,0-3.69,4.91c0,.2-.06.42-.09.65-.06.66-.12,1.41-.19,2.23a12.23,12.23,0,0,1-.4,2.33c0,.08,0,.13,0,.13a10.13,10.13,0,0,0,2-.83,5.36,5.36,0,0,0,1.82-2,22,22,0,0,1,1.55-3.18c0-.36,0-.72,0-1.1a7.05,7.05,0,0,1,.78-3C158.73,57,158.37,56.93,158,56.88Z" style="fill:#a0a09f"/><path d="M144.62,45.19c1.1.44.63,2.19,1.31,3.88s3.55,2.12,4.75,1,2.52-1,4.16-.38,1.81-1.32,1.81-1.32c-1.59,1-3.34-.49-4.64-.1s-2.89,1.38-3.78.44.12-3.29-1.45-4S144.62,45.19,144.62,45.19Z" style="fill:#efefef"/><path d="M161.84,43.66a2.23,2.23,0,0,0,2.36-1.41,4.83,4.83,0,0,1-.64-.44c-.09-.07-.18-.15-.27-.21a.91.91,0,0,1,.08.37,1,1,0,0,1-1,1.11,1,1,0,0,1-1-1,1,1,0,0,1,1-1.1c-.54-.26-.92-.2-1.2.29a3.25,3.25,0,0,1-.62.89C160.69,42.56,161.12,43.44,161.84,43.66Z" style="fill:#eef2e4"/><path d="M133.87,111.81c4-1.3,5.85,1.38,5.85,1.38a9.39,9.39,0,0,0-5.85.74v3c5.55-2.1,7.49,1.08,7.49,1.08a10.61,10.61,0,0,0-7.11,1.66A5.62,5.62,0,0,0,137.8,124l.25.08a12.47,12.47,0,0,0,6.55-2.75,8.84,8.84,0,0,1,3.08,2.46c.84,1.59,1.53,3.15,1.53,3.15a5.61,5.61,0,0,0,1.84-5.33s2.19,2,1.33,7.16a20.5,20.5,0,0,0,2.15-4.38,19.58,19.58,0,0,0-1.65-13.2s3.34,3.28,4.34,6.79c.76-1.62,1.35-5.49-.93-10.77l3,1.34c.53-2.89,1-3.52-.35-5.65-.34-.55-.72-1.14-1.1-1.72-3-1.28-7.77-3.3-8.82-3.4-1.53-.16-1.69,2.14-.92,6,.19,1,.35,2,.49,2.91a25.1,25.1,0,0,0,.13,3.39,5.58,5.58,0,0,1-1.94,3.94,3.83,3.83,0,0,1-2,.66s-4.34-6.28-8.5-6.13a3.56,3.56,0,0,0-2.33.88v2.43Z" style="fill:#a0a09f"/><path d="M135.41,84.59a8.11,8.11,0,0,0-1.54-.46V87a3.65,3.65,0,0,1,2.07,1.9,8.39,8.39,0,0,0-2.07-.43v4.89a11,11,0,0,0,7.32-3.57s-.26,3.17-4.25,5.32c1.43-.18,2.61-.87,5.2-1.63a11.25,11.25,0,0,0,6.78-6.16,6.89,6.89,0,0,1-1.79,5.41c1.36-.33,4.26-2.34,6.45-4.62,1.12,2.29,2.54,4.94,3.79,7.66,1.5,3,3.62,7.52,4,9.32.38,2-1.56,3.76-1.74,6.69.07,3.78,2.12,5.82,4.27,6.53,2.77.93,5.22,2.31,6.14,4.15s-.3,7.67-3.07,10a8.09,8.09,0,0,0-2.05,2.74c-1.3-1.86-4.55-6-7.87-5.66-2.51.21-3.72,2.41-4.06,4.61,5.29-3.12,7.46.56,7.46.56a9.92,9.92,0,0,0-7.46,2,13.27,13.27,0,0,0,.74,2.81c6.24-3.12,8.17.64,8.17.64a10.84,10.84,0,0,0-7.41,2.23c.42,1.95,1.2,3.9,3.46,4.69l.25.08c2.13-.35,5,0,8-4.32v-.22c1.57-1,3.37-4.78,3.37-4.78.31,2.61.77,5.83.77,5.83,3.53-4.76,3.84-13.2,3.84-13.2a74.11,74.11,0,0,1,3.22,8.14c2.3-5.84.31-14.89.31-14.89a69.12,69.12,0,0,1,4.45,6.14s.46-5.68-1.69-9.52-4.45-6.14-4.45-7.83a23.75,23.75,0,0,1,.81-3.41,5.5,5.5,0,0,0,4.67,1.06c3.68-1.23,4.91-1.64,8-8s1-13.31,1-13.31a63.63,63.63,0,0,0-2.25,6.55,16.47,16.47,0,0,1-2.86,5.53s.2-5.12.2-9.42.61-5.11,2.46-9.62a14.05,14.05,0,0,0,.61-8.59,16.9,16.9,0,0,1-5.73,8.8s-.41-6.76,1.84-9.62a28,28,0,0,0,4.91-10.23,60.39,60.39,0,0,1,2.87-8.19c-7.16,2.46-7.57,7.37-7.57,7.37s-2.26-1.23,2.66-9.83a24.88,24.88,0,0,0,2.66-17.19,9.67,9.67,0,0,1-3.48,7.16c-5.18,4.6-6.35,15.35-4.92,21.29s-3.07,14.74-2,19.65,5.53,16.37,2.25,22.1c-1.64,2.87-3.63,2.82-5.22,2.05a3.41,3.41,0,0,0-.56-1.23,24.08,24.08,0,0,1-1.91-3.31l-.05-.06c-3.09-4-6.35-7-9.68-12.12-3-4.69-3.38-8.49-3.32-10.24a13.33,13.33,0,0,1-.89,1.68c-1.17,2.26-3.13,5.31-6.75,6l-.44.06v0l-.36.07c-3.06.5-3.3-2.18-3.3-2.18a3.59,3.59,0,0,0,2.29-.42,2.8,2.8,0,0,0,.46-.35h0a4,4,0,0,0,.53-.55,5.94,5.94,0,0,0,.58-.89,11.71,11.71,0,0,0,.88-3.08c.06-.62.08-1.2.08-1.77a20.28,20.28,0,0,1-2,3.18,9,9,0,0,1-5.22,3.44,4.94,4.94,0,0,1-1.37.2,4.79,4.79,0,0,1-1.13-.14l-2.32-.56c-1.47.34-2.87.59-4.05.77,0,0-1.37-4-4.44-5V83A3.8,3.8,0,0,1,135.41,84.59Z" style="fill:#a0a09f"/><path d="M122.45,41.91c-1.62,2.16-3.19,2.28-3.19,2.28a10.83,10.83,0,0,0,3-9.22l-.12-.18a4.78,4.78,0,0,0-4.28-2,9,9,0,0,0,.19,6.2s-3.22-.93-2.48-6.34a9.57,9.57,0,0,0-2.24-.14,8.26,8.26,0,0,0,.38,6.2s-3.23-1.14-2.24-5.8c-1.53.61-2.84,1.92-2.38,3.93.79,3.45,5.41,4.73,5.41,4.73-.31,3.1-.92,7.77-2.71,11.29,0,0-2,3.39-3.36,5.86a12.69,12.69,0,0,1,4.29,2.56c4.94-3,8.58-9.3,8.88-11a7.11,7.11,0,0,1-4.38,1.8c2.44-1.36,4.12-4.22,5.09-6.35v-.27C122.35,44.13,122.39,43,122.45,41.91Z" style="fill:#a0a09f"/><path d="M96.37,42.77a.08.08,0,0,1,0-.05l0,.05Z" style="fill:#010101"/><path d="M96.87,42.47l-.06,0h0l.06,0Z" style="fill:#010101"/><path d="M99.24,64.25a5.27,5.27,0,0,0,1.82,2,9.89,9.89,0,0,0,2,.83s0,0,0-.13a12.23,12.23,0,0,1-.4-2.33c-.07-.82-.13-1.57-.19-2.23,0-.23-.06-.45-.1-.65a6.48,6.48,0,0,0-3.68-4.91l-.68.05c-.39,0-.74.08-1.06.09a6.93,6.93,0,0,1,.77,3,9.93,9.93,0,0,1,0,1.1A22,22,0,0,1,99.24,64.25Z" style="fill:#a0a09f"/><path d="M104,48.27c-1.3-.39-3,1.08-4.64.1,0,0,.16,1.89,1.81,1.32s3-.75,4.16.38,4.07.69,4.75-1,.2-3.44,1.3-3.88c0,0-.58-1.09-2.15-.43s-.57,3-1.45,4S105.3,48.67,104,48.27Z" style="fill:#efefef"/><path d="M94.17,43.66c.72-.22,1.15-1.1,1.32-1.51a3,3,0,0,1-.62-.89c-.28-.49-.67-.55-1.2-.29a1,1,0,0,1,1,1.1,1,1,0,0,1-1,1,1,1,0,0,1-1-1.11,1.43,1.43,0,0,1,.08-.37l-.26.21a5.58,5.58,0,0,1-.64.44A2.23,2.23,0,0,0,94.17,43.66Z" style="fill:#eef2e4"/><path d="M78.63,138.58a74.11,74.11,0,0,1,3.22-8.14s.31,8.44,3.84,13.2c0,0,.46-3.22.77-5.83,0,0,1.8,3.77,3.37,4.78v.22c3.06,4.36,5.88,4,8,4.32l.25-.08c2.26-.79,3-2.74,3.45-4.69a10.8,10.8,0,0,0-7.41-2.23s1.94-3.76,8.18-.64a13.23,13.23,0,0,0,.73-2.81,9.89,9.89,0,0,0-7.45-2s2.17-3.68,7.45-.56c-.33-2.2-1.54-4.4-4.05-4.61-3.33-.29-6.58,3.8-7.87,5.66a8,8,0,0,0-2.06-2.74c-2.76-2.31-4-8.14-3.07-10s3.38-3.22,6.14-4.15c2.54-.84,4.94-3.52,4.12-8.71-.61-1.74-1.56-3.07-1.28-4.51a28.57,28.57,0,0,1,1.92-5c1.41-4.14,3.83-8.47,5.54-12,2.19,2.28,5.39,4.94,6.75,5.27-2.39-3.37-2.1-6.06-2.1-6.06,1.54,3.18,6,6.17,8,7,2.59.75,2.93,1.09,4.36,1.27a8.84,8.84,0,0,1-4.57-5.83,10.9,10.9,0,0,0,7.51,3.58V88.45a8.55,8.55,0,0,0-2.26.45,3.69,3.69,0,0,1,2.26-2V84.08a8,8,0,0,0-1.73.51,3.82,3.82,0,0,1,1.73-1.71v-2.7c-3.2.85-4.63,5-4.63,5-1.18-.18-2.58-.43-4.06-.77l-2.31.56a4.72,4.72,0,0,1-2.5-.06,9,9,0,0,1-5.22-3.44,19.58,19.58,0,0,1-2-3.18,15.47,15.47,0,0,0,.08,1.77,11.63,11.63,0,0,0,.87,3.08,6,6,0,0,0,.59.89,4.63,4.63,0,0,0,.52.55h0a2.8,2.8,0,0,0,.46.35,3.57,3.57,0,0,0,2.28.42s-.23,2.68-3.3,2.18l-.35-.07s0,0,0,0l-.44-.06c-3.62-.73-5.59-3.78-6.76-6a14.26,14.26,0,0,1-.91-1.74c.06,1.73-.23,5.56-3.32,10.3C88,95,84.74,98.05,81.65,102a25.17,25.17,0,0,1-2,3.39,3.41,3.41,0,0,0-.56,1.23c-1.59.77-3.58.82-5.22-2.05-3.28-5.73,1.23-17.19,2.25-22.1s-3.48-13.72-2-19.65.27-16.69-4.91-21.29a9.67,9.67,0,0,1-3.48-7.16,24.88,24.88,0,0,0,2.66,17.19c4.91,8.6,2.66,9.83,2.66,9.83s-.41-4.91-7.57-7.37a60.39,60.39,0,0,1,2.87,8.19,27.84,27.84,0,0,0,4.91,10.23c2.25,2.86,1.84,9.62,1.84,9.62a16.9,16.9,0,0,1-5.73-8.8A14.05,14.05,0,0,0,68,81.88c1.85,4.51,2.46,5.32,2.46,9.62s.2,9.42.2,9.42a16.47,16.47,0,0,1-2.86-5.53,63.63,63.63,0,0,0-2.25-6.55s-2.05,7,1,13.31,4.3,6.75,8,8a5.51,5.51,0,0,0,4.67-1.06,23.75,23.75,0,0,1,.81,3.41c0,1.69-2.3,4-4.45,7.83s-1.69,9.52-1.69,9.52a69.12,69.12,0,0,1,4.45-6.14S76.32,132.74,78.63,138.58Z" style="fill:#a0a09f"/><path d="M116.29,113.19s1.9-2.76,6-1.31v-2.32a3.57,3.57,0,0,0-2.52-1.06c-4.16-.15-8.5,6.13-8.5,6.13a3.83,3.83,0,0,1-2-.66,5.58,5.58,0,0,1-1.94-3.94,25.1,25.1,0,0,0,.13-3.39c.13-1,.3-2,.49-2.91.76-3.84.61-6.14-.93-6-1,.09-5.41,1.94-8.39,3.22-.42.64-.84,1.29-1.22,1.9-1.3,2.1-.89,2.75-.37,5.55l2.89-1.33c-2.36,4-1.9,9.24-1.14,10.86,1-3.51,4.2-6.9,4.2-6.9-1.78,3.89-2.11,11-1.51,13.31a20,20,0,0,0,2.15,4.38c-.87-5.14,1.33-7.16,1.33-7.16a5.63,5.63,0,0,0,1.83,5.33s.7-1.56,1.54-3.15a8.84,8.84,0,0,1,3.08-2.46,12.44,12.44,0,0,0,6.55,2.75l.25-.08a5.62,5.62,0,0,0,3.55-4.27,10.61,10.61,0,0,0-7.11-1.66s2-3.25,7.68-1v-3A9.42,9.42,0,0,0,116.29,113.19Z" style="fill:#a0a09f"/><path d="M114.1,146.94a3.74,3.74,0,0,0,0,7.47,3.54,3.54,0,0,0,2.17-.77h23.47a3.54,3.54,0,0,0,2.17.77,3.74,3.74,0,0,0,0-7.47,3.61,3.61,0,0,0-3.45,2.68H117.55A3.61,3.61,0,0,0,114.1,146.94Z" style="fill:#a0a09f"/><path d="M132.63,136.68V56.08s0-2.63,0-5.79c0-1.57,0-3.27,0-4.84-.11-6.61-.71-12.83-3.87-14.08v117h3.87Z" style="fill:#a0a09f"/><path d="M122.33,84.08v64.37h-3.92a5,5,0,0,0-1.34-1.64,4.73,4.73,0,0,0-3-1,4.9,4.9,0,0,0,0,9.8,4.75,4.75,0,0,0,2.58-.77h7a5.43,5.43,0,0,0-.34,2.6,8.63,8.63,0,0,0,.32,1.64l.3.89a5,5,0,0,0-.62,3.15,8.23,8.23,0,0,0,.32,1.64l.27.8a4.33,4.33,0,0,0-.56,1.61l-.07.51a2.79,2.79,0,0,0-2.28,2.93,2.75,2.75,0,0,0,2.56,3h8.8a3,3,0,0,0,0-5.92h-.49c1-.86,1.35-2.33,1-4.3a9,9,0,0,0-.29-1.27l-.18-.56a5,5,0,0,0,.47-3.7h0a11,11,0,0,0-.28-1.25l-.22-.71a2.53,2.53,0,0,0,.21-.32l.35-.69h6.4a4.75,4.75,0,0,0,2.58.77,4.9,4.9,0,0,0,0-9.8,4.71,4.71,0,0,0-3,1,4.92,4.92,0,0,0-1.34,1.64h-3.73V111.82h0V56.09c0-.06.06-5.4,0-10v-.68c0-1.2-.06-2.27-.11-3.27a37.74,37.74,0,0,0-.71-6c-.71-3.21-2-5.13-3.81-5.86l-.7-.28v-.43l-.53.22-.48-.19V30l-.73.29c-1.79.74-3,2.66-3.68,5.87a36.63,36.63,0,0,0-.67,5.74c-.06,1.07-.1,2.22-.12,3.52v.27c-.07,4.66,0,10.33,0,10.39v28Zm10,84.69c.73,0,1.32.8,1.32,1.8s-.59,1.8-1.32,1.8h-8.8c-.73,0-1.33-.81-1.33-1.8s.6-1.8,1.33-1.8Zm-7.12-8.59a4.45,4.45,0,0,1,1.22-.93l2.88-1.3.67-.3a5.57,5.57,0,0,0,1.17-.68l.22-.13a8.28,8.28,0,0,1,.25,1.11,6.75,6.75,0,0,1,.12,1.23,2.48,2.48,0,0,1-.88,2.16,18.52,18.52,0,0,1-3.27,1.64,17.39,17.39,0,0,0-2.8,1.39,6.76,6.76,0,0,1-.27-1.39,4.63,4.63,0,0,1,0-.54A3.43,3.43,0,0,1,125.24,160.18Zm-.72-3.4a3.94,3.94,0,0,1,.39-1.79h6.56a1.71,1.71,0,0,1-.58.67,18.46,18.46,0,0,1-3.27,1.63,16.63,16.63,0,0,0-2.8,1.4,7,7,0,0,1-.27-1.4A4.24,4.24,0,0,1,124.52,156.78Zm7.25,7.94a2.49,2.49,0,0,1-.88,2.16c-.22.14-.44.28-.67.41h-5.65a3.14,3.14,0,0,1,.67-1.57,4.3,4.3,0,0,1,1.13-.88l.22-.11,1.37-.62.16-.07.06,0c.7-.3,1.43-.61,2.14-1l.1,0c.33-.18.66-.37,1-.58a8.94,8.94,0,0,1,.24,1.08A6.75,6.75,0,0,1,131.77,164.72Zm-3-28V31.37c3.16,1.25,3.76,7.47,3.87,14.08,0,1.57,0,3.27,0,4.84,0,3.16,0,5.79,0,5.79v92.29h-3.87Zm-5.2-91.23c.11-6.61.69-12.83,3.74-14.08v117h-3.74V56.08s0-2.6,0-5.73C123.53,48.76,123.54,47,123.56,45.45Zm-.8,104.17h15.7a3.61,3.61,0,0,1,3.45-2.68,3.74,3.74,0,0,1,0,7.47,3.54,3.54,0,0,1-2.17-.77H116.27a3.54,3.54,0,0,1-2.17.77,3.74,3.74,0,0,1,0-7.47,3.61,3.61,0,0,1,3.45,2.68Z" style="fill:#010101"/><path d="M123.56,57.76v90.61h3.74v-117c-3,1.25-3.63,7.47-3.74,14.08,0,1.59,0,3.31,0,4.9,0,3.13,0,5.73,0,5.73Z" style="fill:#a0a09f"/><path d="M122.23,170.57c0,1,.6,1.8,1.33,1.8h8.8c.73,0,1.32-.81,1.32-1.8s-.59-1.8-1.32-1.8h-8.8C122.83,168.77,122.23,169.57,122.23,170.57Z" style="fill:#a0a09f"/><path d="M130.42,163l-.1,0c-.71.37-1.44.68-2.14,1l-.06,0-.16.07-1.37.62-.22.11a4.3,4.3,0,0,0-1.13.88,3.14,3.14,0,0,0-.67,1.57h5.65c.23-.13.45-.27.67-.41a2.49,2.49,0,0,0,.88-2.16,6.75,6.75,0,0,0-.12-1.23,8.94,8.94,0,0,0-.24-1.08C131.08,162.62,130.75,162.81,130.42,163Z" style="fill:#a0a09f"/><path d="M132.87,163.3h0Z" style="fill:#010101"/><path d="M127.62,157.29a18.46,18.46,0,0,0,3.27-1.63,1.71,1.71,0,0,0,.58-.67h-6.56a3.94,3.94,0,0,0-.39,1.79,4.24,4.24,0,0,0,0,.51,7,7,0,0,0,.27,1.4A16.63,16.63,0,0,1,127.62,157.29Z" style="fill:#a0a09f"/><path d="M124.55,163a6.76,6.76,0,0,0,.27,1.39,17.39,17.39,0,0,1,2.8-1.39,18.52,18.52,0,0,0,3.27-1.64,2.48,2.48,0,0,0,.88-2.16,6.75,6.75,0,0,0-.12-1.23,8.28,8.28,0,0,0-.25-1.11l-.22.13a5.57,5.57,0,0,1-1.17.68l-.67.3-2.88,1.3a4.45,4.45,0,0,0-1.22.93,3.43,3.43,0,0,0-.72,2.26A4.63,4.63,0,0,0,124.55,163Z" style="fill:#a0a09f"/><path d="M38.73,161.57a5.25,5.25,0,0,1,2.93-4.41c2.91-1.58,6.61.56,10.52,2.83l.74.42c3.46,2,4.6,1.38,5.7.8l.84-.76.75-1.26L34,136.37l-.15,10.17,0,.91-.9,0-11.84.41,18,15.26A4.43,4.43,0,0,1,38.73,161.57Z" style="fill:#eef2e4"/><path d="M212.62,165.06c1.82-1,2.77-2.24,2.76-3.47a3.4,3.4,0,0,0-1.93-2.76c-2-1.07-5.24.81-8.68,2.8l-.74.43c-2.61,1.5-4.3,1.77-5.62,1.54l4.05,6.81C207.38,167.88,211.17,165.89,212.62,165.06Z" style="fill:#eef2e4"/><rect x="64.88" y="186.41" width="3.26" height="3.13" transform="translate(-131.9 168.21) rotate(-64.83)" style="fill:#eef2e4"/><rect x="169.65" y="195.1" width="3.13" height="7.97" transform="translate(-67.52 89.74) rotate(-24.7)" style="fill:#eef2e4"/><path d="M213.56,166.71c-5.09,2.91-38.8,20-50.13,25.29-14.77,6.83-26.13,10.36-34.62,10.77v0l-.81,0-.8,0v0c-8.5-.41-19.85-3.94-34.62-10.77-11.33-5.24-45-22.38-50.13-25.29A9.58,9.58,0,0,1,40.23,165l-9.75,16.77c1.59,1.22,7.17,5,24,13l6.17,2.94c21.76,10.4,51.56,24.64,67.36,24.38,15.81.26,45.61-14,67.37-24.38l6.17-2.94c16.83-8,22.41-11.76,24-13L215.78,165A9.58,9.58,0,0,1,213.56,166.71Z" style="fill:#eef2e4"/><rect x="179.2" y="190.35" width="3.13" height="3.16" transform="translate(-65.38 97.46) rotate(-25.72)" style="fill:#eef2e4"/><rect x="142.05" y="206.06" width="3.13" height="3.16" transform="translate(-55.4 52.29) rotate(-17.36)" style="fill:#eef2e4"/><polygon points="127.28 214.25 129.14 214.18 128.08 210.56 127.28 214.25" style="fill:#eef2e4"/><polygon points="102.88 207.79 103.37 204.05 101.14 207.1 102.88 207.79" style="fill:#eef2e4"/><path d="M52,162.06l-.75-.43c-3.44-2-6.69-3.87-8.67-2.8a3.4,3.4,0,0,0-1.93,2.76c0,1.23.94,2.43,2.76,3.47,1.45.83,5.23,2.82,10.15,5.35l4.05-6.81C56.27,163.83,54.59,163.56,52,162.06Z" style="fill:#eef2e4"/><path d="M222.21,147.45v-.91l-.15-10.17-26.26,22.82.94,1.57,1,.59c1.1.58,1.93,1.05,5.39-.94l.73-.42c3.92-2.27,7.61-4.41,10.53-2.83a5.27,5.27,0,0,1,2.93,4.41,4.43,4.43,0,0,1-.29,1.58l18-15.26-11.84-.41Z" style="fill:#eef2e4"/><path d="M224.09,145.61l-.17-11.31,0-2-1.54,1.34L194,158.27l-.6.52.41.68,7,11.81c-12.33,6.34-30.43,15.43-38.14,19-15,6.92-26.32,10.4-34.63,10.61-8.3-.21-19.63-3.69-34.62-10.61-7.72-3.57-25.81-12.66-38.14-19l7-11.81.4-.68-.59-.52L33.66,133.6l-1.54-1.34,0,2-.17,11.31-13.38.47-2.46.08L18,147.75l20.19,17.09-9.7,16.69-.36.62.5.52c.15.14,3.78,3.72,25.08,13.82l6.16,2.93c21.87,10.45,51.79,24.75,68.08,24.57h.21c16.29.18,46.21-14.12,68.08-24.57l6.16-2.93c21.3-10.1,24.93-13.68,25.08-13.82l.5-.52-.36-.62-9.66-16.63,20.15-17.15,1.86-1.59-2.44-.08Zm-25.68,18c1.32.23,3,0,5.62-1.54l.74-.43c3.44-2,6.7-3.87,8.68-2.8a3.4,3.4,0,0,1,1.93,2.76c0,1.23-.94,2.43-2.76,3.47-1.45.83-5.24,2.82-10.16,5.35ZM53.54,170.41c-4.92-2.53-8.7-4.52-10.15-5.35-1.82-1-2.77-2.24-2.76-3.47a3.4,3.4,0,0,1,1.93-2.76c2-1.07,5.23.81,8.67,2.8l.75.43c2.61,1.5,4.29,1.77,5.61,1.54ZM21.05,147.89l11.84-.41.9,0,0-.91L34,136.37l26.25,22.82-.75,1.26-.84.76c-1.1.58-2.24,1.19-5.7-.8l-.74-.42c-3.91-2.27-7.61-4.41-10.52-2.83a5.25,5.25,0,0,0-2.93,4.41,4.43,4.43,0,0,0,.29,1.58Zm204.48,33.9c-1.58,1.22-7.16,5-24,13l-6.17,2.94c-21.76,10.4-51.56,24.64-67.37,24.38-15.8.26-45.6-14-67.36-24.38l-6.17-2.94c-16.82-8-22.4-11.76-24-13L40.23,165a9.58,9.58,0,0,0,2.22,1.69c5.09,2.91,38.8,20,50.13,25.29,14.77,6.83,26.12,10.36,34.62,10.77v0l.8,0,.81,0v0c8.49-.41,19.85-3.94,34.62-10.77,11.33-5.24,45-22.38,50.13-25.29a9.58,9.58,0,0,0,2.22-1.69ZM217,163.15a4.43,4.43,0,0,0,.29-1.58,5.27,5.27,0,0,0-2.93-4.41c-2.92-1.58-6.61.56-10.53,2.83l-.73.42c-3.46,2-4.29,1.52-5.39.94l-1-.59-.94-1.57,26.26-22.82.15,10.17v.91l.91,0,11.84.41Z" style="fill:#a0a09f"/><path d="M152.61,46a3.19,3.19,0,0,0,1.14-.22,3.55,3.55,0,0,0,1.34-1.23c.38-.48.73-.94,1.28-1h.18c1.1.14,1.28,2.84,1.31,3.66a10.94,10.94,0,0,1-.09,2c-.23,1.49-1.74,2.52-3.85,2.63a8.38,8.38,0,0,1-2-.16,7,7,0,0,0-1.73-.14c-1.47.08-2.4.68-2.37,1.55a1.83,1.83,0,0,0,.34.95,1.67,1.67,0,0,0,1.59.92,6.16,6.16,0,0,0,1.33-.29,9,9,0,0,1,2-.4,9.43,9.43,0,0,1,1.06,0l.32,0a12.23,12.23,0,0,1,2.57.31l.37.07a7.26,7.26,0,0,0,2.34.06l.3-.08a2.22,2.22,0,0,0,1.43-1,4.25,4.25,0,0,0,.13-3.27l.3-.12s.06.11.13.27a5.18,5.18,0,0,1,.68,2.13,3.26,3.26,0,0,1-.68,2.52h0a3,3,0,0,1-.4.39,2.62,2.62,0,0,1-1,.54s0,0,0,0h0a5.92,5.92,0,0,0-1.18,2.47,4.91,4.91,0,0,0,0,1.83,15.72,15.72,0,0,0,.45,2.14,13.12,13.12,0,0,1,.54,3.46c0,.27,0,.55-.08.84l.66-.68.31-.36.07-.08v0h0l.09-.1.63-.7c.3-.33.61-.67.91-1a9.89,9.89,0,0,0,.74-1.22,7.15,7.15,0,0,0,.32-1,2.29,2.29,0,0,0,.07-.44c0-.08,0-.17,0-.27s-.16-.45-.23-.69a5.78,5.78,0,0,1,.07-3.22,6.26,6.26,0,0,0-.2-4.31l.25-.18a4.12,4.12,0,0,1,.87,1.24,4.71,4.71,0,0,1,.46,2,6,6,0,0,1-.16,1.73,5.22,5.22,0,0,0,0,2.17,3.38,3.38,0,0,0,.21.7,9.88,9.88,0,0,0,1.29,2.26h0v-.08a1.15,1.15,0,0,0,0-.19,6.39,6.39,0,0,1,.42-1.59v0a1,1,0,0,1,0-.14c.21-.57.5-1.16.8-1.79a12.77,12.77,0,0,0,1.63-5.24,10.65,10.65,0,0,0-.69-3.6l.29-.14a9.79,9.79,0,0,1,1.46,5c-.12,1.72-.4,2.36-1.48,4.55a25.85,25.85,0,0,0-1,2.93,9.26,9.26,0,0,0,0,3.66l.08.34-.31-.16a16.68,16.68,0,0,1-2.82-3.37,7.19,7.19,0,0,1-1.49,2.78c-.57.62-.9,1-1.21,1.37s-.57.66-1,1.16S160,69.5,159,70.44l-.45.41.19-.58c0-.07,0-.14.06-.23s.07-.28.11-.45a16,16,0,0,0,0-5.18l-.17-.72c-.06-.24-.13-.5-.19-.78a13.71,13.71,0,0,0-.74,1.55,2.43,2.43,0,0,1-.24.49,3.41,3.41,0,0,1-.54.75l0,0,0,0-.14.14-.09.08,0,0,0,0-.08.08a3.3,3.3,0,0,1-.57.44,11.63,11.63,0,0,1-4.92,1.88l-.29,0,.12-.27a11.81,11.81,0,0,0,1-4,12.12,12.12,0,0,1,1.26-5.6l-.09,0c-1,.23-2.36.55-3.69,1-3.55,1.13-5.65,2.62-6.39,4.54A30.92,30.92,0,0,0,142,67.39a7.4,7.4,0,0,1-1.4,3.23,4.89,4.89,0,0,0,3.09-2.83c1.07-2.22,2.47-4.68,5.49-5.7a7.87,7.87,0,0,1,1.8-.38l.09.3a14.55,14.55,0,0,0-2.19,1.38,10.39,10.39,0,0,0-3.12,3.68,14.37,14.37,0,0,0-1.33,3.59c-.17.74-.33,1.61-.49,2.53-.33,1.91-.68,3.88-1.26,4.73a4.27,4.27,0,0,1-2,1.52l-.07,0,.09.05a3.32,3.32,0,0,0,3.06-.46A5,5,0,0,0,146,75.57c0-.18.08-.36.13-.52.3-1,2.39-4.88,4.3-6.31l.23.22c-1.72,2.49-2.08,4.88-2.46,7.42-.14.89-.27,1.81-.47,2.78-.61,2.91-1.74,4.11-2.34,4.56a3.79,3.79,0,0,0,1.45-.13c3.78-.73,5.79-4.76,7.13-7.43a.93.93,0,0,1,0-.1,21.89,21.89,0,0,0,1.55-6.76c0-.12,0-.24,0-.35l.31-.07a10.86,10.86,0,0,1-.21,6.25v.05a.49.49,0,0,0,0,.12c0,.39,0,.75.07,1.14s.05.81.07,1.26a18,18,0,0,1-.08,2.52,12.91,12.91,0,0,1-1,3.55,6.76,6.76,0,0,1-1.45,1.89,4.67,4.67,0,0,1-.67.49,6.88,6.88,0,0,0,.81-.11c2.36-.47,4.16-2.12,5.83-5.37a11.9,11.9,0,0,0,1.13-2.32,23.31,23.31,0,0,0,1-6.08c0-.82,0-1.68,0-2.54a3.77,3.77,0,0,0-.07-.4l.29-.13a12.64,12.64,0,0,1,.62,7.23c.73,6.37,3.42,8.92,4.41,9.65a12.84,12.84,0,0,1-.42-3,26.2,26.2,0,0,1,.47-5.12c.13-.85.26-1.66.34-2.46.18-6.45-2.56-10-2.59-10l.22-.23a2.86,2.86,0,0,1,.33.29h0a10.32,10.32,0,0,1,3.39,6.7c.1.51.17,1.08.23,1.72.3,3,3.41,4.18,4.38,4.47a11.35,11.35,0,0,1-.47-3.16c0-1,0-2,0-3.09,0-.84,0-1.72,0-2.57a8.75,8.75,0,0,0-1-3.71,9.19,9.19,0,0,0-3.21-4l.13-.29A8,8,0,0,1,172.79,65l.14.18v0h0A6.92,6.92,0,0,0,175.41,68a4.37,4.37,0,0,0,3.17.6c-1.28-1-1.58-2.42-2.12-5l-.09-.44a5.31,5.31,0,0,0-1.87-3.2l-.44-.38a6.48,6.48,0,0,1-2.43-3.44,9.47,9.47,0,0,1-.24-3.28h.32a6.56,6.56,0,0,0,1.94,4.46,4.62,4.62,0,0,0,2.54.54,6.7,6.7,0,0,0,1.46-.24c-2.86-2.93-3.31-7-3.64-10l-.1-.86a6.25,6.25,0,0,0-.57-1.94h0v0c-.08-.16-.16-.31-.25-.46l-.09-.17.18-.07a4.77,4.77,0,0,0,2.66-3.43,4.08,4.08,0,0,1-2.1.8,2.61,2.61,0,0,1-.55,0h-.05a1.87,1.87,0,0,1-.52-.16l-.13-.08.07-.13a6,6,0,0,0,.48-2.67c0-.19,0-.35,0-.5A2.42,2.42,0,0,1,170.94,39a11.66,11.66,0,0,1-2.52-.28l-.92-.15a30.39,30.39,0,0,0-5.76-.64,14.28,14.28,0,0,0-3.19.85,14.62,14.62,0,0,1-3.41.89,1.85,1.85,0,0,1-.74-.08c-.32-.11-.61-.23-.89-.35a4.62,4.62,0,0,0-2.23-.51,6.68,6.68,0,0,0-1,.15c-1.23.28-1.38,1-1.49,2.23A3.59,3.59,0,0,0,153,39.89l.26-.38,0,.46a2.59,2.59,0,0,1-1.75,2.48h-.07l-.2.07h0a4.43,4.43,0,0,1-2.61-.13c-.05.36-.1.71-.18,1.05a1.93,1.93,0,0,0-.05.47A1.48,1.48,0,0,0,149,45,5.55,5.55,0,0,0,152.61,46Zm15.65-.55c1-1.71,1.9-2.64,2.77-2.78l.11.3a6.82,6.82,0,0,0-1.88,2.89c-.95,2.16-2,3.18-3.79,3.52s-4.17,0-5.27-1.25l.18-.26a8.69,8.69,0,0,0,4.28.4C166.71,47.87,167.36,47.07,168.26,45.45Zm-9.06-3h0a3.35,3.35,0,0,0,1.15-1.17c.76-1.18,1-1.46,1.6-1.38s.79.4,1.39.9A3.7,3.7,0,0,0,165.51,42c.79,0,1.3-.55,1.07-1.08a1.55,1.55,0,0,1,.63.93c0,.56-.28.84-.93,1a3.94,3.94,0,0,1-1.73-.36.35.35,0,0,1,0,.12,2.62,2.62,0,0,1-1.06,1.32,2.5,2.5,0,0,1-2.09.34,2.6,2.6,0,0,1-1.49-1.06h0l0-.06-.06-.09,0-.06,0-.09,0,0h0l0-.05,0-.06a.08.08,0,0,0,0,0v0a.36.36,0,0,1,0-.09l-.38,0h0Z" style="fill:#a0a09f"/><polygon points="160.69 56.19 160.69 56.19 160.69 56.19 160.69 56.19" style="fill:#a0a09f"/><path d="M160.38,47.87l-.18.26c1.1,1.21,3.54,1.58,5.27,1.25s2.84-1.36,3.79-3.52A6.82,6.82,0,0,1,171.14,43l-.11-.3c-.87.14-1.81,1.07-2.77,2.78s-1.55,2.42-3.6,2.82A8.69,8.69,0,0,1,160.38,47.87Z" style="fill:#282347"/><path d="M80.6,68a6.92,6.92,0,0,0,2.46-2.71h0v0l.13-.17a8.06,8.06,0,0,1,4.25-3.45l.13.29a9.26,9.26,0,0,0-3.22,4,8.57,8.57,0,0,0-.94,3.72c0,.84,0,1.72,0,2.56,0,1.09,0,2.11,0,3.09A11.35,11.35,0,0,1,83,78.38c1-.29,4.08-1.46,4.37-4.47.06-.64.14-1.21.23-1.72a10.36,10.36,0,0,1,3.4-6.7h0l.33-.29.23.23s-2.78,3.57-2.6,10c.08.82.21,1.63.35,2.48A26.2,26.2,0,0,1,89.74,83a12.66,12.66,0,0,1-.42,3c1-.73,3.68-3.27,4.41-9.64a12.46,12.46,0,0,1,.6-7.2l.3.1c0,.15,0,.28-.06.38,0,.88,0,1.74,0,2.56a23.32,23.32,0,0,0,1,6.08,12.33,12.33,0,0,0,1.15,2.33c1.66,3.24,3.46,4.89,5.81,5.36a7.5,7.5,0,0,0,.81.11,5.27,5.27,0,0,1-.66-.49,6.08,6.08,0,0,1-.69-.73,7.41,7.41,0,0,1-.77-1.17,13.06,13.06,0,0,1-1-3.54,18,18,0,0,1-.08-2.52c0-.45,0-.86.07-1.26s.06-.75.07-1.15a.37.37,0,0,0,0-.11v-.05a11,11,0,0,1-.22-6.25l.32.07c0,.11,0,.23,0,.35A22,22,0,0,0,102,76.05l.06.11c1.34,2.67,3.35,6.7,7.15,7.43a3.65,3.65,0,0,0,1.43.13c-.6-.45-1.73-1.65-2.34-4.56-.2-1-.34-1.89-.47-2.78-.38-2.54-.74-4.93-2.46-7.42l.23-.22c1.91,1.43,4,5.3,4.3,6.31,0,.16.09.34.13.52a5,5,0,0,0,2.28,3.48,3.3,3.3,0,0,0,3,.46l.1-.05-.07,0a4.34,4.34,0,0,1-2-1.52c-.58-.85-.92-2.82-1.25-4.73-.16-.92-.32-1.79-.49-2.53a14.6,14.6,0,0,0-1.34-3.6,10.31,10.31,0,0,0-3.11-3.67A15.07,15.07,0,0,0,105,62l.09-.3a7.79,7.79,0,0,1,1.79.38c3,1,4.42,3.48,5.5,5.7a4.89,4.89,0,0,0,3.09,2.83,7.4,7.4,0,0,1-1.4-3.23,33.41,33.41,0,0,0-1-3.29c-.74-1.92-2.84-3.41-6.4-4.54-1.32-.43-2.69-.75-3.68-1l-.09,0a12.12,12.12,0,0,1,1.26,5.6,11.81,11.81,0,0,0,1,4l.12.27-.3,0a11.49,11.49,0,0,1-4.9-1.88,3,3,0,0,1-.57-.43.38.38,0,0,1-.09-.09l0,0,0,0-.09-.08L99,65.72l0,0,0,0a3.82,3.82,0,0,1-.55-.75,4.35,4.35,0,0,1-.24-.49,13.63,13.63,0,0,0-.73-1.55c-.06.28-.13.54-.19.78l-.17.72a15.63,15.63,0,0,0,0,5.17c0,.18.07.34.1.46l.07.23s.19.58.18.58L97,70.43c-1-.93-2-1.8-2.42-2.26s-.73-.83-1-1.16-.64-.75-1.21-1.37a6.93,6.93,0,0,1-1.49-2.78,16.68,16.68,0,0,1-2.82,3.37l-.32.16.08-.34a9,9,0,0,0,0-3.66,24,24,0,0,0-1-2.93c-1.07-2.19-1.35-2.83-1.47-4.56A9.78,9.78,0,0,1,86.82,50l.29.14a10.38,10.38,0,0,0-.69,3.6A12.77,12.77,0,0,0,88,58.93a19.37,19.37,0,0,1,.81,1.79l0,.12,0,0a6.52,6.52,0,0,1,.42,1.61v.26h0a9.88,9.88,0,0,0,1.29-2.26,3.48,3.48,0,0,0,.21-.69,5.26,5.26,0,0,0,0-2.18,6.37,6.37,0,0,1-.17-1.73,4.77,4.77,0,0,1,.46-2A4.3,4.3,0,0,1,92,52.67l.26.18A6.33,6.33,0,0,0,92,57.16a5.68,5.68,0,0,1,.08,3.22c-.07.24-.16.48-.24.69a1.39,1.39,0,0,1,0,.27,2.29,2.29,0,0,0,.07.44,6.1,6.1,0,0,0,.32,1A9.89,9.89,0,0,0,93,64c.3.35.61.69.9,1,0,0,.64.7.63.7l.1.11h0v0l.07.08.3.35.66.69a8.39,8.39,0,0,1-.07-.84,12.72,12.72,0,0,1,.54-3.46,15.55,15.55,0,0,0,.45-2.15,5.08,5.08,0,0,0,0-1.82,5.86,5.86,0,0,0-1.18-2.47h0l0,0a2.59,2.59,0,0,1-.93-.54,3,3,0,0,1-.41-.38v0h0a3.21,3.21,0,0,1-.67-2.5A5.1,5.1,0,0,1,94,50.65c.08-.17.14-.27.14-.28l.3.12a4.2,4.2,0,0,0,.13,3.27,2.23,2.23,0,0,0,1.42,1l.31.08a7.27,7.27,0,0,0,2.34-.06l.37-.07a12.23,12.23,0,0,1,2.57-.31,1.68,1.68,0,0,1,.31,0,7.76,7.76,0,0,1,1.07,0,9,9,0,0,1,2,.4,5.92,5.92,0,0,0,1.33.29,1.64,1.64,0,0,0,1.58-.92,1.77,1.77,0,0,0,.35-.95c0-.87-.9-1.47-2.37-1.55a6.92,6.92,0,0,0-1.73.14,8.38,8.38,0,0,1-2,.16c-2.12-.11-3.63-1.14-3.85-2.63a10.94,10.94,0,0,1-.09-2c0-.82.21-3.52,1.3-3.66h.19c.55,0,.9.49,1.28,1a3.55,3.55,0,0,0,1.34,1.23,3.19,3.19,0,0,0,1.14.22,5.55,5.55,0,0,0,3.66-1,1.56,1.56,0,0,0,.53-1.08,1.93,1.93,0,0,0,0-.47,8.85,8.85,0,0,1-.18-1.05,4.46,4.46,0,0,1-2.62.13h0l-.21-.07h-.06A2.59,2.59,0,0,1,102.7,40l0-.46.26.38a3.58,3.58,0,0,0,4.23,1.18c-.1-1.26-.25-2-1.48-2.23a6.8,6.8,0,0,0-1-.15,4.61,4.61,0,0,0-2.22.51c-.28.12-.57.24-.89.35a1.85,1.85,0,0,1-.74.08,14.5,14.5,0,0,1-3.41-.89,14.42,14.42,0,0,0-3.19-.85,30.31,30.31,0,0,0-5.76.64l-.92.15a11.66,11.66,0,0,1-2.52.28,2.41,2.41,0,0,1-2-1.12c0,.15,0,.31,0,.51A6,6,0,0,0,83.46,41l.07.13-.14.08a2,2,0,0,1-.51.16h0a2.61,2.61,0,0,1-.55,0,4.08,4.08,0,0,1-2.1-.8,4.74,4.74,0,0,0,2.66,3.43l.18.07-.09.17a3.47,3.47,0,0,0-.25.46,0,0,0,0,1,0,0h0a6.36,6.36,0,0,0-.56,1.93l-.1.86c-.33,3-.79,7-3.64,10a6.58,6.58,0,0,0,1.45.24,4.6,4.6,0,0,0,2.54-.54,6.57,6.57,0,0,0,2-4.46h.32a9.47,9.47,0,0,1-.24,3.28A6.53,6.53,0,0,1,82,59.5l-.44.38a5.31,5.31,0,0,0-1.87,3.21l-.09.43c-.54,2.61-.84,4-2.12,5A4.38,4.38,0,0,0,80.6,68Zm8.83-27.08c-.23.53.28,1.13,1.07,1.08a3.7,3.7,0,0,0,2.16-1.17c.6-.5.73-.82,1.38-.9s.85.2,1.61,1.38a3.35,3.35,0,0,0,1.15,1.17h0l.06,0h0l-.37,0,0,.09a0,0,0,0,0,0,0l0,0,0,.06a.08.08,0,0,0,0,.05h0l0,0a.41.41,0,0,0,0,.09l0,.06-.06.09-.05.06h0a2.54,2.54,0,0,1-1.48,1.06,2.49,2.49,0,0,1-2.09-.34,2.65,2.65,0,0,1-1.07-1.32.74.74,0,0,1,0-.12,3.94,3.94,0,0,1-1.73.36c-.65-.12-1-.4-.93-1A1.51,1.51,0,0,1,89.43,40.87ZM84.86,43l.11-.3c.88.14,1.81,1.07,2.77,2.78s1.56,2.42,3.61,2.82a8.69,8.69,0,0,0,4.28-.4l.18.26c-1.1,1.21-3.54,1.58-5.27,1.25S87.7,48,86.75,45.86c-1-2.32-1.88-2.89-1.89-2.89Z" style="fill:#a0a09f"/><path d="M94.63,65.87h0Z" style="fill:#a0a09f"/><path d="M86.75,45.86c1,2.16,2,3.18,3.79,3.52s4.17,0,5.27-1.25l-.18-.26a8.69,8.69,0,0,1-4.28.4c-2-.4-2.7-1.2-3.61-2.82S85.85,42.81,85,42.67l-.11.3h0S85.73,43.54,86.75,45.86Z" style="fill:#282347"/><path d="M159.52,42.5a.36.36,0,0,0,0,.09v0a.08.08,0,0,1,0,0l0,.06,0,.05,0,0,0,.09,0,.06.06.09,0,.06h0a2.6,2.6,0,0,0,1.49,1.06,2.5,2.5,0,0,0,2.09-.34,2.62,2.62,0,0,0,1.06-1.32.35.35,0,0,0,0-.12,3.94,3.94,0,0,0,1.73.36c.65-.12,1-.4.93-1a1.55,1.55,0,0,0-.63-.93c.23.53-.28,1.13-1.07,1.08a3.7,3.7,0,0,1-2.16-1.17c-.6-.5-.74-.82-1.39-.9s-.84.2-1.6,1.38a3.35,3.35,0,0,1-1.15,1.17l-.07,0Zm1.62-1.24c.28-.49.66-.55,1.2-.29a1,1,0,0,0-1,1.1,1,1,0,0,0,1,1,1,1,0,0,0,1-1.11.91.91,0,0,0-.08-.37c.09.06.18.14.27.21a4.83,4.83,0,0,0,.64.44,2.23,2.23,0,0,1-2.36,1.41c-.72-.22-1.15-1.1-1.32-1.51A3.25,3.25,0,0,0,161.14,41.26Z" style="fill:#1d201d"/><path d="M89.73,42.76a3.94,3.94,0,0,0,1.73-.36.74.74,0,0,0,0,.12,2.65,2.65,0,0,0,1.07,1.32,2.49,2.49,0,0,0,2.09.34,2.54,2.54,0,0,0,1.48-1.06h0l.05-.06.06-.09,0-.06a.41.41,0,0,1,0-.09l0,0,0-.05,0-.06,0,0a0,0,0,0,1,0,0l0-.09.37,0-.06,0a3.35,3.35,0,0,1-1.15-1.17c-.76-1.18-1-1.46-1.61-1.38s-.78.4-1.38.9A3.7,3.7,0,0,1,90.5,42c-.79,0-1.3-.55-1.07-1.08a1.51,1.51,0,0,0-.63.93C88.76,42.36,89.08,42.64,89.73,42.76Zm2.72-.95.26-.21a1.43,1.43,0,0,0-.08.37,1,1,0,0,0,1,1.11,1,1,0,0,0,1-1,1,1,0,0,0-1-1.1c.53-.26.92-.2,1.2.29a3,3,0,0,0,.62.89c-.17.41-.6,1.29-1.32,1.51a2.23,2.23,0,0,1-2.36-1.41A5.58,5.58,0,0,0,92.45,41.81Z" style="fill:#1d201d"/><path d="M62.38,196s-.05-.06,0-.12l5.76-11.69c0-.06.07-.07.13,0l1.89.92a.08.08,0,0,1,0,.13l-4.77,9.68,3.51,1.73a.08.08,0,0,1,0,.12l-1,1.93c0,.06-.07.07-.13,0Z" style="fill:#a0a09f"/><path d="M70.67,200s-.06-.06,0-.11l5.61-11.79a.07.07,0,0,1,.1,0l5.51,2.62s.06.06,0,.11L81,192.75a.06.06,0,0,1-.1,0l-3.52-1.67-1.27,2.68,3.52,1.67a.06.06,0,0,1,0,.1l-.9,1.95c0,.05,0,.06-.1,0l-3.54-1.68-1.42,3,3.54,1.68s0,.06,0,.12l-.92,2s-.06.06-.1,0Z" style="fill:#a0a09f"/><path d="M82.11,205.58a3.5,3.5,0,0,1-1.48-1.23,3.88,3.88,0,0,1-.65-1.81,3.65,3.65,0,0,1,.34-2l2.48-5.49A3.75,3.75,0,0,1,84,193.58a3.88,3.88,0,0,1,1.8-.7,3.48,3.48,0,0,1,1.9.3,3.69,3.69,0,0,1,2.17,3,3.75,3.75,0,0,1-.34,1.95l-.36.79q0,.08-.12,0l-1.94-.88a.07.07,0,0,1,0-.1l.3-.65a1.75,1.75,0,0,0,.12-1.26,1.3,1.3,0,0,0-1.8-.84,1.47,1.47,0,0,0-.83.79l-2.49,5.48a1.56,1.56,0,0,0-.06,1.16,1.35,1.35,0,0,0,1.82.83,1.5,1.5,0,0,0,.82-.82l.38-.84-1.21-.55a.09.09,0,0,1,0-.13l.88-1.94a.09.09,0,0,1,.13,0l3.23,1.46q.08,0,0,.12l-1.3,2.87a3.7,3.7,0,0,1-1.25,1.55,3.85,3.85,0,0,1-1.79.7A3.54,3.54,0,0,1,82.11,205.58Z" style="fill:#a0a09f"/><path d="M88.43,208.19c-.06,0-.08-.07-.05-.13l5.19-12a.07.07,0,0,1,.1,0l2,.84s.05.05,0,.1l-5.16,12c0,.06-.07.08-.11.06Z" style="fill:#a0a09f"/><path d="M95.37,211.12c-.05,0-.06-.05,0-.11l4.07-10L97.11,200c-.06,0-.07-.06,0-.12l.82-2a.07.07,0,0,1,.1,0l6.69,2.72c.06,0,.08.06.06.1l-.8,2c0,.06-.06.08-.11.06l-2.31-.93-4.05,10c0,.06-.06.08-.1.06Z" style="fill:#a0a09f"/><path d="M102.68,214c-.05,0-.06-.05,0-.11l4.37-12.3a.07.07,0,0,1,.09-.05l5.75,2c.05,0,.07.05,0,.11l-.71,2s0,.06-.09,0l-3.67-1.3-1,2.8,3.67,1.3a.07.07,0,0,1,.05.09l-.7,2a.07.07,0,0,1-.1,0l-3.69-1.3-1.11,3.13,3.69,1.31c.05,0,.06,0,0,.11l-.72,2a.06.06,0,0,1-.09,0Z" style="fill:#a0a09f"/><path d="M118.24,218.87c-.06,0-.08,0-.07-.1l1.14-13a.08.08,0,0,1,.09-.07l6.07.53s.08,0,.07.1l-.18,2.12a.08.08,0,0,1-.09.07l-3.88-.34-.25,2.95,3.88.34s.07,0,.07.08l-.17,2.14c0,.05,0,.08-.08.07l-3.9-.34-.29,3.32,3.9.34s.07,0,.07.1l-.19,2.15c0,.06,0,.08-.08.07Z" style="fill:#a0a09f"/><path d="M131.54,218.84s-.08,0-.09-.08L130,208l-2.45.33a.09.09,0,0,1-.11-.08l-.26-2.11a.07.07,0,0,1,.06-.09l7.16-1c.06,0,.1,0,.1.06l.29,2.11c0,.07,0,.1-.07.11l-2.46.33,1.46,10.73c0,.06,0,.1-.07.1Z" style="fill:#a0a09f"/><path d="M145,215.69a.08.08,0,0,1-.12-.06l-4.55-12.23a.07.07,0,0,1,0-.1L143.7,202a3.57,3.57,0,0,1,2-.2,3.84,3.84,0,0,1,1.78.8,3.76,3.76,0,0,1,1.15,1.61l1.92,5.1a4,4,0,0,1,.2,2.07,3.91,3.91,0,0,1-.83,1.84,4,4,0,0,1-1.69,1.23Zm1.26-3,1.11-.41a1.68,1.68,0,0,0,1-2.16L146.43,205a1.43,1.43,0,0,0-.79-.83,1.38,1.38,0,0,0-1.14,0l-1.24.48Z" style="fill:#a0a09f"/><path d="M155.3,211.65a.08.08,0,0,1-.12-.05l-5.12-12a.07.07,0,0,1,0-.1l2-.83s.08,0,.1,0l5.16,12c0,.06,0,.1,0,.12Z" style="fill:#a0a09f"/><path d="M163.49,208.25a3.56,3.56,0,0,1-1.92.3,4,4,0,0,1-1.81-.7,3.73,3.73,0,0,1-1.24-1.53l-.37-.8a.08.08,0,0,1,0-.12l1.94-.88s.08,0,.11,0l.36.8a1.53,1.53,0,0,0,.82.8,1.36,1.36,0,0,0,1.1,0,1.32,1.32,0,0,0,.73-.83,1.52,1.52,0,0,0-.06-1.15,1.46,1.46,0,0,0-1.33-.72l-1.09-.1-1.39-.11a4,4,0,0,1-2-.75,4.23,4.23,0,0,1-1.32-1.69,3.61,3.61,0,0,1-.33-1.95,3.82,3.82,0,0,1,.69-1.78,3.64,3.64,0,0,1,3.35-1.52,3.73,3.73,0,0,1,1.79.67,3.62,3.62,0,0,1,1.24,1.51l.65,1.42a.07.07,0,0,1,0,.1l-1.94.88a.07.07,0,0,1-.1,0l-.66-1.41a1.47,1.47,0,0,0-.83-.81,1.37,1.37,0,0,0-1.8.85,1.55,1.55,0,0,0,0,1.14,1.94,1.94,0,0,0,.68.84A2.5,2.5,0,0,0,160,201l.42,0,.68.05.66,0,.35,0a4.45,4.45,0,0,1,1.91.56,3.11,3.11,0,0,1,1.28,1.49,3.76,3.76,0,0,1,.35,2A3.65,3.65,0,0,1,165,207,3.53,3.53,0,0,1,163.49,208.25Z" style="fill:#a0a09f"/><path d="M172.75,203.93a3.55,3.55,0,0,1-1.93.34,3.81,3.81,0,0,1-1.81-.68,4,4,0,0,1-1.29-1.56l-2.53-5.36a3.85,3.85,0,0,1,.22-3.76,3.56,3.56,0,0,1,1.48-1.28,3.61,3.61,0,0,1,1.92-.35,3.83,3.83,0,0,1,3.07,2.21l.38.79s0,.07,0,.1l-1.92.91c-.05,0-.08,0-.1,0l-.38-.79a1.6,1.6,0,0,0-.83-.81,1.33,1.33,0,0,0-1.12,0,1.21,1.21,0,0,0-.74.87,1.68,1.68,0,0,0,.14,1.12l2.54,5.36a1.62,1.62,0,0,0,.86.85,1.3,1.3,0,0,0,1.09,0,1.26,1.26,0,0,0,.71-.87,1.65,1.65,0,0,0-.1-1.16L172,199c0-.05,0-.08,0-.1L174,198a.06.06,0,0,1,.1,0l.37.79a3.77,3.77,0,0,1,.39,2,3.83,3.83,0,0,1-.61,1.84A3.47,3.47,0,0,1,172.75,203.93Z" style="fill:#a0a09f"/><path d="M178.89,200.77a.09.09,0,0,1-.13,0L173.07,189s0-.08,0-.1L175,188a.06.06,0,0,1,.1,0l5.73,11.73q0,.09,0,.12Z" style="fill:#a0a09f"/><path d="M185.6,197.5s-.09,0-.11-.06l-4.79-9.71-2.21,1.09c-.06,0-.1,0-.13,0l-.92-1.91a.06.06,0,0,1,0-.1l6.48-3.19c.06,0,.1,0,.12,0l.94,1.91q0,.09,0,.12l-2.23,1.1,4.8,9.71c0,.06,0,.09,0,.12Z" style="fill:#a0a09f"/><path d="M192.3,194.19a.08.08,0,0,1-.11-.05l-5.8-11.7a.06.06,0,0,1,0-.1l5.46-2.72c.05,0,.08,0,.11,0l.95,1.91a.07.07,0,0,1,0,.1l-3.49,1.74,1.32,2.65,3.49-1.74s.07,0,.1,0l1,1.91c0,.05,0,.08,0,.1l-3.51,1.75,1.49,3,3.5-1.74s.08,0,.11,0l1,1.94c0,.05,0,.08,0,.1Z" style="fill:#a0a09f"/><path d="M40.26,277.62c0,.09-.11.15-.33.19s-.36,0-.4-.12a9.27,9.27,0,0,0-3.29-5.24,10,10,0,0,0-6.08-1.7H28.33a3.8,3.8,0,0,0-2.67.79A3.17,3.17,0,0,0,24.8,274v13.15h4.38a9.67,9.67,0,0,0,5.39-1.25,3.93,3.93,0,0,0,1.86-3.44q0-.12.36-.12c.25,0,.37,0,.37.12L37.1,288c0,1.3,0,2.27.06,2.92l.06,3.23c0,.12-.12.18-.37.18s-.36-.06-.36-.18a4.59,4.59,0,0,0-1.92-3.87,9,9,0,0,0-5.45-1.43H24.8v13a6.13,6.13,0,0,0,.49,2.8,2.74,2.74,0,0,0,1.83,1.27,17,17,0,0,0,4.2.37q.12,0,.12.36c0,.25,0,.37-.12.37q-2.51,0-3.9-.06l-6.21-.06-4.56.06c-.81,0-1.93.06-3.35.06-.12,0-.18-.12-.18-.37s.06-.36.18-.36a11.45,11.45,0,0,0,3.1-.3,1.94,1.94,0,0,0,1.31-1.19,8,8,0,0,0,.34-2.71V273.91a8.36,8.36,0,0,0-.31-2.68,1.92,1.92,0,0,0-1.21-1.18,8.51,8.51,0,0,0-2.8-.34c-.13,0-.19-.12-.19-.36s.06-.37.19-.37h25.8c.41,0,.61.18.61.55Z" style="fill:#2b2b2b"/><path d="M57.12,304.83A1.84,1.84,0,0,0,58.31,306a9.55,9.55,0,0,0,2.83.3q.18,0,.18.36c0,.25-.06.37-.18.37-1.34,0-2.4,0-3.17-.06l-4.62-.06-4.51.06c-.81,0-1.91.06-3.28.06-.09,0-.13-.12-.13-.37s0-.36.13-.36a10,10,0,0,0,2.86-.3,1.93,1.93,0,0,0,1.24-1.19,8,8,0,0,0,.34-2.71V273.91a7.68,7.68,0,0,0-.34-2.68,2,2,0,0,0-1.24-1.18,8.76,8.76,0,0,0-2.86-.34c-.09,0-.13-.12-.13-.36s0-.37.13-.37l3.28.06c1.87.08,3.37.12,4.51.12s2.82,0,4.68-.12l3.11-.06c.12,0,.18.12.18.37s-.06.36-.18.36a7.8,7.8,0,0,0-2.8.37,2,2,0,0,0-1.22,1.25,8.9,8.9,0,0,0-.31,2.7v28.06A8.93,8.93,0,0,0,57.12,304.83Z" style="fill:#2b2b2b"/><path d="M107,306.65c0,.25,0,.37-.12.37H96.07c-.89,0-2.56-1.61-5-4.84a152.28,152.28,0,0,1-8.83-13.54,12.21,12.21,0,0,1-1.4.06c-1.58,0-2.69,0-3.34-.06v13.45a9,9,0,0,0,.3,2.74A1.84,1.84,0,0,0,79,306a9.6,9.6,0,0,0,2.83.3q.12,0,.12.36c0,.25,0,.37-.12.37-1.34,0-2.4,0-3.17-.06L74,306.9l-4.45.06c-.81,0-1.9.06-3.28.06-.12,0-.18-.12-.18-.37s.06-.36.18-.36a9.6,9.6,0,0,0,2.83-.3,2,2,0,0,0,1.22-1.19,8.26,8.26,0,0,0,.33-2.71V273.91a8.73,8.73,0,0,0-.3-2.68,1.94,1.94,0,0,0-1.22-1.18,8.47,8.47,0,0,0-2.8-.34q-.12,0-.12-.36c0-.25,0-.37.12-.37l3.22.06c1.87.08,3.35.12,4.45.12q2.07,0,4.32-.18l2-.12q1.18-.06,2.64-.06,5.55,0,8.59,2a6.49,6.49,0,0,1,3,5.69,10.55,10.55,0,0,1-1.83,6.05,13.44,13.44,0,0,1-4.87,4.36q4.88,7.29,8.16,11.44a33.1,33.1,0,0,0,5.84,6,8.45,8.45,0,0,0,5,1.89Q107,306.29,107,306.65ZM81,287.18q3.52,0,5.08-2t1.55-6.36q0-5-1.46-6.88a5,5,0,0,0-4.2-1.88,5.23,5.23,0,0,0-3.47.91,3.88,3.88,0,0,0-1,3v12.91A22.14,22.14,0,0,0,81,287.18Z" style="fill:#2b2b2b"/><path d="M136.72,297.22a.64.64,0,0,1,.34.09q.15.09.15.15a67.84,67.84,0,0,0-.61,8.65,1.09,1.09,0,0,1-.18.7,1,1,0,0,1-.73.21h-26.9c-.12,0-.18-.12-.18-.37s.06-.36.18-.36a9.6,9.6,0,0,0,2.83-.3,1.86,1.86,0,0,0,1.19-1.19,9,9,0,0,0,.3-2.71V273.91a8.73,8.73,0,0,0-.3-2.68,1.94,1.94,0,0,0-1.22-1.18,8.47,8.47,0,0,0-2.8-.34q-.18,0-.18-.36c0-.25.06-.37.18-.37h25.8c.41,0,.61.18.61.55l.12,8.09c0,.09-.11.15-.33.19s-.36,0-.4-.12a9.31,9.31,0,0,0-3.28-5.24,10.08,10.08,0,0,0-6.09-1.7H123.4a3.82,3.82,0,0,0-2.68.79,3.16,3.16,0,0,0-.85,2.43v12.42h5a10,10,0,0,0,5.41-1.22,3.84,3.84,0,0,0,1.89-3.41q0-.18.33-.18c.23,0,.34.06.34.18l-.06,5.48.06,2.92c.08,1.38.12,2.48.12,3.29q0,.12-.36.12c-.25,0-.37,0-.37-.12a4.64,4.64,0,0,0-1.92-3.93,9.08,9.08,0,0,0-5.5-1.43h-5v13.76a4.23,4.23,0,0,0,.66,2.61,2.56,2.56,0,0,0,2.14.86h2a13.29,13.29,0,0,0,7.61-1.95,11.19,11.19,0,0,0,4.2-6Q136.48,297.22,136.72,297.22Z" style="fill:#2b2b2b"/><path d="M168.92,277.62c0,.09-.11.15-.34.19s-.35,0-.39-.12a9.32,9.32,0,0,0-3.29-5.24,10.06,10.06,0,0,0-6.09-1.7H157a3.83,3.83,0,0,0-2.68.79,3.16,3.16,0,0,0-.85,2.43v13.15h4.38a9.7,9.7,0,0,0,5.39-1.25,3.94,3.94,0,0,0,1.85-3.44c0-.08.13-.12.37-.12s.36,0,.36.12l-.06,5.54c0,1.3,0,2.27.06,2.92l.06,3.23q0,.18-.36.18c-.24,0-.37-.06-.37-.18a4.58,4.58,0,0,0-1.91-3.87,9,9,0,0,0-5.45-1.43h-4.32v13a6.13,6.13,0,0,0,.49,2.8,2.74,2.74,0,0,0,1.82,1.27,17,17,0,0,0,4.2.37q.12,0,.12.36c0,.25,0,.37-.12.37-1.66,0-3,0-3.89-.06l-6.21-.06-4.57.06c-.81,0-1.92.06-3.34.06-.13,0-.19-.12-.19-.37s.06-.36.19-.36a11.5,11.5,0,0,0,3.1-.3,1.94,1.94,0,0,0,1.31-1.19,8.26,8.26,0,0,0,.33-2.71V273.91a8.73,8.73,0,0,0-.3-2.68,1.91,1.91,0,0,0-1.22-1.18,8.47,8.47,0,0,0-2.8-.34q-.18,0-.18-.36c0-.25.06-.37.18-.37h25.81c.4,0,.61.18.61.55Z" style="fill:#2b2b2b"/><path d="M184.62,301.85a7.75,7.75,0,0,0,.24,2.28,1.44,1.44,0,0,0,.95.94,7.58,7.58,0,0,0,2.28.25h2.07a13.59,13.59,0,0,0,8.21-2.53,12,12,0,0,0,4.63-6.85q0-.12.24-.12a.6.6,0,0,1,.28.09q.15.09.15.15-.55,6-.55,10.05a1,1,0,0,1-.21.7,1,1,0,0,1-.7.21H173.48c-.08,0-.12-.12-.12-.37s0-.36.12-.36a9.6,9.6,0,0,0,2.83-.3,1.92,1.92,0,0,0,1.22-1.19,8.26,8.26,0,0,0,.33-2.71V273.91a8,8,0,0,0-.33-2.68,2,2,0,0,0-1.25-1.18,8.47,8.47,0,0,0-2.8-.34q-.12,0-.12-.36c0-.25,0-.37.12-.37l3.11.06q2.79.12,4.62.12c1.22,0,2.76,0,4.63-.12l3.1-.06c.12,0,.18.12.18.37s-.06.36-.18.36a8.47,8.47,0,0,0-2.8.34,1.93,1.93,0,0,0-1.22,1.21,9.09,9.09,0,0,0-.3,2.71Z" style="fill:#2b2b2b"/><path d="M241.58,269.35q0,.36-.12.36-1.89,0-4.62,2.35a23.78,23.78,0,0,0-4.87,5.87l-6.33,10.59v13.57a9,9,0,0,0,.3,2.74,1.86,1.86,0,0,0,1.19,1.16,9.6,9.6,0,0,0,2.83.3q.18,0,.18.36c0,.25-.06.37-.18.37-1.34,0-2.4,0-3.17-.06l-4.56-.06-4.5.06c-.82,0-1.91.06-3.29.06-.08,0-.12-.12-.12-.37s0-.36.12-.36a9.92,9.92,0,0,0,2.86-.3,2,2,0,0,0,1.25-1.19,8.26,8.26,0,0,0,.33-2.71V289.8L210,276a25.82,25.82,0,0,0-3.75-4.9,4.17,4.17,0,0,0-2.52-1.37q-.18,0-.18-.36c0-.25.06-.37.18-.37l1.89.06c.89.08,1.52.12,1.88.12q2.13,0,6.15-.12l4-.06c.08,0,.12.12.12.37s0,.36-.12.36a2.49,2.49,0,0,0-1.62.49,1.6,1.6,0,0,0-.58,1.28,4.51,4.51,0,0,0,.86,2.31l8.34,13.15,5.59-9.56a9.53,9.53,0,0,0,1.65-4.69,2.8,2.8,0,0,0-.88-2.22,3.82,3.82,0,0,0-2.53-.76q-.18,0-.18-.36c0-.25.06-.37.18-.37l3.22.06c1.87.08,3.53.12,5,.12.68,0,1.52,0,2.49-.12l2.25-.06C241.54,269,241.58,269.1,241.58,269.35Z" style="fill:#2b2b2b"/><path d="M21,353.69a13.68,13.68,0,0,1-5.64-5.05,13.25,13.25,0,0,1-2-7.08,13,13,0,0,1,2.21-7.43,14.54,14.54,0,0,1,6.1-5.1,20.43,20.43,0,0,1,8.74-1.81,27,27,0,0,1,4.2.33,14.78,14.78,0,0,1,3.37.85,1.32,1.32,0,0,1,.54.28,2.34,2.34,0,0,1,.11.72l.57,6.08q0,.13-.24.18c-.16,0-.26,0-.28-.14a14.17,14.17,0,0,0-1.84-3.14,11.87,11.87,0,0,0-3.32-3,8.94,8.94,0,0,0-4.77-1.26,9.07,9.07,0,0,0-5.11,1.53A10.21,10.21,0,0,0,20,334a15.34,15.34,0,0,0-1.34,6.6A16.66,16.66,0,0,0,20.22,348a11.94,11.94,0,0,0,4.3,5,11.11,11.11,0,0,0,6.21,1.79,7.6,7.6,0,0,0,2.75-.39,2.51,2.51,0,0,0,1.4-1.53,9.92,9.92,0,0,0,.44-3.37,13.27,13.27,0,0,0-.26-3.17,1.75,1.75,0,0,0-1.12-1.2,10.21,10.21,0,0,0-3-.3c-.18,0-.27-.12-.27-.35a.48.48,0,0,1,.07-.24.16.16,0,0,1,.15-.11q3.72.21,6,.21c1.48,0,3,0,4.63-.13.12,0,.18.11.2.31s-.05.31-.2.31a1.4,1.4,0,0,0-1.11.28,2.22,2.22,0,0,0-.42,1.33c-.06.67-.09,1.84-.09,3.5a16.45,16.45,0,0,0,.16,2.8,8.1,8.1,0,0,1,.15,1.05.51.51,0,0,1-.09.35,1,1,0,0,1-.39.17,48.08,48.08,0,0,1-10.14,1.23A18.93,18.93,0,0,1,21,353.69Z" style="fill:#2b2b2b"/><path d="M74.23,354.76c0,.17,0,.26-.09.26H66.36q-1,0-3.59-3.47a111.15,111.15,0,0,1-6.34-9.73,8.61,8.61,0,0,1-1,0c-1.14,0-1.94,0-2.41,0v9.66a6.59,6.59,0,0,0,.22,2,1.33,1.33,0,0,0,.85.83,7,7,0,0,0,2,.22c.06,0,.08.08.08.26s0,.26-.08.26c-1,0-1.72,0-2.28,0l-3.32-.05-3.19.05c-.58,0-1.37,0-2.36,0-.09,0-.13-.09-.13-.26s0-.26.13-.26a7,7,0,0,0,2-.22,1.4,1.4,0,0,0,.88-.85,5.9,5.9,0,0,0,.24-1.95V331.24a6.3,6.3,0,0,0-.22-1.92,1.39,1.39,0,0,0-.88-.86,6.19,6.19,0,0,0-2-.24c-.06,0-.08-.08-.08-.26s0-.26.08-.26l2.32,0c1.34.06,2.4.09,3.19.09,1,0,2,0,3.11-.13l1.42-.09c.56,0,1.2,0,1.9,0A11.07,11.07,0,0,1,63.12,329a4.66,4.66,0,0,1,2.19,4.09A7.65,7.65,0,0,1,64,337.47a9.73,9.73,0,0,1-3.5,3.13q3.49,5.23,5.86,8.21a23.6,23.6,0,0,0,4.19,4.33,6,6,0,0,0,3.59,1.36C74.2,354.5,74.23,354.58,74.23,354.76Zm-18.67-14a4.35,4.35,0,0,0,3.65-1.42,7.47,7.47,0,0,0,1.11-4.57c0-2.39-.35-4-1-4.94a3.57,3.57,0,0,0-3-1.35,3.72,3.72,0,0,0-2.49.65,2.79,2.79,0,0,0-.75,2.19v9.27A16.64,16.64,0,0,0,55.56,340.77Z" style="fill:#2b2b2b"/><path d="M105.26,354.76c0,.17-.07.26-.21.26-.59,0-1.49,0-2.71-.09s-2.21-.08-2.76-.08c-.73,0-1.62,0-2.67.08s-1.77.09-2.36.09c-.11,0-.17-.09-.17-.26s.06-.26.17-.26a4.06,4.06,0,0,0,1.64-.24.87.87,0,0,0,.51-.86,6.92,6.92,0,0,0-.88-2.49l-3-5.9H82.09l-1.7,3.8a5.84,5.84,0,0,0-.57,2.36,2.92,2.92,0,0,0,1.12,2.45,4.67,4.67,0,0,0,3,.88c.15,0,.22.08.22.26s-.07.26-.22.26c-.52,0-1.28,0-2.27-.09s-2.07-.08-2.89-.08-1.73,0-2.84.08-1.79.09-2.4.09c-.12,0-.18-.09-.18-.26s.06-.26.18-.26a3.85,3.85,0,0,0,2-.51,5.5,5.5,0,0,0,1.66-1.79,29.79,29.79,0,0,0,2-3.82l9.49-20.86c0-.08.19-.13.39-.13s.36.05.39.13L100.41,349a22.8,22.8,0,0,0,2.54,4.29,2.83,2.83,0,0,0,2.1,1.18C105.19,354.5,105.26,354.58,105.26,354.76Zm-22.6-11h9.53l-5-10Z" style="fill:#2b2b2b"/><path d="M141.51,354.76c0,.17,0,.26-.09.26-1,0-1.78,0-2.36,0l-3.24-.05-3.28.05c-.55,0-1.31,0-2.27,0-.09,0-.13-.09-.13-.26s0-.26.13-.26a4.92,4.92,0,0,0,2.49-.44,2.07,2.07,0,0,0,.66-1.84l0-.74-.91-17.88-9,21.12a.36.36,0,0,1-.35.17.37.37,0,0,1-.35-.17l-11.06-21-.35,15.78a5.87,5.87,0,0,0,.94,3.69,3.26,3.26,0,0,0,2.78,1.34c.08,0,.13.08.13.26s0,.26-.13.26c-.79,0-1.4,0-1.84,0l-2.4-.05-2.76.05c-.46,0-1.09,0-1.88,0-.09,0-.13-.09-.13-.26s0-.26.13-.26a3.38,3.38,0,0,0,2.84-1.36,6,6,0,0,0,1.1-3.67l.39-18.1,0,0a7.53,7.53,0,0,0-1.82-2.36,3.36,3.36,0,0,0-2.16-.75c-.09,0-.13-.08-.13-.26s0-.26.13-.26l2.05,0c.41,0,.94.05,1.58.05l2.31-.05a9.49,9.49,0,0,1,1,0,1,1,0,0,1,.87.39,18.1,18.1,0,0,1,1.14,1.88L125,347.85l8.31-19.06a2.22,2.22,0,0,1,.54-.85,1.16,1.16,0,0,1,.77-.24c.26,0,.56,0,.89,0s.73.05,1.16.05l2.58-.05c.41,0,1,0,1.75,0,.09,0,.13.09.13.26s0,.26-.13.26a4.37,4.37,0,0,0-3,.83,3.11,3.11,0,0,0-.83,2.58l1,19.85a6.91,6.91,0,0,0,.32,2,1.4,1.4,0,0,0,.88.83,6.75,6.75,0,0,0,2,.22C141.48,354.5,141.51,354.58,141.51,354.76Z" style="fill:#2b2b2b"/><path d="M179,354.76c0,.17,0,.26-.09.26-1,0-1.78,0-2.36,0l-3.23-.05L170,355c-.56,0-1.31,0-2.28,0-.08,0-.13-.09-.13-.26s.05-.26.13-.26a4.93,4.93,0,0,0,2.5-.44,2.1,2.1,0,0,0,.65-1.84l0-.74-.92-17.88-9,21.12a.35.35,0,0,1-.35.17.34.34,0,0,1-.34-.17l-11.06-21-.35,15.78a5.87,5.87,0,0,0,.94,3.69,3.24,3.24,0,0,0,2.77,1.34c.09,0,.13.08.13.26s0,.26-.13.26c-.79,0-1.4,0-1.83,0l-2.41-.05-2.75.05c-.47,0-1.1,0-1.88,0-.09,0-.13-.09-.13-.26s0-.26.13-.26a3.39,3.39,0,0,0,2.84-1.36,6,6,0,0,0,1.09-3.67l.39-18.1,0,0a7.53,7.53,0,0,0-1.81-2.36,3.39,3.39,0,0,0-2.17-.75c-.08,0-.13-.08-.13-.26s.05-.26.13-.26l2.06,0c.41,0,.93.05,1.57.05l2.32-.05a9.29,9.29,0,0,1,1,0,1.06,1.06,0,0,1,.88.39,20.94,20.94,0,0,1,1.13,1.88l9.54,17.88,8.3-19.06a2.34,2.34,0,0,1,.55-.85,1.14,1.14,0,0,1,.76-.24c.26,0,.56,0,.9,0s.72.05,1.16.05l2.58-.05c.4,0,1,0,1.74,0,.09,0,.14.09.14.26s-.05.26-.14.26a4.39,4.39,0,0,0-3,.83,3.11,3.11,0,0,0-.83,2.58l1.05,19.85a7.21,7.21,0,0,0,.33,2,1.38,1.38,0,0,0,.87.83,6.84,6.84,0,0,0,2,.22C178.94,354.5,179,354.58,179,354.76Z" style="fill:#2b2b2b"/><path d="M211.49,354.76c0,.17-.07.26-.21.26-.59,0-1.49,0-2.71-.09s-2.21-.08-2.76-.08c-.73,0-1.62,0-2.67.08s-1.77.09-2.36.09c-.11,0-.17-.09-.17-.26s.06-.26.17-.26a4.06,4.06,0,0,0,1.64-.24.87.87,0,0,0,.51-.86,6.92,6.92,0,0,0-.88-2.49l-3-5.9H188.32l-1.7,3.8a5.84,5.84,0,0,0-.57,2.36,2.92,2.92,0,0,0,1.12,2.45,4.67,4.67,0,0,0,3,.88c.15,0,.22.08.22.26s-.07.26-.22.26c-.52,0-1.28,0-2.27-.09s-2.07-.08-2.89-.08-1.73,0-2.84.08-1.79.09-2.4.09c-.12,0-.18-.09-.18-.26s.06-.26.18-.26a3.85,3.85,0,0,0,2.05-.51,5.5,5.5,0,0,0,1.66-1.79,29.79,29.79,0,0,0,2-3.82l9.49-20.86c0-.08.19-.13.39-.13s.36.05.39.13L206.64,349a22.8,22.8,0,0,0,2.54,4.29,2.83,2.83,0,0,0,2.1,1.18C211.42,354.5,211.49,354.58,211.49,354.76Zm-22.6-11h9.53l-5-10Z" style="fill:#2b2b2b"/><path d="M242.27,354.76c0,.17,0,.26-.09.26H234.4q-1,0-3.58-3.47a108.87,108.87,0,0,1-6.34-9.73,8.8,8.8,0,0,1-1,0c-1.13,0-1.94,0-2.4,0v9.66a6.27,6.27,0,0,0,.22,2,1.3,1.3,0,0,0,.85.83,7,7,0,0,0,2,.22c.06,0,.09.08.09.26s0,.26-.09.26c-1,0-1.72,0-2.27,0l-3.32-.05-3.19.05c-.59,0-1.38,0-2.37,0-.08,0-.13-.09-.13-.26s.05-.26.13-.26a7,7,0,0,0,2-.22,1.39,1.39,0,0,0,.87-.85,5.9,5.9,0,0,0,.24-1.95V331.24a6,6,0,0,0-.22-1.92,1.36,1.36,0,0,0-.87-.86,6.27,6.27,0,0,0-2-.24c-.06,0-.09-.08-.09-.26s0-.26.09-.26l2.32,0c1.34.06,2.4.09,3.19.09,1,0,2,0,3.1-.13l1.42-.09c.57,0,1.2,0,1.9,0a11.1,11.1,0,0,1,6.17,1.46,4.67,4.67,0,0,1,2.18,4.09,7.58,7.58,0,0,1-1.31,4.35,9.64,9.64,0,0,1-3.5,3.13q3.5,5.23,5.86,8.21a23.6,23.6,0,0,0,4.2,4.33,6,6,0,0,0,3.58,1.36C242.24,354.5,242.27,354.58,242.27,354.76Zm-18.67-14a4.35,4.35,0,0,0,3.65-1.42,7.4,7.4,0,0,0,1.12-4.57c0-2.39-.35-4-1.05-4.94a3.6,3.6,0,0,0-3-1.35,3.75,3.75,0,0,0-2.49.65,2.82,2.82,0,0,0-.74,2.19v9.27A16.5,16.5,0,0,0,223.6,340.77Z" style="fill:#2b2b2b"/></svg>