<?xml version="1.0" encoding="UTF-8"?><svg id="Layer_1" xmlns="http://www.w3.org/2000/svg" viewBox="0 0 35.27 47.24"><defs><style>.cls-1{fill:#efad2b;}</style></defs><path class="cls-1" d="M20.47,13.08c-1.85,0-3.69.35-5.38,1.02L5.67,0v27.52c0,7.74,5.63,14.21,13.09,15.06.56.06,1.12.09,1.67.09,3.63,0,7.16-1.33,9.88-3.76,3.14-2.81,4.95-6.83,4.95-11.03,0-8.16-6.64-14.8-14.8-14.8ZM9.64,13.05l4.03,6.05,1.16-.53.5-.23c1.57-.85,3.35-1.3,5.14-1.3,5.97,0,10.83,4.86,10.83,10.83,0,3.03-1.28,5.95-3.52,7.99-2.27,2.08-5.22,3.07-8.31,2.8-5.52-.49-9.84-5.39-9.84-11.17v-14.45Z"/><path class="cls-1" d="M14.8,17.65c-1.85,0-3.69.35-5.38,1.02L0,4.57v27.52c0,7.74,5.63,14.22,13.09,15.06.56.06,1.12.09,1.67.09,3.63,0,7.16-1.33,9.88-3.76,3.14-2.81,4.95-6.83,4.95-11.03,0-8.16-6.64-14.8-14.8-14.8ZM3.96,17.62l4.03,6.05,1.16-.53.5-.23c1.57-.85,3.35-1.3,5.14-1.3,5.97,0,10.83,4.86,10.83,10.83,0,3.03-1.28,5.95-3.52,7.99-2.27,2.08-5.22,3.07-8.31,2.8-5.52-.49-9.84-5.39-9.84-11.17v-14.45Z"/></svg>