<?xml version="1.0" encoding="utf-8"?>
<!-- Generator: Adobe Illustrator 21.1.0, SVG Export Plug-In . SVG Version: 6.00 Build 0)  -->
<svg version="1.1" xmlns="http://www.w3.org/2000/svg" xmlns:xlink="http://www.w3.org/1999/xlink" x="0px" y="0px"
	 viewBox="0 0 642 623" style="enable-background:new 0 0 642 623;" xml:space="preserve">
<style type="text/css">
	.st0{fill:#FFFFFF;}
</style>
<g id="Layer_1">
	<title>Asset 1</title>
	<g>
		<path class="st0" d="M356.2,283.8c-8.8,0-14.7,6.1-17.3,17.8h32.5C372,291.6,366.9,283.8,356.2,283.8z"/>
		<path class="st0" d="M330.5,0C158.5,0,19,139.5,19,311.5c0,44.1,9.2,86,25.7,124c0,0,0,0,0,0c0,0,0,0,0,0c1.3-0.5,2.6-1.2,4.1-2
			c11.3-6,31.6-18.3,31.5-105.2c0-6.7,0-39.1,0-39.1H63.5v-10.7h16.8v-33.3c0-33.2,16.7-49.5,45.3-52.2
			c26.5-2.5,43.1,10.3,56.3,32.7c9.8,16.6-3.6,33.4-18.3,25.7c-17.6-9.1,8-50.1-34.6-47.9c-17.2,0.9-21.3,10-21.3,31.3v43.8h76.7
			v46.5c0,24.8,3,29.1,19.6,29.1v7.3h-67.3V354c16.6,0,19.6-4.2,19.6-29.1v-6.7c0-24.8-3-28.8-19.6-28.8h-28.9c0,4.5,0,10.9,0,20.1
			c0,49.5-0.8,93.6-38.3,127c-5.7,5.1-12,9.2-18.3,12.6c0,0,0,0,0,0c0,0,0,0,0,0C101.9,552.2,207.9,623,330.5,623
			c172,0,311.5-139.5,311.5-311.5C642,139.5,502.5,0,330.5,0z M292.8,310c-12.4,0-6.1-16.1-19.5-16.1c-6.8,0-14.9,6.4-14.9,26.1v5.1
			c0,24.4,2.9,28.5,19.3,28.5v7.1h-66.2v-7.1c16.4,0,19.3-4.2,19.3-28.5v-6.6c0-24.4-2.9-28.3-19.3-28.3h-2.2v-10.8h45.4
			c1.8,4.3,3,8.8,3.7,13.4c4.9-9.8,15.9-17.5,25.6-17.5c16.8,0,22,11.2,22,20C306,301.5,301.8,310,292.8,310z M357.1,361.7
			c-29.3,0-49.3-20.3-49.3-44.9c0-1.5,0-2.9,0.2-4.4c0.3-3.5,2.5-10.7,2.5-10.7c6.6-17.8,24.2-29.5,44.4-29.5
			c26.8,0,40.5,23.4,35.4,40.3h-53.2c-1.7,24.9,11,36.4,23.9,36.4c11,0,21.5-3.7,29-10.2l4.1,7.1
			C385.7,354.5,370.8,361.7,357.1,361.7z M472.1,221.7h-15.6c-12.5-0.1-15.1,9.2-15.1,29v30.2h24.4v10.7h-24.4v34.9
			c0,24.4,2.9,28.6,19.3,28.6v7.1h-66.1v-7.1c16.4,0,19.3-4.2,19.3-28.6v-34.9v-10.8v-19.8c0-33.2,14.4-49.5,43.5-49.5H519v115
			c0,24.4,2.9,28.6,19.3,28.6v7.1h-66.2v-7.1c16.4,0,19.3-4.2,19.3-28.6v-70.3C491.4,231.9,488.5,221.7,472.1,221.7z M612,302.9
			l-26.4,63.7c-11.2,27.3-32.2,92.6-68.3,93.5c-18.2,0.5-33-6.7-32.8-18.7c0.2-7.8,6.5-13.3,11.3-13.1c15.1,0.8,11.9,18.2,26.1,18.2
			c21.2,0,40.3-49.6,51-78.2l-27.6-61.8c-3.9-8.8-8.8-12.2-16.4-12.2h-2.3v-10.8h54v7.1c-10.2,0-12.2,3.2-8,12.2l14.2,31.7
			l13.4-31.7c3.7-8.8,2-12.2-7.3-12.2v-7.1h36.4v7.1C620.7,290.7,615.4,294.1,612,302.9z"/>
	</g>
	<path class="st0" d="M519,211.6v115"/>
	<path class="st0" d="M441.4,250.7v30.2"/>
	<path class="st0" d="M572.9,368.3l-27.6-61.8"/>
</g>
<g id="Layer_3">
	<path class="st0" d="M44.7,435.5c-8.5,3.7-12.9,2.1-24.5-1.3c-7.1-2-17.9,3.4-19.4,9.1c-3.5,13.1,4.9,17.9,18.3,16.8
		c5.9-0.5,18.8-4,32-11C48.8,444.7,46.7,440.1,44.7,435.5z"/>
</g>
</svg>
